%TF.GenerationSoftware,KiCad,Pcbnew,9.0.0*%
%TF.CreationDate,2026-03-16T18:05:17-04:00*%
%TF.ProjectId,ece49022-shelf,65636534-3930-4323-922d-7368656c662e,rev?*%
%TF.SameCoordinates,Original*%
%TF.FileFunction,Soldermask,Bot*%
%TF.FilePolarity,Negative*%
%FSLAX46Y46*%
G04 Gerber Fmt 4.6, Leading zero omitted, Abs format (unit mm)*
G04 Created by KiCad (PCBNEW 9.0.0) date 2026-03-16 18:05:17*
%MOMM*%
%LPD*%
G01*
G04 APERTURE LIST*
%ADD10R,1.700000X1.700000*%
%ADD11O,1.700000X1.700000*%
%ADD12C,2.700000*%
%ADD13O,1.800000X1.300000*%
%ADD14O,1.450000X1.050000*%
G04 APERTURE END LIST*
D10*
%TO.C,J3*%
X179520000Y-112000000D03*
D11*
X182060000Y-112000000D03*
X184600000Y-112000000D03*
X187140000Y-112000000D03*
%TD*%
D12*
%TO.C,H2*%
X194000000Y-71000000D03*
%TD*%
%TO.C,H3*%
X158000000Y-71000000D03*
%TD*%
D10*
%TO.C,J8*%
X190075000Y-106275000D03*
D11*
X190075000Y-103735000D03*
X192615000Y-106275000D03*
X192615000Y-103735000D03*
X195155000Y-106275000D03*
X195155000Y-103735000D03*
%TD*%
D10*
%TO.C,J2*%
X195080000Y-65000000D03*
D11*
X192540000Y-65000000D03*
X190000000Y-65000000D03*
X187460000Y-65000000D03*
X184920000Y-65000000D03*
X182380000Y-65000000D03*
X179840000Y-65000000D03*
X177300000Y-65000000D03*
X174760000Y-65000000D03*
X172220000Y-65000000D03*
X169680000Y-65000000D03*
X167140000Y-65000000D03*
X164600000Y-65000000D03*
X162060000Y-65000000D03*
X159520000Y-65000000D03*
X156980000Y-65000000D03*
%TD*%
D10*
%TO.C,J4*%
X156311600Y-80025000D03*
D11*
X156311600Y-82565000D03*
X156311600Y-85105000D03*
%TD*%
D10*
%TO.C,J7*%
X166275000Y-112000000D03*
D11*
X163735000Y-112000000D03*
%TD*%
D10*
%TO.C,J6*%
X170200000Y-112000000D03*
D11*
X172740000Y-112000000D03*
X175280000Y-112000000D03*
%TD*%
D12*
%TO.C,H1*%
X158000000Y-111600000D03*
%TD*%
D13*
%TO.C,J1*%
X195180000Y-82700000D03*
D14*
X192150000Y-82400000D03*
X192150000Y-77550000D03*
D13*
X195180000Y-77250000D03*
%TD*%
D12*
%TO.C,H4*%
X194000000Y-111600000D03*
%TD*%
D10*
%TO.C,J5*%
X190075000Y-99475000D03*
D11*
X190075000Y-96935000D03*
X192615000Y-99475000D03*
X192615000Y-96935000D03*
X195155000Y-99475000D03*
X195155000Y-96935000D03*
%TD*%
D10*
%TO.C,JP1*%
X189860000Y-87400000D03*
D11*
X192400000Y-87400000D03*
X194940000Y-87400000D03*
%TD*%
M02*
