M48
; DRILL file {KiCad 9.0.0} date 2026-03-16T18:05:31-0400
; FORMAT={-:-/ absolute / metric / decimal}
; #@! TF.CreationDate,2026-03-16T18:05:31-04:00
; #@! TF.GenerationSoftware,Kicad,Pcbnew,9.0.0
; #@! TF.FileFunction,Plated,1,4,PTH
FMAT,2
METRIC
; #@! TA.AperFunction,Plated,PTH,ViaDrill
T1C0.300
; #@! TA.AperFunction,Plated,PTH,ComponentDrill
T2C0.300
; #@! TA.AperFunction,Plated,PTH,ComponentDrill
T3C0.650
; #@! TA.AperFunction,Plated,PTH,ComponentDrill
T4C0.700
; #@! TA.AperFunction,Plated,PTH,ComponentDrill
T5C1.000
%
G90
G05
T1
X155.5Y-75.5
X155.5Y-77.5
X156.2Y-87.9
X156.2Y-89.0
X156.2Y-90.0
X157.0Y-87.9
X157.0Y-89.0
X157.0Y-90.0
X157.5Y-75.5
X157.5Y-77.5
X157.988Y-82.601
X158.708Y-84.426
X159.0Y-107.35
X159.5Y-75.5
X159.5Y-77.5
X159.5Y-106.4
X160.0Y-107.35
X160.1Y-80.35
X160.45Y-106.4
X161.0Y-107.35
X161.25Y-83.0
X161.45Y-106.4
X162.0Y-107.35
X162.4Y-106.4
X162.7Y-77.0
X162.92Y-75.5
X163.0Y-71.6
X163.0Y-73.4
X163.15Y-107.35
X163.2Y-83.0
X163.3Y-81.45
X164.19Y-77.275
X164.875Y-84.9
X165.2Y-71.625
X165.2Y-73.425
X165.225Y-75.5
X165.3Y-86.625
X165.4Y-69.2
X165.76Y-78.895
X165.798Y-84.902
X166.213Y-85.688
X166.45Y-86.65
X166.675Y-98.4
X166.7Y-105.7
X166.7Y-106.4
X166.7Y-107.1
X166.8Y-102.972
X167.0Y-85.0
X167.1Y-99.7
X167.2Y-71.625
X167.2Y-73.425
X167.2Y-74.5
X167.405Y-80.6
X167.488Y-98.4
X167.52Y-86.39
X167.55Y-87.05
X167.6Y-102.972
X167.6Y-107.2
X168.21Y-86.38
X168.23Y-87.04
X168.3Y-98.4
X168.598Y-85.55
X168.6Y-107.2
X168.8Y-106.426
X168.961Y-104.8
X168.961Y-105.461
X169.113Y-98.4
X169.123Y-85.048
X169.6Y-106.426
X169.6Y-107.2
X169.621Y-104.8
X169.621Y-105.461
X169.8Y-85.63
X170.028Y-98.4
X170.298Y-86.37
X170.473Y-80.628
X171.025Y-72.85
X171.4Y-92.6
X172.1Y-98.9
X172.1Y-100.75
X172.298Y-102.6
X172.7Y-87.3
X173.547Y-82.55
X173.55Y-84.85
X173.65Y-78.248
X173.65Y-72.385
X173.65Y-75.0
X174.049Y-87.7
X174.727Y-81.102
X175.2Y-93.4
X175.25Y-101.0
X175.25Y-103.0
X175.25Y-104.75
X175.25Y-108.25
X175.25Y-109.5
X175.61Y-87.12
X175.8Y-91.85
X176.009Y-96.391
X176.207Y-106.715
X176.3Y-73.8
X176.5Y-101.0
X176.5Y-103.0
X176.5Y-104.75
X176.505Y-85.15
X176.6Y-108.25
X176.6Y-109.5
X177.0Y-87.0
X177.0Y-89.0
X177.25Y-83.66
X177.5Y-95.95
X178.08Y-81.3
X178.25Y-83.65
X178.725Y-81.275
X179.0Y-87.0
X179.0Y-89.0
X179.05Y-74.4
X179.05Y-75.5
X179.05Y-76.5
X179.5Y-72.3
X179.83Y-79.022
X180.0Y-74.4
X180.05Y-75.5
X180.05Y-76.5
X181.0Y-90.0
X183.0Y-85.4
X183.924Y-82.2
X184.2Y-79.3
X184.8Y-87.2
X185.2Y-79.3
X185.55Y-107.55
X185.55Y-108.8
X186.265Y-106.226
X186.3Y-79.3
X186.9Y-107.55
X186.9Y-108.8
X186.95Y-97.25
X187.0Y-87.2
X187.4Y-69.4
X187.565Y-104.126
X188.0Y-68.4
X188.2Y-107.55
X188.2Y-108.8
X188.23Y-71.1
X188.4Y-84.2
X190.775Y-78.025
X190.826Y-78.675
X191.4Y-94.05
X192.1Y-92.0
X192.175Y-74.925
X193.795Y-80.225
X193.815Y-79.495
X193.825Y-81.005
X193.835Y-78.755
X194.375Y-74.925
X196.0Y-89.8
X196.175Y-74.925
T2
X171.225Y-79.0
X171.225Y-80.375
X171.225Y-81.75
X172.6Y-79.0
X172.6Y-80.375
X172.6Y-81.75
X173.975Y-79.0
X173.975Y-80.375
X173.975Y-81.75
T5
X156.312Y-80.025
X156.312Y-82.565
X156.312Y-85.105
X156.98Y-65.0
X159.52Y-65.0
X162.06Y-65.0
X163.735Y-112.0
X164.6Y-65.0
X166.275Y-112.0
X167.14Y-65.0
X169.68Y-65.0
X170.2Y-112.0
X172.22Y-65.0
X172.74Y-112.0
X174.76Y-65.0
X175.28Y-112.0
X177.3Y-65.0
X179.52Y-112.0
X179.84Y-65.0
X182.06Y-112.0
X182.38Y-65.0
X184.6Y-112.0
X184.92Y-65.0
X187.14Y-112.0
X187.46Y-65.0
X189.86Y-87.4
X190.0Y-65.0
X190.075Y-96.935
X190.075Y-99.475
X190.075Y-103.735
X190.075Y-106.275
X192.4Y-87.4
X192.54Y-65.0
X192.615Y-96.935
X192.615Y-99.475
X192.615Y-103.735
X192.615Y-106.275
X194.94Y-87.4
X195.08Y-65.0
X195.155Y-96.935
X195.155Y-99.475
X195.155Y-103.735
X195.155Y-106.275
T3
X192.35Y-77.55G85X191.95Y-77.55
G05
X192.35Y-82.4G85X191.95Y-82.4
G05
T4
X195.43Y-77.25G85X194.93Y-77.25
G05
X195.43Y-82.7G85X194.93Y-82.7
G05
M30
