%TF.GenerationSoftware,KiCad,Pcbnew,9.0.0*%
%TF.CreationDate,2026-03-16T18:05:16-04:00*%
%TF.ProjectId,ece49022-shelf,65636534-3930-4323-922d-7368656c662e,rev?*%
%TF.SameCoordinates,Original*%
%TF.FileFunction,Copper,L4,Bot*%
%TF.FilePolarity,Positive*%
%FSLAX46Y46*%
G04 Gerber Fmt 4.6, Leading zero omitted, Abs format (unit mm)*
G04 Created by KiCad (PCBNEW 9.0.0) date 2026-03-16 18:05:16*
%MOMM*%
%LPD*%
G01*
G04 APERTURE LIST*
%TA.AperFunction,ComponentPad*%
%ADD10R,1.700000X1.700000*%
%TD*%
%TA.AperFunction,ComponentPad*%
%ADD11O,1.700000X1.700000*%
%TD*%
%TA.AperFunction,ComponentPad*%
%ADD12O,1.800000X1.300000*%
%TD*%
%TA.AperFunction,ComponentPad*%
%ADD13O,1.450000X1.050000*%
%TD*%
%TA.AperFunction,ComponentPad*%
%ADD14C,0.600000*%
%TD*%
%TA.AperFunction,ViaPad*%
%ADD15C,0.600000*%
%TD*%
%TA.AperFunction,Conductor*%
%ADD16C,0.500000*%
%TD*%
%TA.AperFunction,Conductor*%
%ADD17C,0.200000*%
%TD*%
%TA.AperFunction,Conductor*%
%ADD18C,0.150000*%
%TD*%
%TA.AperFunction,Conductor*%
%ADD19C,0.250000*%
%TD*%
G04 APERTURE END LIST*
D10*
%TO.P,J3,1,Pin_1*%
%TO.N,AVDD*%
X179520000Y-112000000D03*
D11*
%TO.P,J3,2,Pin_2*%
%TO.N,GND*%
X182060000Y-112000000D03*
%TO.P,J3,3,Pin_3*%
%TO.N,/LOAD_CELL_P*%
X184600000Y-112000000D03*
%TO.P,J3,4,Pin_4*%
%TO.N,/LOAD_CELL_N*%
X187140000Y-112000000D03*
%TD*%
D10*
%TO.P,J8,1,Pin_1*%
%TO.N,GND*%
X190075000Y-106275000D03*
D11*
%TO.P,J8,2,Pin_2*%
X190075000Y-103735000D03*
%TO.P,J8,3,Pin_3*%
X192615000Y-106275000D03*
%TO.P,J8,4,Pin_4*%
X192615000Y-103735000D03*
%TO.P,J8,5,Pin_5*%
X195155000Y-106275000D03*
%TO.P,J8,6,Pin_6*%
X195155000Y-103735000D03*
%TD*%
D10*
%TO.P,J2,1,Pin_1*%
%TO.N,GND*%
X195080000Y-65000000D03*
D11*
%TO.P,J2,2,Pin_2*%
%TO.N,+5V*%
X192540000Y-65000000D03*
%TO.P,J2,3,Pin_3*%
%TO.N,/LCD_VO*%
X190000000Y-65000000D03*
%TO.P,J2,4,Pin_4*%
%TO.N,/LCD_RS{slash}DI*%
X187460000Y-65000000D03*
%TO.P,J2,5,Pin_5*%
%TO.N,/LCD_R_W*%
X184920000Y-65000000D03*
%TO.P,J2,6,Pin_6*%
%TO.N,/LCD_E*%
X182380000Y-65000000D03*
%TO.P,J2,7,Pin_7*%
%TO.N,/LCD_DB0*%
X179840000Y-65000000D03*
%TO.P,J2,8,Pin_8*%
%TO.N,/LCD_DB1*%
X177300000Y-65000000D03*
%TO.P,J2,9,Pin_9*%
%TO.N,/LCD_DB2*%
X174760000Y-65000000D03*
%TO.P,J2,10,Pin_10*%
%TO.N,/LCD_DB3*%
X172220000Y-65000000D03*
%TO.P,J2,11,Pin_11*%
%TO.N,/LCD_DB4*%
X169680000Y-65000000D03*
%TO.P,J2,12,Pin_12*%
%TO.N,/LCD_DB5*%
X167140000Y-65000000D03*
%TO.P,J2,13,Pin_13*%
%TO.N,/LCD_DB6*%
X164600000Y-65000000D03*
%TO.P,J2,14,Pin_14*%
%TO.N,/LCD_DB7*%
X162060000Y-65000000D03*
%TO.P,J2,15,Pin_15*%
%TO.N,/LCD_A*%
X159520000Y-65000000D03*
%TO.P,J2,16,Pin_16*%
%TO.N,GND*%
X156980000Y-65000000D03*
%TD*%
D10*
%TO.P,J4,1,Pin_1*%
%TO.N,/RP2350A/SWCLK*%
X156311600Y-80025000D03*
D11*
%TO.P,J4,2,Pin_2*%
%TO.N,GND*%
X156311600Y-82565000D03*
%TO.P,J4,3,Pin_3*%
%TO.N,/RP2350A/SWD*%
X156311600Y-85105000D03*
%TD*%
D10*
%TO.P,J7,1,Pin_1*%
%TO.N,Net-(D2-A)*%
X166275000Y-112000000D03*
D11*
%TO.P,J7,2,Pin_2*%
%TO.N,GND*%
X163735000Y-112000000D03*
%TD*%
D10*
%TO.P,J6,1,Pin_1*%
%TO.N,/MAIN_MCU_I2C_SDA*%
X170200000Y-112000000D03*
D11*
%TO.P,J6,2,Pin_2*%
%TO.N,/MAIN_MCU_I2C_SCL*%
X172740000Y-112000000D03*
%TO.P,J6,3,Pin_3*%
%TO.N,GND*%
X175280000Y-112000000D03*
%TD*%
D12*
%TO.P,J1,6,Shield*%
%TO.N,GND*%
X195180000Y-82700000D03*
D13*
X192150000Y-82400000D03*
X192150000Y-77550000D03*
D12*
X195180000Y-77250000D03*
%TD*%
D10*
%TO.P,J5,1,Pin_1*%
%TO.N,/GPIO_AUX_18*%
X190075000Y-99475000D03*
D11*
%TO.P,J5,2,Pin_2*%
%TO.N,/GPIO_AUX_19*%
X190075000Y-96935000D03*
%TO.P,J5,3,Pin_3*%
%TO.N,/GPIO_AUX_17*%
X192615000Y-99475000D03*
%TO.P,J5,4,Pin_4*%
%TO.N,/GPIO_AUX_20*%
X192615000Y-96935000D03*
%TO.P,J5,5,Pin_5*%
%TO.N,/GPIO_AUX_16*%
X195155000Y-99475000D03*
%TO.P,J5,6,Pin_6*%
%TO.N,/LED*%
X195155000Y-96935000D03*
%TD*%
D10*
%TO.P,JP1,1,A*%
%TO.N,/5V_USB*%
X189860000Y-87400000D03*
D11*
%TO.P,JP1,2,C*%
%TO.N,+5V*%
X192400000Y-87400000D03*
%TO.P,JP1,3,B*%
%TO.N,/Power/5V_SREG*%
X194940000Y-87400000D03*
%TD*%
D14*
%TO.P,U5,61,GND*%
%TO.N,GND*%
X173975000Y-79000000D03*
X172600000Y-79000000D03*
X171225000Y-79000000D03*
X173975000Y-80375000D03*
X172600000Y-80375000D03*
X171225000Y-80375000D03*
X173975000Y-81750000D03*
X172600000Y-81750000D03*
X171225000Y-81750000D03*
%TD*%
D15*
%TO.N,GND*%
X176300000Y-73800000D03*
X179000000Y-87000000D03*
X175250000Y-103000000D03*
X155500000Y-75500000D03*
X177250000Y-83660000D03*
X196000000Y-89800000D03*
X156200000Y-90000000D03*
X190775400Y-78024600D03*
X188230000Y-71100000D03*
X170027600Y-98399600D03*
X168300400Y-98399600D03*
X168210000Y-86380000D03*
X166450000Y-86650000D03*
X187565000Y-104125750D03*
X161250000Y-83000000D03*
X186900000Y-108800000D03*
X165300000Y-86625000D03*
X185550000Y-108800000D03*
X167200000Y-71625000D03*
X157988000Y-82600800D03*
X184800000Y-87200000D03*
X179500000Y-72300000D03*
X163300000Y-81450000D03*
X164875000Y-84900000D03*
X179050000Y-75500000D03*
X167487600Y-98399600D03*
X175250000Y-108250000D03*
X156200000Y-87900000D03*
X172298000Y-102600000D03*
X174048781Y-87700000D03*
X179000000Y-89000000D03*
X180000000Y-74400000D03*
X167100000Y-99700000D03*
X176206750Y-106714625D03*
X163200000Y-83000000D03*
X159000000Y-107350000D03*
X193835400Y-78754600D03*
X176500000Y-103000000D03*
X173650000Y-72385000D03*
X184200000Y-79300000D03*
X186900000Y-107550000D03*
X169113200Y-98399600D03*
X162000000Y-107350000D03*
X157500000Y-77500000D03*
X169600000Y-107200000D03*
X185200000Y-79300000D03*
X158708342Y-84426226D03*
X157500000Y-75500000D03*
X167600000Y-107200000D03*
X180050000Y-75500000D03*
X175250000Y-104750000D03*
X165200000Y-71625000D03*
X166700000Y-106400000D03*
X157000000Y-90000000D03*
X168800000Y-106426000D03*
X164190000Y-77275000D03*
X196175400Y-74924600D03*
X172700000Y-87300000D03*
X175610000Y-87120000D03*
X155500000Y-77500000D03*
X193815400Y-79494600D03*
X178250000Y-83650000D03*
X165225000Y-75500000D03*
X183923600Y-82200000D03*
X176600000Y-108250000D03*
X186265000Y-106225750D03*
X188200000Y-108800000D03*
X156200000Y-89000000D03*
X179830000Y-79022000D03*
X186300000Y-79300000D03*
X176008750Y-96391250D03*
X167200000Y-74500000D03*
X177000000Y-87000000D03*
X176505000Y-85150000D03*
X180050000Y-76500000D03*
X159500000Y-77500000D03*
X181000000Y-90000000D03*
X160000000Y-107350000D03*
X163150000Y-107350000D03*
X179050000Y-76500000D03*
X165760000Y-78895000D03*
X176500000Y-104750000D03*
X194375400Y-74924600D03*
X176500000Y-101000000D03*
X167550000Y-87050000D03*
X190825800Y-78675000D03*
X163000000Y-73400000D03*
X157000000Y-87900000D03*
X165200000Y-73425000D03*
X166700000Y-107100000D03*
X186950000Y-97250000D03*
X193825400Y-81004600D03*
X167200000Y-73425000D03*
X177500000Y-95950000D03*
X177000000Y-89000000D03*
X185550000Y-107550000D03*
X167520000Y-86390000D03*
X192175400Y-74924600D03*
X175250000Y-101000000D03*
X193795400Y-80224600D03*
X168230000Y-87040000D03*
X157000000Y-89000000D03*
X176600000Y-109500000D03*
X168600000Y-107200000D03*
X168598000Y-85550000D03*
X166700000Y-105700000D03*
X188200000Y-107550000D03*
X175250000Y-109500000D03*
X192100000Y-92000000D03*
X179050000Y-74400000D03*
X169600000Y-106426000D03*
X160100000Y-80350000D03*
X162920000Y-75500000D03*
X171025000Y-72850000D03*
X166674800Y-98399600D03*
X163000000Y-71600000D03*
X159500000Y-75500000D03*
X161000000Y-107350000D03*
X162700000Y-77000000D03*
%TO.N,Net-(U2-SW)*%
X161450000Y-106400000D03*
X168960800Y-105460800D03*
X160450000Y-106400000D03*
X167600000Y-102971600D03*
X169621200Y-104800400D03*
X162400000Y-106400000D03*
X169621200Y-105460800D03*
X168960800Y-104800400D03*
X159500000Y-106400000D03*
X166800000Y-102971600D03*
%TO.N,+5V*%
X183000000Y-85400000D03*
X165400000Y-69200000D03*
X188000000Y-68400000D03*
%TO.N,/Power/FB*%
X172100000Y-98900000D03*
X172100000Y-100750000D03*
%TO.N,+1V1*%
X173546985Y-82550000D03*
X173650000Y-75000000D03*
X178725000Y-81275000D03*
X170473000Y-80628132D03*
X167405000Y-80600000D03*
X173550000Y-84850000D03*
X178080000Y-81300000D03*
X174727000Y-81101505D03*
X173649875Y-78248000D03*
%TO.N,/LOAD_CELL_I2C_SCL*%
X175200000Y-93400000D03*
X175800000Y-91850000D03*
%TO.N,/LCD_VO*%
X188400000Y-84200000D03*
%TO.N,/RP2350A/~{USB_BOOT}*%
X187400000Y-69400000D03*
X187000000Y-87200000D03*
%TO.N,/GPIO_AUX_19*%
X169123453Y-85047575D03*
%TO.N,/GPIO_AUX_20*%
X169800000Y-85630000D03*
%TO.N,/GPIO_AUX_16*%
X165798000Y-84902000D03*
%TO.N,/GPIO_AUX_17*%
X166213500Y-85688500D03*
%TO.N,/GPIO_AUX_18*%
X167000000Y-85000000D03*
%TO.N,/Power/5V_SREG*%
X171400000Y-92600000D03*
%TO.N,/RP2350A/GPIO21*%
X170298000Y-86370000D03*
X191400000Y-94050000D03*
%TD*%
D16*
%TO.N,+5V*%
X182600000Y-89700000D02*
X191500000Y-89700000D01*
X181200000Y-84200000D02*
X181200000Y-88300000D01*
X192400000Y-88800000D02*
X192400000Y-87400000D01*
X166200000Y-68400000D02*
X165400000Y-69200000D01*
X181200000Y-84200000D02*
X182500000Y-84200000D01*
X191500000Y-89700000D02*
X192400000Y-88800000D01*
X183000000Y-84700000D02*
X183000000Y-85400000D01*
X188000000Y-68400000D02*
X166200000Y-68400000D01*
X181200000Y-88300000D02*
X182600000Y-89700000D01*
X181200000Y-68400000D02*
X181200000Y-84200000D01*
X182500000Y-84200000D02*
X183000000Y-84700000D01*
D17*
%TO.N,/Power/FB*%
X172100000Y-100750000D02*
X172100000Y-98900000D01*
D16*
%TO.N,+1V1*%
X174801505Y-81101505D02*
X175000000Y-81300000D01*
X175000000Y-81300000D02*
X178700000Y-81300000D01*
X178700000Y-81300000D02*
X178725000Y-81275000D01*
X173649875Y-77512253D02*
X173650000Y-77512128D01*
X173649875Y-78248000D02*
X173649875Y-77512253D01*
X174727000Y-81101505D02*
X174801505Y-81101505D01*
X173550000Y-84150000D02*
X173550000Y-84850000D01*
X170444868Y-80600000D02*
X167405000Y-80600000D01*
X173650000Y-77512128D02*
X173650000Y-75000000D01*
X173546985Y-82550000D02*
X173546985Y-84146985D01*
X170473000Y-80628132D02*
X170444868Y-80600000D01*
X173546985Y-84146985D02*
X173550000Y-84150000D01*
D18*
%TO.N,/LOAD_CELL_I2C_SCL*%
X175800000Y-91850000D02*
X175200000Y-92450000D01*
X175200000Y-92450000D02*
X175200000Y-93400000D01*
D16*
%TO.N,/LCD_VO*%
X189500000Y-83100000D02*
X189500000Y-65500000D01*
X188400000Y-84200000D02*
X189500000Y-83100000D01*
X189500000Y-65500000D02*
X190000000Y-65000000D01*
D18*
%TO.N,/RP2350A/~{USB_BOOT}*%
X187400000Y-86800000D02*
X187400000Y-69400000D01*
X187000000Y-87200000D02*
X187400000Y-86800000D01*
%TO.N,/GPIO_AUX_19*%
X169123453Y-85047575D02*
X169123453Y-93723453D01*
X169123453Y-93723453D02*
X170650000Y-95250000D01*
X170650000Y-95250000D02*
X188390000Y-95250000D01*
X188390000Y-95250000D02*
X190075000Y-96935000D01*
%TO.N,/GPIO_AUX_20*%
X169640000Y-85790000D02*
X169640000Y-93390000D01*
X170900000Y-94650000D02*
X190330000Y-94650000D01*
X169640000Y-93390000D02*
X170900000Y-94650000D01*
X169800000Y-85630000D02*
X169640000Y-85790000D01*
X190330000Y-94650000D02*
X192615000Y-96935000D01*
%TO.N,/GPIO_AUX_16*%
X169796296Y-97796296D02*
X173396296Y-97796296D01*
X186000000Y-100100000D02*
X187400000Y-101500000D01*
X175700000Y-100100000D02*
X186000000Y-100100000D01*
X193130000Y-101500000D02*
X195155000Y-99475000D01*
X173396296Y-97796296D02*
X175700000Y-100100000D01*
X187400000Y-101500000D02*
X193130000Y-101500000D01*
X164750000Y-85950000D02*
X164750000Y-92750000D01*
X165798000Y-84902000D02*
X164750000Y-85950000D01*
X164750000Y-92750000D02*
X169796296Y-97796296D01*
%TO.N,/GPIO_AUX_17*%
X170200000Y-97000000D02*
X173600000Y-97000000D01*
X191290000Y-100800000D02*
X192615000Y-99475000D01*
X165875000Y-86027000D02*
X165875000Y-92675000D01*
X186850000Y-99350000D02*
X188300000Y-100800000D01*
X165875000Y-92675000D02*
X170200000Y-97000000D01*
X188300000Y-100800000D02*
X191290000Y-100800000D01*
X173600000Y-97000000D02*
X175950000Y-99350000D01*
X166213500Y-85688500D02*
X165875000Y-86027000D01*
X175950000Y-99350000D02*
X186850000Y-99350000D01*
%TO.N,/GPIO_AUX_18*%
X167000000Y-85000000D02*
X167000000Y-92600000D01*
X167000000Y-92600000D02*
X170400000Y-96000000D01*
X173500000Y-96000000D02*
X175800000Y-98300000D01*
X188900000Y-98300000D02*
X190075000Y-99475000D01*
X170400000Y-96000000D02*
X173500000Y-96000000D01*
X175800000Y-98300000D02*
X188900000Y-98300000D01*
D16*
%TO.N,/Power/5V_SREG*%
X194940000Y-89360000D02*
X194940000Y-87400000D01*
X193200000Y-91100000D02*
X194940000Y-89360000D01*
X172900000Y-91100000D02*
X193200000Y-91100000D01*
X171400000Y-92600000D02*
X172900000Y-91100000D01*
D19*
%TO.N,/RP2350A/GPIO21*%
X170298000Y-92948000D02*
X170298000Y-86370000D01*
X191400000Y-94075000D02*
X171425000Y-94075000D01*
X171425000Y-94075000D02*
X170298000Y-92948000D01*
X191400000Y-94050000D02*
X191400000Y-94075000D01*
%TD*%
%TA.AperFunction,Conductor*%
%TO.N,GND*%
G36*
X165712408Y-85481858D02*
G01*
X165734082Y-85534184D01*
X165731561Y-85553336D01*
X165713000Y-85622608D01*
X165713000Y-85754393D01*
X165713471Y-85757972D01*
X165698811Y-85812679D01*
X165692430Y-85819954D01*
X165641444Y-85870940D01*
X165641442Y-85870943D01*
X165599500Y-85972200D01*
X165599500Y-92729800D01*
X165634878Y-92815210D01*
X165641442Y-92831056D01*
X165641445Y-92831060D01*
X166684059Y-93873674D01*
X166705733Y-93926000D01*
X166684059Y-93978326D01*
X166631733Y-94000000D01*
X166420268Y-94000000D01*
X166367942Y-93978326D01*
X165047174Y-92657558D01*
X165025500Y-92605232D01*
X165025500Y-86094767D01*
X165047174Y-86042441D01*
X165314961Y-85774654D01*
X165607757Y-85481857D01*
X165660082Y-85460184D01*
X165712408Y-85481858D01*
G37*
%TD.AperFunction*%
%TA.AperFunction,Conductor*%
G36*
X166702826Y-86011640D02*
G01*
X166724500Y-86063966D01*
X166724500Y-92654800D01*
X166755567Y-92729800D01*
X166757840Y-92735288D01*
X166757840Y-92735289D01*
X166766441Y-92756055D01*
X166766444Y-92756059D01*
X167884059Y-93873674D01*
X167905733Y-93926000D01*
X167884059Y-93978326D01*
X167831733Y-94000000D01*
X167620268Y-94000000D01*
X167567942Y-93978326D01*
X166172174Y-92582558D01*
X166150500Y-92530232D01*
X166150500Y-86263000D01*
X166172174Y-86210674D01*
X166224500Y-86189000D01*
X166279394Y-86189000D01*
X166279394Y-86188999D01*
X166406686Y-86154892D01*
X166520814Y-86089000D01*
X166598174Y-86011640D01*
X166650500Y-85989966D01*
X166702826Y-86011640D01*
G37*
%TD.AperFunction*%
%TA.AperFunction,Conductor*%
G36*
X192149075Y-106082007D02*
G01*
X192115000Y-106209174D01*
X192115000Y-106340826D01*
X192149075Y-106467993D01*
X192181988Y-106525000D01*
X190508012Y-106525000D01*
X190540925Y-106467993D01*
X190575000Y-106340826D01*
X190575000Y-106209174D01*
X190540925Y-106082007D01*
X190508012Y-106025000D01*
X192181988Y-106025000D01*
X192149075Y-106082007D01*
G37*
%TD.AperFunction*%
%TA.AperFunction,Conductor*%
G36*
X194689075Y-106082007D02*
G01*
X194655000Y-106209174D01*
X194655000Y-106340826D01*
X194689075Y-106467993D01*
X194721988Y-106525000D01*
X193048012Y-106525000D01*
X193080925Y-106467993D01*
X193115000Y-106340826D01*
X193115000Y-106209174D01*
X193080925Y-106082007D01*
X193048012Y-106025000D01*
X194721988Y-106025000D01*
X194689075Y-106082007D01*
G37*
%TD.AperFunction*%
%TA.AperFunction,Conductor*%
G36*
X190325000Y-105841988D02*
G01*
X190267993Y-105809075D01*
X190140826Y-105775000D01*
X190009174Y-105775000D01*
X189882007Y-105809075D01*
X189825000Y-105841988D01*
X189825000Y-104168012D01*
X189882007Y-104200925D01*
X190009174Y-104235000D01*
X190140826Y-104235000D01*
X190267993Y-104200925D01*
X190325000Y-104168012D01*
X190325000Y-105841988D01*
G37*
%TD.AperFunction*%
%TA.AperFunction,Conductor*%
G36*
X192865000Y-105841988D02*
G01*
X192807993Y-105809075D01*
X192680826Y-105775000D01*
X192549174Y-105775000D01*
X192422007Y-105809075D01*
X192365000Y-105841988D01*
X192365000Y-104168012D01*
X192422007Y-104200925D01*
X192549174Y-104235000D01*
X192680826Y-104235000D01*
X192807993Y-104200925D01*
X192865000Y-104168012D01*
X192865000Y-105841988D01*
G37*
%TD.AperFunction*%
%TA.AperFunction,Conductor*%
G36*
X195405000Y-105841988D02*
G01*
X195347993Y-105809075D01*
X195220826Y-105775000D01*
X195089174Y-105775000D01*
X194962007Y-105809075D01*
X194905000Y-105841988D01*
X194905000Y-104168012D01*
X194962007Y-104200925D01*
X195089174Y-104235000D01*
X195220826Y-104235000D01*
X195347993Y-104200925D01*
X195405000Y-104168012D01*
X195405000Y-105841988D01*
G37*
%TD.AperFunction*%
%TA.AperFunction,Conductor*%
G36*
X192149075Y-103542007D02*
G01*
X192115000Y-103669174D01*
X192115000Y-103800826D01*
X192149075Y-103927993D01*
X192181988Y-103985000D01*
X190508012Y-103985000D01*
X190540925Y-103927993D01*
X190575000Y-103800826D01*
X190575000Y-103669174D01*
X190540925Y-103542007D01*
X190508012Y-103485000D01*
X192181988Y-103485000D01*
X192149075Y-103542007D01*
G37*
%TD.AperFunction*%
%TA.AperFunction,Conductor*%
G36*
X194689075Y-103542007D02*
G01*
X194655000Y-103669174D01*
X194655000Y-103800826D01*
X194689075Y-103927993D01*
X194721988Y-103985000D01*
X193048012Y-103985000D01*
X193080925Y-103927993D01*
X193115000Y-103800826D01*
X193115000Y-103669174D01*
X193080925Y-103542007D01*
X193048012Y-103485000D01*
X194721988Y-103485000D01*
X194689075Y-103542007D01*
G37*
%TD.AperFunction*%
%TA.AperFunction,Conductor*%
G36*
X197777826Y-62522174D02*
G01*
X197799500Y-62574500D01*
X197799500Y-115425500D01*
X197777826Y-115477826D01*
X197725500Y-115499500D01*
X154274500Y-115499500D01*
X154222174Y-115477826D01*
X154200500Y-115425500D01*
X154200500Y-111477971D01*
X156449500Y-111477971D01*
X156449500Y-111722028D01*
X156487678Y-111963073D01*
X156487681Y-111963086D01*
X156563093Y-112195179D01*
X156673893Y-112412639D01*
X156817341Y-112610078D01*
X156817345Y-112610083D01*
X156989917Y-112782655D01*
X156989920Y-112782657D01*
X156989921Y-112782658D01*
X157187360Y-112926106D01*
X157292171Y-112979509D01*
X157404815Y-113036904D01*
X157404817Y-113036904D01*
X157404820Y-113036906D01*
X157636913Y-113112318D01*
X157636919Y-113112319D01*
X157636924Y-113112321D01*
X157757448Y-113131410D01*
X157877971Y-113150500D01*
X157877973Y-113150500D01*
X158122029Y-113150500D01*
X158218446Y-113135228D01*
X158363076Y-113112321D01*
X158363083Y-113112318D01*
X158363086Y-113112318D01*
X158595179Y-113036906D01*
X158595179Y-113036905D01*
X158595185Y-113036904D01*
X158812639Y-112926106D01*
X159010083Y-112782655D01*
X159182655Y-112610083D01*
X159326106Y-112412639D01*
X159436904Y-112195185D01*
X159512321Y-111963076D01*
X159544400Y-111760541D01*
X159546070Y-111750000D01*
X162407769Y-111750000D01*
X163301988Y-111750000D01*
X163269075Y-111807007D01*
X163235000Y-111934174D01*
X163235000Y-112065826D01*
X163269075Y-112192993D01*
X163301988Y-112250000D01*
X162407769Y-112250000D01*
X162418241Y-112316122D01*
X162418244Y-112316136D01*
X162483904Y-112518217D01*
X162483906Y-112518221D01*
X162580375Y-112707550D01*
X162580378Y-112707556D01*
X162705274Y-112879461D01*
X162705283Y-112879471D01*
X162855529Y-113029717D01*
X162855538Y-113029725D01*
X163027443Y-113154621D01*
X163027449Y-113154624D01*
X163216778Y-113251093D01*
X163216782Y-113251095D01*
X163418863Y-113316755D01*
X163418877Y-113316758D01*
X163485000Y-113327230D01*
X163485000Y-112433012D01*
X163542007Y-112465925D01*
X163669174Y-112500000D01*
X163800826Y-112500000D01*
X163927993Y-112465925D01*
X163985000Y-112433012D01*
X163985000Y-113327229D01*
X164051122Y-113316758D01*
X164051136Y-113316755D01*
X164253217Y-113251095D01*
X164253221Y-113251093D01*
X164442550Y-113154624D01*
X164442556Y-113154621D01*
X164614461Y-113029725D01*
X164614471Y-113029717D01*
X164764717Y-112879471D01*
X164764725Y-112879461D01*
X164889621Y-112707556D01*
X164889624Y-112707550D01*
X164986093Y-112518221D01*
X164986095Y-112518217D01*
X165051755Y-112316136D01*
X165051758Y-112316123D01*
X165077411Y-112154162D01*
X165107004Y-112105871D01*
X165162076Y-112092649D01*
X165210367Y-112122242D01*
X165224500Y-112165738D01*
X165224500Y-112869746D01*
X165236133Y-112928232D01*
X165265608Y-112972343D01*
X165280448Y-112994552D01*
X165324560Y-113024027D01*
X165346767Y-113038866D01*
X165346768Y-113038866D01*
X165346769Y-113038867D01*
X165405252Y-113050500D01*
X165405254Y-113050500D01*
X167144746Y-113050500D01*
X167144748Y-113050500D01*
X167203231Y-113038867D01*
X167269552Y-112994552D01*
X167313867Y-112928231D01*
X167325500Y-112869748D01*
X167325500Y-111130253D01*
X169149500Y-111130253D01*
X169149500Y-112869746D01*
X169161133Y-112928232D01*
X169190608Y-112972343D01*
X169205448Y-112994552D01*
X169249560Y-113024027D01*
X169271767Y-113038866D01*
X169271768Y-113038866D01*
X169271769Y-113038867D01*
X169330252Y-113050500D01*
X169330254Y-113050500D01*
X171069746Y-113050500D01*
X171069748Y-113050500D01*
X171128231Y-113038867D01*
X171194552Y-112994552D01*
X171238867Y-112928231D01*
X171250500Y-112869748D01*
X171250500Y-111896535D01*
X171689500Y-111896535D01*
X171689500Y-112103464D01*
X171729868Y-112306413D01*
X171729870Y-112306420D01*
X171809059Y-112497598D01*
X171884218Y-112610083D01*
X171924023Y-112669655D01*
X172070345Y-112815977D01*
X172242402Y-112930941D01*
X172433580Y-113010130D01*
X172636535Y-113050500D01*
X172636536Y-113050500D01*
X172843464Y-113050500D01*
X172843465Y-113050500D01*
X173046420Y-113010130D01*
X173237598Y-112930941D01*
X173409655Y-112815977D01*
X173555977Y-112669655D01*
X173670941Y-112497598D01*
X173750130Y-112306420D01*
X173787074Y-112120688D01*
X173818538Y-112073598D01*
X173874087Y-112062548D01*
X173921179Y-112094013D01*
X173932740Y-112123549D01*
X173963242Y-112316125D01*
X173963244Y-112316136D01*
X174028904Y-112518217D01*
X174028906Y-112518221D01*
X174125375Y-112707550D01*
X174125378Y-112707556D01*
X174250274Y-112879461D01*
X174250283Y-112879471D01*
X174400529Y-113029717D01*
X174400538Y-113029725D01*
X174572443Y-113154621D01*
X174572449Y-113154624D01*
X174761778Y-113251093D01*
X174761782Y-113251095D01*
X174963863Y-113316755D01*
X174963877Y-113316758D01*
X175030000Y-113327230D01*
X175030000Y-112433012D01*
X175087007Y-112465925D01*
X175214174Y-112500000D01*
X175345826Y-112500000D01*
X175472993Y-112465925D01*
X175530000Y-112433012D01*
X175530000Y-113327229D01*
X175596122Y-113316758D01*
X175596136Y-113316755D01*
X175798217Y-113251095D01*
X175798221Y-113251093D01*
X175987550Y-113154624D01*
X175987556Y-113154621D01*
X176159461Y-113029725D01*
X176159471Y-113029717D01*
X176309717Y-112879471D01*
X176309725Y-112879461D01*
X176434621Y-112707556D01*
X176434624Y-112707550D01*
X176531093Y-112518221D01*
X176531095Y-112518217D01*
X176596755Y-112316136D01*
X176596758Y-112316122D01*
X176607231Y-112250000D01*
X175713012Y-112250000D01*
X175745925Y-112192993D01*
X175780000Y-112065826D01*
X175780000Y-111934174D01*
X175745925Y-111807007D01*
X175713012Y-111750000D01*
X176607230Y-111750000D01*
X176596758Y-111683877D01*
X176596755Y-111683863D01*
X176531095Y-111481782D01*
X176531093Y-111481778D01*
X176434624Y-111292449D01*
X176434621Y-111292443D01*
X176345743Y-111170113D01*
X176316782Y-111130253D01*
X178469500Y-111130253D01*
X178469500Y-112869746D01*
X178481133Y-112928232D01*
X178510608Y-112972343D01*
X178525448Y-112994552D01*
X178569560Y-113024027D01*
X178591767Y-113038866D01*
X178591768Y-113038866D01*
X178591769Y-113038867D01*
X178650252Y-113050500D01*
X178650254Y-113050500D01*
X180389746Y-113050500D01*
X180389748Y-113050500D01*
X180448231Y-113038867D01*
X180514552Y-112994552D01*
X180558867Y-112928231D01*
X180570500Y-112869748D01*
X180570500Y-112165738D01*
X180592174Y-112113412D01*
X180644500Y-112091738D01*
X180696826Y-112113412D01*
X180717589Y-112154162D01*
X180743241Y-112316123D01*
X180743244Y-112316136D01*
X180808904Y-112518217D01*
X180808906Y-112518221D01*
X180905375Y-112707550D01*
X180905378Y-112707556D01*
X181030274Y-112879461D01*
X181030283Y-112879471D01*
X181180529Y-113029717D01*
X181180538Y-113029725D01*
X181352443Y-113154621D01*
X181352449Y-113154624D01*
X181541778Y-113251093D01*
X181541782Y-113251095D01*
X181743863Y-113316755D01*
X181743877Y-113316758D01*
X181810000Y-113327230D01*
X181810000Y-112433012D01*
X181867007Y-112465925D01*
X181994174Y-112500000D01*
X182125826Y-112500000D01*
X182252993Y-112465925D01*
X182310000Y-112433012D01*
X182310000Y-113327229D01*
X182376122Y-113316758D01*
X182376136Y-113316755D01*
X182578217Y-113251095D01*
X182578221Y-113251093D01*
X182767550Y-113154624D01*
X182767556Y-113154621D01*
X182939461Y-113029725D01*
X182939471Y-113029717D01*
X183089717Y-112879471D01*
X183089725Y-112879461D01*
X183214621Y-112707556D01*
X183214624Y-112707550D01*
X183311093Y-112518221D01*
X183311095Y-112518217D01*
X183376755Y-112316136D01*
X183376758Y-112316123D01*
X183407259Y-112123550D01*
X183436852Y-112075259D01*
X183491924Y-112062037D01*
X183540215Y-112091630D01*
X183552926Y-112120689D01*
X183589868Y-112306414D01*
X183589870Y-112306420D01*
X183669059Y-112497598D01*
X183744218Y-112610083D01*
X183784023Y-112669655D01*
X183930345Y-112815977D01*
X184102402Y-112930941D01*
X184293580Y-113010130D01*
X184496535Y-113050500D01*
X184496536Y-113050500D01*
X184703464Y-113050500D01*
X184703465Y-113050500D01*
X184906420Y-113010130D01*
X185097598Y-112930941D01*
X185269655Y-112815977D01*
X185415977Y-112669655D01*
X185530941Y-112497598D01*
X185610130Y-112306420D01*
X185650500Y-112103465D01*
X185650500Y-111896535D01*
X186089500Y-111896535D01*
X186089500Y-112103464D01*
X186129868Y-112306413D01*
X186129870Y-112306420D01*
X186209059Y-112497598D01*
X186284218Y-112610083D01*
X186324023Y-112669655D01*
X186470345Y-112815977D01*
X186642402Y-112930941D01*
X186833580Y-113010130D01*
X187036535Y-113050500D01*
X187036536Y-113050500D01*
X187243464Y-113050500D01*
X187243465Y-113050500D01*
X187446420Y-113010130D01*
X187637598Y-112930941D01*
X187809655Y-112815977D01*
X187955977Y-112669655D01*
X188070941Y-112497598D01*
X188150130Y-112306420D01*
X188190500Y-112103465D01*
X188190500Y-111896535D01*
X188150130Y-111693580D01*
X188094232Y-111558631D01*
X188071348Y-111503384D01*
X188071348Y-111503383D01*
X188070942Y-111502403D01*
X188054617Y-111477971D01*
X192449500Y-111477971D01*
X192449500Y-111722028D01*
X192487678Y-111963073D01*
X192487681Y-111963086D01*
X192563093Y-112195179D01*
X192673893Y-112412639D01*
X192817341Y-112610078D01*
X192817345Y-112610083D01*
X192989917Y-112782655D01*
X192989920Y-112782657D01*
X192989921Y-112782658D01*
X193187360Y-112926106D01*
X193292171Y-112979509D01*
X193404815Y-113036904D01*
X193404817Y-113036904D01*
X193404820Y-113036906D01*
X193636913Y-113112318D01*
X193636919Y-113112319D01*
X193636924Y-113112321D01*
X193757448Y-113131410D01*
X193877971Y-113150500D01*
X193877973Y-113150500D01*
X194122029Y-113150500D01*
X194218446Y-113135228D01*
X194363076Y-113112321D01*
X194363083Y-113112318D01*
X194363086Y-113112318D01*
X194595179Y-113036906D01*
X194595179Y-113036905D01*
X194595185Y-113036904D01*
X194812639Y-112926106D01*
X195010083Y-112782655D01*
X195182655Y-112610083D01*
X195326106Y-112412639D01*
X195436904Y-112195185D01*
X195470551Y-112091630D01*
X195512318Y-111963086D01*
X195512318Y-111963083D01*
X195512321Y-111963076D01*
X195544400Y-111760541D01*
X195550500Y-111722028D01*
X195550500Y-111477971D01*
X195527118Y-111330345D01*
X195512321Y-111236924D01*
X195512319Y-111236919D01*
X195512318Y-111236913D01*
X195436906Y-111004820D01*
X195436904Y-111004817D01*
X195436904Y-111004815D01*
X195355666Y-110845375D01*
X195326106Y-110787360D01*
X195182658Y-110589921D01*
X195182657Y-110589920D01*
X195182655Y-110589917D01*
X195010083Y-110417345D01*
X195010080Y-110417342D01*
X195010078Y-110417341D01*
X194812639Y-110273893D01*
X194595179Y-110163093D01*
X194363086Y-110087681D01*
X194363073Y-110087678D01*
X194122029Y-110049500D01*
X194122027Y-110049500D01*
X193877973Y-110049500D01*
X193877971Y-110049500D01*
X193636926Y-110087678D01*
X193636913Y-110087681D01*
X193404820Y-110163093D01*
X193187360Y-110273893D01*
X192989921Y-110417341D01*
X192817341Y-110589921D01*
X192673893Y-110787360D01*
X192563093Y-111004820D01*
X192487681Y-111236913D01*
X192487678Y-111236926D01*
X192449500Y-111477971D01*
X188054617Y-111477971D01*
X187955977Y-111330345D01*
X187809654Y-111184022D01*
X187637598Y-111069059D01*
X187446420Y-110989870D01*
X187446413Y-110989868D01*
X187293516Y-110959455D01*
X187243465Y-110949500D01*
X187036535Y-110949500D01*
X186996385Y-110957486D01*
X186833586Y-110989868D01*
X186833579Y-110989870D01*
X186642401Y-111069059D01*
X186470345Y-111184022D01*
X186470344Y-111184024D01*
X186324024Y-111330344D01*
X186324022Y-111330345D01*
X186209059Y-111502401D01*
X186129870Y-111693579D01*
X186129868Y-111693586D01*
X186089500Y-111896535D01*
X185650500Y-111896535D01*
X185610130Y-111693580D01*
X185530941Y-111502402D01*
X185415977Y-111330345D01*
X185269655Y-111184023D01*
X185248837Y-111170113D01*
X185097598Y-111069059D01*
X184906420Y-110989870D01*
X184906413Y-110989868D01*
X184753516Y-110959455D01*
X184703465Y-110949500D01*
X184496535Y-110949500D01*
X184456385Y-110957486D01*
X184293586Y-110989868D01*
X184293579Y-110989870D01*
X184102401Y-111069059D01*
X183930345Y-111184022D01*
X183930344Y-111184024D01*
X183784024Y-111330344D01*
X183784022Y-111330345D01*
X183669059Y-111502401D01*
X183589870Y-111693579D01*
X183589868Y-111693585D01*
X183552926Y-111879310D01*
X183521460Y-111926402D01*
X183465911Y-111937451D01*
X183418819Y-111905985D01*
X183407259Y-111876449D01*
X183376758Y-111683876D01*
X183376755Y-111683863D01*
X183311095Y-111481782D01*
X183311093Y-111481778D01*
X183214624Y-111292449D01*
X183214621Y-111292443D01*
X183089725Y-111120538D01*
X183089717Y-111120529D01*
X182939471Y-110970283D01*
X182939461Y-110970274D01*
X182767556Y-110845378D01*
X182767550Y-110845375D01*
X182578221Y-110748906D01*
X182578217Y-110748904D01*
X182376136Y-110683244D01*
X182376125Y-110683242D01*
X182310000Y-110672768D01*
X182310000Y-111566988D01*
X182252993Y-111534075D01*
X182125826Y-111500000D01*
X181994174Y-111500000D01*
X181867007Y-111534075D01*
X181810000Y-111566988D01*
X181810000Y-110672768D01*
X181743874Y-110683242D01*
X181743863Y-110683244D01*
X181541782Y-110748904D01*
X181541778Y-110748906D01*
X181352449Y-110845375D01*
X181352443Y-110845378D01*
X181180538Y-110970274D01*
X181030274Y-111120538D01*
X180905378Y-111292443D01*
X180905375Y-111292449D01*
X180808906Y-111481778D01*
X180808904Y-111481782D01*
X180743244Y-111683863D01*
X180743241Y-111683876D01*
X180717589Y-111845837D01*
X180687996Y-111894128D01*
X180632924Y-111907350D01*
X180584633Y-111877757D01*
X180570500Y-111834261D01*
X180570500Y-111130253D01*
X180570500Y-111130252D01*
X180558867Y-111071769D01*
X180557056Y-111069059D01*
X180544027Y-111049560D01*
X180514552Y-111005448D01*
X180461925Y-110970283D01*
X180448232Y-110961133D01*
X180448233Y-110961133D01*
X180418989Y-110955316D01*
X180389748Y-110949500D01*
X178650252Y-110949500D01*
X178621010Y-110955316D01*
X178591767Y-110961133D01*
X178525449Y-111005447D01*
X178525447Y-111005449D01*
X178481133Y-111071767D01*
X178469500Y-111130253D01*
X176316782Y-111130253D01*
X176309724Y-111120538D01*
X176309717Y-111120529D01*
X176159471Y-110970283D01*
X176159461Y-110970274D01*
X175987556Y-110845378D01*
X175987550Y-110845375D01*
X175798221Y-110748906D01*
X175798217Y-110748904D01*
X175596136Y-110683244D01*
X175596125Y-110683242D01*
X175530000Y-110672768D01*
X175530000Y-111566988D01*
X175472993Y-111534075D01*
X175345826Y-111500000D01*
X175214174Y-111500000D01*
X175087007Y-111534075D01*
X175030000Y-111566988D01*
X175030000Y-110672768D01*
X174963874Y-110683242D01*
X174963863Y-110683244D01*
X174761782Y-110748904D01*
X174761778Y-110748906D01*
X174572449Y-110845375D01*
X174572443Y-110845378D01*
X174400538Y-110970274D01*
X174250274Y-111120538D01*
X174125378Y-111292443D01*
X174125375Y-111292449D01*
X174028906Y-111481778D01*
X174028904Y-111481782D01*
X173963244Y-111683863D01*
X173963242Y-111683874D01*
X173932740Y-111876450D01*
X173903147Y-111924741D01*
X173848074Y-111937962D01*
X173799783Y-111908369D01*
X173787074Y-111879311D01*
X173750130Y-111693580D01*
X173670941Y-111502402D01*
X173555977Y-111330345D01*
X173409655Y-111184023D01*
X173388837Y-111170113D01*
X173237598Y-111069059D01*
X173046420Y-110989870D01*
X173046413Y-110989868D01*
X172893516Y-110959455D01*
X172843465Y-110949500D01*
X172636535Y-110949500D01*
X172596385Y-110957486D01*
X172433586Y-110989868D01*
X172433579Y-110989870D01*
X172242401Y-111069059D01*
X172070345Y-111184022D01*
X172070344Y-111184024D01*
X171924024Y-111330344D01*
X171924022Y-111330345D01*
X171809059Y-111502401D01*
X171729870Y-111693579D01*
X171729868Y-111693586D01*
X171689500Y-111896535D01*
X171250500Y-111896535D01*
X171250500Y-111130252D01*
X171238867Y-111071769D01*
X171237056Y-111069059D01*
X171224027Y-111049560D01*
X171194552Y-111005448D01*
X171141925Y-110970283D01*
X171128232Y-110961133D01*
X171128233Y-110961133D01*
X171098989Y-110955316D01*
X171069748Y-110949500D01*
X169330252Y-110949500D01*
X169301010Y-110955316D01*
X169271767Y-110961133D01*
X169205449Y-111005447D01*
X169205447Y-111005449D01*
X169161133Y-111071767D01*
X169149500Y-111130253D01*
X167325500Y-111130253D01*
X167325500Y-111130252D01*
X167313867Y-111071769D01*
X167312056Y-111069059D01*
X167299027Y-111049560D01*
X167269552Y-111005448D01*
X167216925Y-110970283D01*
X167203232Y-110961133D01*
X167203233Y-110961133D01*
X167173989Y-110955316D01*
X167144748Y-110949500D01*
X165405252Y-110949500D01*
X165376010Y-110955316D01*
X165346767Y-110961133D01*
X165280449Y-111005447D01*
X165280447Y-111005449D01*
X165236133Y-111071767D01*
X165224500Y-111130253D01*
X165224500Y-111834261D01*
X165202826Y-111886587D01*
X165150500Y-111908261D01*
X165098174Y-111886587D01*
X165077411Y-111845837D01*
X165051758Y-111683876D01*
X165051755Y-111683863D01*
X164986095Y-111481782D01*
X164986093Y-111481778D01*
X164889624Y-111292449D01*
X164889621Y-111292443D01*
X164764725Y-111120538D01*
X164764717Y-111120529D01*
X164614471Y-110970283D01*
X164614461Y-110970274D01*
X164442556Y-110845378D01*
X164442550Y-110845375D01*
X164253221Y-110748906D01*
X164253217Y-110748904D01*
X164051136Y-110683244D01*
X164051125Y-110683242D01*
X163985000Y-110672768D01*
X163985000Y-111566988D01*
X163927993Y-111534075D01*
X163800826Y-111500000D01*
X163669174Y-111500000D01*
X163542007Y-111534075D01*
X163485000Y-111566988D01*
X163485000Y-110672768D01*
X163418874Y-110683242D01*
X163418863Y-110683244D01*
X163216782Y-110748904D01*
X163216778Y-110748906D01*
X163027449Y-110845375D01*
X163027443Y-110845378D01*
X162855538Y-110970274D01*
X162705274Y-111120538D01*
X162580378Y-111292443D01*
X162580375Y-111292449D01*
X162483906Y-111481778D01*
X162483904Y-111481782D01*
X162418244Y-111683863D01*
X162418241Y-111683877D01*
X162407769Y-111750000D01*
X159546070Y-111750000D01*
X159550500Y-111722028D01*
X159550500Y-111477971D01*
X159527118Y-111330345D01*
X159512321Y-111236924D01*
X159512319Y-111236919D01*
X159512318Y-111236913D01*
X159436906Y-111004820D01*
X159436904Y-111004817D01*
X159436904Y-111004815D01*
X159355666Y-110845375D01*
X159326106Y-110787360D01*
X159182658Y-110589921D01*
X159182657Y-110589920D01*
X159182655Y-110589917D01*
X159010083Y-110417345D01*
X159010080Y-110417342D01*
X159010078Y-110417341D01*
X158812639Y-110273893D01*
X158595179Y-110163093D01*
X158363086Y-110087681D01*
X158363073Y-110087678D01*
X158122029Y-110049500D01*
X158122027Y-110049500D01*
X157877973Y-110049500D01*
X157877971Y-110049500D01*
X157636926Y-110087678D01*
X157636913Y-110087681D01*
X157404820Y-110163093D01*
X157187360Y-110273893D01*
X156989921Y-110417341D01*
X156817341Y-110589921D01*
X156673893Y-110787360D01*
X156563093Y-111004820D01*
X156487681Y-111236913D01*
X156487678Y-111236926D01*
X156449500Y-111477971D01*
X154200500Y-111477971D01*
X154200500Y-94000000D01*
X155800000Y-94000000D01*
X155800000Y-108000000D01*
X174000000Y-108000000D01*
X174000000Y-105377171D01*
X188725000Y-105377171D01*
X188725000Y-106025000D01*
X189641988Y-106025000D01*
X189609075Y-106082007D01*
X189575000Y-106209174D01*
X189575000Y-106340826D01*
X189609075Y-106467993D01*
X189641988Y-106525000D01*
X188725000Y-106525000D01*
X188725000Y-107172828D01*
X188731402Y-107232375D01*
X188731403Y-107232380D01*
X188781645Y-107367087D01*
X188781646Y-107367088D01*
X188867811Y-107482188D01*
X188982911Y-107568353D01*
X188982912Y-107568354D01*
X189117619Y-107618596D01*
X189117624Y-107618597D01*
X189177171Y-107625000D01*
X189825000Y-107625000D01*
X189825000Y-106708012D01*
X189882007Y-106740925D01*
X190009174Y-106775000D01*
X190140826Y-106775000D01*
X190267993Y-106740925D01*
X190325000Y-106708012D01*
X190325000Y-107625000D01*
X190972829Y-107625000D01*
X191032375Y-107618597D01*
X191032380Y-107618596D01*
X191167087Y-107568354D01*
X191167088Y-107568353D01*
X191282188Y-107482188D01*
X191368353Y-107367088D01*
X191368354Y-107367087D01*
X191418596Y-107232380D01*
X191418597Y-107232375D01*
X191425000Y-107172828D01*
X191425000Y-107161610D01*
X191446674Y-107109284D01*
X191499000Y-107087610D01*
X191551326Y-107109284D01*
X191558867Y-107118114D01*
X191585275Y-107154461D01*
X191585283Y-107154471D01*
X191735529Y-107304717D01*
X191735538Y-107304725D01*
X191907443Y-107429621D01*
X191907449Y-107429624D01*
X192096778Y-107526093D01*
X192096782Y-107526095D01*
X192298863Y-107591755D01*
X192298877Y-107591758D01*
X192365000Y-107602230D01*
X192365000Y-106708012D01*
X192422007Y-106740925D01*
X192549174Y-106775000D01*
X192680826Y-106775000D01*
X192807993Y-106740925D01*
X192865000Y-106708012D01*
X192865000Y-107602229D01*
X192931122Y-107591758D01*
X192931136Y-107591755D01*
X193133217Y-107526095D01*
X193133221Y-107526093D01*
X193322550Y-107429624D01*
X193322556Y-107429621D01*
X193494461Y-107304725D01*
X193494471Y-107304717D01*
X193644717Y-107154471D01*
X193644725Y-107154461D01*
X193769621Y-106982556D01*
X193769624Y-106982550D01*
X193819066Y-106885517D01*
X193862133Y-106848734D01*
X193918595Y-106853178D01*
X193950934Y-106885517D01*
X194000375Y-106982550D01*
X194000378Y-106982556D01*
X194125274Y-107154461D01*
X194125283Y-107154471D01*
X194275529Y-107304717D01*
X194275538Y-107304725D01*
X194447443Y-107429621D01*
X194447449Y-107429624D01*
X194636778Y-107526093D01*
X194636782Y-107526095D01*
X194838863Y-107591755D01*
X194838877Y-107591758D01*
X194905000Y-107602230D01*
X194905000Y-106708012D01*
X194962007Y-106740925D01*
X195089174Y-106775000D01*
X195220826Y-106775000D01*
X195347993Y-106740925D01*
X195405000Y-106708012D01*
X195405000Y-107602229D01*
X195471122Y-107591758D01*
X195471136Y-107591755D01*
X195673217Y-107526095D01*
X195673221Y-107526093D01*
X195862550Y-107429624D01*
X195862556Y-107429621D01*
X196034461Y-107304725D01*
X196034471Y-107304717D01*
X196184717Y-107154471D01*
X196184725Y-107154461D01*
X196309621Y-106982556D01*
X196309624Y-106982550D01*
X196406093Y-106793221D01*
X196406095Y-106793217D01*
X196471755Y-106591136D01*
X196471758Y-106591122D01*
X196482231Y-106525000D01*
X195588012Y-106525000D01*
X195620925Y-106467993D01*
X195655000Y-106340826D01*
X195655000Y-106209174D01*
X195620925Y-106082007D01*
X195588012Y-106025000D01*
X196482230Y-106025000D01*
X196471758Y-105958877D01*
X196471755Y-105958863D01*
X196406095Y-105756782D01*
X196406093Y-105756778D01*
X196309624Y-105567449D01*
X196309621Y-105567443D01*
X196184725Y-105395538D01*
X196184717Y-105395529D01*
X196034471Y-105245283D01*
X196034461Y-105245274D01*
X195862556Y-105120378D01*
X195862550Y-105120375D01*
X195765517Y-105070934D01*
X195728734Y-105027867D01*
X195733178Y-104971405D01*
X195765517Y-104939066D01*
X195862550Y-104889624D01*
X195862556Y-104889621D01*
X196034461Y-104764725D01*
X196034471Y-104764717D01*
X196184717Y-104614471D01*
X196184725Y-104614461D01*
X196309621Y-104442556D01*
X196309624Y-104442550D01*
X196406093Y-104253221D01*
X196406095Y-104253217D01*
X196471755Y-104051136D01*
X196471758Y-104051122D01*
X196482231Y-103985000D01*
X195588012Y-103985000D01*
X195620925Y-103927993D01*
X195655000Y-103800826D01*
X195655000Y-103669174D01*
X195620925Y-103542007D01*
X195588012Y-103485000D01*
X196482230Y-103485000D01*
X196471758Y-103418877D01*
X196471755Y-103418863D01*
X196406095Y-103216782D01*
X196406093Y-103216778D01*
X196309624Y-103027449D01*
X196309621Y-103027443D01*
X196184725Y-102855538D01*
X196184717Y-102855529D01*
X196034471Y-102705283D01*
X196034461Y-102705274D01*
X195862556Y-102580378D01*
X195862550Y-102580375D01*
X195673221Y-102483906D01*
X195673217Y-102483904D01*
X195471136Y-102418244D01*
X195471125Y-102418242D01*
X195405000Y-102407768D01*
X195405000Y-103301988D01*
X195347993Y-103269075D01*
X195220826Y-103235000D01*
X195089174Y-103235000D01*
X194962007Y-103269075D01*
X194905000Y-103301988D01*
X194905000Y-102407768D01*
X194838874Y-102418242D01*
X194838863Y-102418244D01*
X194636782Y-102483904D01*
X194636778Y-102483906D01*
X194447449Y-102580375D01*
X194447443Y-102580378D01*
X194275538Y-102705274D01*
X194125274Y-102855538D01*
X194000378Y-103027443D01*
X194000378Y-103027444D01*
X193950934Y-103124483D01*
X193907867Y-103161265D01*
X193851404Y-103156821D01*
X193819066Y-103124483D01*
X193769621Y-103027444D01*
X193769621Y-103027443D01*
X193644725Y-102855538D01*
X193644717Y-102855529D01*
X193494471Y-102705283D01*
X193494461Y-102705274D01*
X193322556Y-102580378D01*
X193322550Y-102580375D01*
X193133221Y-102483906D01*
X193133217Y-102483904D01*
X192931136Y-102418244D01*
X192931125Y-102418242D01*
X192865000Y-102407768D01*
X192865000Y-103301988D01*
X192807993Y-103269075D01*
X192680826Y-103235000D01*
X192549174Y-103235000D01*
X192422007Y-103269075D01*
X192365000Y-103301988D01*
X192365000Y-102407768D01*
X192298874Y-102418242D01*
X192298863Y-102418244D01*
X192096782Y-102483904D01*
X192096778Y-102483906D01*
X191907449Y-102580375D01*
X191907443Y-102580378D01*
X191735538Y-102705274D01*
X191585274Y-102855538D01*
X191460378Y-103027443D01*
X191460378Y-103027444D01*
X191410934Y-103124483D01*
X191367867Y-103161265D01*
X191311404Y-103156821D01*
X191279066Y-103124483D01*
X191229621Y-103027444D01*
X191229621Y-103027443D01*
X191104725Y-102855538D01*
X191104717Y-102855529D01*
X190954471Y-102705283D01*
X190954461Y-102705274D01*
X190782556Y-102580378D01*
X190782550Y-102580375D01*
X190593221Y-102483906D01*
X190593217Y-102483904D01*
X190391136Y-102418244D01*
X190391125Y-102418242D01*
X190325000Y-102407768D01*
X190325000Y-103301988D01*
X190267993Y-103269075D01*
X190140826Y-103235000D01*
X190009174Y-103235000D01*
X189882007Y-103269075D01*
X189825000Y-103301988D01*
X189825000Y-102407768D01*
X189758874Y-102418242D01*
X189758863Y-102418244D01*
X189556782Y-102483904D01*
X189556778Y-102483906D01*
X189367449Y-102580375D01*
X189367443Y-102580378D01*
X189195538Y-102705274D01*
X189045274Y-102855538D01*
X188920378Y-103027443D01*
X188920375Y-103027449D01*
X188823906Y-103216778D01*
X188823904Y-103216782D01*
X188758244Y-103418863D01*
X188758241Y-103418877D01*
X188747769Y-103485000D01*
X189641988Y-103485000D01*
X189609075Y-103542007D01*
X189575000Y-103669174D01*
X189575000Y-103800826D01*
X189609075Y-103927993D01*
X189641988Y-103985000D01*
X188747769Y-103985000D01*
X188758241Y-104051122D01*
X188758244Y-104051136D01*
X188823904Y-104253217D01*
X188823906Y-104253221D01*
X188920375Y-104442550D01*
X188920378Y-104442556D01*
X189045274Y-104614461D01*
X189045283Y-104614471D01*
X189195529Y-104764717D01*
X189195538Y-104764724D01*
X189231886Y-104791133D01*
X189261479Y-104839424D01*
X189248257Y-104894496D01*
X189199966Y-104924089D01*
X189188390Y-104925000D01*
X189177171Y-104925000D01*
X189117624Y-104931402D01*
X189117619Y-104931403D01*
X188982912Y-104981645D01*
X188982911Y-104981646D01*
X188867811Y-105067811D01*
X188781646Y-105182911D01*
X188781645Y-105182912D01*
X188731403Y-105317619D01*
X188731402Y-105317624D01*
X188725000Y-105377171D01*
X174000000Y-105377171D01*
X174000000Y-98968267D01*
X174021674Y-98915941D01*
X174074000Y-98894267D01*
X174126325Y-98915940D01*
X175543941Y-100333557D01*
X175570959Y-100344748D01*
X175645200Y-100375500D01*
X185855233Y-100375500D01*
X185907559Y-100397174D01*
X187166443Y-101656058D01*
X187243942Y-101733557D01*
X187345200Y-101775500D01*
X187345201Y-101775500D01*
X193184798Y-101775500D01*
X193184800Y-101775500D01*
X193286058Y-101733557D01*
X193363557Y-101656058D01*
X193363556Y-101656058D01*
X193398517Y-101621097D01*
X193398516Y-101621097D01*
X194591519Y-100428095D01*
X194643844Y-100406422D01*
X194672161Y-100412054D01*
X194848580Y-100485130D01*
X195051535Y-100525500D01*
X195051536Y-100525500D01*
X195258464Y-100525500D01*
X195258465Y-100525500D01*
X195461420Y-100485130D01*
X195652598Y-100405941D01*
X195824655Y-100290977D01*
X195970977Y-100144655D01*
X196085941Y-99972598D01*
X196165130Y-99781420D01*
X196205500Y-99578465D01*
X196205500Y-99371535D01*
X196165130Y-99168580D01*
X196085941Y-98977402D01*
X195970977Y-98805345D01*
X195824655Y-98659023D01*
X195744180Y-98605252D01*
X195652598Y-98544059D01*
X195461420Y-98464870D01*
X195461413Y-98464868D01*
X195304254Y-98433608D01*
X195258465Y-98424500D01*
X195051535Y-98424500D01*
X195011385Y-98432486D01*
X194848586Y-98464868D01*
X194848579Y-98464870D01*
X194657401Y-98544059D01*
X194485345Y-98659022D01*
X194485344Y-98659024D01*
X194339024Y-98805344D01*
X194339022Y-98805345D01*
X194224059Y-98977401D01*
X194144870Y-99168579D01*
X194144868Y-99168586D01*
X194104500Y-99371535D01*
X194104500Y-99578464D01*
X194144868Y-99781413D01*
X194144870Y-99781420D01*
X194180087Y-99866442D01*
X194217944Y-99957835D01*
X194217944Y-100014473D01*
X194201903Y-100038480D01*
X193037559Y-101202826D01*
X192985233Y-101224500D01*
X187544767Y-101224500D01*
X187492441Y-101202826D01*
X186846429Y-100556814D01*
X186156058Y-99866443D01*
X186054800Y-99824500D01*
X186054799Y-99824500D01*
X175844768Y-99824500D01*
X175792442Y-99802826D01*
X174021674Y-98032058D01*
X174000000Y-97979732D01*
X174000000Y-97968267D01*
X174021674Y-97915941D01*
X174074000Y-97894267D01*
X174126326Y-97915941D01*
X175716443Y-99506058D01*
X175793942Y-99583557D01*
X175895200Y-99625500D01*
X186705233Y-99625500D01*
X186757558Y-99647173D01*
X188143942Y-101033558D01*
X188245200Y-101075500D01*
X188245201Y-101075500D01*
X191344798Y-101075500D01*
X191344800Y-101075500D01*
X191446058Y-101033557D01*
X191523557Y-100956058D01*
X192051518Y-100428095D01*
X192103843Y-100406422D01*
X192132162Y-100412055D01*
X192308580Y-100485130D01*
X192511535Y-100525500D01*
X192511536Y-100525500D01*
X192718464Y-100525500D01*
X192718465Y-100525500D01*
X192921420Y-100485130D01*
X193112598Y-100405941D01*
X193284655Y-100290977D01*
X193430977Y-100144655D01*
X193545941Y-99972598D01*
X193625130Y-99781420D01*
X193665500Y-99578465D01*
X193665500Y-99371535D01*
X193625130Y-99168580D01*
X193545941Y-98977402D01*
X193430977Y-98805345D01*
X193284655Y-98659023D01*
X193204180Y-98605252D01*
X193112598Y-98544059D01*
X192921420Y-98464870D01*
X192921413Y-98464868D01*
X192764254Y-98433608D01*
X192718465Y-98424500D01*
X192511535Y-98424500D01*
X192471385Y-98432486D01*
X192308586Y-98464868D01*
X192308579Y-98464870D01*
X192117401Y-98544059D01*
X191945345Y-98659022D01*
X191945344Y-98659024D01*
X191799024Y-98805344D01*
X191799022Y-98805345D01*
X191684059Y-98977401D01*
X191604870Y-99168579D01*
X191604868Y-99168586D01*
X191564500Y-99371535D01*
X191564500Y-99578464D01*
X191604868Y-99781413D01*
X191604870Y-99781420D01*
X191640087Y-99866442D01*
X191677944Y-99957835D01*
X191677944Y-100014473D01*
X191661903Y-100038480D01*
X191240851Y-100459533D01*
X191188525Y-100481207D01*
X191136199Y-100459533D01*
X191114525Y-100407207D01*
X191115946Y-100392778D01*
X191125500Y-100344748D01*
X191125500Y-98605252D01*
X191113867Y-98546769D01*
X191112056Y-98544059D01*
X191082282Y-98499500D01*
X191069552Y-98480448D01*
X191046235Y-98464868D01*
X191003232Y-98436133D01*
X191003233Y-98436133D01*
X190973989Y-98430316D01*
X190944748Y-98424500D01*
X190944746Y-98424500D01*
X189444767Y-98424500D01*
X189392441Y-98402826D01*
X189389115Y-98399500D01*
X189056058Y-98066443D01*
X188954800Y-98024500D01*
X188954799Y-98024500D01*
X175944768Y-98024500D01*
X175892442Y-98002826D01*
X174021674Y-96132058D01*
X174000000Y-96079732D01*
X174000000Y-95599500D01*
X174021674Y-95547174D01*
X174074000Y-95525500D01*
X188245233Y-95525500D01*
X188297559Y-95547174D01*
X189121903Y-96371518D01*
X189143577Y-96423844D01*
X189137944Y-96452162D01*
X189064871Y-96628575D01*
X189064868Y-96628586D01*
X189024500Y-96831535D01*
X189024500Y-97038464D01*
X189064868Y-97241413D01*
X189064870Y-97241420D01*
X189144059Y-97432598D01*
X189202990Y-97520796D01*
X189259023Y-97604655D01*
X189405345Y-97750977D01*
X189577402Y-97865941D01*
X189768580Y-97945130D01*
X189971535Y-97985500D01*
X189971536Y-97985500D01*
X190178464Y-97985500D01*
X190178465Y-97985500D01*
X190381420Y-97945130D01*
X190572598Y-97865941D01*
X190744655Y-97750977D01*
X190890977Y-97604655D01*
X191005941Y-97432598D01*
X191085130Y-97241420D01*
X191125500Y-97038465D01*
X191125500Y-96831535D01*
X191085130Y-96628580D01*
X191005941Y-96437402D01*
X190890977Y-96265345D01*
X190744655Y-96119023D01*
X190685851Y-96079732D01*
X190572598Y-96004059D01*
X190381420Y-95924870D01*
X190381413Y-95924868D01*
X190228516Y-95894455D01*
X190178465Y-95884500D01*
X189971535Y-95884500D01*
X189931385Y-95892486D01*
X189768586Y-95924868D01*
X189768575Y-95924871D01*
X189592162Y-95997944D01*
X189535525Y-95997944D01*
X189511518Y-95981903D01*
X189055115Y-95525500D01*
X188581439Y-95051824D01*
X188559766Y-94999500D01*
X188581440Y-94947174D01*
X188633766Y-94925500D01*
X190185233Y-94925500D01*
X190237559Y-94947174D01*
X191661903Y-96371518D01*
X191683577Y-96423844D01*
X191677944Y-96452162D01*
X191604871Y-96628575D01*
X191604868Y-96628586D01*
X191564500Y-96831535D01*
X191564500Y-97038464D01*
X191604868Y-97241413D01*
X191604870Y-97241420D01*
X191684059Y-97432598D01*
X191742990Y-97520796D01*
X191799023Y-97604655D01*
X191945345Y-97750977D01*
X192117402Y-97865941D01*
X192308580Y-97945130D01*
X192511535Y-97985500D01*
X192511536Y-97985500D01*
X192718464Y-97985500D01*
X192718465Y-97985500D01*
X192921420Y-97945130D01*
X193112598Y-97865941D01*
X193284655Y-97750977D01*
X193430977Y-97604655D01*
X193545941Y-97432598D01*
X193625130Y-97241420D01*
X193665500Y-97038465D01*
X193665500Y-96831535D01*
X194104500Y-96831535D01*
X194104500Y-97038464D01*
X194144868Y-97241413D01*
X194144870Y-97241420D01*
X194224059Y-97432598D01*
X194282990Y-97520796D01*
X194339023Y-97604655D01*
X194485345Y-97750977D01*
X194657402Y-97865941D01*
X194848580Y-97945130D01*
X195051535Y-97985500D01*
X195051536Y-97985500D01*
X195258464Y-97985500D01*
X195258465Y-97985500D01*
X195461420Y-97945130D01*
X195652598Y-97865941D01*
X195824655Y-97750977D01*
X195970977Y-97604655D01*
X196085941Y-97432598D01*
X196165130Y-97241420D01*
X196205500Y-97038465D01*
X196205500Y-96831535D01*
X196165130Y-96628580D01*
X196085941Y-96437402D01*
X195970977Y-96265345D01*
X195824655Y-96119023D01*
X195765851Y-96079732D01*
X195652598Y-96004059D01*
X195461420Y-95924870D01*
X195461413Y-95924868D01*
X195308516Y-95894455D01*
X195258465Y-95884500D01*
X195051535Y-95884500D01*
X195011385Y-95892486D01*
X194848586Y-95924868D01*
X194848579Y-95924870D01*
X194657401Y-96004059D01*
X194485345Y-96119022D01*
X194485344Y-96119024D01*
X194339024Y-96265344D01*
X194339022Y-96265345D01*
X194224059Y-96437401D01*
X194144870Y-96628579D01*
X194144868Y-96628586D01*
X194104500Y-96831535D01*
X193665500Y-96831535D01*
X193625130Y-96628580D01*
X193545941Y-96437402D01*
X193430977Y-96265345D01*
X193284655Y-96119023D01*
X193225851Y-96079732D01*
X193112598Y-96004059D01*
X192921420Y-95924870D01*
X192921413Y-95924868D01*
X192768516Y-95894455D01*
X192718465Y-95884500D01*
X192511535Y-95884500D01*
X192471385Y-95892486D01*
X192308586Y-95924868D01*
X192308575Y-95924871D01*
X192132162Y-95997944D01*
X192075525Y-95997944D01*
X192051518Y-95981903D01*
X191553172Y-95483557D01*
X190596439Y-94526824D01*
X190574766Y-94474500D01*
X190596440Y-94422174D01*
X190648766Y-94400500D01*
X191012034Y-94400500D01*
X191064360Y-94422174D01*
X191092686Y-94450500D01*
X191206814Y-94516392D01*
X191334105Y-94550499D01*
X191334106Y-94550500D01*
X191334108Y-94550500D01*
X191465894Y-94550500D01*
X191465894Y-94550499D01*
X191593186Y-94516392D01*
X191707314Y-94450500D01*
X191800500Y-94357314D01*
X191866392Y-94243186D01*
X191900499Y-94115894D01*
X191900500Y-94115894D01*
X191900500Y-93984106D01*
X191900499Y-93984105D01*
X191888798Y-93940437D01*
X191866392Y-93856814D01*
X191800500Y-93742686D01*
X191707314Y-93649500D01*
X191593190Y-93583610D01*
X191593181Y-93583606D01*
X191465894Y-93549500D01*
X191465892Y-93549500D01*
X191334108Y-93549500D01*
X191334106Y-93549500D01*
X191206818Y-93583606D01*
X191206809Y-93583610D01*
X191092685Y-93649500D01*
X191014360Y-93727826D01*
X190962034Y-93749500D01*
X175704316Y-93749500D01*
X175651990Y-93727826D01*
X175630316Y-93675500D01*
X175640230Y-93638500D01*
X175657067Y-93609337D01*
X175666392Y-93593186D01*
X175700499Y-93465894D01*
X175700500Y-93465894D01*
X175700500Y-93334106D01*
X175700499Y-93334105D01*
X175690706Y-93297558D01*
X175666392Y-93206814D01*
X175600500Y-93092686D01*
X175507314Y-92999500D01*
X175507311Y-92999498D01*
X175507309Y-92999496D01*
X175504439Y-92997293D01*
X175476131Y-92948238D01*
X175475500Y-92938594D01*
X175475500Y-92594767D01*
X175497174Y-92542441D01*
X175553731Y-92485884D01*
X175668546Y-92371068D01*
X175720871Y-92349395D01*
X175730537Y-92350029D01*
X175734104Y-92350498D01*
X175734108Y-92350500D01*
X175734112Y-92350500D01*
X175865894Y-92350500D01*
X175865894Y-92350499D01*
X175993186Y-92316392D01*
X176107314Y-92250500D01*
X176200500Y-92157314D01*
X176266392Y-92043186D01*
X176300499Y-91915894D01*
X176300500Y-91915894D01*
X176300500Y-91784109D01*
X176300500Y-91784108D01*
X176266392Y-91656814D01*
X176266390Y-91656810D01*
X176264737Y-91652819D01*
X176264737Y-91596182D01*
X176304785Y-91556133D01*
X176333104Y-91550500D01*
X193259309Y-91550500D01*
X193349673Y-91526286D01*
X193349674Y-91526286D01*
X193360350Y-91523425D01*
X193373887Y-91519799D01*
X193476614Y-91460489D01*
X195300490Y-89636614D01*
X195359799Y-89533886D01*
X195390499Y-89419311D01*
X195390500Y-89419311D01*
X195390500Y-88399894D01*
X195412174Y-88347568D01*
X195434421Y-88332705D01*
X195434394Y-88332654D01*
X195434919Y-88332373D01*
X195436190Y-88331523D01*
X195437598Y-88330941D01*
X195609655Y-88215977D01*
X195755977Y-88069655D01*
X195870941Y-87897598D01*
X195950130Y-87706420D01*
X195990500Y-87503465D01*
X195990500Y-87296535D01*
X195950130Y-87093580D01*
X195870941Y-86902402D01*
X195755977Y-86730345D01*
X195609655Y-86584023D01*
X195529180Y-86530252D01*
X195437598Y-86469059D01*
X195246420Y-86389870D01*
X195246413Y-86389868D01*
X195093516Y-86359455D01*
X195043465Y-86349500D01*
X194836535Y-86349500D01*
X194796385Y-86357486D01*
X194633586Y-86389868D01*
X194633579Y-86389870D01*
X194442401Y-86469059D01*
X194270345Y-86584022D01*
X194270344Y-86584024D01*
X194124024Y-86730344D01*
X194124022Y-86730345D01*
X194009059Y-86902401D01*
X193929870Y-87093579D01*
X193929868Y-87093586D01*
X193889500Y-87296535D01*
X193889500Y-87503464D01*
X193929868Y-87706413D01*
X193929870Y-87706420D01*
X194009059Y-87897598D01*
X194124023Y-88069655D01*
X194270345Y-88215977D01*
X194442402Y-88330941D01*
X194443808Y-88331523D01*
X194444173Y-88331888D01*
X194445606Y-88332654D01*
X194445373Y-88333088D01*
X194483863Y-88371565D01*
X194489500Y-88399894D01*
X194489500Y-89142744D01*
X194467826Y-89195070D01*
X193035071Y-90627826D01*
X192982745Y-90649500D01*
X172840689Y-90649500D01*
X172726114Y-90680200D01*
X172682695Y-90705267D01*
X172682696Y-90705268D01*
X172623389Y-90739508D01*
X171251535Y-92111360D01*
X171218366Y-92130511D01*
X171206816Y-92133606D01*
X171092685Y-92199500D01*
X170999500Y-92292685D01*
X170933610Y-92406809D01*
X170933606Y-92406818D01*
X170899500Y-92534105D01*
X170899500Y-92665894D01*
X170933606Y-92793181D01*
X170933610Y-92793190D01*
X170957661Y-92834847D01*
X170999500Y-92907314D01*
X171092686Y-93000500D01*
X171206814Y-93066392D01*
X171334105Y-93100499D01*
X171334106Y-93100500D01*
X171334108Y-93100500D01*
X171465894Y-93100500D01*
X171465894Y-93100499D01*
X171593186Y-93066392D01*
X171707314Y-93000500D01*
X171800500Y-92907314D01*
X171866392Y-92793186D01*
X171869485Y-92781638D01*
X171888637Y-92748464D01*
X173064929Y-91572174D01*
X173117255Y-91550500D01*
X175266896Y-91550500D01*
X175319222Y-91572174D01*
X175340896Y-91624500D01*
X175335263Y-91652819D01*
X175333609Y-91656810D01*
X175299500Y-91784109D01*
X175299500Y-91915895D01*
X175299971Y-91919476D01*
X175285306Y-91974182D01*
X175278929Y-91981453D01*
X175043942Y-92216443D01*
X174966442Y-92293943D01*
X174924500Y-92395200D01*
X174924500Y-92938594D01*
X174902826Y-92990920D01*
X174895561Y-92997293D01*
X174892690Y-92999496D01*
X174799500Y-93092685D01*
X174733610Y-93206809D01*
X174733606Y-93206818D01*
X174699500Y-93334105D01*
X174699500Y-93465894D01*
X174733606Y-93593181D01*
X174733610Y-93593190D01*
X174759770Y-93638500D01*
X174767163Y-93694653D01*
X174732684Y-93739586D01*
X174695684Y-93749500D01*
X171590478Y-93749500D01*
X171538152Y-93727826D01*
X170645174Y-92834847D01*
X170623500Y-92782521D01*
X170623500Y-86782966D01*
X170645174Y-86730640D01*
X170666807Y-86709007D01*
X170698500Y-86677314D01*
X170764392Y-86563186D01*
X170798499Y-86435894D01*
X170798500Y-86435894D01*
X170798500Y-86304106D01*
X170798499Y-86304105D01*
X170764393Y-86176818D01*
X170764392Y-86176814D01*
X170698500Y-86062686D01*
X170605314Y-85969500D01*
X170521270Y-85920977D01*
X170491190Y-85903610D01*
X170491181Y-85903606D01*
X170363894Y-85869500D01*
X170363892Y-85869500D01*
X170350421Y-85869500D01*
X170298095Y-85847826D01*
X170276421Y-85795500D01*
X170278942Y-85776348D01*
X170294993Y-85716443D01*
X170300500Y-85695892D01*
X170300500Y-85564108D01*
X170300500Y-85564106D01*
X170300499Y-85564105D01*
X170297613Y-85553336D01*
X170266392Y-85436814D01*
X170200500Y-85322686D01*
X170107314Y-85229500D01*
X170094511Y-85222108D01*
X169993190Y-85163610D01*
X169993181Y-85163606D01*
X169865894Y-85129500D01*
X169865892Y-85129500D01*
X169734108Y-85129500D01*
X169717104Y-85134055D01*
X169660952Y-85126662D01*
X169626474Y-85081729D01*
X169623953Y-85062577D01*
X169623953Y-84981681D01*
X169623952Y-84981680D01*
X169620258Y-84967895D01*
X169589845Y-84854389D01*
X169523953Y-84740261D01*
X169430767Y-84647075D01*
X169350097Y-84600500D01*
X169316643Y-84581185D01*
X169316634Y-84581181D01*
X169189347Y-84547075D01*
X169189345Y-84547075D01*
X169057561Y-84547075D01*
X169057559Y-84547075D01*
X168930271Y-84581181D01*
X168930262Y-84581185D01*
X168816138Y-84647075D01*
X168722953Y-84740260D01*
X168657063Y-84854384D01*
X168657059Y-84854393D01*
X168622953Y-84981680D01*
X168622953Y-85113469D01*
X168657059Y-85240756D01*
X168657063Y-85240765D01*
X168722953Y-85354889D01*
X168816140Y-85448076D01*
X168818997Y-85450268D01*
X168847319Y-85499315D01*
X168847953Y-85508979D01*
X168847953Y-93778252D01*
X168884462Y-93866392D01*
X168889895Y-93879510D01*
X168893489Y-93884888D01*
X168904538Y-93940437D01*
X168873072Y-93987529D01*
X168831960Y-94000000D01*
X168820268Y-94000000D01*
X168798298Y-93990900D01*
X168775319Y-93984784D01*
X168772723Y-93980306D01*
X168767942Y-93978326D01*
X167297174Y-92507558D01*
X167275500Y-92455232D01*
X167275500Y-85461404D01*
X167297174Y-85409078D01*
X167304456Y-85402693D01*
X167307312Y-85400501D01*
X167307311Y-85400501D01*
X167307314Y-85400500D01*
X167400500Y-85307314D01*
X167466392Y-85193186D01*
X167500499Y-85065894D01*
X167500500Y-85065894D01*
X167500500Y-84934106D01*
X167500499Y-84934105D01*
X167495619Y-84915894D01*
X167466392Y-84806814D01*
X167400500Y-84692686D01*
X167307314Y-84599500D01*
X167275585Y-84581181D01*
X167193190Y-84533610D01*
X167193181Y-84533606D01*
X167065894Y-84499500D01*
X167065892Y-84499500D01*
X166934108Y-84499500D01*
X166934106Y-84499500D01*
X166806818Y-84533606D01*
X166806809Y-84533610D01*
X166692685Y-84599500D01*
X166599500Y-84692685D01*
X166533610Y-84806809D01*
X166533606Y-84806818D01*
X166499500Y-84934105D01*
X166499500Y-84934108D01*
X166499500Y-85065892D01*
X166510332Y-85106317D01*
X166519766Y-85141526D01*
X166512373Y-85197678D01*
X166467439Y-85232157D01*
X166426853Y-85231506D01*
X166418679Y-85229032D01*
X166406686Y-85222108D01*
X166311662Y-85196646D01*
X166310510Y-85196298D01*
X166289439Y-85179029D01*
X166267858Y-85162469D01*
X166267691Y-85161205D01*
X166266705Y-85160397D01*
X166264017Y-85133294D01*
X166260466Y-85106317D01*
X166261144Y-85104319D01*
X166261116Y-85104036D01*
X166261328Y-85103777D01*
X166263579Y-85097146D01*
X166264387Y-85095194D01*
X166264392Y-85095186D01*
X166298499Y-84967894D01*
X166298500Y-84967894D01*
X166298500Y-84836106D01*
X166298499Y-84836105D01*
X166264393Y-84708818D01*
X166264392Y-84708814D01*
X166198500Y-84594686D01*
X166105314Y-84501500D01*
X166101850Y-84499500D01*
X165991190Y-84435610D01*
X165991181Y-84435606D01*
X165863894Y-84401500D01*
X165863892Y-84401500D01*
X165732108Y-84401500D01*
X165732106Y-84401500D01*
X165604818Y-84435606D01*
X165604809Y-84435610D01*
X165490685Y-84501500D01*
X165397500Y-84594685D01*
X165331610Y-84708809D01*
X165331606Y-84708818D01*
X165297500Y-84836105D01*
X165297500Y-84967895D01*
X165297971Y-84971476D01*
X165283306Y-85026182D01*
X165276929Y-85033453D01*
X164593942Y-85716443D01*
X164516442Y-85793943D01*
X164494123Y-85847826D01*
X164474500Y-85895200D01*
X164474500Y-92804800D01*
X164486946Y-92834847D01*
X164504247Y-92876614D01*
X164516442Y-92906057D01*
X165484059Y-93873674D01*
X165505733Y-93926000D01*
X165484059Y-93978326D01*
X165431733Y-94000000D01*
X155800000Y-94000000D01*
X154200500Y-94000000D01*
X154200500Y-82315000D01*
X154984369Y-82315000D01*
X155878588Y-82315000D01*
X155845675Y-82372007D01*
X155811600Y-82499174D01*
X155811600Y-82630826D01*
X155845675Y-82757993D01*
X155878588Y-82815000D01*
X154984369Y-82815000D01*
X154994841Y-82881122D01*
X154994844Y-82881136D01*
X155060504Y-83083217D01*
X155060506Y-83083221D01*
X155156975Y-83272550D01*
X155156978Y-83272556D01*
X155281874Y-83444461D01*
X155281883Y-83444471D01*
X155432129Y-83594717D01*
X155432138Y-83594725D01*
X155604043Y-83719621D01*
X155604049Y-83719624D01*
X155793378Y-83816093D01*
X155793382Y-83816095D01*
X155995463Y-83881755D01*
X155995476Y-83881758D01*
X156188049Y-83912259D01*
X156236340Y-83941852D01*
X156249562Y-83996924D01*
X156219969Y-84045215D01*
X156190910Y-84057926D01*
X156005185Y-84094868D01*
X156005179Y-84094870D01*
X155814001Y-84174059D01*
X155641945Y-84289022D01*
X155641944Y-84289024D01*
X155495624Y-84435344D01*
X155495622Y-84435345D01*
X155380659Y-84607401D01*
X155301470Y-84798579D01*
X155301468Y-84798586D01*
X155261100Y-85001535D01*
X155261100Y-85208464D01*
X155301468Y-85411413D01*
X155301470Y-85411420D01*
X155380659Y-85602598D01*
X155482083Y-85754392D01*
X155495623Y-85774655D01*
X155641945Y-85920977D01*
X155814002Y-86035941D01*
X156005180Y-86115130D01*
X156208135Y-86155500D01*
X156208136Y-86155500D01*
X156415064Y-86155500D01*
X156415065Y-86155500D01*
X156618020Y-86115130D01*
X156809198Y-86035941D01*
X156981255Y-85920977D01*
X157127577Y-85774655D01*
X157242541Y-85602598D01*
X157321730Y-85411420D01*
X157362100Y-85208465D01*
X157362100Y-85001535D01*
X157321730Y-84798580D01*
X157242541Y-84607402D01*
X157127577Y-84435345D01*
X156981255Y-84289023D01*
X156888861Y-84227288D01*
X156809198Y-84174059D01*
X156618020Y-84094870D01*
X156618014Y-84094868D01*
X156432289Y-84057926D01*
X156385197Y-84026460D01*
X156374148Y-83970911D01*
X156405614Y-83923819D01*
X156435150Y-83912259D01*
X156627723Y-83881758D01*
X156627736Y-83881755D01*
X156829817Y-83816095D01*
X156829821Y-83816093D01*
X157019150Y-83719624D01*
X157019156Y-83719621D01*
X157191061Y-83594725D01*
X157191071Y-83594717D01*
X157341317Y-83444471D01*
X157341325Y-83444461D01*
X157466221Y-83272556D01*
X157466224Y-83272550D01*
X157562693Y-83083221D01*
X157562695Y-83083217D01*
X157628355Y-82881136D01*
X157628358Y-82881122D01*
X157638831Y-82815000D01*
X156744612Y-82815000D01*
X156777525Y-82757993D01*
X156811600Y-82630826D01*
X156811600Y-82499174D01*
X156807562Y-82484105D01*
X173046485Y-82484105D01*
X173046485Y-82484108D01*
X173046485Y-82615892D01*
X173080593Y-82743186D01*
X173080594Y-82743188D01*
X173086569Y-82753536D01*
X173096485Y-82790539D01*
X173096485Y-84206294D01*
X173096978Y-84208135D01*
X173099500Y-84227288D01*
X173099500Y-84609460D01*
X173089587Y-84646457D01*
X173083608Y-84656814D01*
X173083608Y-84656815D01*
X173083606Y-84656818D01*
X173049500Y-84784105D01*
X173049500Y-84915894D01*
X173083606Y-85043181D01*
X173083610Y-85043190D01*
X173135632Y-85133294D01*
X173149500Y-85157314D01*
X173242686Y-85250500D01*
X173356814Y-85316392D01*
X173484105Y-85350499D01*
X173484106Y-85350500D01*
X173484108Y-85350500D01*
X173615894Y-85350500D01*
X173615894Y-85350499D01*
X173743186Y-85316392D01*
X173857314Y-85250500D01*
X173950500Y-85157314D01*
X174016392Y-85043186D01*
X174050499Y-84915894D01*
X174050500Y-84915894D01*
X174050500Y-84784106D01*
X174050499Y-84784105D01*
X174028097Y-84700500D01*
X174016392Y-84656814D01*
X174010412Y-84646457D01*
X174000500Y-84609460D01*
X174000500Y-84090690D01*
X174000006Y-84088847D01*
X173997485Y-84069696D01*
X173997485Y-82790539D01*
X174007401Y-82753536D01*
X174011707Y-82746078D01*
X174013377Y-82743186D01*
X174047485Y-82615892D01*
X174047485Y-82484108D01*
X174047485Y-82484106D01*
X174047484Y-82484105D01*
X174013378Y-82356818D01*
X174013377Y-82356814D01*
X173947485Y-82242686D01*
X173854299Y-82149500D01*
X173837734Y-82139936D01*
X173740175Y-82083610D01*
X173740166Y-82083606D01*
X173612879Y-82049500D01*
X173612877Y-82049500D01*
X173481093Y-82049500D01*
X173481091Y-82049500D01*
X173353803Y-82083606D01*
X173353794Y-82083610D01*
X173239670Y-82149500D01*
X173146485Y-82242685D01*
X173080595Y-82356809D01*
X173080591Y-82356818D01*
X173046485Y-82484105D01*
X156807562Y-82484105D01*
X156777525Y-82372007D01*
X156744612Y-82315000D01*
X157638830Y-82315000D01*
X157628358Y-82248877D01*
X157628355Y-82248863D01*
X157562695Y-82046782D01*
X157562693Y-82046778D01*
X157466224Y-81857449D01*
X157466221Y-81857443D01*
X157341325Y-81685538D01*
X157341317Y-81685529D01*
X157191071Y-81535283D01*
X157191061Y-81535274D01*
X157019156Y-81410378D01*
X157019150Y-81410375D01*
X156829821Y-81313906D01*
X156829817Y-81313904D01*
X156627736Y-81248244D01*
X156627723Y-81248241D01*
X156465763Y-81222589D01*
X156417472Y-81192996D01*
X156404250Y-81137924D01*
X156433843Y-81089633D01*
X156477339Y-81075500D01*
X157181346Y-81075500D01*
X157181348Y-81075500D01*
X157239831Y-81063867D01*
X157306152Y-81019552D01*
X157350467Y-80953231D01*
X157362100Y-80894748D01*
X157362100Y-80534105D01*
X166904500Y-80534105D01*
X166904500Y-80665894D01*
X166938606Y-80793181D01*
X166938610Y-80793190D01*
X166961946Y-80833608D01*
X167004500Y-80907314D01*
X167097686Y-81000500D01*
X167211814Y-81066392D01*
X167339105Y-81100499D01*
X167339106Y-81100500D01*
X167339108Y-81100500D01*
X167470894Y-81100500D01*
X167470894Y-81100499D01*
X167598186Y-81066392D01*
X167608542Y-81060412D01*
X167645540Y-81050500D01*
X170183734Y-81050500D01*
X170220733Y-81060413D01*
X170279814Y-81094524D01*
X170407105Y-81128631D01*
X170407106Y-81128632D01*
X170407108Y-81128632D01*
X170538894Y-81128632D01*
X170538894Y-81128631D01*
X170666186Y-81094524D01*
X170768228Y-81035610D01*
X174226500Y-81035610D01*
X174226500Y-81167399D01*
X174260606Y-81294686D01*
X174260610Y-81294695D01*
X174326500Y-81408819D01*
X174419686Y-81502005D01*
X174533814Y-81567897D01*
X174647141Y-81598262D01*
X174672639Y-81610731D01*
X174676704Y-81613807D01*
X174723386Y-81660489D01*
X174782696Y-81694731D01*
X174809279Y-81710079D01*
X174826110Y-81719797D01*
X174826112Y-81719797D01*
X174826114Y-81719799D01*
X174826115Y-81719799D01*
X174826117Y-81719800D01*
X174883402Y-81735149D01*
X174940688Y-81750499D01*
X174940689Y-81750500D01*
X174940691Y-81750500D01*
X177839460Y-81750500D01*
X177876457Y-81760412D01*
X177886814Y-81766392D01*
X178014105Y-81800499D01*
X178014106Y-81800500D01*
X178014108Y-81800500D01*
X178145894Y-81800500D01*
X178145894Y-81800499D01*
X178273186Y-81766392D01*
X178283542Y-81760412D01*
X178320540Y-81750500D01*
X178556063Y-81750500D01*
X178575213Y-81753020D01*
X178659108Y-81775500D01*
X178659109Y-81775500D01*
X178790894Y-81775500D01*
X178790894Y-81775499D01*
X178918186Y-81741392D01*
X179032314Y-81675500D01*
X179125500Y-81582314D01*
X179191392Y-81468186D01*
X179225499Y-81340894D01*
X179225500Y-81340894D01*
X179225500Y-81209106D01*
X179225499Y-81209105D01*
X179196398Y-81100499D01*
X179191392Y-81081814D01*
X179125500Y-80967686D01*
X179032314Y-80874500D01*
X178971843Y-80839587D01*
X178918190Y-80808610D01*
X178918181Y-80808606D01*
X178790894Y-80774500D01*
X178790892Y-80774500D01*
X178659108Y-80774500D01*
X178659106Y-80774500D01*
X178531818Y-80808606D01*
X178531809Y-80808610D01*
X178478158Y-80839586D01*
X178441158Y-80849500D01*
X178320540Y-80849500D01*
X178283542Y-80839587D01*
X178273186Y-80833608D01*
X178273182Y-80833607D01*
X178273181Y-80833606D01*
X178145894Y-80799500D01*
X178145892Y-80799500D01*
X178014108Y-80799500D01*
X178014106Y-80799500D01*
X177886818Y-80833606D01*
X177886815Y-80833607D01*
X177886814Y-80833608D01*
X177876457Y-80839587D01*
X177839460Y-80849500D01*
X175217255Y-80849500D01*
X175165923Y-80828801D01*
X175165408Y-80828305D01*
X175078119Y-80741016D01*
X175069755Y-80736187D01*
X175063248Y-80729920D01*
X175063108Y-80729600D01*
X175062254Y-80728945D01*
X175034314Y-80701005D01*
X174920190Y-80635115D01*
X174920181Y-80635111D01*
X174792894Y-80601005D01*
X174792892Y-80601005D01*
X174661108Y-80601005D01*
X174661106Y-80601005D01*
X174533818Y-80635111D01*
X174533809Y-80635115D01*
X174419685Y-80701005D01*
X174326500Y-80794190D01*
X174260610Y-80908314D01*
X174260606Y-80908323D01*
X174226500Y-81035610D01*
X170768228Y-81035610D01*
X170780314Y-81028632D01*
X170873500Y-80935446D01*
X170939392Y-80821318D01*
X170973499Y-80694026D01*
X170973500Y-80694026D01*
X170973500Y-80562238D01*
X170973499Y-80562237D01*
X170939393Y-80434950D01*
X170939392Y-80434946D01*
X170873500Y-80320818D01*
X170780314Y-80227632D01*
X170731588Y-80199500D01*
X170666190Y-80161742D01*
X170666181Y-80161738D01*
X170538894Y-80127632D01*
X170538892Y-80127632D01*
X170407108Y-80127632D01*
X170334902Y-80146979D01*
X170315752Y-80149500D01*
X167645540Y-80149500D01*
X167608542Y-80139587D01*
X167598186Y-80133608D01*
X167598182Y-80133607D01*
X167598181Y-80133606D01*
X167470894Y-80099500D01*
X167470892Y-80099500D01*
X167339108Y-80099500D01*
X167339106Y-80099500D01*
X167211818Y-80133606D01*
X167211809Y-80133610D01*
X167097685Y-80199500D01*
X167004500Y-80292685D01*
X166938610Y-80406809D01*
X166938606Y-80406818D01*
X166904500Y-80534105D01*
X157362100Y-80534105D01*
X157362100Y-79155252D01*
X157350467Y-79096769D01*
X157306152Y-79030448D01*
X157283943Y-79015608D01*
X157239832Y-78986133D01*
X157239833Y-78986133D01*
X157210589Y-78980316D01*
X157181348Y-78974500D01*
X155441852Y-78974500D01*
X155412610Y-78980316D01*
X155383367Y-78986133D01*
X155317049Y-79030447D01*
X155317047Y-79030449D01*
X155272733Y-79096767D01*
X155272733Y-79096769D01*
X155261100Y-79155252D01*
X155261100Y-80894748D01*
X155263800Y-80908323D01*
X155272733Y-80953232D01*
X155289575Y-80978437D01*
X155317048Y-81019552D01*
X155341085Y-81035613D01*
X155383367Y-81063866D01*
X155383368Y-81063866D01*
X155383369Y-81063867D01*
X155441852Y-81075500D01*
X155441854Y-81075500D01*
X156145861Y-81075500D01*
X156198187Y-81097174D01*
X156219861Y-81149500D01*
X156198187Y-81201826D01*
X156157437Y-81222589D01*
X155995476Y-81248241D01*
X155995463Y-81248244D01*
X155793382Y-81313904D01*
X155793378Y-81313906D01*
X155604049Y-81410375D01*
X155604043Y-81410378D01*
X155432138Y-81535274D01*
X155281874Y-81685538D01*
X155156978Y-81857443D01*
X155156975Y-81857449D01*
X155060506Y-82046778D01*
X155060504Y-82046782D01*
X154994844Y-82248863D01*
X154994841Y-82248877D01*
X154984369Y-82315000D01*
X154200500Y-82315000D01*
X154200500Y-78182105D01*
X173149375Y-78182105D01*
X173149375Y-78313894D01*
X173183481Y-78441181D01*
X173183482Y-78441184D01*
X173183483Y-78441186D01*
X173249375Y-78555314D01*
X173342561Y-78648500D01*
X173456689Y-78714392D01*
X173583980Y-78748499D01*
X173583981Y-78748500D01*
X173583983Y-78748500D01*
X173715769Y-78748500D01*
X173715769Y-78748499D01*
X173843061Y-78714392D01*
X173957189Y-78648500D01*
X174050375Y-78555314D01*
X174116267Y-78441186D01*
X174150374Y-78313894D01*
X174150375Y-78313894D01*
X174150375Y-78182106D01*
X174150374Y-78182105D01*
X174116268Y-78054818D01*
X174116267Y-78054814D01*
X174110287Y-78044457D01*
X174100375Y-78007460D01*
X174100375Y-77577240D01*
X174100500Y-77575335D01*
X174100500Y-75240539D01*
X174110416Y-75203536D01*
X174116392Y-75193186D01*
X174150500Y-75065892D01*
X174150500Y-74934108D01*
X174150500Y-74934106D01*
X174150499Y-74934105D01*
X174116393Y-74806818D01*
X174116392Y-74806814D01*
X174050500Y-74692686D01*
X173957314Y-74599500D01*
X173843190Y-74533610D01*
X173843181Y-74533606D01*
X173715894Y-74499500D01*
X173715892Y-74499500D01*
X173584108Y-74499500D01*
X173584106Y-74499500D01*
X173456818Y-74533606D01*
X173456809Y-74533610D01*
X173342685Y-74599500D01*
X173249500Y-74692685D01*
X173183610Y-74806809D01*
X173183606Y-74806818D01*
X173149500Y-74934105D01*
X173149500Y-74934108D01*
X173149500Y-75065892D01*
X173183608Y-75193186D01*
X173183609Y-75193188D01*
X173189584Y-75203536D01*
X173199500Y-75240539D01*
X173199500Y-77447148D01*
X173199375Y-77449058D01*
X173199375Y-78007460D01*
X173189462Y-78044457D01*
X173183483Y-78054814D01*
X173183483Y-78054815D01*
X173183481Y-78054818D01*
X173149375Y-78182105D01*
X154200500Y-78182105D01*
X154200500Y-70877971D01*
X156449500Y-70877971D01*
X156449500Y-71122028D01*
X156487678Y-71363073D01*
X156487681Y-71363086D01*
X156563093Y-71595179D01*
X156673893Y-71812639D01*
X156817341Y-72010078D01*
X156817345Y-72010083D01*
X156989917Y-72182655D01*
X156989920Y-72182657D01*
X156989921Y-72182658D01*
X157187360Y-72326106D01*
X157292171Y-72379509D01*
X157404815Y-72436904D01*
X157404817Y-72436904D01*
X157404820Y-72436906D01*
X157636913Y-72512318D01*
X157636919Y-72512319D01*
X157636924Y-72512321D01*
X157757448Y-72531410D01*
X157877971Y-72550500D01*
X157877973Y-72550500D01*
X158122029Y-72550500D01*
X158218446Y-72535228D01*
X158363076Y-72512321D01*
X158363083Y-72512318D01*
X158363086Y-72512318D01*
X158595179Y-72436906D01*
X158595179Y-72436905D01*
X158595185Y-72436904D01*
X158812639Y-72326106D01*
X159010083Y-72182655D01*
X159182655Y-72010083D01*
X159326106Y-71812639D01*
X159436904Y-71595185D01*
X159512321Y-71363076D01*
X159550500Y-71122027D01*
X159550500Y-70877973D01*
X159512321Y-70636924D01*
X159512319Y-70636919D01*
X159512318Y-70636913D01*
X159436906Y-70404820D01*
X159436904Y-70404817D01*
X159436904Y-70404815D01*
X159379509Y-70292171D01*
X159326106Y-70187360D01*
X159182658Y-69989921D01*
X159182657Y-69989920D01*
X159182655Y-69989917D01*
X159010083Y-69817345D01*
X159010080Y-69817342D01*
X159010078Y-69817341D01*
X158812639Y-69673893D01*
X158595179Y-69563093D01*
X158363086Y-69487681D01*
X158363073Y-69487678D01*
X158122029Y-69449500D01*
X158122027Y-69449500D01*
X157877973Y-69449500D01*
X157877971Y-69449500D01*
X157636926Y-69487678D01*
X157636913Y-69487681D01*
X157404820Y-69563093D01*
X157187360Y-69673893D01*
X156989921Y-69817341D01*
X156817341Y-69989921D01*
X156673893Y-70187360D01*
X156563093Y-70404820D01*
X156487681Y-70636913D01*
X156487678Y-70636926D01*
X156449500Y-70877971D01*
X154200500Y-70877971D01*
X154200500Y-69134105D01*
X164899500Y-69134105D01*
X164899500Y-69265894D01*
X164933606Y-69393181D01*
X164933607Y-69393184D01*
X164933608Y-69393186D01*
X164999500Y-69507314D01*
X165092686Y-69600500D01*
X165206814Y-69666392D01*
X165334105Y-69700499D01*
X165334106Y-69700500D01*
X165334108Y-69700500D01*
X165465894Y-69700500D01*
X165465894Y-69700499D01*
X165593186Y-69666392D01*
X165707314Y-69600500D01*
X165800500Y-69507314D01*
X165866392Y-69393186D01*
X165869485Y-69381638D01*
X165888637Y-69348464D01*
X166364930Y-68872174D01*
X166417256Y-68850500D01*
X180675500Y-68850500D01*
X180727826Y-68872174D01*
X180749500Y-68924500D01*
X180749500Y-88359310D01*
X180763117Y-88410127D01*
X180763117Y-88410129D01*
X180763118Y-88410129D01*
X180780202Y-88473889D01*
X180780203Y-88473891D01*
X180839508Y-88576610D01*
X180839509Y-88576611D01*
X180839511Y-88576614D01*
X182323386Y-90060489D01*
X182426113Y-90119799D01*
X182426115Y-90119799D01*
X182426116Y-90119800D01*
X182434184Y-90121961D01*
X182450326Y-90126286D01*
X182522618Y-90145657D01*
X182540690Y-90150500D01*
X182540691Y-90150500D01*
X191559309Y-90150500D01*
X191649673Y-90126286D01*
X191649674Y-90126286D01*
X191660350Y-90123425D01*
X191673887Y-90119799D01*
X191776614Y-90060489D01*
X192760489Y-89076614D01*
X192819799Y-88973887D01*
X192837051Y-88909501D01*
X192850500Y-88859309D01*
X192850500Y-88399894D01*
X192872174Y-88347568D01*
X192894421Y-88332705D01*
X192894394Y-88332654D01*
X192894919Y-88332373D01*
X192896190Y-88331523D01*
X192897598Y-88330941D01*
X193069655Y-88215977D01*
X193215977Y-88069655D01*
X193330941Y-87897598D01*
X193410130Y-87706420D01*
X193450500Y-87503465D01*
X193450500Y-87296535D01*
X193410130Y-87093580D01*
X193330941Y-86902402D01*
X193215977Y-86730345D01*
X193069655Y-86584023D01*
X192989180Y-86530252D01*
X192897598Y-86469059D01*
X192706420Y-86389870D01*
X192706413Y-86389868D01*
X192553516Y-86359455D01*
X192503465Y-86349500D01*
X192296535Y-86349500D01*
X192256385Y-86357486D01*
X192093586Y-86389868D01*
X192093579Y-86389870D01*
X191902401Y-86469059D01*
X191730345Y-86584022D01*
X191730344Y-86584024D01*
X191584024Y-86730344D01*
X191584022Y-86730345D01*
X191469059Y-86902401D01*
X191389870Y-87093579D01*
X191389868Y-87093586D01*
X191349500Y-87296535D01*
X191349500Y-87503464D01*
X191389868Y-87706413D01*
X191389870Y-87706420D01*
X191469059Y-87897598D01*
X191584023Y-88069655D01*
X191730345Y-88215977D01*
X191902402Y-88330941D01*
X191903808Y-88331523D01*
X191904173Y-88331888D01*
X191905606Y-88332654D01*
X191905373Y-88333088D01*
X191943863Y-88371565D01*
X191949500Y-88399894D01*
X191949500Y-88582745D01*
X191927826Y-88635071D01*
X191335071Y-89227826D01*
X191282745Y-89249500D01*
X182817255Y-89249500D01*
X182764929Y-89227826D01*
X181672174Y-88135071D01*
X181650500Y-88082745D01*
X181650500Y-84724500D01*
X181672174Y-84672174D01*
X181724500Y-84650500D01*
X182282745Y-84650500D01*
X182335071Y-84672174D01*
X182527826Y-84864929D01*
X182549500Y-84917255D01*
X182549500Y-85159460D01*
X182539587Y-85196457D01*
X182533608Y-85206814D01*
X182533608Y-85206815D01*
X182533606Y-85206818D01*
X182499500Y-85334105D01*
X182499500Y-85465894D01*
X182533606Y-85593181D01*
X182533607Y-85593184D01*
X182533608Y-85593186D01*
X182599500Y-85707314D01*
X182692686Y-85800500D01*
X182806814Y-85866392D01*
X182934105Y-85900499D01*
X182934106Y-85900500D01*
X182934108Y-85900500D01*
X183065894Y-85900500D01*
X183065894Y-85900499D01*
X183193186Y-85866392D01*
X183307314Y-85800500D01*
X183400500Y-85707314D01*
X183466392Y-85593186D01*
X183500499Y-85465894D01*
X183500500Y-85465894D01*
X183500500Y-85334106D01*
X183500499Y-85334105D01*
X183497439Y-85322686D01*
X183466392Y-85206814D01*
X183460412Y-85196457D01*
X183450500Y-85159460D01*
X183450500Y-84640693D01*
X183450500Y-84640691D01*
X183425416Y-84547075D01*
X183419799Y-84526113D01*
X183408945Y-84507314D01*
X183360489Y-84423385D01*
X182776612Y-83839509D01*
X182673891Y-83780203D01*
X182673889Y-83780202D01*
X182673887Y-83780201D01*
X182672585Y-83779852D01*
X182649674Y-83773712D01*
X182649674Y-83773713D01*
X182559309Y-83749500D01*
X181724500Y-83749500D01*
X181672174Y-83727826D01*
X181650500Y-83675500D01*
X181650500Y-68924500D01*
X181672174Y-68872174D01*
X181724500Y-68850500D01*
X187074590Y-68850500D01*
X187126916Y-68872174D01*
X187148590Y-68924500D01*
X187126916Y-68976826D01*
X187111590Y-68988586D01*
X187092685Y-68999500D01*
X186999500Y-69092685D01*
X186933610Y-69206809D01*
X186933606Y-69206818D01*
X186899500Y-69334105D01*
X186899500Y-69465894D01*
X186933606Y-69593181D01*
X186933610Y-69593190D01*
X186999500Y-69707314D01*
X187092687Y-69800501D01*
X187095544Y-69802693D01*
X187123866Y-69851740D01*
X187124500Y-69861404D01*
X187124500Y-86625500D01*
X187102826Y-86677826D01*
X187050500Y-86699500D01*
X186934106Y-86699500D01*
X186806818Y-86733606D01*
X186806809Y-86733610D01*
X186692685Y-86799500D01*
X186599500Y-86892685D01*
X186533610Y-87006809D01*
X186533606Y-87006818D01*
X186499500Y-87134105D01*
X186499500Y-87265894D01*
X186533606Y-87393181D01*
X186533607Y-87393184D01*
X186533608Y-87393186D01*
X186599500Y-87507314D01*
X186692686Y-87600500D01*
X186806814Y-87666392D01*
X186934105Y-87700499D01*
X186934106Y-87700500D01*
X186934108Y-87700500D01*
X187065894Y-87700500D01*
X187065894Y-87700499D01*
X187193186Y-87666392D01*
X187307314Y-87600500D01*
X187400500Y-87507314D01*
X187466392Y-87393186D01*
X187500499Y-87265894D01*
X187500500Y-87265894D01*
X187500500Y-87134111D01*
X187500029Y-87130537D01*
X187514682Y-87075828D01*
X187521070Y-87068545D01*
X187633554Y-86956062D01*
X187633554Y-86956061D01*
X187633557Y-86956059D01*
X187655782Y-86902402D01*
X187675500Y-86854800D01*
X187675500Y-86530253D01*
X188809500Y-86530253D01*
X188809500Y-88269746D01*
X188821133Y-88328232D01*
X188850088Y-88371565D01*
X188865448Y-88394552D01*
X188888762Y-88410130D01*
X188931767Y-88438866D01*
X188931768Y-88438866D01*
X188931769Y-88438867D01*
X188990252Y-88450500D01*
X188990254Y-88450500D01*
X190729746Y-88450500D01*
X190729748Y-88450500D01*
X190788231Y-88438867D01*
X190854552Y-88394552D01*
X190898867Y-88328231D01*
X190910500Y-88269748D01*
X190910500Y-86530252D01*
X190898867Y-86471769D01*
X190897056Y-86469059D01*
X190884027Y-86449560D01*
X190854552Y-86405448D01*
X190831235Y-86389868D01*
X190788232Y-86361133D01*
X190788233Y-86361133D01*
X190758989Y-86355316D01*
X190729748Y-86349500D01*
X188990252Y-86349500D01*
X188961010Y-86355316D01*
X188931767Y-86361133D01*
X188865449Y-86405447D01*
X188865447Y-86405449D01*
X188821133Y-86471767D01*
X188809500Y-86530253D01*
X187675500Y-86530253D01*
X187675500Y-84134105D01*
X187899500Y-84134105D01*
X187899500Y-84265894D01*
X187933606Y-84393181D01*
X187933610Y-84393190D01*
X187994989Y-84499500D01*
X187999500Y-84507314D01*
X188092686Y-84600500D01*
X188206814Y-84666392D01*
X188334105Y-84700499D01*
X188334106Y-84700500D01*
X188334108Y-84700500D01*
X188465894Y-84700500D01*
X188465894Y-84700499D01*
X188593186Y-84666392D01*
X188707314Y-84600500D01*
X188800500Y-84507314D01*
X188866392Y-84393186D01*
X188869485Y-84381638D01*
X188888637Y-84348464D01*
X189860489Y-83376614D01*
X189919799Y-83273887D01*
X189926286Y-83249673D01*
X189950500Y-83159309D01*
X189950500Y-82149999D01*
X190954646Y-82149999D01*
X190954647Y-82150000D01*
X191740382Y-82150000D01*
X191689936Y-82200446D01*
X191647149Y-82274555D01*
X191625000Y-82357213D01*
X191625000Y-82442787D01*
X191647149Y-82525445D01*
X191689936Y-82599554D01*
X191740382Y-82650000D01*
X190954646Y-82650000D01*
X190964388Y-82698975D01*
X190964391Y-82698986D01*
X191041653Y-82885515D01*
X191153827Y-83053396D01*
X191296603Y-83196172D01*
X191464485Y-83308346D01*
X191464484Y-83308346D01*
X191651013Y-83385608D01*
X191651024Y-83385611D01*
X191849047Y-83425000D01*
X191900000Y-83425000D01*
X191900000Y-82723067D01*
X191907213Y-82725000D01*
X192392787Y-82725000D01*
X192400000Y-82723067D01*
X192400000Y-83425000D01*
X192450953Y-83425000D01*
X192648975Y-83385611D01*
X192648986Y-83385608D01*
X192835515Y-83308346D01*
X193003396Y-83196172D01*
X193146172Y-83053396D01*
X193257507Y-82886771D01*
X193257508Y-82886769D01*
X193257509Y-82886769D01*
X193258344Y-82885518D01*
X193258346Y-82885515D01*
X193335608Y-82698986D01*
X193335611Y-82698975D01*
X193345353Y-82650000D01*
X192559618Y-82650000D01*
X192610064Y-82599554D01*
X192652851Y-82525445D01*
X192673067Y-82450000D01*
X193805261Y-82450000D01*
X194685025Y-82450000D01*
X194649930Y-82485095D01*
X194603852Y-82564905D01*
X194580000Y-82653922D01*
X194580000Y-82746078D01*
X194603852Y-82835095D01*
X194649930Y-82914905D01*
X194685025Y-82950000D01*
X193805261Y-82950000D01*
X193808317Y-82969294D01*
X193808318Y-82969297D01*
X193864251Y-83141443D01*
X193946433Y-83302732D01*
X193946433Y-83302733D01*
X194052826Y-83449170D01*
X194052834Y-83449180D01*
X194180820Y-83577166D01*
X194180829Y-83577173D01*
X194327266Y-83683566D01*
X194488556Y-83765748D01*
X194488555Y-83765748D01*
X194660697Y-83821680D01*
X194660710Y-83821683D01*
X194839491Y-83850000D01*
X194930000Y-83850000D01*
X194930000Y-83050000D01*
X195430000Y-83050000D01*
X195430000Y-83850000D01*
X195520509Y-83850000D01*
X195699289Y-83821683D01*
X195699302Y-83821680D01*
X195871443Y-83765748D01*
X196032732Y-83683566D01*
X196032733Y-83683566D01*
X196179170Y-83577173D01*
X196179180Y-83577166D01*
X196307166Y-83449180D01*
X196307173Y-83449170D01*
X196413566Y-83302733D01*
X196413566Y-83302732D01*
X196495748Y-83141443D01*
X196551681Y-82969297D01*
X196551682Y-82969294D01*
X196554739Y-82950000D01*
X195674975Y-82950000D01*
X195710070Y-82914905D01*
X195756148Y-82835095D01*
X195780000Y-82746078D01*
X195780000Y-82653922D01*
X195756148Y-82564905D01*
X195710070Y-82485095D01*
X195674975Y-82450000D01*
X196554738Y-82450000D01*
X196551682Y-82430705D01*
X196551681Y-82430702D01*
X196495748Y-82258556D01*
X196413566Y-82097267D01*
X196413566Y-82097266D01*
X196307173Y-81950829D01*
X196307166Y-81950820D01*
X196179180Y-81822834D01*
X196179170Y-81822826D01*
X196032733Y-81716433D01*
X195871443Y-81634251D01*
X195871444Y-81634251D01*
X195699302Y-81578319D01*
X195699289Y-81578316D01*
X195520509Y-81550000D01*
X195430000Y-81550000D01*
X195430000Y-82350000D01*
X194930000Y-82350000D01*
X194930000Y-81550000D01*
X194839491Y-81550000D01*
X194660710Y-81578316D01*
X194660697Y-81578319D01*
X194488556Y-81634251D01*
X194327267Y-81716433D01*
X194327266Y-81716433D01*
X194180829Y-81822826D01*
X194180820Y-81822834D01*
X194052834Y-81950820D01*
X194052826Y-81950829D01*
X193946433Y-82097266D01*
X193946433Y-82097267D01*
X193864251Y-82258556D01*
X193808318Y-82430702D01*
X193808317Y-82430705D01*
X193805261Y-82450000D01*
X192673067Y-82450000D01*
X192675000Y-82442787D01*
X192675000Y-82357213D01*
X192652851Y-82274555D01*
X192610064Y-82200446D01*
X192559618Y-82150000D01*
X193345353Y-82150000D01*
X193345353Y-82149999D01*
X193335611Y-82101024D01*
X193335608Y-82101013D01*
X193258346Y-81914484D01*
X193146172Y-81746603D01*
X193003396Y-81603827D01*
X192835514Y-81491653D01*
X192835515Y-81491653D01*
X192648986Y-81414391D01*
X192648975Y-81414388D01*
X192450953Y-81375000D01*
X192400000Y-81375000D01*
X192400000Y-82076932D01*
X192392787Y-82075000D01*
X191907213Y-82075000D01*
X191900000Y-82076932D01*
X191900000Y-81375000D01*
X191849047Y-81375000D01*
X191651024Y-81414388D01*
X191651013Y-81414391D01*
X191464484Y-81491653D01*
X191296603Y-81603827D01*
X191153827Y-81746603D01*
X191041653Y-81914484D01*
X190964391Y-82101013D01*
X190964388Y-82101024D01*
X190954646Y-82149999D01*
X189950500Y-82149999D01*
X189950500Y-77299999D01*
X190954646Y-77299999D01*
X190954647Y-77300000D01*
X191740382Y-77300000D01*
X191689936Y-77350446D01*
X191647149Y-77424555D01*
X191625000Y-77507213D01*
X191625000Y-77592787D01*
X191647149Y-77675445D01*
X191689936Y-77749554D01*
X191740382Y-77800000D01*
X190954646Y-77800000D01*
X190964388Y-77848975D01*
X190964391Y-77848986D01*
X191041653Y-78035515D01*
X191153827Y-78203396D01*
X191296603Y-78346172D01*
X191464485Y-78458346D01*
X191464484Y-78458346D01*
X191651013Y-78535608D01*
X191651024Y-78535611D01*
X191849047Y-78575000D01*
X191900000Y-78575000D01*
X191900000Y-77873067D01*
X191907213Y-77875000D01*
X192392787Y-77875000D01*
X192400000Y-77873067D01*
X192400000Y-78575000D01*
X192450953Y-78575000D01*
X192648975Y-78535611D01*
X192648986Y-78535608D01*
X192835515Y-78458346D01*
X193003396Y-78346172D01*
X193146172Y-78203396D01*
X193258346Y-78035515D01*
X193335608Y-77848986D01*
X193335611Y-77848975D01*
X193345353Y-77800000D01*
X192559618Y-77800000D01*
X192610064Y-77749554D01*
X192652851Y-77675445D01*
X192675000Y-77592787D01*
X192675000Y-77507213D01*
X192652851Y-77424555D01*
X192610064Y-77350446D01*
X192559618Y-77300000D01*
X193345353Y-77300000D01*
X193345353Y-77299999D01*
X193335611Y-77251024D01*
X193335608Y-77251013D01*
X193258346Y-77064484D01*
X193258344Y-77064481D01*
X193257509Y-77063231D01*
X193257507Y-77063229D01*
X193215259Y-77000000D01*
X193805261Y-77000000D01*
X194685025Y-77000000D01*
X194649930Y-77035095D01*
X194603852Y-77114905D01*
X194580000Y-77203922D01*
X194580000Y-77296078D01*
X194603852Y-77385095D01*
X194649930Y-77464905D01*
X194685025Y-77500000D01*
X193805261Y-77500000D01*
X193808317Y-77519294D01*
X193808318Y-77519297D01*
X193864251Y-77691443D01*
X193946433Y-77852732D01*
X193946433Y-77852733D01*
X194052826Y-77999170D01*
X194052834Y-77999180D01*
X194180820Y-78127166D01*
X194180829Y-78127173D01*
X194327266Y-78233566D01*
X194488556Y-78315748D01*
X194488555Y-78315748D01*
X194660697Y-78371680D01*
X194660710Y-78371683D01*
X194839491Y-78400000D01*
X194930000Y-78400000D01*
X194930000Y-77600000D01*
X195430000Y-77600000D01*
X195430000Y-78400000D01*
X195520509Y-78400000D01*
X195699289Y-78371683D01*
X195699302Y-78371680D01*
X195871443Y-78315748D01*
X196032732Y-78233566D01*
X196032733Y-78233566D01*
X196179170Y-78127173D01*
X196179180Y-78127166D01*
X196307166Y-77999180D01*
X196307173Y-77999170D01*
X196413566Y-77852733D01*
X196413566Y-77852732D01*
X196495748Y-77691443D01*
X196551681Y-77519297D01*
X196551682Y-77519294D01*
X196554739Y-77500000D01*
X195674975Y-77500000D01*
X195710070Y-77464905D01*
X195756148Y-77385095D01*
X195780000Y-77296078D01*
X195780000Y-77203922D01*
X195756148Y-77114905D01*
X195710070Y-77035095D01*
X195674975Y-77000000D01*
X196554738Y-77000000D01*
X196551682Y-76980705D01*
X196551681Y-76980702D01*
X196495748Y-76808556D01*
X196413566Y-76647267D01*
X196413566Y-76647266D01*
X196307173Y-76500829D01*
X196307166Y-76500820D01*
X196179180Y-76372834D01*
X196179170Y-76372826D01*
X196032733Y-76266433D01*
X195871443Y-76184251D01*
X195871444Y-76184251D01*
X195699302Y-76128319D01*
X195699289Y-76128316D01*
X195520509Y-76100000D01*
X195430000Y-76100000D01*
X195430000Y-76900000D01*
X194930000Y-76900000D01*
X194930000Y-76100000D01*
X194839491Y-76100000D01*
X194660710Y-76128316D01*
X194660697Y-76128319D01*
X194488556Y-76184251D01*
X194327267Y-76266433D01*
X194327266Y-76266433D01*
X194180829Y-76372826D01*
X194180820Y-76372834D01*
X194052834Y-76500820D01*
X194052826Y-76500829D01*
X193946433Y-76647266D01*
X193946433Y-76647267D01*
X193864251Y-76808556D01*
X193808318Y-76980702D01*
X193808317Y-76980705D01*
X193805261Y-77000000D01*
X193215259Y-77000000D01*
X193146172Y-76896603D01*
X193003396Y-76753827D01*
X192835514Y-76641653D01*
X192835515Y-76641653D01*
X192648986Y-76564391D01*
X192648975Y-76564388D01*
X192450953Y-76525000D01*
X192400000Y-76525000D01*
X192400000Y-77226932D01*
X192392787Y-77225000D01*
X191907213Y-77225000D01*
X191900000Y-77226932D01*
X191900000Y-76525000D01*
X191849047Y-76525000D01*
X191651024Y-76564388D01*
X191651013Y-76564391D01*
X191464484Y-76641653D01*
X191296603Y-76753827D01*
X191153827Y-76896603D01*
X191041653Y-77064484D01*
X190964391Y-77251013D01*
X190964388Y-77251024D01*
X190954646Y-77299999D01*
X189950500Y-77299999D01*
X189950500Y-70877971D01*
X192449500Y-70877971D01*
X192449500Y-71122028D01*
X192487678Y-71363073D01*
X192487681Y-71363086D01*
X192563093Y-71595179D01*
X192673893Y-71812639D01*
X192817341Y-72010078D01*
X192817345Y-72010083D01*
X192989917Y-72182655D01*
X192989920Y-72182657D01*
X192989921Y-72182658D01*
X193187360Y-72326106D01*
X193292171Y-72379509D01*
X193404815Y-72436904D01*
X193404817Y-72436904D01*
X193404820Y-72436906D01*
X193636913Y-72512318D01*
X193636919Y-72512319D01*
X193636924Y-72512321D01*
X193757448Y-72531410D01*
X193877971Y-72550500D01*
X193877973Y-72550500D01*
X194122029Y-72550500D01*
X194218446Y-72535228D01*
X194363076Y-72512321D01*
X194363083Y-72512318D01*
X194363086Y-72512318D01*
X194595179Y-72436906D01*
X194595179Y-72436905D01*
X194595185Y-72436904D01*
X194812639Y-72326106D01*
X195010083Y-72182655D01*
X195182655Y-72010083D01*
X195326106Y-71812639D01*
X195436904Y-71595185D01*
X195512321Y-71363076D01*
X195550500Y-71122027D01*
X195550500Y-70877973D01*
X195512321Y-70636924D01*
X195512319Y-70636919D01*
X195512318Y-70636913D01*
X195436906Y-70404820D01*
X195436904Y-70404817D01*
X195436904Y-70404815D01*
X195379509Y-70292171D01*
X195326106Y-70187360D01*
X195182658Y-69989921D01*
X195182657Y-69989920D01*
X195182655Y-69989917D01*
X195010083Y-69817345D01*
X195010080Y-69817342D01*
X195010078Y-69817341D01*
X194812639Y-69673893D01*
X194595179Y-69563093D01*
X194363086Y-69487681D01*
X194363073Y-69487678D01*
X194122029Y-69449500D01*
X194122027Y-69449500D01*
X193877973Y-69449500D01*
X193877971Y-69449500D01*
X193636926Y-69487678D01*
X193636913Y-69487681D01*
X193404820Y-69563093D01*
X193187360Y-69673893D01*
X192989921Y-69817341D01*
X192817341Y-69989921D01*
X192673893Y-70187360D01*
X192563093Y-70404820D01*
X192487681Y-70636913D01*
X192487678Y-70636926D01*
X192449500Y-70877971D01*
X189950500Y-70877971D01*
X189950500Y-66124500D01*
X189972174Y-66072174D01*
X190024500Y-66050500D01*
X190103464Y-66050500D01*
X190103465Y-66050500D01*
X190306420Y-66010130D01*
X190497598Y-65930941D01*
X190669655Y-65815977D01*
X190815977Y-65669655D01*
X190930941Y-65497598D01*
X191010130Y-65306420D01*
X191050500Y-65103465D01*
X191050500Y-64896535D01*
X191489500Y-64896535D01*
X191489500Y-65103464D01*
X191529868Y-65306413D01*
X191529870Y-65306420D01*
X191609059Y-65497598D01*
X191724023Y-65669655D01*
X191870345Y-65815977D01*
X192042402Y-65930941D01*
X192233580Y-66010130D01*
X192436535Y-66050500D01*
X192436536Y-66050500D01*
X192643464Y-66050500D01*
X192643465Y-66050500D01*
X192846420Y-66010130D01*
X193037598Y-65930941D01*
X193209655Y-65815977D01*
X193355977Y-65669655D01*
X193470941Y-65497598D01*
X193550130Y-65306420D01*
X193583422Y-65139047D01*
X193614888Y-65091955D01*
X193670436Y-65080906D01*
X193717529Y-65112372D01*
X193730000Y-65153484D01*
X193730000Y-65897828D01*
X193736402Y-65957375D01*
X193736403Y-65957380D01*
X193786645Y-66092087D01*
X193786646Y-66092088D01*
X193872811Y-66207188D01*
X193987911Y-66293353D01*
X193987912Y-66293354D01*
X194122619Y-66343596D01*
X194122624Y-66343597D01*
X194182171Y-66350000D01*
X194830000Y-66350000D01*
X194830000Y-65433012D01*
X194887007Y-65465925D01*
X195014174Y-65500000D01*
X195145826Y-65500000D01*
X195272993Y-65465925D01*
X195330000Y-65433012D01*
X195330000Y-66350000D01*
X195977829Y-66350000D01*
X196037375Y-66343597D01*
X196037380Y-66343596D01*
X196172087Y-66293354D01*
X196172088Y-66293353D01*
X196287188Y-66207188D01*
X196373353Y-66092088D01*
X196373354Y-66092087D01*
X196423596Y-65957380D01*
X196423597Y-65957375D01*
X196430000Y-65897828D01*
X196430000Y-65250000D01*
X195513012Y-65250000D01*
X195545925Y-65192993D01*
X195580000Y-65065826D01*
X195580000Y-64934174D01*
X195545925Y-64807007D01*
X195513012Y-64750000D01*
X196430000Y-64750000D01*
X196430000Y-64102171D01*
X196423597Y-64042624D01*
X196423596Y-64042619D01*
X196373354Y-63907912D01*
X196373353Y-63907911D01*
X196287188Y-63792811D01*
X196172088Y-63706646D01*
X196172087Y-63706645D01*
X196037380Y-63656403D01*
X196037375Y-63656402D01*
X195977829Y-63650000D01*
X195330000Y-63650000D01*
X195330000Y-64566988D01*
X195272993Y-64534075D01*
X195145826Y-64500000D01*
X195014174Y-64500000D01*
X194887007Y-64534075D01*
X194830000Y-64566988D01*
X194830000Y-63650000D01*
X194182171Y-63650000D01*
X194122624Y-63656402D01*
X194122619Y-63656403D01*
X193987912Y-63706645D01*
X193987911Y-63706646D01*
X193872811Y-63792811D01*
X193786646Y-63907911D01*
X193786645Y-63907912D01*
X193736403Y-64042619D01*
X193736402Y-64042624D01*
X193730000Y-64102171D01*
X193730000Y-64846515D01*
X193708326Y-64898841D01*
X193656000Y-64920515D01*
X193603674Y-64898841D01*
X193583422Y-64860951D01*
X193572692Y-64807007D01*
X193550130Y-64693580D01*
X193470941Y-64502402D01*
X193355977Y-64330345D01*
X193209655Y-64184023D01*
X193114642Y-64120538D01*
X193037598Y-64069059D01*
X192846420Y-63989870D01*
X192846413Y-63989868D01*
X192693516Y-63959455D01*
X192643465Y-63949500D01*
X192436535Y-63949500D01*
X192396385Y-63957486D01*
X192233586Y-63989868D01*
X192233579Y-63989870D01*
X192042401Y-64069059D01*
X191870345Y-64184022D01*
X191870344Y-64184024D01*
X191724024Y-64330344D01*
X191724022Y-64330345D01*
X191609059Y-64502401D01*
X191529870Y-64693579D01*
X191529868Y-64693586D01*
X191489500Y-64896535D01*
X191050500Y-64896535D01*
X191010130Y-64693580D01*
X190930941Y-64502402D01*
X190815977Y-64330345D01*
X190669655Y-64184023D01*
X190574642Y-64120538D01*
X190497598Y-64069059D01*
X190306420Y-63989870D01*
X190306413Y-63989868D01*
X190153516Y-63959455D01*
X190103465Y-63949500D01*
X189896535Y-63949500D01*
X189856385Y-63957486D01*
X189693586Y-63989868D01*
X189693579Y-63989870D01*
X189502401Y-64069059D01*
X189330345Y-64184022D01*
X189330344Y-64184024D01*
X189184024Y-64330344D01*
X189184022Y-64330345D01*
X189069059Y-64502401D01*
X188989870Y-64693579D01*
X188989868Y-64693586D01*
X188949500Y-64896535D01*
X188949500Y-65103464D01*
X188989868Y-65306413D01*
X188989870Y-65306420D01*
X189043867Y-65436778D01*
X189049500Y-65465097D01*
X189049500Y-82882744D01*
X189027826Y-82935070D01*
X188251535Y-83711360D01*
X188218366Y-83730511D01*
X188206816Y-83733606D01*
X188092685Y-83799500D01*
X187999500Y-83892685D01*
X187933610Y-84006809D01*
X187933606Y-84006818D01*
X187899500Y-84134105D01*
X187675500Y-84134105D01*
X187675500Y-69861404D01*
X187697174Y-69809078D01*
X187704456Y-69802693D01*
X187707312Y-69800501D01*
X187707311Y-69800501D01*
X187707314Y-69800500D01*
X187800500Y-69707314D01*
X187866392Y-69593186D01*
X187900499Y-69465894D01*
X187900500Y-69465894D01*
X187900500Y-69334106D01*
X187900499Y-69334105D01*
X187866393Y-69206818D01*
X187866392Y-69206814D01*
X187800500Y-69092686D01*
X187707314Y-68999500D01*
X187688409Y-68988585D01*
X187682322Y-68980652D01*
X187673084Y-68976826D01*
X187665691Y-68958977D01*
X187653932Y-68943653D01*
X187655237Y-68933739D01*
X187651410Y-68924500D01*
X187658802Y-68906652D01*
X187661324Y-68887500D01*
X187669257Y-68881412D01*
X187673084Y-68872174D01*
X187690932Y-68864781D01*
X187706257Y-68853022D01*
X187725410Y-68850500D01*
X187759460Y-68850500D01*
X187796457Y-68860412D01*
X187806814Y-68866392D01*
X187934105Y-68900499D01*
X187934106Y-68900500D01*
X187934108Y-68900500D01*
X188065894Y-68900500D01*
X188065894Y-68900499D01*
X188193186Y-68866392D01*
X188307314Y-68800500D01*
X188400500Y-68707314D01*
X188466392Y-68593186D01*
X188500499Y-68465894D01*
X188500500Y-68465894D01*
X188500500Y-68334106D01*
X188500499Y-68334105D01*
X188466393Y-68206818D01*
X188466392Y-68206814D01*
X188400500Y-68092686D01*
X188307314Y-67999500D01*
X188273887Y-67980201D01*
X188193190Y-67933610D01*
X188193181Y-67933606D01*
X188065894Y-67899500D01*
X188065892Y-67899500D01*
X187934108Y-67899500D01*
X187934106Y-67899500D01*
X187806818Y-67933606D01*
X187806815Y-67933607D01*
X187806814Y-67933608D01*
X187796457Y-67939587D01*
X187759460Y-67949500D01*
X166140689Y-67949500D01*
X166050326Y-67973713D01*
X166036345Y-67977459D01*
X166026111Y-67980201D01*
X165923385Y-68039510D01*
X165251535Y-68711360D01*
X165218366Y-68730511D01*
X165206816Y-68733606D01*
X165092685Y-68799500D01*
X164999500Y-68892685D01*
X164933610Y-69006809D01*
X164933606Y-69006818D01*
X164899500Y-69134105D01*
X154200500Y-69134105D01*
X154200500Y-64750000D01*
X155652769Y-64750000D01*
X156546988Y-64750000D01*
X156514075Y-64807007D01*
X156480000Y-64934174D01*
X156480000Y-65065826D01*
X156514075Y-65192993D01*
X156546988Y-65250000D01*
X155652769Y-65250000D01*
X155663241Y-65316122D01*
X155663244Y-65316136D01*
X155728904Y-65518217D01*
X155728906Y-65518221D01*
X155825375Y-65707550D01*
X155825378Y-65707556D01*
X155950274Y-65879461D01*
X155950283Y-65879471D01*
X156100529Y-66029717D01*
X156100538Y-66029725D01*
X156272443Y-66154621D01*
X156272449Y-66154624D01*
X156461778Y-66251093D01*
X156461782Y-66251095D01*
X156663863Y-66316755D01*
X156663877Y-66316758D01*
X156730000Y-66327230D01*
X156730000Y-65433012D01*
X156787007Y-65465925D01*
X156914174Y-65500000D01*
X157045826Y-65500000D01*
X157172993Y-65465925D01*
X157230000Y-65433012D01*
X157230000Y-66327229D01*
X157296122Y-66316758D01*
X157296136Y-66316755D01*
X157498217Y-66251095D01*
X157498221Y-66251093D01*
X157687550Y-66154624D01*
X157687556Y-66154621D01*
X157859461Y-66029725D01*
X157859471Y-66029717D01*
X158009717Y-65879471D01*
X158009725Y-65879461D01*
X158134621Y-65707556D01*
X158134624Y-65707550D01*
X158231093Y-65518221D01*
X158231095Y-65518217D01*
X158296755Y-65316136D01*
X158296758Y-65316123D01*
X158327259Y-65123550D01*
X158356852Y-65075259D01*
X158411924Y-65062037D01*
X158460215Y-65091630D01*
X158472926Y-65120689D01*
X158509868Y-65306414D01*
X158509870Y-65306420D01*
X158589059Y-65497598D01*
X158704023Y-65669655D01*
X158850345Y-65815977D01*
X159022402Y-65930941D01*
X159213580Y-66010130D01*
X159416535Y-66050500D01*
X159416536Y-66050500D01*
X159623464Y-66050500D01*
X159623465Y-66050500D01*
X159826420Y-66010130D01*
X160017598Y-65930941D01*
X160189655Y-65815977D01*
X160335977Y-65669655D01*
X160450941Y-65497598D01*
X160530130Y-65306420D01*
X160570500Y-65103465D01*
X160570500Y-64896535D01*
X161009500Y-64896535D01*
X161009500Y-65103464D01*
X161049868Y-65306413D01*
X161049870Y-65306420D01*
X161129059Y-65497598D01*
X161244023Y-65669655D01*
X161390345Y-65815977D01*
X161562402Y-65930941D01*
X161753580Y-66010130D01*
X161956535Y-66050500D01*
X161956536Y-66050500D01*
X162163464Y-66050500D01*
X162163465Y-66050500D01*
X162366420Y-66010130D01*
X162557598Y-65930941D01*
X162729655Y-65815977D01*
X162875977Y-65669655D01*
X162990941Y-65497598D01*
X163070130Y-65306420D01*
X163110500Y-65103465D01*
X163110500Y-64896535D01*
X163549500Y-64896535D01*
X163549500Y-65103464D01*
X163589868Y-65306413D01*
X163589870Y-65306420D01*
X163669059Y-65497598D01*
X163784023Y-65669655D01*
X163930345Y-65815977D01*
X164102402Y-65930941D01*
X164293580Y-66010130D01*
X164496535Y-66050500D01*
X164496536Y-66050500D01*
X164703464Y-66050500D01*
X164703465Y-66050500D01*
X164906420Y-66010130D01*
X165097598Y-65930941D01*
X165269655Y-65815977D01*
X165415977Y-65669655D01*
X165530941Y-65497598D01*
X165610130Y-65306420D01*
X165650500Y-65103465D01*
X165650500Y-64896535D01*
X166089500Y-64896535D01*
X166089500Y-65103464D01*
X166129868Y-65306413D01*
X166129870Y-65306420D01*
X166209059Y-65497598D01*
X166324023Y-65669655D01*
X166470345Y-65815977D01*
X166642402Y-65930941D01*
X166833580Y-66010130D01*
X167036535Y-66050500D01*
X167036536Y-66050500D01*
X167243464Y-66050500D01*
X167243465Y-66050500D01*
X167446420Y-66010130D01*
X167637598Y-65930941D01*
X167809655Y-65815977D01*
X167955977Y-65669655D01*
X168070941Y-65497598D01*
X168150130Y-65306420D01*
X168190500Y-65103465D01*
X168190500Y-64896535D01*
X168629500Y-64896535D01*
X168629500Y-65103464D01*
X168669868Y-65306413D01*
X168669870Y-65306420D01*
X168749059Y-65497598D01*
X168864023Y-65669655D01*
X169010345Y-65815977D01*
X169182402Y-65930941D01*
X169373580Y-66010130D01*
X169576535Y-66050500D01*
X169576536Y-66050500D01*
X169783464Y-66050500D01*
X169783465Y-66050500D01*
X169986420Y-66010130D01*
X170177598Y-65930941D01*
X170349655Y-65815977D01*
X170495977Y-65669655D01*
X170610941Y-65497598D01*
X170690130Y-65306420D01*
X170730500Y-65103465D01*
X170730500Y-64896535D01*
X171169500Y-64896535D01*
X171169500Y-65103464D01*
X171209868Y-65306413D01*
X171209870Y-65306420D01*
X171289059Y-65497598D01*
X171404023Y-65669655D01*
X171550345Y-65815977D01*
X171722402Y-65930941D01*
X171913580Y-66010130D01*
X172116535Y-66050500D01*
X172116536Y-66050500D01*
X172323464Y-66050500D01*
X172323465Y-66050500D01*
X172526420Y-66010130D01*
X172717598Y-65930941D01*
X172889655Y-65815977D01*
X173035977Y-65669655D01*
X173150941Y-65497598D01*
X173230130Y-65306420D01*
X173270500Y-65103465D01*
X173270500Y-64896535D01*
X173709500Y-64896535D01*
X173709500Y-65103464D01*
X173749868Y-65306413D01*
X173749870Y-65306420D01*
X173829059Y-65497598D01*
X173944023Y-65669655D01*
X174090345Y-65815977D01*
X174262402Y-65930941D01*
X174453580Y-66010130D01*
X174656535Y-66050500D01*
X174656536Y-66050500D01*
X174863464Y-66050500D01*
X174863465Y-66050500D01*
X175066420Y-66010130D01*
X175257598Y-65930941D01*
X175429655Y-65815977D01*
X175575977Y-65669655D01*
X175690941Y-65497598D01*
X175770130Y-65306420D01*
X175810500Y-65103465D01*
X175810500Y-64896535D01*
X176249500Y-64896535D01*
X176249500Y-65103464D01*
X176289868Y-65306413D01*
X176289870Y-65306420D01*
X176369059Y-65497598D01*
X176484023Y-65669655D01*
X176630345Y-65815977D01*
X176802402Y-65930941D01*
X176993580Y-66010130D01*
X177196535Y-66050500D01*
X177196536Y-66050500D01*
X177403464Y-66050500D01*
X177403465Y-66050500D01*
X177606420Y-66010130D01*
X177797598Y-65930941D01*
X177969655Y-65815977D01*
X178115977Y-65669655D01*
X178230941Y-65497598D01*
X178310130Y-65306420D01*
X178350500Y-65103465D01*
X178350500Y-64896535D01*
X178789500Y-64896535D01*
X178789500Y-65103464D01*
X178829868Y-65306413D01*
X178829870Y-65306420D01*
X178909059Y-65497598D01*
X179024023Y-65669655D01*
X179170345Y-65815977D01*
X179342402Y-65930941D01*
X179533580Y-66010130D01*
X179736535Y-66050500D01*
X179736536Y-66050500D01*
X179943464Y-66050500D01*
X179943465Y-66050500D01*
X180146420Y-66010130D01*
X180337598Y-65930941D01*
X180509655Y-65815977D01*
X180655977Y-65669655D01*
X180770941Y-65497598D01*
X180850130Y-65306420D01*
X180890500Y-65103465D01*
X180890500Y-64896535D01*
X181329500Y-64896535D01*
X181329500Y-65103464D01*
X181369868Y-65306413D01*
X181369870Y-65306420D01*
X181449059Y-65497598D01*
X181564023Y-65669655D01*
X181710345Y-65815977D01*
X181882402Y-65930941D01*
X182073580Y-66010130D01*
X182276535Y-66050500D01*
X182276536Y-66050500D01*
X182483464Y-66050500D01*
X182483465Y-66050500D01*
X182686420Y-66010130D01*
X182877598Y-65930941D01*
X183049655Y-65815977D01*
X183195977Y-65669655D01*
X183310941Y-65497598D01*
X183390130Y-65306420D01*
X183430500Y-65103465D01*
X183430500Y-64896535D01*
X183869500Y-64896535D01*
X183869500Y-65103464D01*
X183909868Y-65306413D01*
X183909870Y-65306420D01*
X183989059Y-65497598D01*
X184104023Y-65669655D01*
X184250345Y-65815977D01*
X184422402Y-65930941D01*
X184613580Y-66010130D01*
X184816535Y-66050500D01*
X184816536Y-66050500D01*
X185023464Y-66050500D01*
X185023465Y-66050500D01*
X185226420Y-66010130D01*
X185417598Y-65930941D01*
X185589655Y-65815977D01*
X185735977Y-65669655D01*
X185850941Y-65497598D01*
X185930130Y-65306420D01*
X185970500Y-65103465D01*
X185970500Y-64896535D01*
X186409500Y-64896535D01*
X186409500Y-65103464D01*
X186449868Y-65306413D01*
X186449870Y-65306420D01*
X186529059Y-65497598D01*
X186644023Y-65669655D01*
X186790345Y-65815977D01*
X186962402Y-65930941D01*
X187153580Y-66010130D01*
X187356535Y-66050500D01*
X187356536Y-66050500D01*
X187563464Y-66050500D01*
X187563465Y-66050500D01*
X187766420Y-66010130D01*
X187957598Y-65930941D01*
X188129655Y-65815977D01*
X188275977Y-65669655D01*
X188390941Y-65497598D01*
X188470130Y-65306420D01*
X188510500Y-65103465D01*
X188510500Y-64896535D01*
X188470130Y-64693580D01*
X188390941Y-64502402D01*
X188275977Y-64330345D01*
X188129655Y-64184023D01*
X188034642Y-64120538D01*
X187957598Y-64069059D01*
X187766420Y-63989870D01*
X187766413Y-63989868D01*
X187613516Y-63959455D01*
X187563465Y-63949500D01*
X187356535Y-63949500D01*
X187316385Y-63957486D01*
X187153586Y-63989868D01*
X187153579Y-63989870D01*
X186962401Y-64069059D01*
X186790345Y-64184022D01*
X186790344Y-64184024D01*
X186644024Y-64330344D01*
X186644022Y-64330345D01*
X186529059Y-64502401D01*
X186449870Y-64693579D01*
X186449868Y-64693586D01*
X186409500Y-64896535D01*
X185970500Y-64896535D01*
X185930130Y-64693580D01*
X185850941Y-64502402D01*
X185735977Y-64330345D01*
X185589655Y-64184023D01*
X185494642Y-64120538D01*
X185417598Y-64069059D01*
X185226420Y-63989870D01*
X185226413Y-63989868D01*
X185073516Y-63959455D01*
X185023465Y-63949500D01*
X184816535Y-63949500D01*
X184776385Y-63957486D01*
X184613586Y-63989868D01*
X184613579Y-63989870D01*
X184422401Y-64069059D01*
X184250345Y-64184022D01*
X184250344Y-64184024D01*
X184104024Y-64330344D01*
X184104022Y-64330345D01*
X183989059Y-64502401D01*
X183909870Y-64693579D01*
X183909868Y-64693586D01*
X183869500Y-64896535D01*
X183430500Y-64896535D01*
X183390130Y-64693580D01*
X183310941Y-64502402D01*
X183195977Y-64330345D01*
X183049655Y-64184023D01*
X182954642Y-64120538D01*
X182877598Y-64069059D01*
X182686420Y-63989870D01*
X182686413Y-63989868D01*
X182533516Y-63959455D01*
X182483465Y-63949500D01*
X182276535Y-63949500D01*
X182236385Y-63957486D01*
X182073586Y-63989868D01*
X182073579Y-63989870D01*
X181882401Y-64069059D01*
X181710345Y-64184022D01*
X181710344Y-64184024D01*
X181564024Y-64330344D01*
X181564022Y-64330345D01*
X181449059Y-64502401D01*
X181369870Y-64693579D01*
X181369868Y-64693586D01*
X181329500Y-64896535D01*
X180890500Y-64896535D01*
X180850130Y-64693580D01*
X180770941Y-64502402D01*
X180655977Y-64330345D01*
X180509655Y-64184023D01*
X180414642Y-64120538D01*
X180337598Y-64069059D01*
X180146420Y-63989870D01*
X180146413Y-63989868D01*
X179993516Y-63959455D01*
X179943465Y-63949500D01*
X179736535Y-63949500D01*
X179696385Y-63957486D01*
X179533586Y-63989868D01*
X179533579Y-63989870D01*
X179342401Y-64069059D01*
X179170345Y-64184022D01*
X179170344Y-64184024D01*
X179024024Y-64330344D01*
X179024022Y-64330345D01*
X178909059Y-64502401D01*
X178829870Y-64693579D01*
X178829868Y-64693586D01*
X178789500Y-64896535D01*
X178350500Y-64896535D01*
X178310130Y-64693580D01*
X178230941Y-64502402D01*
X178115977Y-64330345D01*
X177969655Y-64184023D01*
X177874642Y-64120538D01*
X177797598Y-64069059D01*
X177606420Y-63989870D01*
X177606413Y-63989868D01*
X177453516Y-63959455D01*
X177403465Y-63949500D01*
X177196535Y-63949500D01*
X177156385Y-63957486D01*
X176993586Y-63989868D01*
X176993579Y-63989870D01*
X176802401Y-64069059D01*
X176630345Y-64184022D01*
X176630344Y-64184024D01*
X176484024Y-64330344D01*
X176484022Y-64330345D01*
X176369059Y-64502401D01*
X176289870Y-64693579D01*
X176289868Y-64693586D01*
X176249500Y-64896535D01*
X175810500Y-64896535D01*
X175770130Y-64693580D01*
X175690941Y-64502402D01*
X175575977Y-64330345D01*
X175429655Y-64184023D01*
X175334642Y-64120538D01*
X175257598Y-64069059D01*
X175066420Y-63989870D01*
X175066413Y-63989868D01*
X174913516Y-63959455D01*
X174863465Y-63949500D01*
X174656535Y-63949500D01*
X174616385Y-63957486D01*
X174453586Y-63989868D01*
X174453579Y-63989870D01*
X174262401Y-64069059D01*
X174090345Y-64184022D01*
X174090344Y-64184024D01*
X173944024Y-64330344D01*
X173944022Y-64330345D01*
X173829059Y-64502401D01*
X173749870Y-64693579D01*
X173749868Y-64693586D01*
X173709500Y-64896535D01*
X173270500Y-64896535D01*
X173230130Y-64693580D01*
X173150941Y-64502402D01*
X173035977Y-64330345D01*
X172889655Y-64184023D01*
X172794642Y-64120538D01*
X172717598Y-64069059D01*
X172526420Y-63989870D01*
X172526413Y-63989868D01*
X172373516Y-63959455D01*
X172323465Y-63949500D01*
X172116535Y-63949500D01*
X172076385Y-63957486D01*
X171913586Y-63989868D01*
X171913579Y-63989870D01*
X171722401Y-64069059D01*
X171550345Y-64184022D01*
X171550344Y-64184024D01*
X171404024Y-64330344D01*
X171404022Y-64330345D01*
X171289059Y-64502401D01*
X171209870Y-64693579D01*
X171209868Y-64693586D01*
X171169500Y-64896535D01*
X170730500Y-64896535D01*
X170690130Y-64693580D01*
X170610941Y-64502402D01*
X170495977Y-64330345D01*
X170349655Y-64184023D01*
X170254642Y-64120538D01*
X170177598Y-64069059D01*
X169986420Y-63989870D01*
X169986413Y-63989868D01*
X169833516Y-63959455D01*
X169783465Y-63949500D01*
X169576535Y-63949500D01*
X169536385Y-63957486D01*
X169373586Y-63989868D01*
X169373579Y-63989870D01*
X169182401Y-64069059D01*
X169010345Y-64184022D01*
X169010344Y-64184024D01*
X168864024Y-64330344D01*
X168864022Y-64330345D01*
X168749059Y-64502401D01*
X168669870Y-64693579D01*
X168669868Y-64693586D01*
X168629500Y-64896535D01*
X168190500Y-64896535D01*
X168150130Y-64693580D01*
X168070941Y-64502402D01*
X167955977Y-64330345D01*
X167809655Y-64184023D01*
X167714642Y-64120538D01*
X167637598Y-64069059D01*
X167446420Y-63989870D01*
X167446413Y-63989868D01*
X167293516Y-63959455D01*
X167243465Y-63949500D01*
X167036535Y-63949500D01*
X166996385Y-63957486D01*
X166833586Y-63989868D01*
X166833579Y-63989870D01*
X166642401Y-64069059D01*
X166470345Y-64184022D01*
X166470344Y-64184024D01*
X166324024Y-64330344D01*
X166324022Y-64330345D01*
X166209059Y-64502401D01*
X166129870Y-64693579D01*
X166129868Y-64693586D01*
X166089500Y-64896535D01*
X165650500Y-64896535D01*
X165610130Y-64693580D01*
X165530941Y-64502402D01*
X165415977Y-64330345D01*
X165269655Y-64184023D01*
X165174642Y-64120538D01*
X165097598Y-64069059D01*
X164906420Y-63989870D01*
X164906413Y-63989868D01*
X164753516Y-63959455D01*
X164703465Y-63949500D01*
X164496535Y-63949500D01*
X164456385Y-63957486D01*
X164293586Y-63989868D01*
X164293579Y-63989870D01*
X164102401Y-64069059D01*
X163930345Y-64184022D01*
X163930344Y-64184024D01*
X163784024Y-64330344D01*
X163784022Y-64330345D01*
X163669059Y-64502401D01*
X163589870Y-64693579D01*
X163589868Y-64693586D01*
X163549500Y-64896535D01*
X163110500Y-64896535D01*
X163070130Y-64693580D01*
X162990941Y-64502402D01*
X162875977Y-64330345D01*
X162729655Y-64184023D01*
X162634642Y-64120538D01*
X162557598Y-64069059D01*
X162366420Y-63989870D01*
X162366413Y-63989868D01*
X162213516Y-63959455D01*
X162163465Y-63949500D01*
X161956535Y-63949500D01*
X161916385Y-63957486D01*
X161753586Y-63989868D01*
X161753579Y-63989870D01*
X161562401Y-64069059D01*
X161390345Y-64184022D01*
X161390344Y-64184024D01*
X161244024Y-64330344D01*
X161244022Y-64330345D01*
X161129059Y-64502401D01*
X161049870Y-64693579D01*
X161049868Y-64693586D01*
X161009500Y-64896535D01*
X160570500Y-64896535D01*
X160530130Y-64693580D01*
X160450941Y-64502402D01*
X160335977Y-64330345D01*
X160189655Y-64184023D01*
X160094642Y-64120538D01*
X160017598Y-64069059D01*
X159826420Y-63989870D01*
X159826413Y-63989868D01*
X159673516Y-63959455D01*
X159623465Y-63949500D01*
X159416535Y-63949500D01*
X159376385Y-63957486D01*
X159213586Y-63989868D01*
X159213579Y-63989870D01*
X159022401Y-64069059D01*
X158850345Y-64184022D01*
X158850344Y-64184024D01*
X158704024Y-64330344D01*
X158704022Y-64330345D01*
X158589059Y-64502401D01*
X158509870Y-64693579D01*
X158509868Y-64693585D01*
X158472926Y-64879310D01*
X158441460Y-64926402D01*
X158385911Y-64937451D01*
X158338819Y-64905985D01*
X158327259Y-64876449D01*
X158296758Y-64683876D01*
X158296755Y-64683863D01*
X158231095Y-64481782D01*
X158231093Y-64481778D01*
X158134624Y-64292449D01*
X158134621Y-64292443D01*
X158009725Y-64120538D01*
X158009717Y-64120529D01*
X157859471Y-63970283D01*
X157859461Y-63970274D01*
X157687556Y-63845378D01*
X157687550Y-63845375D01*
X157498221Y-63748906D01*
X157498217Y-63748904D01*
X157296136Y-63683244D01*
X157296125Y-63683242D01*
X157230000Y-63672768D01*
X157230000Y-64566988D01*
X157172993Y-64534075D01*
X157045826Y-64500000D01*
X156914174Y-64500000D01*
X156787007Y-64534075D01*
X156730000Y-64566988D01*
X156730000Y-63672768D01*
X156663874Y-63683242D01*
X156663863Y-63683244D01*
X156461782Y-63748904D01*
X156461778Y-63748906D01*
X156272449Y-63845375D01*
X156272443Y-63845378D01*
X156100538Y-63970274D01*
X155950274Y-64120538D01*
X155825378Y-64292443D01*
X155825375Y-64292449D01*
X155728906Y-64481778D01*
X155728904Y-64481782D01*
X155663244Y-64683863D01*
X155663241Y-64683877D01*
X155652769Y-64750000D01*
X154200500Y-64750000D01*
X154200500Y-62574500D01*
X154222174Y-62522174D01*
X154274500Y-62500500D01*
X197725500Y-62500500D01*
X197777826Y-62522174D01*
G37*
%TD.AperFunction*%
%TD*%
%TA.AperFunction,Conductor*%
%TO.N,Net-(U2-SW)*%
G36*
X168267803Y-102500330D02*
G01*
X168268610Y-102500017D01*
X168299803Y-102500693D01*
X168300000Y-102501168D01*
X168300000Y-102502336D01*
X166370000Y-102501600D01*
X166370000Y-103327200D01*
X168248000Y-103327200D01*
X168248000Y-105862000D01*
X168300000Y-105862000D01*
X168300000Y-106542711D01*
X168298578Y-106557147D01*
X168298578Y-106557148D01*
X168283841Y-106631234D01*
X168272792Y-106657909D01*
X168234954Y-106714537D01*
X168214537Y-106734954D01*
X168157909Y-106772792D01*
X168131234Y-106783841D01*
X168057149Y-106798578D01*
X168042712Y-106800000D01*
X167828007Y-106800000D01*
X167791006Y-106790085D01*
X167773890Y-106780202D01*
X167773882Y-106780199D01*
X167659311Y-106749500D01*
X167659309Y-106749500D01*
X167540691Y-106749500D01*
X167540689Y-106749500D01*
X167426117Y-106780199D01*
X167426109Y-106780202D01*
X167408994Y-106790085D01*
X167371993Y-106800000D01*
X167115753Y-106800000D01*
X167063427Y-106778326D01*
X167041753Y-106726000D01*
X167059876Y-106682246D01*
X167057541Y-106680454D01*
X167060483Y-106676618D01*
X167060489Y-106676613D01*
X167119799Y-106573886D01*
X167150499Y-106459311D01*
X167150500Y-106459311D01*
X167150500Y-106340689D01*
X167150499Y-106340688D01*
X167119800Y-106226117D01*
X167119798Y-106226112D01*
X167060491Y-106123390D01*
X167060490Y-106123389D01*
X167060489Y-106123387D01*
X167039426Y-106102324D01*
X167017753Y-106050000D01*
X167039426Y-105997675D01*
X167060489Y-105976613D01*
X167119799Y-105873886D01*
X167150499Y-105759311D01*
X167150500Y-105759311D01*
X167150500Y-105640689D01*
X167150499Y-105640688D01*
X167119800Y-105526117D01*
X167119798Y-105526112D01*
X167060491Y-105423390D01*
X167060490Y-105423389D01*
X167060489Y-105423387D01*
X166976613Y-105339511D01*
X166976610Y-105339509D01*
X166976609Y-105339508D01*
X166873887Y-105280201D01*
X166873882Y-105280199D01*
X166759311Y-105249500D01*
X166759309Y-105249500D01*
X166640691Y-105249500D01*
X166640689Y-105249500D01*
X166526117Y-105280199D01*
X166526112Y-105280201D01*
X166423390Y-105339508D01*
X166339508Y-105423390D01*
X166280201Y-105526112D01*
X166280199Y-105526117D01*
X166249500Y-105640688D01*
X166249500Y-105759311D01*
X166280199Y-105873882D01*
X166280201Y-105873887D01*
X166339508Y-105976609D01*
X166339509Y-105976610D01*
X166339511Y-105976613D01*
X166360572Y-105997674D01*
X166360573Y-105997675D01*
X166382246Y-106050002D01*
X166360573Y-106102325D01*
X166339508Y-106123390D01*
X166280201Y-106226112D01*
X166280199Y-106226117D01*
X166249500Y-106340688D01*
X166249500Y-106459311D01*
X166280199Y-106573882D01*
X166280201Y-106573887D01*
X166339509Y-106676610D01*
X166342459Y-106680454D01*
X166340123Y-106682246D01*
X166358247Y-106726000D01*
X166336573Y-106778326D01*
X166284247Y-106800000D01*
X162900000Y-106800000D01*
X159357288Y-106800000D01*
X159342851Y-106798578D01*
X159268765Y-106783841D01*
X159242090Y-106772792D01*
X159185462Y-106734954D01*
X159165045Y-106714537D01*
X159127207Y-106657909D01*
X159116158Y-106631233D01*
X159101422Y-106557147D01*
X159100000Y-106542711D01*
X159100000Y-102757288D01*
X159101422Y-102742852D01*
X159116158Y-102668766D01*
X159127205Y-102642093D01*
X159165045Y-102585461D01*
X159185462Y-102565045D01*
X159242093Y-102527205D01*
X159268764Y-102516158D01*
X159315905Y-102506781D01*
X159342852Y-102501422D01*
X159357288Y-102500000D01*
X168267005Y-102500000D01*
X168267803Y-102500330D01*
G37*
%TD.AperFunction*%
%TD*%
%TA.AperFunction,Conductor*%
%TO.N,Net-(U2-SW)*%
G36*
X169885649Y-102502940D02*
G01*
X169952679Y-102522650D01*
X169998414Y-102575472D01*
X170009600Y-102626940D01*
X170009600Y-105738000D01*
X169989915Y-105805039D01*
X169937111Y-105850794D01*
X169885600Y-105862000D01*
X168248000Y-105862000D01*
X168248000Y-103327200D01*
X166370000Y-103327200D01*
X166370000Y-102501600D01*
X169885649Y-102502940D01*
G37*
%TD.AperFunction*%
%TD*%
M02*
