%TF.GenerationSoftware,KiCad,Pcbnew,9.0.0*%
%TF.CreationDate,2026-03-16T18:05:17-04:00*%
%TF.ProjectId,ece49022-shelf,65636534-3930-4323-922d-7368656c662e,rev?*%
%TF.SameCoordinates,Original*%
%TF.FileFunction,Soldermask,Top*%
%TF.FilePolarity,Negative*%
%FSLAX46Y46*%
G04 Gerber Fmt 4.6, Leading zero omitted, Abs format (unit mm)*
G04 Created by KiCad (PCBNEW 9.0.0) date 2026-03-16 18:05:17*
%MOMM*%
%LPD*%
G01*
G04 APERTURE LIST*
G04 Aperture macros list*
%AMRoundRect*
0 Rectangle with rounded corners*
0 $1 Rounding radius*
0 $2 $3 $4 $5 $6 $7 $8 $9 X,Y pos of 4 corners*
0 Add a 4 corners polygon primitive as box body*
4,1,4,$2,$3,$4,$5,$6,$7,$8,$9,$2,$3,0*
0 Add four circle primitives for the rounded corners*
1,1,$1+$1,$2,$3*
1,1,$1+$1,$4,$5*
1,1,$1+$1,$6,$7*
1,1,$1+$1,$8,$9*
0 Add four rect primitives between the rounded corners*
20,1,$1+$1,$2,$3,$4,$5,0*
20,1,$1+$1,$4,$5,$6,$7,0*
20,1,$1+$1,$6,$7,$8,$9,0*
20,1,$1+$1,$8,$9,$2,$3,0*%
%AMFreePoly0*
4,1,18,-0.437500,0.050000,-0.433694,0.069134,-0.422855,0.085355,-0.406634,0.096194,-0.387500,0.100000,0.387500,0.100000,0.437500,0.050000,0.437500,-0.050000,0.433694,-0.069134,0.422855,-0.085355,0.406634,-0.096194,0.387500,-0.100000,-0.387500,-0.100000,-0.406634,-0.096194,-0.422855,-0.085355,-0.433694,-0.069134,-0.437500,-0.050000,-0.437500,0.050000,-0.437500,0.050000,$1*%
%AMFreePoly1*
4,1,18,-0.437500,0.050000,-0.433694,0.069134,-0.422855,0.085355,-0.406634,0.096194,-0.387500,0.100000,0.387500,0.100000,0.406634,0.096194,0.422855,0.085355,0.433694,0.069134,0.437500,0.050000,0.437500,-0.050000,0.387500,-0.100000,-0.387500,-0.100000,-0.406634,-0.096194,-0.422855,-0.085355,-0.433694,-0.069134,-0.437500,-0.050000,-0.437500,0.050000,-0.437500,0.050000,$1*%
%AMFreePoly2*
4,1,18,-0.100000,0.387500,-0.050000,0.437500,0.050000,0.437500,0.069134,0.433694,0.085355,0.422855,0.096194,0.406634,0.100000,0.387500,0.100000,-0.387500,0.096194,-0.406634,0.085355,-0.422855,0.069134,-0.433694,0.050000,-0.437500,-0.050000,-0.437500,-0.069134,-0.433694,-0.085355,-0.422855,-0.096194,-0.406634,-0.100000,-0.387500,-0.100000,0.387500,-0.100000,0.387500,$1*%
%AMFreePoly3*
4,1,18,-0.100000,0.387500,-0.096194,0.406634,-0.085355,0.422855,-0.069134,0.433694,-0.050000,0.437500,0.050000,0.437500,0.100000,0.387500,0.100000,-0.387500,0.096194,-0.406634,0.085355,-0.422855,0.069134,-0.433694,0.050000,-0.437500,-0.050000,-0.437500,-0.069134,-0.433694,-0.085355,-0.422855,-0.096194,-0.406634,-0.100000,-0.387500,-0.100000,0.387500,-0.100000,0.387500,$1*%
%AMFreePoly4*
4,1,18,-0.437500,0.050000,-0.433694,0.069134,-0.422855,0.085355,-0.406634,0.096194,-0.387500,0.100000,0.387500,0.100000,0.406634,0.096194,0.422855,0.085355,0.433694,0.069134,0.437500,0.050000,0.437500,-0.050000,0.433694,-0.069134,0.422855,-0.085355,0.406634,-0.096194,0.387500,-0.100000,-0.387500,-0.100000,-0.437500,-0.050000,-0.437500,0.050000,-0.437500,0.050000,$1*%
%AMFreePoly5*
4,1,18,-0.437500,0.050000,-0.387500,0.100000,0.387500,0.100000,0.406634,0.096194,0.422855,0.085355,0.433694,0.069134,0.437500,0.050000,0.437500,-0.050000,0.433694,-0.069134,0.422855,-0.085355,0.406634,-0.096194,0.387500,-0.100000,-0.387500,-0.100000,-0.406634,-0.096194,-0.422855,-0.085355,-0.433694,-0.069134,-0.437500,-0.050000,-0.437500,0.050000,-0.437500,0.050000,$1*%
%AMFreePoly6*
4,1,18,-0.100000,0.387500,-0.096194,0.406634,-0.085355,0.422855,-0.069134,0.433694,-0.050000,0.437500,0.050000,0.437500,0.069134,0.433694,0.085355,0.422855,0.096194,0.406634,0.100000,0.387500,0.100000,-0.387500,0.050000,-0.437500,-0.050000,-0.437500,-0.069134,-0.433694,-0.085355,-0.422855,-0.096194,-0.406634,-0.100000,-0.387500,-0.100000,0.387500,-0.100000,0.387500,$1*%
%AMFreePoly7*
4,1,18,-0.100000,0.387500,-0.096194,0.406634,-0.085355,0.422855,-0.069134,0.433694,-0.050000,0.437500,0.050000,0.437500,0.069134,0.433694,0.085355,0.422855,0.096194,0.406634,0.100000,0.387500,0.100000,-0.387500,0.096194,-0.406634,0.085355,-0.422855,0.069134,-0.433694,0.050000,-0.437500,-0.050000,-0.437500,-0.100000,-0.387500,-0.100000,0.387500,-0.100000,0.387500,$1*%
G04 Aperture macros list end*
%ADD10RoundRect,0.155000X0.212500X0.155000X-0.212500X0.155000X-0.212500X-0.155000X0.212500X-0.155000X0*%
%ADD11RoundRect,0.162500X-0.574524X0.344715X0.344715X-0.574524X0.574524X-0.344715X-0.344715X0.574524X0*%
%ADD12R,1.700000X1.700000*%
%ADD13O,1.700000X1.700000*%
%ADD14RoundRect,0.200000X-0.275000X0.200000X-0.275000X-0.200000X0.275000X-0.200000X0.275000X0.200000X0*%
%ADD15R,0.558800X1.663700*%
%ADD16RoundRect,0.135000X-0.226274X-0.035355X-0.035355X-0.226274X0.226274X0.035355X0.035355X0.226274X0*%
%ADD17RoundRect,0.140000X-0.170000X0.140000X-0.170000X-0.140000X0.170000X-0.140000X0.170000X0.140000X0*%
%ADD18RoundRect,0.102000X1.780000X-0.890000X1.780000X0.890000X-1.780000X0.890000X-1.780000X-0.890000X0*%
%ADD19C,2.700000*%
%ADD20RoundRect,0.160000X-0.160000X0.197500X-0.160000X-0.197500X0.160000X-0.197500X0.160000X0.197500X0*%
%ADD21RoundRect,0.155000X-0.212500X-0.155000X0.212500X-0.155000X0.212500X0.155000X-0.212500X0.155000X0*%
%ADD22RoundRect,0.200000X0.200000X0.275000X-0.200000X0.275000X-0.200000X-0.275000X0.200000X-0.275000X0*%
%ADD23RoundRect,0.155000X-0.155000X0.212500X-0.155000X-0.212500X0.155000X-0.212500X0.155000X0.212500X0*%
%ADD24R,1.700000X0.700000*%
%ADD25RoundRect,0.155000X0.155000X-0.212500X0.155000X0.212500X-0.155000X0.212500X-0.155000X-0.212500X0*%
%ADD26RoundRect,0.160000X0.197500X0.160000X-0.197500X0.160000X-0.197500X-0.160000X0.197500X-0.160000X0*%
%ADD27RoundRect,0.250000X0.475000X-0.250000X0.475000X0.250000X-0.475000X0.250000X-0.475000X-0.250000X0*%
%ADD28R,1.050000X0.650000*%
%ADD29RoundRect,0.140000X0.140000X0.170000X-0.140000X0.170000X-0.140000X-0.170000X0.140000X-0.170000X0*%
%ADD30RoundRect,0.135000X0.226274X0.035355X0.035355X0.226274X-0.226274X-0.035355X-0.035355X-0.226274X0*%
%ADD31R,1.200000X1.400000*%
%ADD32RoundRect,0.135000X0.185000X-0.135000X0.185000X0.135000X-0.185000X0.135000X-0.185000X-0.135000X0*%
%ADD33RoundRect,0.250000X-0.475000X0.337500X-0.475000X-0.337500X0.475000X-0.337500X0.475000X0.337500X0*%
%ADD34RoundRect,0.250000X0.325000X0.650000X-0.325000X0.650000X-0.325000X-0.650000X0.325000X-0.650000X0*%
%ADD35RoundRect,0.140000X0.170000X-0.140000X0.170000X0.140000X-0.170000X0.140000X-0.170000X-0.140000X0*%
%ADD36R,0.530000X0.470000*%
%ADD37RoundRect,0.375000X-0.625000X-0.375000X0.625000X-0.375000X0.625000X0.375000X-0.625000X0.375000X0*%
%ADD38RoundRect,0.500000X-0.500000X-1.400000X0.500000X-1.400000X0.500000X1.400000X-0.500000X1.400000X0*%
%ADD39RoundRect,0.135000X0.135000X0.185000X-0.135000X0.185000X-0.135000X-0.185000X0.135000X-0.185000X0*%
%ADD40R,0.660400X0.889000*%
%ADD41R,0.660400X1.143000*%
%ADD42R,0.650000X1.050000*%
%ADD43R,0.939800X1.143000*%
%ADD44RoundRect,0.140000X0.219203X0.021213X0.021213X0.219203X-0.219203X-0.021213X-0.021213X-0.219203X0*%
%ADD45R,1.750000X0.400000*%
%ADD46R,0.700000X1.825000*%
%ADD47R,1.460000X2.000000*%
%ADD48RoundRect,0.384800X1.240200X-0.265200X1.240200X0.265200X-1.240200X0.265200X-1.240200X-0.265200X0*%
%ADD49O,1.800000X1.300000*%
%ADD50O,1.450000X1.050000*%
%ADD51R,2.500000X1.425000*%
%ADD52RoundRect,0.099250X0.297750X-0.727750X0.297750X0.727750X-0.297750X0.727750X-0.297750X-0.727750X0*%
%ADD53FreePoly0,270.000000*%
%ADD54RoundRect,0.050000X-0.050000X0.387500X-0.050000X-0.387500X0.050000X-0.387500X0.050000X0.387500X0*%
%ADD55FreePoly1,270.000000*%
%ADD56FreePoly2,270.000000*%
%ADD57RoundRect,0.050000X-0.387500X0.050000X-0.387500X-0.050000X0.387500X-0.050000X0.387500X0.050000X0*%
%ADD58FreePoly3,270.000000*%
%ADD59FreePoly4,270.000000*%
%ADD60FreePoly5,270.000000*%
%ADD61FreePoly6,270.000000*%
%ADD62FreePoly7,270.000000*%
%ADD63RoundRect,0.153000X-1.547000X-1.547000X1.547000X-1.547000X1.547000X1.547000X-1.547000X1.547000X0*%
%ADD64RoundRect,0.250000X-0.565685X-0.070711X-0.070711X-0.565685X0.565685X0.070711X0.070711X0.565685X0*%
G04 APERTURE END LIST*
D10*
%TO.C,C21*%
X178492500Y-85150000D03*
X177357500Y-85150000D03*
%TD*%
D11*
%TO.C,U3*%
X182810293Y-69016216D03*
X181912267Y-69914242D03*
X181014242Y-70812267D03*
X180116216Y-71710293D03*
X185189707Y-76783784D03*
X186087733Y-75885758D03*
X186985758Y-74987733D03*
X187883784Y-74089707D03*
%TD*%
D12*
%TO.C,J3*%
X179520000Y-112000000D03*
D13*
X182060000Y-112000000D03*
X184600000Y-112000000D03*
X187140000Y-112000000D03*
%TD*%
D14*
%TO.C,R12*%
X167700000Y-91325000D03*
X167700000Y-92975000D03*
%TD*%
D10*
%TO.C,C5*%
X185547500Y-106225750D03*
X184412500Y-106225750D03*
%TD*%
D15*
%TO.C,IC1*%
X178055000Y-104125750D03*
X179325000Y-104125750D03*
X180595000Y-104125750D03*
X181865000Y-104125750D03*
X183135000Y-104125750D03*
X184405000Y-104125750D03*
X185675000Y-104125750D03*
X186945000Y-104125750D03*
X186945000Y-98474250D03*
X185675000Y-98474250D03*
X184405000Y-98474250D03*
X183135000Y-98474250D03*
X181865000Y-98474250D03*
X180595000Y-98474250D03*
X179325000Y-98474250D03*
X178055000Y-98474250D03*
%TD*%
D16*
%TO.C,R17*%
X186178752Y-68178752D03*
X186900000Y-68900000D03*
%TD*%
D17*
%TO.C,R8*%
X171050000Y-95020000D03*
X171050000Y-95980000D03*
%TD*%
D18*
%TO.C,L2*%
X161000000Y-105093900D03*
X161000000Y-95693900D03*
%TD*%
D19*
%TO.C,H2*%
X194000000Y-71000000D03*
%TD*%
%TO.C,H3*%
X158000000Y-71000000D03*
%TD*%
D17*
%TO.C,C12*%
X172125000Y-97020000D03*
X172125000Y-97980000D03*
%TD*%
D14*
%TO.C,R21*%
X194400000Y-90675000D03*
X194400000Y-92325000D03*
%TD*%
D10*
%TO.C,C4*%
X177974250Y-106124625D03*
X176839250Y-106124625D03*
%TD*%
D20*
%TO.C,R2*%
X180500000Y-107302500D03*
X180500000Y-108497500D03*
%TD*%
D21*
%TO.C,C2*%
X179342500Y-106142500D03*
X180477500Y-106142500D03*
%TD*%
D22*
%TO.C,R20*%
X194000000Y-94200000D03*
X192350000Y-94200000D03*
%TD*%
D23*
%TO.C,C25*%
X167900000Y-84332500D03*
X167900000Y-85467500D03*
%TD*%
D24*
%TO.C,L3*%
X179826790Y-81875000D03*
X179826790Y-83275000D03*
%TD*%
D25*
%TO.C,C20*%
X173650000Y-74267500D03*
X173650000Y-73132500D03*
%TD*%
D20*
%TO.C,R3*%
X177400000Y-92652500D03*
X177400000Y-93847500D03*
%TD*%
D26*
%TO.C,R14*%
X166497500Y-80285000D03*
X165302500Y-80285000D03*
%TD*%
D27*
%TO.C,C17*%
X167900000Y-89800001D03*
X167900000Y-87900001D03*
%TD*%
D25*
%TO.C,C30*%
X176250000Y-75642500D03*
X176250000Y-74507500D03*
%TD*%
D28*
%TO.C,SW2*%
X164275000Y-86075000D03*
X160125000Y-86075000D03*
X164275000Y-83925000D03*
X160150000Y-83925000D03*
%TD*%
D12*
%TO.C,J8*%
X190075000Y-106275000D03*
D13*
X190075000Y-103735000D03*
X192615000Y-106275000D03*
X192615000Y-103735000D03*
X195155000Y-106275000D03*
X195155000Y-103735000D03*
%TD*%
D29*
%TO.C,R7*%
X168680000Y-99700000D03*
X167720000Y-99700000D03*
%TD*%
D30*
%TO.C,R13*%
X186160624Y-69660624D03*
X185439376Y-68939376D03*
%TD*%
D14*
%TO.C,D1*%
X169300000Y-91325000D03*
X169300000Y-92975000D03*
%TD*%
D20*
%TO.C,R1*%
X179300000Y-107302500D03*
X179300000Y-108497500D03*
%TD*%
D31*
%TO.C,Y1*%
X161000000Y-78112500D03*
X161000000Y-80312500D03*
X162700000Y-80312500D03*
X162700000Y-78112500D03*
%TD*%
D32*
%TO.C,R15*%
X158700000Y-86110000D03*
X158700000Y-85090000D03*
%TD*%
D21*
%TO.C,C29*%
X178107500Y-79425000D03*
X179242500Y-79425000D03*
%TD*%
D14*
%TO.C,D3*%
X196000000Y-90675000D03*
X196000000Y-92325000D03*
%TD*%
D12*
%TO.C,J2*%
X195080000Y-65000000D03*
D13*
X192540000Y-65000000D03*
X190000000Y-65000000D03*
X187460000Y-65000000D03*
X184920000Y-65000000D03*
X182380000Y-65000000D03*
X179840000Y-65000000D03*
X177300000Y-65000000D03*
X174760000Y-65000000D03*
X172220000Y-65000000D03*
X169680000Y-65000000D03*
X167140000Y-65000000D03*
X164600000Y-65000000D03*
X162060000Y-65000000D03*
X159520000Y-65000000D03*
X156980000Y-65000000D03*
%TD*%
D10*
%TO.C,C3*%
X178000000Y-107249625D03*
X176865000Y-107249625D03*
%TD*%
D17*
%TO.C,R10*%
X171602400Y-101221600D03*
X171602400Y-102181600D03*
%TD*%
D12*
%TO.C,J4*%
X156311600Y-80025000D03*
D13*
X156311600Y-82565000D03*
X156311600Y-85105000D03*
%TD*%
D33*
%TO.C,C11*%
X169450000Y-95380900D03*
X169450000Y-97455900D03*
%TD*%
D34*
%TO.C,C7*%
X170740600Y-105800000D03*
X167790600Y-105800000D03*
%TD*%
D23*
%TO.C,C27*%
X175600000Y-85145000D03*
X175600000Y-86280000D03*
%TD*%
D35*
%TO.C,C14*%
X164200000Y-79095000D03*
X164200000Y-78135000D03*
%TD*%
D36*
%TO.C,C19*%
X178270000Y-82075000D03*
X178270000Y-83105000D03*
%TD*%
D25*
%TO.C,C26*%
X171075000Y-74892500D03*
X171075000Y-73757500D03*
%TD*%
D37*
%TO.C,U4*%
X159150000Y-88400000D03*
X159150000Y-90700000D03*
D38*
X165450000Y-90700000D03*
D37*
X159150000Y-93000000D03*
%TD*%
D12*
%TO.C,J7*%
X166275000Y-112000000D03*
D13*
X163735000Y-112000000D03*
%TD*%
D10*
%TO.C,C28*%
X167777500Y-78895000D03*
X166642500Y-78895000D03*
%TD*%
D39*
%TO.C,R19*%
X181360000Y-80780000D03*
X180340000Y-80780000D03*
%TD*%
D12*
%TO.C,J6*%
X170200000Y-112000000D03*
D13*
X172740000Y-112000000D03*
X175280000Y-112000000D03*
%TD*%
D17*
%TO.C,R9*%
X171050000Y-97020000D03*
X171050000Y-97980000D03*
%TD*%
D40*
%TO.C,RV1*%
X183923600Y-85350000D03*
D41*
X187276400Y-84200000D03*
D40*
X183923600Y-83050000D03*
%TD*%
D42*
%TO.C,SW1*%
X184850000Y-92262500D03*
X184850000Y-88112500D03*
X187000000Y-92262500D03*
X187000000Y-88137500D03*
%TD*%
D25*
%TO.C,C6*%
X176550000Y-98067500D03*
X176550000Y-96932500D03*
%TD*%
D43*
%TO.C,D2*%
X169687500Y-108900000D03*
X166512500Y-108900000D03*
%TD*%
D19*
%TO.C,H1*%
X158000000Y-111600000D03*
%TD*%
D20*
%TO.C,R4*%
X175200000Y-94102500D03*
X175200000Y-95297500D03*
%TD*%
D44*
%TO.C,C16*%
X188934411Y-72856411D03*
X188255589Y-72177589D03*
%TD*%
D10*
%TO.C,C22*%
X166467500Y-81305000D03*
X165332500Y-81305000D03*
%TD*%
D27*
%TO.C,C13*%
X156700000Y-93050000D03*
X156700000Y-91150000D03*
%TD*%
%TO.C,C31*%
X167200000Y-77450000D03*
X167200000Y-75550000D03*
%TD*%
D14*
%TO.C,R22*%
X189300000Y-90675000D03*
X189300000Y-92325000D03*
%TD*%
D45*
%TO.C,J1*%
X192355000Y-81275000D03*
X192355000Y-80625000D03*
X192355000Y-79975000D03*
X192355000Y-79325000D03*
X192355000Y-78675000D03*
D46*
X193480000Y-82962500D03*
D47*
X192150000Y-82875000D03*
D48*
X194755000Y-82700000D03*
D49*
X195180000Y-82700000D03*
D50*
X192150000Y-82400000D03*
D51*
X195430000Y-80937500D03*
X195430000Y-79012500D03*
D50*
X192150000Y-77550000D03*
D48*
X194755000Y-77250000D03*
D49*
X195180000Y-77250000D03*
D47*
X192150000Y-77075000D03*
D46*
X193480000Y-76987500D03*
%TD*%
D36*
%TO.C,C18*%
X177250000Y-82085000D03*
X177250000Y-83115000D03*
%TD*%
D21*
%TO.C,C1*%
X181932500Y-106225750D03*
X183067500Y-106225750D03*
%TD*%
D33*
%TO.C,C10*%
X167350000Y-95380900D03*
X167350000Y-97455900D03*
%TD*%
D35*
%TO.C,C9*%
X167067200Y-102181600D03*
X167067200Y-101221600D03*
%TD*%
D14*
%TO.C,D4*%
X190920000Y-90675000D03*
X190920000Y-92325000D03*
%TD*%
D52*
%TO.C,U2*%
X168417200Y-103530400D03*
X169367200Y-103530400D03*
X170317200Y-103530400D03*
X170317200Y-101220400D03*
X169367200Y-101220400D03*
X168417200Y-101220400D03*
%TD*%
D19*
%TO.C,H4*%
X194000000Y-111600000D03*
%TD*%
D17*
%TO.C,C15*%
X164200000Y-80245000D03*
X164200000Y-81205000D03*
%TD*%
D12*
%TO.C,J5*%
X190075000Y-99475000D03*
D13*
X190075000Y-96935000D03*
X192615000Y-99475000D03*
X192615000Y-96935000D03*
X195155000Y-99475000D03*
X195155000Y-96935000D03*
%TD*%
D10*
%TO.C,C32*%
X179167500Y-96400000D03*
X178032500Y-96400000D03*
%TD*%
D12*
%TO.C,JP1*%
X189860000Y-87400000D03*
D13*
X192400000Y-87400000D03*
X194940000Y-87400000D03*
%TD*%
D53*
%TO.C,U5*%
X175400000Y-76937500D03*
D54*
X175000000Y-76937500D03*
X174600000Y-76937500D03*
X174200000Y-76937500D03*
X173800000Y-76937500D03*
X173400000Y-76937500D03*
X173000000Y-76937500D03*
X172600000Y-76937500D03*
X172200000Y-76937500D03*
X171800000Y-76937500D03*
X171400000Y-76937500D03*
X171000000Y-76937500D03*
X170600000Y-76937500D03*
X170200000Y-76937500D03*
D55*
X169800000Y-76937500D03*
D56*
X169162500Y-77575000D03*
D57*
X169162500Y-77975000D03*
X169162500Y-78375000D03*
X169162500Y-78775000D03*
X169162500Y-79175000D03*
X169162500Y-79575000D03*
X169162500Y-79975000D03*
X169162500Y-80375000D03*
X169162500Y-80775000D03*
X169162500Y-81175000D03*
X169162500Y-81575000D03*
X169162500Y-81975000D03*
X169162500Y-82375000D03*
X169162500Y-82775000D03*
D58*
X169162500Y-83175000D03*
D59*
X169800000Y-83812500D03*
D54*
X170200000Y-83812500D03*
X170600000Y-83812500D03*
X171000000Y-83812500D03*
X171400000Y-83812500D03*
X171800000Y-83812500D03*
X172200000Y-83812500D03*
X172600000Y-83812500D03*
X173000000Y-83812500D03*
X173400000Y-83812500D03*
X173800000Y-83812500D03*
X174200000Y-83812500D03*
X174600000Y-83812500D03*
X175000000Y-83812500D03*
D60*
X175400000Y-83812500D03*
D61*
X176037500Y-83175000D03*
D57*
X176037500Y-82775000D03*
X176037500Y-82375000D03*
X176037500Y-81975000D03*
X176037500Y-81575000D03*
X176037500Y-81175000D03*
X176037500Y-80775000D03*
X176037500Y-80375000D03*
X176037500Y-79975000D03*
X176037500Y-79575000D03*
X176037500Y-79175000D03*
X176037500Y-78775000D03*
X176037500Y-78375000D03*
X176037500Y-77975000D03*
D62*
X176037500Y-77575000D03*
D63*
X172600000Y-80375000D03*
%TD*%
D39*
%TO.C,R18*%
X181360000Y-79800000D03*
X180340000Y-79800000D03*
%TD*%
D23*
%TO.C,C23*%
X174100000Y-85632500D03*
X174100000Y-86767500D03*
%TD*%
D26*
%TO.C,R16*%
X180842500Y-85140000D03*
X179647500Y-85140000D03*
%TD*%
D23*
%TO.C,C24*%
X172700000Y-85332500D03*
X172700000Y-86467500D03*
%TD*%
D29*
%TO.C,R6*%
X170680000Y-99700000D03*
X169720000Y-99700000D03*
%TD*%
D64*
%TO.C,R11*%
X162992893Y-68592893D03*
X164407107Y-70007107D03*
%TD*%
D35*
%TO.C,C8*%
X171602400Y-104061200D03*
X171602400Y-103101200D03*
%TD*%
M02*
