%TF.GenerationSoftware,KiCad,Pcbnew,9.0.0*%
%TF.CreationDate,2026-03-16T15:39:36-04:00*%
%TF.ProjectId,ece49022-interface,65636534-3930-4323-922d-696e74657266,rev?*%
%TF.SameCoordinates,Original*%
%TF.FileFunction,Soldermask,Bot*%
%TF.FilePolarity,Negative*%
%FSLAX46Y46*%
G04 Gerber Fmt 4.6, Leading zero omitted, Abs format (unit mm)*
G04 Created by KiCad (PCBNEW 9.0.0) date 2026-03-16 15:39:36*
%MOMM*%
%LPD*%
G01*
G04 APERTURE LIST*
G04 Aperture macros list*
%AMRoundRect*
0 Rectangle with rounded corners*
0 $1 Rounding radius*
0 $2 $3 $4 $5 $6 $7 $8 $9 X,Y pos of 4 corners*
0 Add a 4 corners polygon primitive as box body*
4,1,4,$2,$3,$4,$5,$6,$7,$8,$9,$2,$3,0*
0 Add four circle primitives for the rounded corners*
1,1,$1+$1,$2,$3*
1,1,$1+$1,$4,$5*
1,1,$1+$1,$6,$7*
1,1,$1+$1,$8,$9*
0 Add four rect primitives between the rounded corners*
20,1,$1+$1,$2,$3,$4,$5,0*
20,1,$1+$1,$4,$5,$6,$7,0*
20,1,$1+$1,$6,$7,$8,$9,0*
20,1,$1+$1,$8,$9,$2,$3,0*%
G04 Aperture macros list end*
%ADD10C,2.200000*%
%ADD11C,1.850000*%
%ADD12RoundRect,0.200000X-0.600000X-0.600000X0.600000X-0.600000X0.600000X0.600000X-0.600000X0.600000X0*%
%ADD13C,1.600000*%
%ADD14C,2.700000*%
%ADD15R,1.700000X1.700000*%
%ADD16C,1.700000*%
%ADD17R,1.500000X1.500000*%
%ADD18C,1.500000*%
%ADD19R,2.000000X2.000000*%
%ADD20C,2.000000*%
G04 APERTURE END LIST*
D10*
%TO.C,A1*%
X159540000Y-69545000D03*
D11*
X159840000Y-72575000D03*
X164690000Y-72575000D03*
D10*
X164990000Y-69545000D03*
D12*
X162849100Y-99245000D03*
D13*
X165389100Y-99245000D03*
X167929100Y-99245000D03*
%TD*%
D14*
%TO.C,H1*%
X140475000Y-70875000D03*
%TD*%
D15*
%TO.C,J2*%
X137820000Y-81050000D03*
D16*
X140360000Y-81050000D03*
X142900000Y-81050000D03*
X145440000Y-81050000D03*
X147980000Y-81050000D03*
%TD*%
D15*
%TO.C,J6*%
X190775000Y-92500000D03*
D16*
X190775000Y-95040000D03*
%TD*%
D17*
%TO.C,Q1*%
X141950000Y-100670000D03*
D18*
X141950000Y-103210000D03*
X141950000Y-105750000D03*
%TD*%
D14*
%TO.C,H4*%
X189775000Y-116275000D03*
%TD*%
D19*
%TO.C,Buzzer1*%
X139450000Y-90200000D03*
D20*
X139450000Y-95200000D03*
%TD*%
D15*
%TO.C,J4*%
X135100000Y-69610000D03*
D16*
X135100000Y-72150000D03*
X135100000Y-74690000D03*
X135100000Y-77230000D03*
%TD*%
D15*
%TO.C,J7*%
X143105000Y-116575000D03*
D16*
X140565000Y-116575000D03*
X138025000Y-116575000D03*
X135485000Y-116575000D03*
%TD*%
D15*
%TO.C,J5*%
X143075000Y-108775000D03*
D16*
X140535000Y-108775000D03*
X137995000Y-108775000D03*
X135455000Y-108775000D03*
%TD*%
D15*
%TO.C,J8*%
X143075000Y-112675000D03*
D16*
X140535000Y-112675000D03*
X137995000Y-112675000D03*
X135455000Y-112675000D03*
%TD*%
D14*
%TO.C,H3*%
X136000000Y-103850000D03*
%TD*%
%TO.C,H2*%
X189875000Y-70475000D03*
%TD*%
D15*
%TO.C,J3*%
X190725000Y-103555000D03*
D16*
X190725000Y-106095000D03*
X190725000Y-108635000D03*
X190725000Y-111175000D03*
%TD*%
D15*
%TO.C,J10*%
X148000000Y-89750000D03*
D16*
X148000000Y-92290000D03*
X148000000Y-94830000D03*
X148000000Y-97370000D03*
X148000000Y-99910000D03*
X148000000Y-102450000D03*
%TD*%
D15*
%TO.C,J1*%
X190775000Y-80995000D03*
D16*
X190775000Y-83535000D03*
X190775000Y-86075000D03*
X190775000Y-88615000D03*
%TD*%
M02*
