%TF.GenerationSoftware,KiCad,Pcbnew,9.0.0*%
%TF.CreationDate,2026-03-16T15:39:36-04:00*%
%TF.ProjectId,ece49022-interface,65636534-3930-4323-922d-696e74657266,rev?*%
%TF.SameCoordinates,Original*%
%TF.FileFunction,Legend,Top*%
%TF.FilePolarity,Positive*%
%FSLAX46Y46*%
G04 Gerber Fmt 4.6, Leading zero omitted, Abs format (unit mm)*
G04 Created by KiCad (PCBNEW 9.0.0) date 2026-03-16 15:39:36*
%MOMM*%
%LPD*%
G01*
G04 APERTURE LIST*
%ADD10C,0.150000*%
%ADD11C,0.127000*%
%ADD12C,0.200000*%
%ADD13C,0.120000*%
%ADD14C,0.152400*%
G04 APERTURE END LIST*
D10*
X183190833Y-110182197D02*
X182714643Y-110182197D01*
X182714643Y-110182197D02*
X182714643Y-109182197D01*
X183476548Y-109277435D02*
X183524167Y-109229816D01*
X183524167Y-109229816D02*
X183619405Y-109182197D01*
X183619405Y-109182197D02*
X183857500Y-109182197D01*
X183857500Y-109182197D02*
X183952738Y-109229816D01*
X183952738Y-109229816D02*
X184000357Y-109277435D01*
X184000357Y-109277435D02*
X184047976Y-109372673D01*
X184047976Y-109372673D02*
X184047976Y-109467911D01*
X184047976Y-109467911D02*
X184000357Y-109610768D01*
X184000357Y-109610768D02*
X183428929Y-110182197D01*
X183428929Y-110182197D02*
X184047976Y-110182197D01*
X142010833Y-79254819D02*
X141677500Y-78778628D01*
X141439405Y-79254819D02*
X141439405Y-78254819D01*
X141439405Y-78254819D02*
X141820357Y-78254819D01*
X141820357Y-78254819D02*
X141915595Y-78302438D01*
X141915595Y-78302438D02*
X141963214Y-78350057D01*
X141963214Y-78350057D02*
X142010833Y-78445295D01*
X142010833Y-78445295D02*
X142010833Y-78588152D01*
X142010833Y-78588152D02*
X141963214Y-78683390D01*
X141963214Y-78683390D02*
X141915595Y-78731009D01*
X141915595Y-78731009D02*
X141820357Y-78778628D01*
X141820357Y-78778628D02*
X141439405Y-78778628D01*
X142867976Y-78254819D02*
X142677500Y-78254819D01*
X142677500Y-78254819D02*
X142582262Y-78302438D01*
X142582262Y-78302438D02*
X142534643Y-78350057D01*
X142534643Y-78350057D02*
X142439405Y-78492914D01*
X142439405Y-78492914D02*
X142391786Y-78683390D01*
X142391786Y-78683390D02*
X142391786Y-79064342D01*
X142391786Y-79064342D02*
X142439405Y-79159580D01*
X142439405Y-79159580D02*
X142487024Y-79207200D01*
X142487024Y-79207200D02*
X142582262Y-79254819D01*
X142582262Y-79254819D02*
X142772738Y-79254819D01*
X142772738Y-79254819D02*
X142867976Y-79207200D01*
X142867976Y-79207200D02*
X142915595Y-79159580D01*
X142915595Y-79159580D02*
X142963214Y-79064342D01*
X142963214Y-79064342D02*
X142963214Y-78826247D01*
X142963214Y-78826247D02*
X142915595Y-78731009D01*
X142915595Y-78731009D02*
X142867976Y-78683390D01*
X142867976Y-78683390D02*
X142772738Y-78635771D01*
X142772738Y-78635771D02*
X142582262Y-78635771D01*
X142582262Y-78635771D02*
X142487024Y-78683390D01*
X142487024Y-78683390D02*
X142439405Y-78731009D01*
X142439405Y-78731009D02*
X142391786Y-78826247D01*
X185283333Y-91759580D02*
X185235714Y-91807200D01*
X185235714Y-91807200D02*
X185092857Y-91854819D01*
X185092857Y-91854819D02*
X184997619Y-91854819D01*
X184997619Y-91854819D02*
X184854762Y-91807200D01*
X184854762Y-91807200D02*
X184759524Y-91711961D01*
X184759524Y-91711961D02*
X184711905Y-91616723D01*
X184711905Y-91616723D02*
X184664286Y-91426247D01*
X184664286Y-91426247D02*
X184664286Y-91283390D01*
X184664286Y-91283390D02*
X184711905Y-91092914D01*
X184711905Y-91092914D02*
X184759524Y-90997676D01*
X184759524Y-90997676D02*
X184854762Y-90902438D01*
X184854762Y-90902438D02*
X184997619Y-90854819D01*
X184997619Y-90854819D02*
X185092857Y-90854819D01*
X185092857Y-90854819D02*
X185235714Y-90902438D01*
X185235714Y-90902438D02*
X185283333Y-90950057D01*
X185854762Y-91283390D02*
X185759524Y-91235771D01*
X185759524Y-91235771D02*
X185711905Y-91188152D01*
X185711905Y-91188152D02*
X185664286Y-91092914D01*
X185664286Y-91092914D02*
X185664286Y-91045295D01*
X185664286Y-91045295D02*
X185711905Y-90950057D01*
X185711905Y-90950057D02*
X185759524Y-90902438D01*
X185759524Y-90902438D02*
X185854762Y-90854819D01*
X185854762Y-90854819D02*
X186045238Y-90854819D01*
X186045238Y-90854819D02*
X186140476Y-90902438D01*
X186140476Y-90902438D02*
X186188095Y-90950057D01*
X186188095Y-90950057D02*
X186235714Y-91045295D01*
X186235714Y-91045295D02*
X186235714Y-91092914D01*
X186235714Y-91092914D02*
X186188095Y-91188152D01*
X186188095Y-91188152D02*
X186140476Y-91235771D01*
X186140476Y-91235771D02*
X186045238Y-91283390D01*
X186045238Y-91283390D02*
X185854762Y-91283390D01*
X185854762Y-91283390D02*
X185759524Y-91331009D01*
X185759524Y-91331009D02*
X185711905Y-91378628D01*
X185711905Y-91378628D02*
X185664286Y-91473866D01*
X185664286Y-91473866D02*
X185664286Y-91664342D01*
X185664286Y-91664342D02*
X185711905Y-91759580D01*
X185711905Y-91759580D02*
X185759524Y-91807200D01*
X185759524Y-91807200D02*
X185854762Y-91854819D01*
X185854762Y-91854819D02*
X186045238Y-91854819D01*
X186045238Y-91854819D02*
X186140476Y-91807200D01*
X186140476Y-91807200D02*
X186188095Y-91759580D01*
X186188095Y-91759580D02*
X186235714Y-91664342D01*
X186235714Y-91664342D02*
X186235714Y-91473866D01*
X186235714Y-91473866D02*
X186188095Y-91378628D01*
X186188095Y-91378628D02*
X186140476Y-91331009D01*
X186140476Y-91331009D02*
X186045238Y-91283390D01*
X138404819Y-100216666D02*
X137928628Y-100549999D01*
X138404819Y-100788094D02*
X137404819Y-100788094D01*
X137404819Y-100788094D02*
X137404819Y-100407142D01*
X137404819Y-100407142D02*
X137452438Y-100311904D01*
X137452438Y-100311904D02*
X137500057Y-100264285D01*
X137500057Y-100264285D02*
X137595295Y-100216666D01*
X137595295Y-100216666D02*
X137738152Y-100216666D01*
X137738152Y-100216666D02*
X137833390Y-100264285D01*
X137833390Y-100264285D02*
X137881009Y-100311904D01*
X137881009Y-100311904D02*
X137928628Y-100407142D01*
X137928628Y-100407142D02*
X137928628Y-100788094D01*
X137404819Y-99883332D02*
X137404819Y-99264285D01*
X137404819Y-99264285D02*
X137785771Y-99597618D01*
X137785771Y-99597618D02*
X137785771Y-99454761D01*
X137785771Y-99454761D02*
X137833390Y-99359523D01*
X137833390Y-99359523D02*
X137881009Y-99311904D01*
X137881009Y-99311904D02*
X137976247Y-99264285D01*
X137976247Y-99264285D02*
X138214342Y-99264285D01*
X138214342Y-99264285D02*
X138309580Y-99311904D01*
X138309580Y-99311904D02*
X138357200Y-99359523D01*
X138357200Y-99359523D02*
X138404819Y-99454761D01*
X138404819Y-99454761D02*
X138404819Y-99740475D01*
X138404819Y-99740475D02*
X138357200Y-99835713D01*
X138357200Y-99835713D02*
X138309580Y-99883332D01*
X180111905Y-89154819D02*
X180111905Y-88154819D01*
X180111905Y-88154819D02*
X180350000Y-88154819D01*
X180350000Y-88154819D02*
X180492857Y-88202438D01*
X180492857Y-88202438D02*
X180588095Y-88297676D01*
X180588095Y-88297676D02*
X180635714Y-88392914D01*
X180635714Y-88392914D02*
X180683333Y-88583390D01*
X180683333Y-88583390D02*
X180683333Y-88726247D01*
X180683333Y-88726247D02*
X180635714Y-88916723D01*
X180635714Y-88916723D02*
X180588095Y-89011961D01*
X180588095Y-89011961D02*
X180492857Y-89107200D01*
X180492857Y-89107200D02*
X180350000Y-89154819D01*
X180350000Y-89154819D02*
X180111905Y-89154819D01*
X181588095Y-88154819D02*
X181111905Y-88154819D01*
X181111905Y-88154819D02*
X181064286Y-88631009D01*
X181064286Y-88631009D02*
X181111905Y-88583390D01*
X181111905Y-88583390D02*
X181207143Y-88535771D01*
X181207143Y-88535771D02*
X181445238Y-88535771D01*
X181445238Y-88535771D02*
X181540476Y-88583390D01*
X181540476Y-88583390D02*
X181588095Y-88631009D01*
X181588095Y-88631009D02*
X181635714Y-88726247D01*
X181635714Y-88726247D02*
X181635714Y-88964342D01*
X181635714Y-88964342D02*
X181588095Y-89059580D01*
X181588095Y-89059580D02*
X181540476Y-89107200D01*
X181540476Y-89107200D02*
X181445238Y-89154819D01*
X181445238Y-89154819D02*
X181207143Y-89154819D01*
X181207143Y-89154819D02*
X181111905Y-89107200D01*
X181111905Y-89107200D02*
X181064286Y-89059580D01*
X186737801Y-88083568D02*
X186737801Y-88321663D01*
X186499706Y-88226425D02*
X186737801Y-88321663D01*
X186737801Y-88321663D02*
X186975896Y-88226425D01*
X186594944Y-88512139D02*
X186737801Y-88321663D01*
X186737801Y-88321663D02*
X186880658Y-88512139D01*
X186737800Y-89173929D02*
X186737800Y-88935834D01*
X186975895Y-89031072D02*
X186737800Y-88935834D01*
X186737800Y-88935834D02*
X186499705Y-89031072D01*
X186880657Y-88745358D02*
X186737800Y-88935834D01*
X186737800Y-88935834D02*
X186594943Y-88745358D01*
X175374160Y-117724104D02*
X175850350Y-117724104D01*
X175278922Y-118009819D02*
X175612255Y-117009819D01*
X175612255Y-117009819D02*
X175945588Y-118009819D01*
X176802731Y-118009819D02*
X176231303Y-118009819D01*
X176517017Y-118009819D02*
X176517017Y-117009819D01*
X176517017Y-117009819D02*
X176421779Y-117152676D01*
X176421779Y-117152676D02*
X176326541Y-117247914D01*
X176326541Y-117247914D02*
X176231303Y-117295533D01*
X179504819Y-82066666D02*
X179028628Y-82399999D01*
X179504819Y-82638094D02*
X178504819Y-82638094D01*
X178504819Y-82638094D02*
X178504819Y-82257142D01*
X178504819Y-82257142D02*
X178552438Y-82161904D01*
X178552438Y-82161904D02*
X178600057Y-82114285D01*
X178600057Y-82114285D02*
X178695295Y-82066666D01*
X178695295Y-82066666D02*
X178838152Y-82066666D01*
X178838152Y-82066666D02*
X178933390Y-82114285D01*
X178933390Y-82114285D02*
X178981009Y-82161904D01*
X178981009Y-82161904D02*
X179028628Y-82257142D01*
X179028628Y-82257142D02*
X179028628Y-82638094D01*
X178504819Y-81733332D02*
X178504819Y-81066666D01*
X178504819Y-81066666D02*
X179504819Y-81495237D01*
X144313095Y-71129819D02*
X144313095Y-70129819D01*
X144313095Y-70606009D02*
X144884523Y-70606009D01*
X144884523Y-71129819D02*
X144884523Y-70129819D01*
X145884523Y-71129819D02*
X145313095Y-71129819D01*
X145598809Y-71129819D02*
X145598809Y-70129819D01*
X145598809Y-70129819D02*
X145503571Y-70272676D01*
X145503571Y-70272676D02*
X145408333Y-70367914D01*
X145408333Y-70367914D02*
X145313095Y-70415533D01*
X180257142Y-98404819D02*
X179923809Y-97928628D01*
X179685714Y-98404819D02*
X179685714Y-97404819D01*
X179685714Y-97404819D02*
X180066666Y-97404819D01*
X180066666Y-97404819D02*
X180161904Y-97452438D01*
X180161904Y-97452438D02*
X180209523Y-97500057D01*
X180209523Y-97500057D02*
X180257142Y-97595295D01*
X180257142Y-97595295D02*
X180257142Y-97738152D01*
X180257142Y-97738152D02*
X180209523Y-97833390D01*
X180209523Y-97833390D02*
X180161904Y-97881009D01*
X180161904Y-97881009D02*
X180066666Y-97928628D01*
X180066666Y-97928628D02*
X179685714Y-97928628D01*
X181209523Y-98404819D02*
X180638095Y-98404819D01*
X180923809Y-98404819D02*
X180923809Y-97404819D01*
X180923809Y-97404819D02*
X180828571Y-97547676D01*
X180828571Y-97547676D02*
X180733333Y-97642914D01*
X180733333Y-97642914D02*
X180638095Y-97690533D01*
X181828571Y-97404819D02*
X181923809Y-97404819D01*
X181923809Y-97404819D02*
X182019047Y-97452438D01*
X182019047Y-97452438D02*
X182066666Y-97500057D01*
X182066666Y-97500057D02*
X182114285Y-97595295D01*
X182114285Y-97595295D02*
X182161904Y-97785771D01*
X182161904Y-97785771D02*
X182161904Y-98023866D01*
X182161904Y-98023866D02*
X182114285Y-98214342D01*
X182114285Y-98214342D02*
X182066666Y-98309580D01*
X182066666Y-98309580D02*
X182019047Y-98357200D01*
X182019047Y-98357200D02*
X181923809Y-98404819D01*
X181923809Y-98404819D02*
X181828571Y-98404819D01*
X181828571Y-98404819D02*
X181733333Y-98357200D01*
X181733333Y-98357200D02*
X181685714Y-98309580D01*
X181685714Y-98309580D02*
X181638095Y-98214342D01*
X181638095Y-98214342D02*
X181590476Y-98023866D01*
X181590476Y-98023866D02*
X181590476Y-97785771D01*
X181590476Y-97785771D02*
X181638095Y-97595295D01*
X181638095Y-97595295D02*
X181685714Y-97500057D01*
X181685714Y-97500057D02*
X181733333Y-97452438D01*
X181733333Y-97452438D02*
X181828571Y-97404819D01*
X144679819Y-76466666D02*
X144203628Y-76799999D01*
X144679819Y-77038094D02*
X143679819Y-77038094D01*
X143679819Y-77038094D02*
X143679819Y-76657142D01*
X143679819Y-76657142D02*
X143727438Y-76561904D01*
X143727438Y-76561904D02*
X143775057Y-76514285D01*
X143775057Y-76514285D02*
X143870295Y-76466666D01*
X143870295Y-76466666D02*
X144013152Y-76466666D01*
X144013152Y-76466666D02*
X144108390Y-76514285D01*
X144108390Y-76514285D02*
X144156009Y-76561904D01*
X144156009Y-76561904D02*
X144203628Y-76657142D01*
X144203628Y-76657142D02*
X144203628Y-77038094D01*
X143679819Y-75561904D02*
X143679819Y-76038094D01*
X143679819Y-76038094D02*
X144156009Y-76085713D01*
X144156009Y-76085713D02*
X144108390Y-76038094D01*
X144108390Y-76038094D02*
X144060771Y-75942856D01*
X144060771Y-75942856D02*
X144060771Y-75704761D01*
X144060771Y-75704761D02*
X144108390Y-75609523D01*
X144108390Y-75609523D02*
X144156009Y-75561904D01*
X144156009Y-75561904D02*
X144251247Y-75514285D01*
X144251247Y-75514285D02*
X144489342Y-75514285D01*
X144489342Y-75514285D02*
X144584580Y-75561904D01*
X144584580Y-75561904D02*
X144632200Y-75609523D01*
X144632200Y-75609523D02*
X144679819Y-75704761D01*
X144679819Y-75704761D02*
X144679819Y-75942856D01*
X144679819Y-75942856D02*
X144632200Y-76038094D01*
X144632200Y-76038094D02*
X144584580Y-76085713D01*
X143414819Y-84283333D02*
X144129104Y-84283333D01*
X144129104Y-84283333D02*
X144271961Y-84330952D01*
X144271961Y-84330952D02*
X144367200Y-84426190D01*
X144367200Y-84426190D02*
X144414819Y-84569047D01*
X144414819Y-84569047D02*
X144414819Y-84664285D01*
X143510057Y-83854761D02*
X143462438Y-83807142D01*
X143462438Y-83807142D02*
X143414819Y-83711904D01*
X143414819Y-83711904D02*
X143414819Y-83473809D01*
X143414819Y-83473809D02*
X143462438Y-83378571D01*
X143462438Y-83378571D02*
X143510057Y-83330952D01*
X143510057Y-83330952D02*
X143605295Y-83283333D01*
X143605295Y-83283333D02*
X143700533Y-83283333D01*
X143700533Y-83283333D02*
X143843390Y-83330952D01*
X143843390Y-83330952D02*
X144414819Y-83902380D01*
X144414819Y-83902380D02*
X144414819Y-83283333D01*
X190366666Y-97004819D02*
X190366666Y-97719104D01*
X190366666Y-97719104D02*
X190319047Y-97861961D01*
X190319047Y-97861961D02*
X190223809Y-97957200D01*
X190223809Y-97957200D02*
X190080952Y-98004819D01*
X190080952Y-98004819D02*
X189985714Y-98004819D01*
X191271428Y-97004819D02*
X191080952Y-97004819D01*
X191080952Y-97004819D02*
X190985714Y-97052438D01*
X190985714Y-97052438D02*
X190938095Y-97100057D01*
X190938095Y-97100057D02*
X190842857Y-97242914D01*
X190842857Y-97242914D02*
X190795238Y-97433390D01*
X190795238Y-97433390D02*
X190795238Y-97814342D01*
X190795238Y-97814342D02*
X190842857Y-97909580D01*
X190842857Y-97909580D02*
X190890476Y-97957200D01*
X190890476Y-97957200D02*
X190985714Y-98004819D01*
X190985714Y-98004819D02*
X191176190Y-98004819D01*
X191176190Y-98004819D02*
X191271428Y-97957200D01*
X191271428Y-97957200D02*
X191319047Y-97909580D01*
X191319047Y-97909580D02*
X191366666Y-97814342D01*
X191366666Y-97814342D02*
X191366666Y-97576247D01*
X191366666Y-97576247D02*
X191319047Y-97481009D01*
X191319047Y-97481009D02*
X191271428Y-97433390D01*
X191271428Y-97433390D02*
X191176190Y-97385771D01*
X191176190Y-97385771D02*
X190985714Y-97385771D01*
X190985714Y-97385771D02*
X190890476Y-97433390D01*
X190890476Y-97433390D02*
X190842857Y-97481009D01*
X190842857Y-97481009D02*
X190795238Y-97576247D01*
X178254819Y-82116666D02*
X177778628Y-82449999D01*
X178254819Y-82688094D02*
X177254819Y-82688094D01*
X177254819Y-82688094D02*
X177254819Y-82307142D01*
X177254819Y-82307142D02*
X177302438Y-82211904D01*
X177302438Y-82211904D02*
X177350057Y-82164285D01*
X177350057Y-82164285D02*
X177445295Y-82116666D01*
X177445295Y-82116666D02*
X177588152Y-82116666D01*
X177588152Y-82116666D02*
X177683390Y-82164285D01*
X177683390Y-82164285D02*
X177731009Y-82211904D01*
X177731009Y-82211904D02*
X177778628Y-82307142D01*
X177778628Y-82307142D02*
X177778628Y-82688094D01*
X177683390Y-81545237D02*
X177635771Y-81640475D01*
X177635771Y-81640475D02*
X177588152Y-81688094D01*
X177588152Y-81688094D02*
X177492914Y-81735713D01*
X177492914Y-81735713D02*
X177445295Y-81735713D01*
X177445295Y-81735713D02*
X177350057Y-81688094D01*
X177350057Y-81688094D02*
X177302438Y-81640475D01*
X177302438Y-81640475D02*
X177254819Y-81545237D01*
X177254819Y-81545237D02*
X177254819Y-81354761D01*
X177254819Y-81354761D02*
X177302438Y-81259523D01*
X177302438Y-81259523D02*
X177350057Y-81211904D01*
X177350057Y-81211904D02*
X177445295Y-81164285D01*
X177445295Y-81164285D02*
X177492914Y-81164285D01*
X177492914Y-81164285D02*
X177588152Y-81211904D01*
X177588152Y-81211904D02*
X177635771Y-81259523D01*
X177635771Y-81259523D02*
X177683390Y-81354761D01*
X177683390Y-81354761D02*
X177683390Y-81545237D01*
X177683390Y-81545237D02*
X177731009Y-81640475D01*
X177731009Y-81640475D02*
X177778628Y-81688094D01*
X177778628Y-81688094D02*
X177873866Y-81735713D01*
X177873866Y-81735713D02*
X178064342Y-81735713D01*
X178064342Y-81735713D02*
X178159580Y-81688094D01*
X178159580Y-81688094D02*
X178207200Y-81640475D01*
X178207200Y-81640475D02*
X178254819Y-81545237D01*
X178254819Y-81545237D02*
X178254819Y-81354761D01*
X178254819Y-81354761D02*
X178207200Y-81259523D01*
X178207200Y-81259523D02*
X178159580Y-81211904D01*
X178159580Y-81211904D02*
X178064342Y-81164285D01*
X178064342Y-81164285D02*
X177873866Y-81164285D01*
X177873866Y-81164285D02*
X177778628Y-81211904D01*
X177778628Y-81211904D02*
X177731009Y-81259523D01*
X177731009Y-81259523D02*
X177683390Y-81354761D01*
X181354819Y-92566666D02*
X180878628Y-92899999D01*
X181354819Y-93138094D02*
X180354819Y-93138094D01*
X180354819Y-93138094D02*
X180354819Y-92757142D01*
X180354819Y-92757142D02*
X180402438Y-92661904D01*
X180402438Y-92661904D02*
X180450057Y-92614285D01*
X180450057Y-92614285D02*
X180545295Y-92566666D01*
X180545295Y-92566666D02*
X180688152Y-92566666D01*
X180688152Y-92566666D02*
X180783390Y-92614285D01*
X180783390Y-92614285D02*
X180831009Y-92661904D01*
X180831009Y-92661904D02*
X180878628Y-92757142D01*
X180878628Y-92757142D02*
X180878628Y-93138094D01*
X181354819Y-92090475D02*
X181354819Y-91899999D01*
X181354819Y-91899999D02*
X181307200Y-91804761D01*
X181307200Y-91804761D02*
X181259580Y-91757142D01*
X181259580Y-91757142D02*
X181116723Y-91661904D01*
X181116723Y-91661904D02*
X180926247Y-91614285D01*
X180926247Y-91614285D02*
X180545295Y-91614285D01*
X180545295Y-91614285D02*
X180450057Y-91661904D01*
X180450057Y-91661904D02*
X180402438Y-91709523D01*
X180402438Y-91709523D02*
X180354819Y-91804761D01*
X180354819Y-91804761D02*
X180354819Y-91995237D01*
X180354819Y-91995237D02*
X180402438Y-92090475D01*
X180402438Y-92090475D02*
X180450057Y-92138094D01*
X180450057Y-92138094D02*
X180545295Y-92185713D01*
X180545295Y-92185713D02*
X180783390Y-92185713D01*
X180783390Y-92185713D02*
X180878628Y-92138094D01*
X180878628Y-92138094D02*
X180926247Y-92090475D01*
X180926247Y-92090475D02*
X180973866Y-91995237D01*
X180973866Y-91995237D02*
X180973866Y-91804761D01*
X180973866Y-91804761D02*
X180926247Y-91709523D01*
X180926247Y-91709523D02*
X180878628Y-91661904D01*
X180878628Y-91661904D02*
X180783390Y-91614285D01*
X143904761Y-99500057D02*
X143809523Y-99452438D01*
X143809523Y-99452438D02*
X143714285Y-99357200D01*
X143714285Y-99357200D02*
X143571428Y-99214342D01*
X143571428Y-99214342D02*
X143476190Y-99166723D01*
X143476190Y-99166723D02*
X143380952Y-99166723D01*
X143428571Y-99404819D02*
X143333333Y-99357200D01*
X143333333Y-99357200D02*
X143238095Y-99261961D01*
X143238095Y-99261961D02*
X143190476Y-99071485D01*
X143190476Y-99071485D02*
X143190476Y-98738152D01*
X143190476Y-98738152D02*
X143238095Y-98547676D01*
X143238095Y-98547676D02*
X143333333Y-98452438D01*
X143333333Y-98452438D02*
X143428571Y-98404819D01*
X143428571Y-98404819D02*
X143619047Y-98404819D01*
X143619047Y-98404819D02*
X143714285Y-98452438D01*
X143714285Y-98452438D02*
X143809523Y-98547676D01*
X143809523Y-98547676D02*
X143857142Y-98738152D01*
X143857142Y-98738152D02*
X143857142Y-99071485D01*
X143857142Y-99071485D02*
X143809523Y-99261961D01*
X143809523Y-99261961D02*
X143714285Y-99357200D01*
X143714285Y-99357200D02*
X143619047Y-99404819D01*
X143619047Y-99404819D02*
X143428571Y-99404819D01*
X144809523Y-99404819D02*
X144238095Y-99404819D01*
X144523809Y-99404819D02*
X144523809Y-98404819D01*
X144523809Y-98404819D02*
X144428571Y-98547676D01*
X144428571Y-98547676D02*
X144333333Y-98642914D01*
X144333333Y-98642914D02*
X144238095Y-98690533D01*
X142055833Y-74304819D02*
X141722500Y-73828628D01*
X141484405Y-74304819D02*
X141484405Y-73304819D01*
X141484405Y-73304819D02*
X141865357Y-73304819D01*
X141865357Y-73304819D02*
X141960595Y-73352438D01*
X141960595Y-73352438D02*
X142008214Y-73400057D01*
X142008214Y-73400057D02*
X142055833Y-73495295D01*
X142055833Y-73495295D02*
X142055833Y-73638152D01*
X142055833Y-73638152D02*
X142008214Y-73733390D01*
X142008214Y-73733390D02*
X141960595Y-73781009D01*
X141960595Y-73781009D02*
X141865357Y-73828628D01*
X141865357Y-73828628D02*
X141484405Y-73828628D01*
X142912976Y-73638152D02*
X142912976Y-74304819D01*
X142674881Y-73257200D02*
X142436786Y-73971485D01*
X142436786Y-73971485D02*
X143055833Y-73971485D01*
X185912380Y-92048276D02*
X185912380Y-92566371D01*
X185912380Y-92566371D02*
X185942857Y-92627323D01*
X185942857Y-92627323D02*
X185973333Y-92657800D01*
X185973333Y-92657800D02*
X186034285Y-92688276D01*
X186034285Y-92688276D02*
X186156190Y-92688276D01*
X186156190Y-92688276D02*
X186217142Y-92657800D01*
X186217142Y-92657800D02*
X186247619Y-92627323D01*
X186247619Y-92627323D02*
X186278095Y-92566371D01*
X186278095Y-92566371D02*
X186278095Y-92048276D01*
X186552380Y-92109228D02*
X186582856Y-92078752D01*
X186582856Y-92078752D02*
X186643809Y-92048276D01*
X186643809Y-92048276D02*
X186796190Y-92048276D01*
X186796190Y-92048276D02*
X186857142Y-92078752D01*
X186857142Y-92078752D02*
X186887618Y-92109228D01*
X186887618Y-92109228D02*
X186918095Y-92170180D01*
X186918095Y-92170180D02*
X186918095Y-92231133D01*
X186918095Y-92231133D02*
X186887618Y-92322561D01*
X186887618Y-92322561D02*
X186521904Y-92688276D01*
X186521904Y-92688276D02*
X186918095Y-92688276D01*
X189159580Y-95066666D02*
X189207200Y-95114285D01*
X189207200Y-95114285D02*
X189254819Y-95257142D01*
X189254819Y-95257142D02*
X189254819Y-95352380D01*
X189254819Y-95352380D02*
X189207200Y-95495237D01*
X189207200Y-95495237D02*
X189111961Y-95590475D01*
X189111961Y-95590475D02*
X189016723Y-95638094D01*
X189016723Y-95638094D02*
X188826247Y-95685713D01*
X188826247Y-95685713D02*
X188683390Y-95685713D01*
X188683390Y-95685713D02*
X188492914Y-95638094D01*
X188492914Y-95638094D02*
X188397676Y-95590475D01*
X188397676Y-95590475D02*
X188302438Y-95495237D01*
X188302438Y-95495237D02*
X188254819Y-95352380D01*
X188254819Y-95352380D02*
X188254819Y-95257142D01*
X188254819Y-95257142D02*
X188302438Y-95114285D01*
X188302438Y-95114285D02*
X188350057Y-95066666D01*
X188254819Y-94733332D02*
X188254819Y-94066666D01*
X188254819Y-94066666D02*
X189254819Y-94495237D01*
X184713095Y-116729819D02*
X184713095Y-115729819D01*
X184713095Y-116206009D02*
X185284523Y-116206009D01*
X185284523Y-116729819D02*
X185284523Y-115729819D01*
X186189285Y-116063152D02*
X186189285Y-116729819D01*
X185951190Y-115682200D02*
X185713095Y-116396485D01*
X185713095Y-116396485D02*
X186332142Y-116396485D01*
X178107142Y-91504819D02*
X177773809Y-91028628D01*
X177535714Y-91504819D02*
X177535714Y-90504819D01*
X177535714Y-90504819D02*
X177916666Y-90504819D01*
X177916666Y-90504819D02*
X178011904Y-90552438D01*
X178011904Y-90552438D02*
X178059523Y-90600057D01*
X178059523Y-90600057D02*
X178107142Y-90695295D01*
X178107142Y-90695295D02*
X178107142Y-90838152D01*
X178107142Y-90838152D02*
X178059523Y-90933390D01*
X178059523Y-90933390D02*
X178011904Y-90981009D01*
X178011904Y-90981009D02*
X177916666Y-91028628D01*
X177916666Y-91028628D02*
X177535714Y-91028628D01*
X179059523Y-91504819D02*
X178488095Y-91504819D01*
X178773809Y-91504819D02*
X178773809Y-90504819D01*
X178773809Y-90504819D02*
X178678571Y-90647676D01*
X178678571Y-90647676D02*
X178583333Y-90742914D01*
X178583333Y-90742914D02*
X178488095Y-90790533D01*
X179392857Y-90504819D02*
X180011904Y-90504819D01*
X180011904Y-90504819D02*
X179678571Y-90885771D01*
X179678571Y-90885771D02*
X179821428Y-90885771D01*
X179821428Y-90885771D02*
X179916666Y-90933390D01*
X179916666Y-90933390D02*
X179964285Y-90981009D01*
X179964285Y-90981009D02*
X180011904Y-91076247D01*
X180011904Y-91076247D02*
X180011904Y-91314342D01*
X180011904Y-91314342D02*
X179964285Y-91409580D01*
X179964285Y-91409580D02*
X179916666Y-91457200D01*
X179916666Y-91457200D02*
X179821428Y-91504819D01*
X179821428Y-91504819D02*
X179535714Y-91504819D01*
X179535714Y-91504819D02*
X179440476Y-91457200D01*
X179440476Y-91457200D02*
X179392857Y-91409580D01*
X175307142Y-92504819D02*
X174973809Y-92028628D01*
X174735714Y-92504819D02*
X174735714Y-91504819D01*
X174735714Y-91504819D02*
X175116666Y-91504819D01*
X175116666Y-91504819D02*
X175211904Y-91552438D01*
X175211904Y-91552438D02*
X175259523Y-91600057D01*
X175259523Y-91600057D02*
X175307142Y-91695295D01*
X175307142Y-91695295D02*
X175307142Y-91838152D01*
X175307142Y-91838152D02*
X175259523Y-91933390D01*
X175259523Y-91933390D02*
X175211904Y-91981009D01*
X175211904Y-91981009D02*
X175116666Y-92028628D01*
X175116666Y-92028628D02*
X174735714Y-92028628D01*
X176259523Y-92504819D02*
X175688095Y-92504819D01*
X175973809Y-92504819D02*
X175973809Y-91504819D01*
X175973809Y-91504819D02*
X175878571Y-91647676D01*
X175878571Y-91647676D02*
X175783333Y-91742914D01*
X175783333Y-91742914D02*
X175688095Y-91790533D01*
X176640476Y-91600057D02*
X176688095Y-91552438D01*
X176688095Y-91552438D02*
X176783333Y-91504819D01*
X176783333Y-91504819D02*
X177021428Y-91504819D01*
X177021428Y-91504819D02*
X177116666Y-91552438D01*
X177116666Y-91552438D02*
X177164285Y-91600057D01*
X177164285Y-91600057D02*
X177211904Y-91695295D01*
X177211904Y-91695295D02*
X177211904Y-91790533D01*
X177211904Y-91790533D02*
X177164285Y-91933390D01*
X177164285Y-91933390D02*
X176592857Y-92504819D01*
X176592857Y-92504819D02*
X177211904Y-92504819D01*
X137195237Y-85131009D02*
X137338094Y-85178628D01*
X137338094Y-85178628D02*
X137385713Y-85226247D01*
X137385713Y-85226247D02*
X137433332Y-85321485D01*
X137433332Y-85321485D02*
X137433332Y-85464342D01*
X137433332Y-85464342D02*
X137385713Y-85559580D01*
X137385713Y-85559580D02*
X137338094Y-85607200D01*
X137338094Y-85607200D02*
X137242856Y-85654819D01*
X137242856Y-85654819D02*
X136861904Y-85654819D01*
X136861904Y-85654819D02*
X136861904Y-84654819D01*
X136861904Y-84654819D02*
X137195237Y-84654819D01*
X137195237Y-84654819D02*
X137290475Y-84702438D01*
X137290475Y-84702438D02*
X137338094Y-84750057D01*
X137338094Y-84750057D02*
X137385713Y-84845295D01*
X137385713Y-84845295D02*
X137385713Y-84940533D01*
X137385713Y-84940533D02*
X137338094Y-85035771D01*
X137338094Y-85035771D02*
X137290475Y-85083390D01*
X137290475Y-85083390D02*
X137195237Y-85131009D01*
X137195237Y-85131009D02*
X136861904Y-85131009D01*
X138290475Y-84988152D02*
X138290475Y-85654819D01*
X137861904Y-84988152D02*
X137861904Y-85511961D01*
X137861904Y-85511961D02*
X137909523Y-85607200D01*
X137909523Y-85607200D02*
X138004761Y-85654819D01*
X138004761Y-85654819D02*
X138147618Y-85654819D01*
X138147618Y-85654819D02*
X138242856Y-85607200D01*
X138242856Y-85607200D02*
X138290475Y-85559580D01*
X138671428Y-84988152D02*
X139195237Y-84988152D01*
X139195237Y-84988152D02*
X138671428Y-85654819D01*
X138671428Y-85654819D02*
X139195237Y-85654819D01*
X139480952Y-84988152D02*
X140004761Y-84988152D01*
X140004761Y-84988152D02*
X139480952Y-85654819D01*
X139480952Y-85654819D02*
X140004761Y-85654819D01*
X140766666Y-85607200D02*
X140671428Y-85654819D01*
X140671428Y-85654819D02*
X140480952Y-85654819D01*
X140480952Y-85654819D02*
X140385714Y-85607200D01*
X140385714Y-85607200D02*
X140338095Y-85511961D01*
X140338095Y-85511961D02*
X140338095Y-85131009D01*
X140338095Y-85131009D02*
X140385714Y-85035771D01*
X140385714Y-85035771D02*
X140480952Y-84988152D01*
X140480952Y-84988152D02*
X140671428Y-84988152D01*
X140671428Y-84988152D02*
X140766666Y-85035771D01*
X140766666Y-85035771D02*
X140814285Y-85131009D01*
X140814285Y-85131009D02*
X140814285Y-85226247D01*
X140814285Y-85226247D02*
X140338095Y-85321485D01*
X141242857Y-85654819D02*
X141242857Y-84988152D01*
X141242857Y-85178628D02*
X141290476Y-85083390D01*
X141290476Y-85083390D02*
X141338095Y-85035771D01*
X141338095Y-85035771D02*
X141433333Y-84988152D01*
X141433333Y-84988152D02*
X141528571Y-84988152D01*
X142385714Y-85654819D02*
X141814286Y-85654819D01*
X142100000Y-85654819D02*
X142100000Y-84654819D01*
X142100000Y-84654819D02*
X142004762Y-84797676D01*
X142004762Y-84797676D02*
X141909524Y-84892914D01*
X141909524Y-84892914D02*
X141814286Y-84940533D01*
X137741666Y-72794819D02*
X137741666Y-73509104D01*
X137741666Y-73509104D02*
X137694047Y-73651961D01*
X137694047Y-73651961D02*
X137598809Y-73747200D01*
X137598809Y-73747200D02*
X137455952Y-73794819D01*
X137455952Y-73794819D02*
X137360714Y-73794819D01*
X138646428Y-73128152D02*
X138646428Y-73794819D01*
X138408333Y-72747200D02*
X138170238Y-73461485D01*
X138170238Y-73461485D02*
X138789285Y-73461485D01*
X144939819Y-116908333D02*
X145654104Y-116908333D01*
X145654104Y-116908333D02*
X145796961Y-116955952D01*
X145796961Y-116955952D02*
X145892200Y-117051190D01*
X145892200Y-117051190D02*
X145939819Y-117194047D01*
X145939819Y-117194047D02*
X145939819Y-117289285D01*
X144939819Y-116527380D02*
X144939819Y-115860714D01*
X144939819Y-115860714D02*
X145939819Y-116289285D01*
X187383333Y-98559580D02*
X187335714Y-98607200D01*
X187335714Y-98607200D02*
X187192857Y-98654819D01*
X187192857Y-98654819D02*
X187097619Y-98654819D01*
X187097619Y-98654819D02*
X186954762Y-98607200D01*
X186954762Y-98607200D02*
X186859524Y-98511961D01*
X186859524Y-98511961D02*
X186811905Y-98416723D01*
X186811905Y-98416723D02*
X186764286Y-98226247D01*
X186764286Y-98226247D02*
X186764286Y-98083390D01*
X186764286Y-98083390D02*
X186811905Y-97892914D01*
X186811905Y-97892914D02*
X186859524Y-97797676D01*
X186859524Y-97797676D02*
X186954762Y-97702438D01*
X186954762Y-97702438D02*
X187097619Y-97654819D01*
X187097619Y-97654819D02*
X187192857Y-97654819D01*
X187192857Y-97654819D02*
X187335714Y-97702438D01*
X187335714Y-97702438D02*
X187383333Y-97750057D01*
X187859524Y-98654819D02*
X188050000Y-98654819D01*
X188050000Y-98654819D02*
X188145238Y-98607200D01*
X188145238Y-98607200D02*
X188192857Y-98559580D01*
X188192857Y-98559580D02*
X188288095Y-98416723D01*
X188288095Y-98416723D02*
X188335714Y-98226247D01*
X188335714Y-98226247D02*
X188335714Y-97845295D01*
X188335714Y-97845295D02*
X188288095Y-97750057D01*
X188288095Y-97750057D02*
X188240476Y-97702438D01*
X188240476Y-97702438D02*
X188145238Y-97654819D01*
X188145238Y-97654819D02*
X187954762Y-97654819D01*
X187954762Y-97654819D02*
X187859524Y-97702438D01*
X187859524Y-97702438D02*
X187811905Y-97750057D01*
X187811905Y-97750057D02*
X187764286Y-97845295D01*
X187764286Y-97845295D02*
X187764286Y-98083390D01*
X187764286Y-98083390D02*
X187811905Y-98178628D01*
X187811905Y-98178628D02*
X187859524Y-98226247D01*
X187859524Y-98226247D02*
X187954762Y-98273866D01*
X187954762Y-98273866D02*
X188145238Y-98273866D01*
X188145238Y-98273866D02*
X188240476Y-98226247D01*
X188240476Y-98226247D02*
X188288095Y-98178628D01*
X188288095Y-98178628D02*
X188335714Y-98083390D01*
X144909819Y-109108333D02*
X145624104Y-109108333D01*
X145624104Y-109108333D02*
X145766961Y-109155952D01*
X145766961Y-109155952D02*
X145862200Y-109251190D01*
X145862200Y-109251190D02*
X145909819Y-109394047D01*
X145909819Y-109394047D02*
X145909819Y-109489285D01*
X144909819Y-108155952D02*
X144909819Y-108632142D01*
X144909819Y-108632142D02*
X145386009Y-108679761D01*
X145386009Y-108679761D02*
X145338390Y-108632142D01*
X145338390Y-108632142D02*
X145290771Y-108536904D01*
X145290771Y-108536904D02*
X145290771Y-108298809D01*
X145290771Y-108298809D02*
X145338390Y-108203571D01*
X145338390Y-108203571D02*
X145386009Y-108155952D01*
X145386009Y-108155952D02*
X145481247Y-108108333D01*
X145481247Y-108108333D02*
X145719342Y-108108333D01*
X145719342Y-108108333D02*
X145814580Y-108155952D01*
X145814580Y-108155952D02*
X145862200Y-108203571D01*
X145862200Y-108203571D02*
X145909819Y-108298809D01*
X145909819Y-108298809D02*
X145909819Y-108536904D01*
X145909819Y-108536904D02*
X145862200Y-108632142D01*
X145862200Y-108632142D02*
X145814580Y-108679761D01*
X178057142Y-89959580D02*
X178009523Y-90007200D01*
X178009523Y-90007200D02*
X177866666Y-90054819D01*
X177866666Y-90054819D02*
X177771428Y-90054819D01*
X177771428Y-90054819D02*
X177628571Y-90007200D01*
X177628571Y-90007200D02*
X177533333Y-89911961D01*
X177533333Y-89911961D02*
X177485714Y-89816723D01*
X177485714Y-89816723D02*
X177438095Y-89626247D01*
X177438095Y-89626247D02*
X177438095Y-89483390D01*
X177438095Y-89483390D02*
X177485714Y-89292914D01*
X177485714Y-89292914D02*
X177533333Y-89197676D01*
X177533333Y-89197676D02*
X177628571Y-89102438D01*
X177628571Y-89102438D02*
X177771428Y-89054819D01*
X177771428Y-89054819D02*
X177866666Y-89054819D01*
X177866666Y-89054819D02*
X178009523Y-89102438D01*
X178009523Y-89102438D02*
X178057142Y-89150057D01*
X179009523Y-90054819D02*
X178438095Y-90054819D01*
X178723809Y-90054819D02*
X178723809Y-89054819D01*
X178723809Y-89054819D02*
X178628571Y-89197676D01*
X178628571Y-89197676D02*
X178533333Y-89292914D01*
X178533333Y-89292914D02*
X178438095Y-89340533D01*
X179390476Y-89150057D02*
X179438095Y-89102438D01*
X179438095Y-89102438D02*
X179533333Y-89054819D01*
X179533333Y-89054819D02*
X179771428Y-89054819D01*
X179771428Y-89054819D02*
X179866666Y-89102438D01*
X179866666Y-89102438D02*
X179914285Y-89150057D01*
X179914285Y-89150057D02*
X179961904Y-89245295D01*
X179961904Y-89245295D02*
X179961904Y-89340533D01*
X179961904Y-89340533D02*
X179914285Y-89483390D01*
X179914285Y-89483390D02*
X179342857Y-90054819D01*
X179342857Y-90054819D02*
X179961904Y-90054819D01*
X144909819Y-113008333D02*
X145624104Y-113008333D01*
X145624104Y-113008333D02*
X145766961Y-113055952D01*
X145766961Y-113055952D02*
X145862200Y-113151190D01*
X145862200Y-113151190D02*
X145909819Y-113294047D01*
X145909819Y-113294047D02*
X145909819Y-113389285D01*
X145338390Y-112389285D02*
X145290771Y-112484523D01*
X145290771Y-112484523D02*
X145243152Y-112532142D01*
X145243152Y-112532142D02*
X145147914Y-112579761D01*
X145147914Y-112579761D02*
X145100295Y-112579761D01*
X145100295Y-112579761D02*
X145005057Y-112532142D01*
X145005057Y-112532142D02*
X144957438Y-112484523D01*
X144957438Y-112484523D02*
X144909819Y-112389285D01*
X144909819Y-112389285D02*
X144909819Y-112198809D01*
X144909819Y-112198809D02*
X144957438Y-112103571D01*
X144957438Y-112103571D02*
X145005057Y-112055952D01*
X145005057Y-112055952D02*
X145100295Y-112008333D01*
X145100295Y-112008333D02*
X145147914Y-112008333D01*
X145147914Y-112008333D02*
X145243152Y-112055952D01*
X145243152Y-112055952D02*
X145290771Y-112103571D01*
X145290771Y-112103571D02*
X145338390Y-112198809D01*
X145338390Y-112198809D02*
X145338390Y-112389285D01*
X145338390Y-112389285D02*
X145386009Y-112484523D01*
X145386009Y-112484523D02*
X145433628Y-112532142D01*
X145433628Y-112532142D02*
X145528866Y-112579761D01*
X145528866Y-112579761D02*
X145719342Y-112579761D01*
X145719342Y-112579761D02*
X145814580Y-112532142D01*
X145814580Y-112532142D02*
X145862200Y-112484523D01*
X145862200Y-112484523D02*
X145909819Y-112389285D01*
X145909819Y-112389285D02*
X145909819Y-112198809D01*
X145909819Y-112198809D02*
X145862200Y-112103571D01*
X145862200Y-112103571D02*
X145814580Y-112055952D01*
X145814580Y-112055952D02*
X145719342Y-112008333D01*
X145719342Y-112008333D02*
X145528866Y-112008333D01*
X145528866Y-112008333D02*
X145433628Y-112055952D01*
X145433628Y-112055952D02*
X145386009Y-112103571D01*
X145386009Y-112103571D02*
X145338390Y-112198809D01*
X135113095Y-99979819D02*
X135113095Y-98979819D01*
X135113095Y-99456009D02*
X135684523Y-99456009D01*
X135684523Y-99979819D02*
X135684523Y-98979819D01*
X136065476Y-98979819D02*
X136684523Y-98979819D01*
X136684523Y-98979819D02*
X136351190Y-99360771D01*
X136351190Y-99360771D02*
X136494047Y-99360771D01*
X136494047Y-99360771D02*
X136589285Y-99408390D01*
X136589285Y-99408390D02*
X136636904Y-99456009D01*
X136636904Y-99456009D02*
X136684523Y-99551247D01*
X136684523Y-99551247D02*
X136684523Y-99789342D01*
X136684523Y-99789342D02*
X136636904Y-99884580D01*
X136636904Y-99884580D02*
X136589285Y-99932200D01*
X136589285Y-99932200D02*
X136494047Y-99979819D01*
X136494047Y-99979819D02*
X136208333Y-99979819D01*
X136208333Y-99979819D02*
X136113095Y-99932200D01*
X136113095Y-99932200D02*
X136065476Y-99884580D01*
X189188095Y-74954819D02*
X189188095Y-73954819D01*
X189188095Y-74431009D02*
X189759523Y-74431009D01*
X189759523Y-74954819D02*
X189759523Y-73954819D01*
X190188095Y-74050057D02*
X190235714Y-74002438D01*
X190235714Y-74002438D02*
X190330952Y-73954819D01*
X190330952Y-73954819D02*
X190569047Y-73954819D01*
X190569047Y-73954819D02*
X190664285Y-74002438D01*
X190664285Y-74002438D02*
X190711904Y-74050057D01*
X190711904Y-74050057D02*
X190759523Y-74145295D01*
X190759523Y-74145295D02*
X190759523Y-74240533D01*
X190759523Y-74240533D02*
X190711904Y-74383390D01*
X190711904Y-74383390D02*
X190140476Y-74954819D01*
X190140476Y-74954819D02*
X190759523Y-74954819D01*
X185095180Y-81078571D02*
X186095180Y-81078571D01*
X186095180Y-81078571D02*
X185380895Y-81411904D01*
X185380895Y-81411904D02*
X186095180Y-81745237D01*
X186095180Y-81745237D02*
X185095180Y-81745237D01*
X186095180Y-82411904D02*
X186095180Y-82602380D01*
X186095180Y-82602380D02*
X186047561Y-82697618D01*
X186047561Y-82697618D02*
X185952323Y-82792856D01*
X185952323Y-82792856D02*
X185761847Y-82840475D01*
X185761847Y-82840475D02*
X185428514Y-82840475D01*
X185428514Y-82840475D02*
X185238038Y-82792856D01*
X185238038Y-82792856D02*
X185142800Y-82697618D01*
X185142800Y-82697618D02*
X185095180Y-82602380D01*
X185095180Y-82602380D02*
X185095180Y-82411904D01*
X185095180Y-82411904D02*
X185142800Y-82316666D01*
X185142800Y-82316666D02*
X185238038Y-82221428D01*
X185238038Y-82221428D02*
X185428514Y-82173809D01*
X185428514Y-82173809D02*
X185761847Y-82173809D01*
X185761847Y-82173809D02*
X185952323Y-82221428D01*
X185952323Y-82221428D02*
X186047561Y-82316666D01*
X186047561Y-82316666D02*
X186095180Y-82411904D01*
X185142800Y-83221428D02*
X185095180Y-83364285D01*
X185095180Y-83364285D02*
X185095180Y-83602380D01*
X185095180Y-83602380D02*
X185142800Y-83697618D01*
X185142800Y-83697618D02*
X185190419Y-83745237D01*
X185190419Y-83745237D02*
X185285657Y-83792856D01*
X185285657Y-83792856D02*
X185380895Y-83792856D01*
X185380895Y-83792856D02*
X185476133Y-83745237D01*
X185476133Y-83745237D02*
X185523752Y-83697618D01*
X185523752Y-83697618D02*
X185571371Y-83602380D01*
X185571371Y-83602380D02*
X185618990Y-83411904D01*
X185618990Y-83411904D02*
X185666609Y-83316666D01*
X185666609Y-83316666D02*
X185714228Y-83269047D01*
X185714228Y-83269047D02*
X185809466Y-83221428D01*
X185809466Y-83221428D02*
X185904704Y-83221428D01*
X185904704Y-83221428D02*
X185999942Y-83269047D01*
X185999942Y-83269047D02*
X186047561Y-83316666D01*
X186047561Y-83316666D02*
X186095180Y-83411904D01*
X186095180Y-83411904D02*
X186095180Y-83649999D01*
X186095180Y-83649999D02*
X186047561Y-83792856D01*
X185618990Y-84554761D02*
X185618990Y-84221428D01*
X185095180Y-84221428D02*
X186095180Y-84221428D01*
X186095180Y-84221428D02*
X186095180Y-84697618D01*
X185618990Y-85078571D02*
X185618990Y-85411904D01*
X185095180Y-85554761D02*
X185095180Y-85078571D01*
X185095180Y-85078571D02*
X186095180Y-85078571D01*
X186095180Y-85078571D02*
X186095180Y-85554761D01*
X186095180Y-85840476D02*
X186095180Y-86411904D01*
X185095180Y-86126190D02*
X186095180Y-86126190D01*
X185095180Y-87269047D02*
X185095180Y-86697619D01*
X185095180Y-86983333D02*
X186095180Y-86983333D01*
X186095180Y-86983333D02*
X185952323Y-86888095D01*
X185952323Y-86888095D02*
X185857085Y-86792857D01*
X185857085Y-86792857D02*
X185809466Y-86697619D01*
X146655833Y-106679819D02*
X146322500Y-106203628D01*
X146084405Y-106679819D02*
X146084405Y-105679819D01*
X146084405Y-105679819D02*
X146465357Y-105679819D01*
X146465357Y-105679819D02*
X146560595Y-105727438D01*
X146560595Y-105727438D02*
X146608214Y-105775057D01*
X146608214Y-105775057D02*
X146655833Y-105870295D01*
X146655833Y-105870295D02*
X146655833Y-106013152D01*
X146655833Y-106013152D02*
X146608214Y-106108390D01*
X146608214Y-106108390D02*
X146560595Y-106156009D01*
X146560595Y-106156009D02*
X146465357Y-106203628D01*
X146465357Y-106203628D02*
X146084405Y-106203628D01*
X147036786Y-105775057D02*
X147084405Y-105727438D01*
X147084405Y-105727438D02*
X147179643Y-105679819D01*
X147179643Y-105679819D02*
X147417738Y-105679819D01*
X147417738Y-105679819D02*
X147512976Y-105727438D01*
X147512976Y-105727438D02*
X147560595Y-105775057D01*
X147560595Y-105775057D02*
X147608214Y-105870295D01*
X147608214Y-105870295D02*
X147608214Y-105965533D01*
X147608214Y-105965533D02*
X147560595Y-106108390D01*
X147560595Y-106108390D02*
X146989167Y-106679819D01*
X146989167Y-106679819D02*
X147608214Y-106679819D01*
X190416666Y-100554819D02*
X190416666Y-101269104D01*
X190416666Y-101269104D02*
X190369047Y-101411961D01*
X190369047Y-101411961D02*
X190273809Y-101507200D01*
X190273809Y-101507200D02*
X190130952Y-101554819D01*
X190130952Y-101554819D02*
X190035714Y-101554819D01*
X190797619Y-100554819D02*
X191416666Y-100554819D01*
X191416666Y-100554819D02*
X191083333Y-100935771D01*
X191083333Y-100935771D02*
X191226190Y-100935771D01*
X191226190Y-100935771D02*
X191321428Y-100983390D01*
X191321428Y-100983390D02*
X191369047Y-101031009D01*
X191369047Y-101031009D02*
X191416666Y-101126247D01*
X191416666Y-101126247D02*
X191416666Y-101364342D01*
X191416666Y-101364342D02*
X191369047Y-101459580D01*
X191369047Y-101459580D02*
X191321428Y-101507200D01*
X191321428Y-101507200D02*
X191226190Y-101554819D01*
X191226190Y-101554819D02*
X190940476Y-101554819D01*
X190940476Y-101554819D02*
X190845238Y-101507200D01*
X190845238Y-101507200D02*
X190797619Y-101459580D01*
X179911905Y-69599819D02*
X179911905Y-68599819D01*
X179911905Y-68599819D02*
X180150000Y-68599819D01*
X180150000Y-68599819D02*
X180292857Y-68647438D01*
X180292857Y-68647438D02*
X180388095Y-68742676D01*
X180388095Y-68742676D02*
X180435714Y-68837914D01*
X180435714Y-68837914D02*
X180483333Y-69028390D01*
X180483333Y-69028390D02*
X180483333Y-69171247D01*
X180483333Y-69171247D02*
X180435714Y-69361723D01*
X180435714Y-69361723D02*
X180388095Y-69456961D01*
X180388095Y-69456961D02*
X180292857Y-69552200D01*
X180292857Y-69552200D02*
X180150000Y-69599819D01*
X180150000Y-69599819D02*
X179911905Y-69599819D01*
X181435714Y-69599819D02*
X180864286Y-69599819D01*
X181150000Y-69599819D02*
X181150000Y-68599819D01*
X181150000Y-68599819D02*
X181054762Y-68742676D01*
X181054762Y-68742676D02*
X180959524Y-68837914D01*
X180959524Y-68837914D02*
X180864286Y-68885533D01*
X175159580Y-95092857D02*
X175207200Y-95140476D01*
X175207200Y-95140476D02*
X175254819Y-95283333D01*
X175254819Y-95283333D02*
X175254819Y-95378571D01*
X175254819Y-95378571D02*
X175207200Y-95521428D01*
X175207200Y-95521428D02*
X175111961Y-95616666D01*
X175111961Y-95616666D02*
X175016723Y-95664285D01*
X175016723Y-95664285D02*
X174826247Y-95711904D01*
X174826247Y-95711904D02*
X174683390Y-95711904D01*
X174683390Y-95711904D02*
X174492914Y-95664285D01*
X174492914Y-95664285D02*
X174397676Y-95616666D01*
X174397676Y-95616666D02*
X174302438Y-95521428D01*
X174302438Y-95521428D02*
X174254819Y-95378571D01*
X174254819Y-95378571D02*
X174254819Y-95283333D01*
X174254819Y-95283333D02*
X174302438Y-95140476D01*
X174302438Y-95140476D02*
X174350057Y-95092857D01*
X175254819Y-94140476D02*
X175254819Y-94711904D01*
X175254819Y-94426190D02*
X174254819Y-94426190D01*
X174254819Y-94426190D02*
X174397676Y-94521428D01*
X174397676Y-94521428D02*
X174492914Y-94616666D01*
X174492914Y-94616666D02*
X174540533Y-94711904D01*
X175254819Y-93188095D02*
X175254819Y-93759523D01*
X175254819Y-93473809D02*
X174254819Y-93473809D01*
X174254819Y-93473809D02*
X174397676Y-93569047D01*
X174397676Y-93569047D02*
X174492914Y-93664285D01*
X174492914Y-93664285D02*
X174540533Y-93759523D01*
X175159580Y-98042857D02*
X175207200Y-98090476D01*
X175207200Y-98090476D02*
X175254819Y-98233333D01*
X175254819Y-98233333D02*
X175254819Y-98328571D01*
X175254819Y-98328571D02*
X175207200Y-98471428D01*
X175207200Y-98471428D02*
X175111961Y-98566666D01*
X175111961Y-98566666D02*
X175016723Y-98614285D01*
X175016723Y-98614285D02*
X174826247Y-98661904D01*
X174826247Y-98661904D02*
X174683390Y-98661904D01*
X174683390Y-98661904D02*
X174492914Y-98614285D01*
X174492914Y-98614285D02*
X174397676Y-98566666D01*
X174397676Y-98566666D02*
X174302438Y-98471428D01*
X174302438Y-98471428D02*
X174254819Y-98328571D01*
X174254819Y-98328571D02*
X174254819Y-98233333D01*
X174254819Y-98233333D02*
X174302438Y-98090476D01*
X174302438Y-98090476D02*
X174350057Y-98042857D01*
X175254819Y-97090476D02*
X175254819Y-97661904D01*
X175254819Y-97376190D02*
X174254819Y-97376190D01*
X174254819Y-97376190D02*
X174397676Y-97471428D01*
X174397676Y-97471428D02*
X174492914Y-97566666D01*
X174492914Y-97566666D02*
X174540533Y-97661904D01*
X174254819Y-96471428D02*
X174254819Y-96376190D01*
X174254819Y-96376190D02*
X174302438Y-96280952D01*
X174302438Y-96280952D02*
X174350057Y-96233333D01*
X174350057Y-96233333D02*
X174445295Y-96185714D01*
X174445295Y-96185714D02*
X174635771Y-96138095D01*
X174635771Y-96138095D02*
X174873866Y-96138095D01*
X174873866Y-96138095D02*
X175064342Y-96185714D01*
X175064342Y-96185714D02*
X175159580Y-96233333D01*
X175159580Y-96233333D02*
X175207200Y-96280952D01*
X175207200Y-96280952D02*
X175254819Y-96376190D01*
X175254819Y-96376190D02*
X175254819Y-96471428D01*
X175254819Y-96471428D02*
X175207200Y-96566666D01*
X175207200Y-96566666D02*
X175159580Y-96614285D01*
X175159580Y-96614285D02*
X175064342Y-96661904D01*
X175064342Y-96661904D02*
X174873866Y-96709523D01*
X174873866Y-96709523D02*
X174635771Y-96709523D01*
X174635771Y-96709523D02*
X174445295Y-96661904D01*
X174445295Y-96661904D02*
X174350057Y-96614285D01*
X174350057Y-96614285D02*
X174302438Y-96566666D01*
X174302438Y-96566666D02*
X174254819Y-96471428D01*
X182307142Y-91904819D02*
X181973809Y-91428628D01*
X181735714Y-91904819D02*
X181735714Y-90904819D01*
X181735714Y-90904819D02*
X182116666Y-90904819D01*
X182116666Y-90904819D02*
X182211904Y-90952438D01*
X182211904Y-90952438D02*
X182259523Y-91000057D01*
X182259523Y-91000057D02*
X182307142Y-91095295D01*
X182307142Y-91095295D02*
X182307142Y-91238152D01*
X182307142Y-91238152D02*
X182259523Y-91333390D01*
X182259523Y-91333390D02*
X182211904Y-91381009D01*
X182211904Y-91381009D02*
X182116666Y-91428628D01*
X182116666Y-91428628D02*
X181735714Y-91428628D01*
X183259523Y-91904819D02*
X182688095Y-91904819D01*
X182973809Y-91904819D02*
X182973809Y-90904819D01*
X182973809Y-90904819D02*
X182878571Y-91047676D01*
X182878571Y-91047676D02*
X182783333Y-91142914D01*
X182783333Y-91142914D02*
X182688095Y-91190533D01*
X184116666Y-91238152D02*
X184116666Y-91904819D01*
X183878571Y-90857200D02*
X183640476Y-91571485D01*
X183640476Y-91571485D02*
X184259523Y-91571485D01*
X147190476Y-86824819D02*
X147190476Y-87539104D01*
X147190476Y-87539104D02*
X147142857Y-87681961D01*
X147142857Y-87681961D02*
X147047619Y-87777200D01*
X147047619Y-87777200D02*
X146904762Y-87824819D01*
X146904762Y-87824819D02*
X146809524Y-87824819D01*
X148190476Y-87824819D02*
X147619048Y-87824819D01*
X147904762Y-87824819D02*
X147904762Y-86824819D01*
X147904762Y-86824819D02*
X147809524Y-86967676D01*
X147809524Y-86967676D02*
X147714286Y-87062914D01*
X147714286Y-87062914D02*
X147619048Y-87110533D01*
X148809524Y-86824819D02*
X148904762Y-86824819D01*
X148904762Y-86824819D02*
X149000000Y-86872438D01*
X149000000Y-86872438D02*
X149047619Y-86920057D01*
X149047619Y-86920057D02*
X149095238Y-87015295D01*
X149095238Y-87015295D02*
X149142857Y-87205771D01*
X149142857Y-87205771D02*
X149142857Y-87443866D01*
X149142857Y-87443866D02*
X149095238Y-87634342D01*
X149095238Y-87634342D02*
X149047619Y-87729580D01*
X149047619Y-87729580D02*
X149000000Y-87777200D01*
X149000000Y-87777200D02*
X148904762Y-87824819D01*
X148904762Y-87824819D02*
X148809524Y-87824819D01*
X148809524Y-87824819D02*
X148714286Y-87777200D01*
X148714286Y-87777200D02*
X148666667Y-87729580D01*
X148666667Y-87729580D02*
X148619048Y-87634342D01*
X148619048Y-87634342D02*
X148571429Y-87443866D01*
X148571429Y-87443866D02*
X148571429Y-87205771D01*
X148571429Y-87205771D02*
X148619048Y-87015295D01*
X148619048Y-87015295D02*
X148666667Y-86920057D01*
X148666667Y-86920057D02*
X148714286Y-86872438D01*
X148714286Y-86872438D02*
X148809524Y-86824819D01*
X190441666Y-78069819D02*
X190441666Y-78784104D01*
X190441666Y-78784104D02*
X190394047Y-78926961D01*
X190394047Y-78926961D02*
X190298809Y-79022200D01*
X190298809Y-79022200D02*
X190155952Y-79069819D01*
X190155952Y-79069819D02*
X190060714Y-79069819D01*
X191441666Y-79069819D02*
X190870238Y-79069819D01*
X191155952Y-79069819D02*
X191155952Y-78069819D01*
X191155952Y-78069819D02*
X191060714Y-78212676D01*
X191060714Y-78212676D02*
X190965476Y-78307914D01*
X190965476Y-78307914D02*
X190870238Y-78355533D01*
X180733333Y-87604819D02*
X180400000Y-87128628D01*
X180161905Y-87604819D02*
X180161905Y-86604819D01*
X180161905Y-86604819D02*
X180542857Y-86604819D01*
X180542857Y-86604819D02*
X180638095Y-86652438D01*
X180638095Y-86652438D02*
X180685714Y-86700057D01*
X180685714Y-86700057D02*
X180733333Y-86795295D01*
X180733333Y-86795295D02*
X180733333Y-86938152D01*
X180733333Y-86938152D02*
X180685714Y-87033390D01*
X180685714Y-87033390D02*
X180638095Y-87081009D01*
X180638095Y-87081009D02*
X180542857Y-87128628D01*
X180542857Y-87128628D02*
X180161905Y-87128628D01*
X181685714Y-87604819D02*
X181114286Y-87604819D01*
X181400000Y-87604819D02*
X181400000Y-86604819D01*
X181400000Y-86604819D02*
X181304762Y-86747676D01*
X181304762Y-86747676D02*
X181209524Y-86842914D01*
X181209524Y-86842914D02*
X181114286Y-86890533D01*
D11*
%TO.C,L2*%
X176432500Y-98592378D02*
X186632500Y-98592378D01*
X176432500Y-101492378D02*
X176432500Y-98592378D01*
X176432500Y-108592378D02*
X176432500Y-105692378D01*
X186632500Y-98592378D02*
X186632500Y-101492378D01*
X186632500Y-105692378D02*
X186632500Y-108592378D01*
X186632500Y-108592378D02*
X176432500Y-108592378D01*
D12*
X187982500Y-103592378D02*
G75*
G02*
X187782500Y-103592378I-100000J0D01*
G01*
X187782500Y-103592378D02*
G75*
G02*
X187982500Y-103592378I100000J0D01*
G01*
D13*
%TO.C,R6*%
X142009879Y-76920000D02*
X142345121Y-76920000D01*
X142009879Y-77680000D02*
X142345121Y-77680000D01*
%TO.C,C8*%
X184962836Y-92532378D02*
X184747164Y-92532378D01*
X184962836Y-93252378D02*
X184747164Y-93252378D01*
%TO.C,R3*%
X138720000Y-101032379D02*
X138720000Y-101367621D01*
X139480000Y-101032379D02*
X139480000Y-101367621D01*
D14*
%TO.C,D5*%
X182724601Y-89708249D02*
X185874201Y-89708249D01*
X185874201Y-87549249D02*
X182724601Y-87549249D01*
D13*
%TO.C,A1*%
X151655000Y-70475000D02*
X151175000Y-70475000D01*
X151655000Y-70475000D02*
X151655000Y-70895000D01*
X151655000Y-73015000D02*
X151655000Y-73435000D01*
X151655000Y-75555000D02*
X151655000Y-75975000D01*
X151655000Y-78095000D02*
X151655000Y-78515000D01*
X151655000Y-80635000D02*
X151655000Y-81055000D01*
X151655000Y-83175000D02*
X151655000Y-83595000D01*
X151655000Y-85715000D02*
X151655000Y-86135000D01*
X151655000Y-88255000D02*
X151655000Y-88675000D01*
X151655000Y-90795000D02*
X151655000Y-91215000D01*
X151655000Y-93335000D02*
X151655000Y-93755000D01*
X151655000Y-95875000D02*
X151655000Y-96295000D01*
X151655000Y-98415000D02*
X151655000Y-98835000D01*
X151655000Y-100955000D02*
X151655000Y-101375000D01*
X151655000Y-103495000D02*
X151655000Y-103915000D01*
X151655000Y-106035000D02*
X151655000Y-106455000D01*
X151655000Y-108575000D02*
X151655000Y-108995000D01*
X151655000Y-111115000D02*
X151655000Y-111535000D01*
X151655000Y-113655000D02*
X151655000Y-114075000D01*
X151655000Y-116195000D02*
X151655000Y-116615000D01*
X151685324Y-68355000D02*
X151175000Y-68355000D01*
X152265000Y-67935000D02*
X154755000Y-67935000D01*
X154755000Y-67935000D02*
X156102940Y-67935000D01*
X157027061Y-67935000D02*
X158030000Y-67935000D01*
X158030000Y-67935000D02*
X166500000Y-67935000D01*
X158365000Y-67935000D02*
X158365000Y-68851000D01*
X158365000Y-71239000D02*
X158365000Y-72455000D01*
X158365000Y-72455000D02*
X158661090Y-72455000D01*
X161018910Y-72455000D02*
X163511090Y-72455000D01*
X165868910Y-72455000D02*
X166165000Y-72455000D01*
X166165000Y-67935000D02*
X166165000Y-68851000D01*
X166165000Y-71239000D02*
X166165000Y-72455000D01*
X166500000Y-67935000D02*
X167502939Y-67935000D01*
X168427061Y-67935000D02*
X169775000Y-67935000D01*
X172265000Y-67935000D02*
X169775000Y-67935000D01*
X172875000Y-70475000D02*
X172875000Y-70895000D01*
X172875000Y-73015000D02*
X172875000Y-73435000D01*
X172875000Y-75555000D02*
X172875000Y-75975000D01*
X172875000Y-78095000D02*
X172875000Y-78515000D01*
X172875000Y-80635000D02*
X172875000Y-81055000D01*
X172875000Y-83175000D02*
X172875000Y-83595000D01*
X172875000Y-85715000D02*
X172875000Y-86135000D01*
X172875000Y-88255000D02*
X172875000Y-88675000D01*
X172875000Y-90795000D02*
X172875000Y-91215000D01*
X172875000Y-93335000D02*
X172875000Y-93755000D01*
X172875000Y-95875000D02*
X172875000Y-96295000D01*
X172875000Y-98415000D02*
X172875000Y-98835000D01*
X172875000Y-100955000D02*
X172875000Y-101375000D01*
X172875000Y-103495000D02*
X172875000Y-103915000D01*
X172875000Y-106035000D02*
X172875000Y-106455000D01*
X172875000Y-108575000D02*
X172875000Y-108995000D01*
X172875000Y-111115000D02*
X172875000Y-111535000D01*
X172875000Y-113655000D02*
X172875000Y-114075000D01*
X172875000Y-116195000D02*
X172875000Y-116615000D01*
X151685324Y-68355000D02*
G75*
G02*
X152265000Y-67935000I579692J-190051D01*
G01*
X151901682Y-119035000D02*
G75*
G02*
X151685324Y-118734937I363328J490008D01*
G01*
X172265000Y-67935000D02*
G75*
G02*
X172844676Y-68355063I0J-610000D01*
G01*
X172844676Y-118734937D02*
G75*
G02*
X172628335Y-119035022I-579476J189737D01*
G01*
%TO.C,R7*%
X178695000Y-83909879D02*
X178695000Y-84245121D01*
X179455000Y-83909879D02*
X179455000Y-84245121D01*
%TO.C,R10*%
X180515000Y-96264542D02*
X180515000Y-96480214D01*
X181235000Y-96264542D02*
X181235000Y-96480214D01*
%TO.C,R5*%
X142009879Y-75820000D02*
X142345121Y-75820000D01*
X142009879Y-76580000D02*
X142345121Y-76580000D01*
%TO.C,J2*%
X136440000Y-82430000D02*
X136440000Y-81050000D01*
X137820000Y-82430000D02*
X136440000Y-82430000D01*
X139090000Y-79670000D02*
X149360000Y-79670000D01*
X139090000Y-82430000D02*
X139090000Y-79670000D01*
X139090000Y-82430000D02*
X149360000Y-82430000D01*
X149360000Y-82430000D02*
X149360000Y-79670000D01*
%TO.C,J6*%
X189395000Y-91120000D02*
X190775000Y-91120000D01*
X189395000Y-92500000D02*
X189395000Y-91120000D01*
X189395000Y-93770000D02*
X189395000Y-96420000D01*
X189395000Y-93770000D02*
X192155000Y-93770000D01*
X189395000Y-96420000D02*
X192155000Y-96420000D01*
X192155000Y-93770000D02*
X192155000Y-96420000D01*
%TO.C,R8*%
X177495000Y-84242621D02*
X177495000Y-83907379D01*
X178255000Y-84242621D02*
X178255000Y-83907379D01*
%TO.C,R9*%
X180515000Y-94204542D02*
X180515000Y-94420214D01*
X181235000Y-94204542D02*
X181235000Y-94420214D01*
%TO.C,Q1*%
X140250000Y-101270000D02*
X140250000Y-105120000D01*
X140250000Y-101270000D02*
G75*
G02*
X140827955Y-100887369I1700000J-1940000D01*
G01*
X140837736Y-105512383D02*
G75*
G02*
X140250000Y-105120000I1112264J2302383D01*
G01*
X143048807Y-100853600D02*
G75*
G02*
X144550000Y-103210000I-1098807J-2356400D01*
G01*
X144550000Y-103210000D02*
G75*
G02*
X143048807Y-105566400I-2600000J0D01*
G01*
%TO.C,R4*%
X142007379Y-74720000D02*
X142342621Y-74720000D01*
X142007379Y-75480000D02*
X142342621Y-75480000D01*
D11*
%TO.C,U2*%
X184430000Y-93627378D02*
X182830000Y-93627378D01*
X184430000Y-96757378D02*
X182830000Y-96757378D01*
D12*
X186130000Y-96392378D02*
G75*
G02*
X185930000Y-96392378I-100000J0D01*
G01*
X185930000Y-96392378D02*
G75*
G02*
X186130000Y-96392378I100000J0D01*
G01*
D13*
%TO.C,C7*%
X186240000Y-94456126D02*
X186240000Y-95878630D01*
X188060000Y-94456126D02*
X188060000Y-95878630D01*
%TO.C,R13*%
X178587164Y-93032378D02*
X178802836Y-93032378D01*
X178587164Y-93752378D02*
X178802836Y-93752378D01*
%TO.C,R12*%
X176587164Y-93032378D02*
X176802836Y-93032378D01*
X176587164Y-93752378D02*
X176802836Y-93752378D01*
%TO.C,Buzzer1*%
X137950001Y-86300000D02*
G75*
G02*
X140950000Y-86300000I1499999J-6400000D01*
G01*
X145680000Y-92700000D02*
G75*
G02*
X133220000Y-92700000I-6230000J0D01*
G01*
X133220000Y-92700000D02*
G75*
G02*
X145680000Y-92700000I6230000J0D01*
G01*
%TO.C,J4*%
X133720000Y-68230000D02*
X135100000Y-68230000D01*
X133720000Y-69610000D02*
X133720000Y-68230000D01*
X133720000Y-70880000D02*
X133720000Y-78610000D01*
X133720000Y-70880000D02*
X136480000Y-70880000D01*
X133720000Y-78610000D02*
X136480000Y-78610000D01*
X136480000Y-70880000D02*
X136480000Y-78610000D01*
%TO.C,J7*%
X134105000Y-115195000D02*
X134105000Y-117955000D01*
X141835000Y-115195000D02*
X134105000Y-115195000D01*
X141835000Y-115195000D02*
X141835000Y-117955000D01*
X141835000Y-117955000D02*
X134105000Y-117955000D01*
X143105000Y-115195000D02*
X144485000Y-115195000D01*
X144485000Y-115195000D02*
X144485000Y-116575000D01*
%TO.C,C9*%
X183162836Y-97232378D02*
X182947164Y-97232378D01*
X183162836Y-97952378D02*
X182947164Y-97952378D01*
%TO.C,J5*%
X134075000Y-107395000D02*
X134075000Y-110155000D01*
X141805000Y-107395000D02*
X134075000Y-107395000D01*
X141805000Y-107395000D02*
X141805000Y-110155000D01*
X141805000Y-110155000D02*
X134075000Y-110155000D01*
X143075000Y-107395000D02*
X144455000Y-107395000D01*
X144455000Y-107395000D02*
X144455000Y-108775000D01*
%TO.C,C12*%
X178587164Y-91932378D02*
X178802836Y-91932378D01*
X178587164Y-92652378D02*
X178802836Y-92652378D01*
%TO.C,J8*%
X134075000Y-111295000D02*
X134075000Y-114055000D01*
X141805000Y-111295000D02*
X134075000Y-111295000D01*
X141805000Y-111295000D02*
X141805000Y-114055000D01*
X141805000Y-114055000D02*
X134075000Y-114055000D01*
X143075000Y-111295000D02*
X144455000Y-111295000D01*
X144455000Y-111295000D02*
X144455000Y-112675000D01*
D14*
%TO.C,MOSFET1*%
X182747801Y-85000490D02*
X182747801Y-85657008D01*
X182747801Y-86903549D02*
X184297201Y-86903549D01*
X184297201Y-83753949D02*
X182747801Y-83753949D01*
X184297201Y-84742009D02*
X184297201Y-83753949D01*
X184297201Y-86903549D02*
X184297201Y-85915489D01*
X181439701Y-84413749D02*
G75*
G02*
X181287301Y-84413749I-76200J0D01*
G01*
X181287301Y-84413749D02*
G75*
G02*
X181439701Y-84413749I76200J0D01*
G01*
D13*
%TO.C,R2*%
X146967621Y-104570000D02*
X146632379Y-104570000D01*
X146967621Y-105330000D02*
X146632379Y-105330000D01*
%TO.C,J3*%
X189345000Y-102175000D02*
X190725000Y-102175000D01*
X189345000Y-103555000D02*
X189345000Y-102175000D01*
X189345000Y-104825000D02*
X189345000Y-112555000D01*
X189345000Y-104825000D02*
X192105000Y-104825000D01*
X189345000Y-112555000D02*
X192105000Y-112555000D01*
X192105000Y-104825000D02*
X192105000Y-112555000D01*
%TO.C,D1*%
X177190000Y-69840000D02*
X177190000Y-74110000D01*
X177190000Y-74110000D02*
X183250000Y-74110000D01*
X183250000Y-69840000D02*
X177190000Y-69840000D01*
%TO.C,C11*%
X177276248Y-94257378D02*
X177798752Y-94257378D01*
X177276248Y-95727378D02*
X177798752Y-95727378D01*
%TO.C,C10*%
X177276248Y-96357378D02*
X177798752Y-96357378D01*
X177276248Y-97827378D02*
X177798752Y-97827378D01*
%TO.C,R14*%
X182787164Y-92532378D02*
X183002836Y-92532378D01*
X182787164Y-93252378D02*
X183002836Y-93252378D01*
%TO.C,J10*%
X146620000Y-88370000D02*
X148000000Y-88370000D01*
X146620000Y-89750000D02*
X146620000Y-88370000D01*
X146620000Y-91020000D02*
X146620000Y-103830000D01*
X146620000Y-91020000D02*
X149380000Y-91020000D01*
X146620000Y-103830000D02*
X149380000Y-103830000D01*
X149380000Y-91020000D02*
X149380000Y-103830000D01*
%TO.C,J1*%
X189395000Y-79615000D02*
X190775000Y-79615000D01*
X189395000Y-80995000D02*
X189395000Y-79615000D01*
X189395000Y-82265000D02*
X189395000Y-89995000D01*
X189395000Y-82265000D02*
X192155000Y-82265000D01*
X189395000Y-89995000D02*
X192155000Y-89995000D01*
X192155000Y-82265000D02*
X192155000Y-89995000D01*
%TO.C,R1*%
X180495000Y-85009879D02*
X180495000Y-85345121D01*
X181255000Y-85009879D02*
X181255000Y-85345121D01*
%TD*%
M02*
