%TF.GenerationSoftware,KiCad,Pcbnew,9.0.0*%
%TF.CreationDate,2026-03-16T15:39:35-04:00*%
%TF.ProjectId,ece49022-interface,65636534-3930-4323-922d-696e74657266,rev?*%
%TF.SameCoordinates,Original*%
%TF.FileFunction,Copper,L1,Top*%
%TF.FilePolarity,Positive*%
%FSLAX46Y46*%
G04 Gerber Fmt 4.6, Leading zero omitted, Abs format (unit mm)*
G04 Created by KiCad (PCBNEW 9.0.0) date 2026-03-16 15:39:35*
%MOMM*%
%LPD*%
G01*
G04 APERTURE LIST*
G04 Aperture macros list*
%AMRoundRect*
0 Rectangle with rounded corners*
0 $1 Rounding radius*
0 $2 $3 $4 $5 $6 $7 $8 $9 X,Y pos of 4 corners*
0 Add a 4 corners polygon primitive as box body*
4,1,4,$2,$3,$4,$5,$6,$7,$8,$9,$2,$3,0*
0 Add four circle primitives for the rounded corners*
1,1,$1+$1,$2,$3*
1,1,$1+$1,$4,$5*
1,1,$1+$1,$6,$7*
1,1,$1+$1,$8,$9*
0 Add four rect primitives between the rounded corners*
20,1,$1+$1,$2,$3,$4,$5,0*
20,1,$1+$1,$4,$5,$6,$7,0*
20,1,$1+$1,$6,$7,$8,$9,0*
20,1,$1+$1,$8,$9,$2,$3,0*%
%AMFreePoly0*
4,1,37,0.800000,0.796148,0.878414,0.796148,1.032228,0.765552,1.177117,0.705537,1.307515,0.618408,1.418408,0.507515,1.505537,0.377117,1.565552,0.232228,1.596148,0.078414,1.596148,-0.078414,1.565552,-0.232228,1.505537,-0.377117,1.418408,-0.507515,1.307515,-0.618408,1.177117,-0.705537,1.032228,-0.765552,0.878414,-0.796148,0.800000,-0.796148,0.800000,-0.800000,-1.400000,-0.800000,
-1.403843,-0.796157,-1.439018,-0.796157,-1.511114,-0.766294,-1.566294,-0.711114,-1.596157,-0.639018,-1.596157,-0.603843,-1.600000,-0.600000,-1.600000,0.600000,-1.596157,0.603843,-1.596157,0.639018,-1.566294,0.711114,-1.511114,0.766294,-1.439018,0.796157,-1.403843,0.796157,-1.400000,0.800000,0.800000,0.800000,0.800000,0.796148,0.800000,0.796148,$1*%
%AMFreePoly1*
4,1,37,1.403843,0.796157,1.439018,0.796157,1.511114,0.766294,1.566294,0.711114,1.596157,0.639018,1.596157,0.603843,1.600000,0.600000,1.600000,-0.600000,1.596157,-0.603843,1.596157,-0.639018,1.566294,-0.711114,1.511114,-0.766294,1.439018,-0.796157,1.403843,-0.796157,1.400000,-0.800000,-0.800000,-0.800000,-0.800000,-0.796148,-0.878414,-0.796148,-1.032228,-0.765552,-1.177117,-0.705537,
-1.307515,-0.618408,-1.418408,-0.507515,-1.505537,-0.377117,-1.565552,-0.232228,-1.596148,-0.078414,-1.596148,0.078414,-1.565552,0.232228,-1.505537,0.377117,-1.418408,0.507515,-1.307515,0.618408,-1.177117,0.705537,-1.032228,0.765552,-0.878414,0.796148,-0.800000,0.796148,-0.800000,0.800000,1.400000,0.800000,1.403843,0.796157,1.403843,0.796157,$1*%
G04 Aperture macros list end*
%TA.AperFunction,SMDPad,CuDef*%
%ADD10R,1.780000X3.560000*%
%TD*%
%TA.AperFunction,SMDPad,CuDef*%
%ADD11RoundRect,0.160000X-0.197500X-0.160000X0.197500X-0.160000X0.197500X0.160000X-0.197500X0.160000X0*%
%TD*%
%TA.AperFunction,SMDPad,CuDef*%
%ADD12RoundRect,0.140000X0.140000X0.170000X-0.140000X0.170000X-0.140000X-0.170000X0.140000X-0.170000X0*%
%TD*%
%TA.AperFunction,SMDPad,CuDef*%
%ADD13RoundRect,0.160000X-0.160000X0.197500X-0.160000X-0.197500X0.160000X-0.197500X0.160000X0.197500X0*%
%TD*%
%TA.AperFunction,SMDPad,CuDef*%
%ADD14R,0.939800X1.143000*%
%TD*%
%TA.AperFunction,SMDPad,CuDef*%
%ADD15FreePoly0,0.000000*%
%TD*%
%TA.AperFunction,SMDPad,CuDef*%
%ADD16RoundRect,0.800000X-0.800000X-0.000010X0.800000X-0.000010X0.800000X0.000010X-0.800000X0.000010X0*%
%TD*%
%TA.AperFunction,SMDPad,CuDef*%
%ADD17FreePoly1,0.000000*%
%TD*%
%TA.AperFunction,ComponentPad*%
%ADD18RoundRect,0.200000X-0.600000X-0.600000X0.600000X-0.600000X0.600000X0.600000X-0.600000X0.600000X0*%
%TD*%
%TA.AperFunction,ComponentPad*%
%ADD19C,1.600000*%
%TD*%
%TA.AperFunction,SMDPad,CuDef*%
%ADD20RoundRect,0.140000X-0.170000X0.140000X-0.170000X-0.140000X0.170000X-0.140000X0.170000X0.140000X0*%
%TD*%
%TA.AperFunction,ComponentPad*%
%ADD21R,1.700000X1.700000*%
%TD*%
%TA.AperFunction,ComponentPad*%
%ADD22C,1.700000*%
%TD*%
%TA.AperFunction,SMDPad,CuDef*%
%ADD23RoundRect,0.160000X0.160000X-0.197500X0.160000X0.197500X-0.160000X0.197500X-0.160000X-0.197500X0*%
%TD*%
%TA.AperFunction,ComponentPad*%
%ADD24R,1.500000X1.500000*%
%TD*%
%TA.AperFunction,ComponentPad*%
%ADD25C,1.500000*%
%TD*%
%TA.AperFunction,SMDPad,CuDef*%
%ADD26RoundRect,0.073750X0.651250X0.221250X-0.651250X0.221250X-0.651250X-0.221250X0.651250X-0.221250X0*%
%TD*%
%TA.AperFunction,SMDPad,CuDef*%
%ADD27RoundRect,0.250000X-0.650000X0.325000X-0.650000X-0.325000X0.650000X-0.325000X0.650000X0.325000X0*%
%TD*%
%TA.AperFunction,SMDPad,CuDef*%
%ADD28RoundRect,0.140000X-0.140000X-0.170000X0.140000X-0.170000X0.140000X0.170000X-0.140000X0.170000X0*%
%TD*%
%TA.AperFunction,ComponentPad*%
%ADD29R,2.000000X2.000000*%
%TD*%
%TA.AperFunction,ComponentPad*%
%ADD30C,2.000000*%
%TD*%
%TA.AperFunction,SMDPad,CuDef*%
%ADD31R,0.965200X0.508000*%
%TD*%
%TA.AperFunction,SMDPad,CuDef*%
%ADD32RoundRect,0.160000X0.197500X0.160000X-0.197500X0.160000X-0.197500X-0.160000X0.197500X-0.160000X0*%
%TD*%
%TA.AperFunction,SMDPad,CuDef*%
%ADD33RoundRect,0.250000X-0.675000X-1.625000X0.675000X-1.625000X0.675000X1.625000X-0.675000X1.625000X0*%
%TD*%
%TA.AperFunction,SMDPad,CuDef*%
%ADD34RoundRect,0.250000X-0.337500X-0.475000X0.337500X-0.475000X0.337500X0.475000X-0.337500X0.475000X0*%
%TD*%
%TA.AperFunction,ViaPad*%
%ADD35C,0.600000*%
%TD*%
%TA.AperFunction,Conductor*%
%ADD36C,0.500000*%
%TD*%
%TA.AperFunction,Conductor*%
%ADD37C,0.200000*%
%TD*%
%TA.AperFunction,Conductor*%
%ADD38C,1.000000*%
%TD*%
%TA.AperFunction,Conductor*%
%ADD39C,0.100000*%
%TD*%
%TA.AperFunction,Conductor*%
%ADD40C,0.150000*%
%TD*%
G04 APERTURE END LIST*
D10*
%TO.P,L2,1*%
%TO.N,Net-(U2-SW)*%
X186232500Y-103592378D03*
%TO.P,L2,2*%
%TO.N,+5V*%
X176832500Y-103592378D03*
%TD*%
D11*
%TO.P,R6,1*%
%TO.N,/PWM_B*%
X141580000Y-77300000D03*
%TO.P,R6,2*%
%TO.N,Net-(A1-GPIO3)*%
X142775000Y-77300000D03*
%TD*%
D12*
%TO.P,C8,1*%
%TO.N,+12V*%
X185335000Y-92892378D03*
%TO.P,C8,2*%
%TO.N,GND*%
X184375000Y-92892378D03*
%TD*%
D13*
%TO.P,R3,1*%
%TO.N,Net-(Q1-C)*%
X139100000Y-100602500D03*
%TO.P,R3,2*%
%TO.N,+5V*%
X139100000Y-101797500D03*
%TD*%
D14*
%TO.P,D5,1,K*%
%TO.N,+12V*%
X185886901Y-88628749D03*
%TO.P,D5,2,A*%
%TO.N,/LOCK_RTN*%
X182711901Y-88628749D03*
%TD*%
D15*
%TO.P,A1,1,GPIO0*%
%TO.N,unconnected-(A1-GPIO0-Pad1)*%
X152575000Y-69415000D03*
D16*
%TO.P,A1,2,GPIO1*%
%TO.N,Net-(A1-GPIO1)*%
X152575000Y-71955000D03*
D17*
%TO.P,A1,3,GND*%
%TO.N,GND*%
X152575000Y-74495000D03*
D16*
%TO.P,A1,4,GPIO2*%
%TO.N,Net-(A1-GPIO2)*%
X152575000Y-77035000D03*
%TO.P,A1,5,GPIO3*%
%TO.N,Net-(A1-GPIO3)*%
X152575000Y-79575000D03*
%TO.P,A1,6,GPIO4*%
%TO.N,/BC_Rx*%
X152575000Y-82115000D03*
%TO.P,A1,7,GPIO5*%
%TO.N,/BC_Tx*%
X152575000Y-84655000D03*
D17*
%TO.P,A1,8,GND*%
%TO.N,GND*%
X152575000Y-87195000D03*
D16*
%TO.P,A1,9,GPIO6*%
%TO.N,/GPIO6*%
X152575000Y-89735000D03*
%TO.P,A1,10,GPIO7*%
%TO.N,/GPIO7*%
X152575000Y-92275000D03*
%TO.P,A1,11,GPIO8*%
%TO.N,/GPIO8*%
X152575000Y-94815000D03*
%TO.P,A1,12,GPIO9*%
%TO.N,/GPIO9*%
X152575000Y-97355000D03*
D17*
%TO.P,A1,13,GND*%
%TO.N,GND*%
X152575000Y-99895000D03*
D16*
%TO.P,A1,14,GPIO10*%
%TO.N,/GPIO10*%
X152575000Y-102435000D03*
%TO.P,A1,15,GPIO11*%
%TO.N,/GPIO11*%
X152575000Y-104975000D03*
%TO.P,A1,16,GPIO12*%
%TO.N,/MAIN_MCU_I2C_SDA*%
X152575000Y-107515000D03*
%TO.P,A1,17,GPIO13*%
%TO.N,/MAIN_MCU_I2C_SCL*%
X152575000Y-110055000D03*
D17*
%TO.P,A1,18,GND*%
%TO.N,GND*%
X152575000Y-112595000D03*
D16*
%TO.P,A1,19,GPIO14*%
%TO.N,unconnected-(A1-GPIO14-Pad19)*%
X152575000Y-115135000D03*
%TO.P,A1,20,GPIO15*%
%TO.N,unconnected-(A1-GPIO15-Pad20)*%
X152575000Y-117675000D03*
%TO.P,A1,21,GPIO16*%
%TO.N,/FS_Rx*%
X171955000Y-117675000D03*
%TO.P,A1,22,GPIO17*%
%TO.N,/FS_Tx*%
X171955000Y-115135000D03*
D15*
%TO.P,A1,23,GND*%
%TO.N,GND*%
X171955000Y-112595000D03*
D16*
%TO.P,A1,24,GPIO18*%
%TO.N,unconnected-(A1-GPIO18-Pad24)*%
X171955000Y-110055000D03*
%TO.P,A1,25,GPIO19*%
%TO.N,unconnected-(A1-GPIO19-Pad25)*%
X171955000Y-107515000D03*
%TO.P,A1,26,GPIO20*%
%TO.N,unconnected-(A1-GPIO20-Pad26)*%
X171955000Y-104975000D03*
%TO.P,A1,27,GPIO21*%
%TO.N,unconnected-(A1-GPIO21-Pad27)*%
X171955000Y-102435000D03*
D15*
%TO.P,A1,28,GND*%
%TO.N,GND*%
X171955000Y-99895000D03*
D16*
%TO.P,A1,29,GPIO22*%
%TO.N,unconnected-(A1-GPIO22-Pad29)*%
X171955000Y-97355000D03*
%TO.P,A1,30,RUN*%
%TO.N,unconnected-(A1-RUN-Pad30)*%
X171955000Y-94815000D03*
%TO.P,A1,31,GPIO26_ADC0*%
%TO.N,unconnected-(A1-GPIO26_ADC0-Pad31)*%
X171955000Y-92275000D03*
%TO.P,A1,32,GPIO27_ADC1*%
%TO.N,/GPIO27*%
X171955000Y-89735000D03*
D15*
%TO.P,A1,33,AGND*%
%TO.N,unconnected-(A1-AGND-Pad33)*%
X171955000Y-87195000D03*
D16*
%TO.P,A1,34,GPIO28_ADC2*%
%TO.N,/GPIO28*%
X171955000Y-84655000D03*
%TO.P,A1,35,ADC_VREF*%
%TO.N,unconnected-(A1-ADC_VREF-Pad35)*%
X171955000Y-82115000D03*
%TO.P,A1,36,3V3*%
%TO.N,+3V3*%
X171955000Y-79575000D03*
%TO.P,A1,37,3V3_EN*%
%TO.N,unconnected-(A1-3V3_EN-Pad37)*%
X171955000Y-77035000D03*
D15*
%TO.P,A1,38,GND*%
%TO.N,GND*%
X171955000Y-74495000D03*
D16*
%TO.P,A1,39,VSYS*%
%TO.N,Net-(A1-VSYS)*%
X171955000Y-71955000D03*
%TO.P,A1,40,VBUS*%
%TO.N,unconnected-(A1-VBUS-Pad40)*%
X171955000Y-69415000D03*
D18*
%TO.P,A1,D1*%
%TO.N,N/C*%
X162849100Y-99245000D03*
D19*
%TO.P,A1,D2*%
X165389100Y-99245000D03*
%TO.P,A1,D3*%
X167929100Y-99245000D03*
%TD*%
D13*
%TO.P,R7,1*%
%TO.N,/LOCK_STATUS*%
X179075000Y-83480000D03*
%TO.P,R7,2*%
%TO.N,/GPIO28*%
X179075000Y-84675000D03*
%TD*%
D20*
%TO.P,R10,1*%
%TO.N,Net-(U2-EN)*%
X180875000Y-95892378D03*
%TO.P,R10,2*%
%TO.N,GND*%
X180875000Y-96852378D03*
%TD*%
D11*
%TO.P,R5,1*%
%TO.N,/PWM_G*%
X141580000Y-76200000D03*
%TO.P,R5,2*%
%TO.N,Net-(A1-GPIO2)*%
X142775000Y-76200000D03*
%TD*%
D21*
%TO.P,J2,1,Pin_1*%
%TO.N,GND*%
X137820000Y-81050000D03*
D22*
%TO.P,J2,2,Pin_2*%
%TO.N,+3V3*%
X140360000Y-81050000D03*
%TO.P,J2,3,Pin_3*%
%TO.N,+5V*%
X142900000Y-81050000D03*
%TO.P,J2,4,Pin_4*%
%TO.N,/BC_Tx*%
X145440000Y-81050000D03*
%TO.P,J2,5,Pin_5*%
%TO.N,/BC_Rx*%
X147980000Y-81050000D03*
%TD*%
D21*
%TO.P,J6,1,Pin_1*%
%TO.N,+12V*%
X190775000Y-92500000D03*
D22*
%TO.P,J6,2,Pin_2*%
%TO.N,GND*%
X190775000Y-95040000D03*
%TD*%
D23*
%TO.P,R8,1*%
%TO.N,/GPIO28*%
X177875000Y-84672500D03*
%TO.P,R8,2*%
%TO.N,GND*%
X177875000Y-83477500D03*
%TD*%
D20*
%TO.P,R9,1*%
%TO.N,+12V*%
X180875000Y-93832378D03*
%TO.P,R9,2*%
%TO.N,Net-(U2-EN)*%
X180875000Y-94792378D03*
%TD*%
D24*
%TO.P,Q1,1,C*%
%TO.N,Net-(Q1-C)*%
X141950000Y-100670000D03*
D25*
%TO.P,Q1,2,B*%
%TO.N,Net-(Q1-B)*%
X141950000Y-103210000D03*
%TO.P,Q1,3,E*%
%TO.N,GND*%
X141950000Y-105750000D03*
%TD*%
D11*
%TO.P,R4,1*%
%TO.N,/PWM_R*%
X141577500Y-75100000D03*
%TO.P,R4,2*%
%TO.N,Net-(A1-GPIO1)*%
X142772500Y-75100000D03*
%TD*%
D26*
%TO.P,U2,1,GND*%
%TO.N,GND*%
X184785000Y-96142378D03*
%TO.P,U2,2,SW*%
%TO.N,Net-(U2-SW)*%
X184785000Y-95192378D03*
%TO.P,U2,3,VIN*%
%TO.N,+12V*%
X184785000Y-94242378D03*
%TO.P,U2,4,FB*%
%TO.N,/Power/FB*%
X182475000Y-94242378D03*
%TO.P,U2,5,EN*%
%TO.N,Net-(U2-EN)*%
X182475000Y-95192378D03*
%TO.P,U2,6,BOOT*%
%TO.N,Net-(U2-BOOT)*%
X182475000Y-96142378D03*
%TD*%
D27*
%TO.P,C7,1*%
%TO.N,+12V*%
X187150000Y-93692378D03*
%TO.P,C7,2*%
%TO.N,GND*%
X187150000Y-96642378D03*
%TD*%
D28*
%TO.P,R13,1*%
%TO.N,Net-(C12-Pad1)*%
X178215000Y-93392378D03*
%TO.P,R13,2*%
%TO.N,/Power/FB*%
X179175000Y-93392378D03*
%TD*%
%TO.P,R12,1*%
%TO.N,+5V*%
X176215000Y-93392378D03*
%TO.P,R12,2*%
%TO.N,Net-(C12-Pad1)*%
X177175000Y-93392378D03*
%TD*%
D29*
%TO.P,Buzzer1,1,1*%
%TO.N,+5V*%
X139450000Y-90200000D03*
D30*
%TO.P,Buzzer1,2,2*%
%TO.N,Net-(Q1-C)*%
X139450000Y-95200000D03*
%TD*%
D21*
%TO.P,J4,1,Pin_1*%
%TO.N,GND*%
X135100000Y-69610000D03*
D22*
%TO.P,J4,2,Pin_2*%
%TO.N,/PWM_R*%
X135100000Y-72150000D03*
%TO.P,J4,3,Pin_3*%
%TO.N,/PWM_G*%
X135100000Y-74690000D03*
%TO.P,J4,4,Pin_4*%
%TO.N,/PWM_B*%
X135100000Y-77230000D03*
%TD*%
D21*
%TO.P,J7,1,Pin_1*%
%TO.N,GND*%
X143105000Y-116575000D03*
D22*
%TO.P,J7,2,Pin_2*%
X140565000Y-116575000D03*
%TO.P,J7,3,Pin_3*%
X138025000Y-116575000D03*
%TO.P,J7,4,Pin_4*%
X135485000Y-116575000D03*
%TD*%
D12*
%TO.P,C9,1*%
%TO.N,Net-(U2-SW)*%
X183535000Y-97592378D03*
%TO.P,C9,2*%
%TO.N,Net-(U2-BOOT)*%
X182575000Y-97592378D03*
%TD*%
D21*
%TO.P,J5,1,Pin_1*%
%TO.N,/MAIN_MCU_I2C_SDA*%
X143075000Y-108775000D03*
D22*
%TO.P,J5,2,Pin_2*%
X140535000Y-108775000D03*
%TO.P,J5,3,Pin_3*%
X137995000Y-108775000D03*
%TO.P,J5,4,Pin_4*%
X135455000Y-108775000D03*
%TD*%
D28*
%TO.P,C12,1*%
%TO.N,Net-(C12-Pad1)*%
X178215000Y-92292378D03*
%TO.P,C12,2*%
%TO.N,/Power/FB*%
X179175000Y-92292378D03*
%TD*%
D21*
%TO.P,J8,1,Pin_1*%
%TO.N,/MAIN_MCU_I2C_SCL*%
X143075000Y-112675000D03*
D22*
%TO.P,J8,2,Pin_2*%
X140535000Y-112675000D03*
%TO.P,J8,3,Pin_3*%
X137995000Y-112675000D03*
%TO.P,J8,4,Pin_4*%
X135455000Y-112675000D03*
%TD*%
D31*
%TO.P,MOSFET1,1,G*%
%TO.N,/GPIO27*%
X182608101Y-84413750D03*
%TO.P,MOSFET1,2,D*%
%TO.N,/LOCK_RTN*%
X182608101Y-86243748D03*
%TO.P,MOSFET1,3,S*%
%TO.N,GND*%
X184436901Y-85328749D03*
%TD*%
D32*
%TO.P,R2,1*%
%TO.N,/GPIO11*%
X147397500Y-104950000D03*
%TO.P,R2,2*%
%TO.N,Net-(Q1-B)*%
X146202500Y-104950000D03*
%TD*%
D21*
%TO.P,J3,1,Pin_1*%
%TO.N,GND*%
X190725000Y-103555000D03*
D22*
%TO.P,J3,2,Pin_2*%
%TO.N,+3V3*%
X190725000Y-106095000D03*
%TO.P,J3,3,Pin_3*%
%TO.N,/FS_Tx*%
X190725000Y-108635000D03*
%TO.P,J3,4,Pin_4*%
%TO.N,/FS_Rx*%
X190725000Y-111175000D03*
%TD*%
D33*
%TO.P,D1,1,K*%
%TO.N,Net-(A1-VSYS)*%
X178375000Y-71975000D03*
%TO.P,D1,2,A*%
%TO.N,+5V*%
X182925000Y-71975000D03*
%TD*%
D34*
%TO.P,C11,1*%
%TO.N,+5V*%
X176500000Y-94992378D03*
%TO.P,C11,2*%
%TO.N,GND*%
X178575000Y-94992378D03*
%TD*%
%TO.P,C10,1*%
%TO.N,+5V*%
X176500000Y-97092378D03*
%TO.P,C10,2*%
%TO.N,GND*%
X178575000Y-97092378D03*
%TD*%
D28*
%TO.P,R14,1*%
%TO.N,/Power/FB*%
X182415000Y-92892378D03*
%TO.P,R14,2*%
%TO.N,GND*%
X183375000Y-92892378D03*
%TD*%
D21*
%TO.P,J10,1,Pin_1*%
%TO.N,/GPIO6*%
X148000000Y-89750000D03*
D22*
%TO.P,J10,2,Pin_2*%
%TO.N,/GPIO7*%
X148000000Y-92290000D03*
%TO.P,J10,3,Pin_3*%
%TO.N,/GPIO8*%
X148000000Y-94830000D03*
%TO.P,J10,4,Pin_4*%
%TO.N,/GPIO9*%
X148000000Y-97370000D03*
%TO.P,J10,5,Pin_5*%
%TO.N,GND*%
X148000000Y-99910000D03*
%TO.P,J10,6,Pin_6*%
%TO.N,/GPIO10*%
X148000000Y-102450000D03*
%TD*%
D21*
%TO.P,J1,1,Pin_1*%
%TO.N,/LOCK_STATUS*%
X190775000Y-80995000D03*
D22*
%TO.P,J1,2,Pin_2*%
%TO.N,/LOCK_RTN*%
X190775000Y-83535000D03*
%TO.P,J1,3,Pin_3*%
%TO.N,+5V*%
X190775000Y-86075000D03*
%TO.P,J1,4,Pin_4*%
%TO.N,+12V*%
X190775000Y-88615000D03*
%TD*%
D13*
%TO.P,R1,1*%
%TO.N,/GPIO27*%
X180875000Y-84580000D03*
%TO.P,R1,2*%
%TO.N,GND*%
X180875000Y-85775000D03*
%TD*%
D35*
%TO.N,GND*%
X188425000Y-104642378D03*
X179475000Y-96169578D03*
X186750000Y-97800000D03*
X187825000Y-94942378D03*
X179475000Y-97795178D03*
X188425000Y-103642378D03*
X183875000Y-92225000D03*
X174475000Y-99875000D03*
X177875000Y-82223750D03*
X188425000Y-102642378D03*
X185875000Y-86075000D03*
X175575000Y-112575000D03*
X150175000Y-87275000D03*
X185875000Y-85275000D03*
X187500000Y-97800000D03*
X149275000Y-112675000D03*
X180875000Y-97675000D03*
X188525000Y-96942378D03*
X179475000Y-95356778D03*
X188425000Y-105642378D03*
X188599000Y-94942378D03*
X180913099Y-87313099D03*
X188425000Y-101492378D03*
X185875000Y-84475000D03*
X150275000Y-74475000D03*
X188599000Y-95725000D03*
X187825000Y-95742378D03*
X176175000Y-74475000D03*
X179475000Y-96982378D03*
X179475000Y-94442378D03*
X188325000Y-97800000D03*
%TO.N,+5V*%
X184775000Y-73275000D03*
X178250000Y-90100000D03*
X184775000Y-70775000D03*
X139100000Y-103200000D03*
X184775000Y-71975000D03*
%TO.N,/Power/FB*%
X181996700Y-92306578D03*
X180146700Y-92306578D03*
%TO.N,Net-(U2-SW)*%
X186064600Y-95542378D03*
X187475000Y-104192378D03*
X186725000Y-95542378D03*
X186725000Y-94881978D03*
X186064600Y-94881978D03*
X184325000Y-97775000D03*
X187475000Y-102242378D03*
X187475000Y-105142378D03*
X184332500Y-97092378D03*
X187475000Y-103192378D03*
%TD*%
D36*
%TO.N,GND*%
X183875000Y-92225000D02*
X183875000Y-92892378D01*
D37*
X153195000Y-74495000D02*
X150295000Y-74495000D01*
X176155000Y-74495000D02*
X176175000Y-74475000D01*
X153195000Y-112595000D02*
X149455000Y-112595000D01*
X150255000Y-87195000D02*
X150175000Y-87275000D01*
X174455000Y-99895000D02*
X171955000Y-99895000D01*
X172575000Y-112595000D02*
X175555000Y-112595000D01*
X148000000Y-99910000D02*
X152560000Y-99910000D01*
X174475000Y-99875000D02*
X174455000Y-99895000D01*
X175555000Y-112595000D02*
X175575000Y-112575000D01*
D36*
X183875000Y-92892378D02*
X184375000Y-92892378D01*
D37*
X150295000Y-74495000D02*
X150275000Y-74475000D01*
X152560000Y-99910000D02*
X152575000Y-99895000D01*
X180875000Y-85593699D02*
X180875000Y-87275000D01*
D36*
X183375000Y-92892378D02*
X183875000Y-92892378D01*
D37*
X172575000Y-74495000D02*
X176155000Y-74495000D01*
X177875000Y-83526250D02*
X177875000Y-82223750D01*
X180875000Y-96852378D02*
X180875000Y-97675000D01*
X153195000Y-87195000D02*
X150255000Y-87195000D01*
%TO.N,Net-(A1-VSYS)*%
X178355000Y-71955000D02*
X178375000Y-71975000D01*
D38*
X172575000Y-71955000D02*
X178355000Y-71955000D01*
D37*
%TO.N,/BC_Tx*%
X145440000Y-81050000D02*
X145440000Y-84640000D01*
D39*
X145440000Y-84640000D02*
X145455000Y-84655000D01*
D37*
X145455000Y-84655000D02*
X152575000Y-84655000D01*
%TO.N,/FS_Tx*%
X188365000Y-108635000D02*
X190725000Y-108635000D01*
X181865000Y-115135000D02*
X188365000Y-108635000D01*
X171955000Y-115135000D02*
X181865000Y-115135000D01*
%TO.N,/GPIO11*%
X147397500Y-104950000D02*
X152550000Y-104950000D01*
X152550000Y-104950000D02*
X152575000Y-104975000D01*
%TO.N,/FS_Rx*%
X171955000Y-117675000D02*
X181925000Y-117675000D01*
X181925000Y-117675000D02*
X188425000Y-111175000D01*
X188425000Y-111175000D02*
X190725000Y-111175000D01*
%TO.N,/BC_Rx*%
X147980000Y-81050000D02*
X149045000Y-82115000D01*
X149045000Y-82115000D02*
X152575000Y-82115000D01*
D36*
%TO.N,+5V*%
X176500000Y-94992378D02*
X176500000Y-97092378D01*
D37*
X176215000Y-94707378D02*
X176500000Y-94992378D01*
D36*
X139100000Y-101797500D02*
X139100000Y-103200000D01*
X176215000Y-92135000D02*
X178250000Y-90100000D01*
X176500000Y-97092378D02*
X176500000Y-103259878D01*
X176215000Y-93392378D02*
X176215000Y-94707378D01*
X176500000Y-103259878D02*
X176832500Y-103592378D01*
X176215000Y-93392378D02*
X176215000Y-92135000D01*
%TO.N,Net-(Q1-C)*%
X141950000Y-100670000D02*
X139167500Y-100670000D01*
X139100000Y-95550000D02*
X139450000Y-95200000D01*
X139100000Y-100602500D02*
X139100000Y-95550000D01*
X139167500Y-100670000D02*
X139100000Y-100602500D01*
%TO.N,+12V*%
X187650000Y-92500000D02*
X190775000Y-92500000D01*
X185886901Y-88628749D02*
X190761251Y-88628749D01*
D40*
X180921300Y-93751178D02*
X180921300Y-92331178D01*
X181621300Y-91631178D02*
X184821300Y-91631178D01*
D36*
X187075000Y-93075000D02*
X187650000Y-92500000D01*
X190775000Y-88615000D02*
X190775000Y-92500000D01*
X187075000Y-93692378D02*
X187075000Y-93075000D01*
D37*
X190761251Y-88628749D02*
X190775000Y-88615000D01*
D40*
X180921300Y-92331178D02*
X181621300Y-91631178D01*
X185282500Y-92092378D02*
X185282500Y-92828778D01*
X184821300Y-91631178D02*
X185282500Y-92092378D01*
D37*
%TO.N,/Power/FB*%
X182415000Y-94182378D02*
X182475000Y-94242378D01*
X182415000Y-92892378D02*
X182415000Y-94182378D01*
X179226700Y-92281578D02*
X180121700Y-92281578D01*
X179175000Y-93392378D02*
X179175000Y-92292378D01*
X181996700Y-92306578D02*
X182468300Y-92778178D01*
%TO.N,Net-(Q1-B)*%
X146202500Y-104950000D02*
X146202500Y-104602500D01*
X146202500Y-104602500D02*
X144810000Y-103210000D01*
X144810000Y-103210000D02*
X141950000Y-103210000D01*
%TO.N,/PWM_G*%
X135100000Y-74690000D02*
X136940000Y-74690000D01*
X138450000Y-76200000D02*
X141580000Y-76200000D01*
X136940000Y-74690000D02*
X138450000Y-76200000D01*
%TO.N,/PWM_B*%
X135100000Y-77230000D02*
X141510000Y-77230000D01*
X141510000Y-77230000D02*
X141580000Y-77300000D01*
%TO.N,/PWM_R*%
X139500000Y-75100000D02*
X141577500Y-75100000D01*
X136550000Y-72150000D02*
X139500000Y-75100000D01*
X135100000Y-72150000D02*
X136550000Y-72150000D01*
%TO.N,/MAIN_MCU_I2C_SDA*%
X143075000Y-108775000D02*
X140535000Y-108775000D01*
X143075000Y-108775000D02*
X147525000Y-108775000D01*
X147525000Y-108775000D02*
X148785000Y-107515000D01*
X137995000Y-108775000D02*
X135455000Y-108775000D01*
X140535000Y-108775000D02*
X137995000Y-108775000D01*
X148785000Y-107515000D02*
X152575000Y-107515000D01*
%TO.N,/MAIN_MCU_I2C_SCL*%
X137995000Y-112675000D02*
X135455000Y-112675000D01*
X140535000Y-112675000D02*
X137995000Y-112675000D01*
X143075000Y-112675000D02*
X144875000Y-112675000D01*
X144875000Y-112675000D02*
X147495000Y-110055000D01*
X143075000Y-112675000D02*
X140535000Y-112675000D01*
X147495000Y-110055000D02*
X152575000Y-110055000D01*
%TO.N,Net-(A1-GPIO1)*%
X142772500Y-75100000D02*
X143547500Y-75100000D01*
X143547500Y-75100000D02*
X146692500Y-71955000D01*
X146692500Y-71955000D02*
X153195000Y-71955000D01*
%TO.N,Net-(A1-GPIO2)*%
X150685000Y-77035000D02*
X152575000Y-77035000D01*
X149850000Y-76200000D02*
X150685000Y-77035000D01*
X142775000Y-76200000D02*
X149850000Y-76200000D01*
X153135000Y-76975000D02*
X153195000Y-77035000D01*
%TO.N,Net-(A1-GPIO3)*%
X149675000Y-78075000D02*
X151175000Y-79575000D01*
X151175000Y-79575000D02*
X153195000Y-79575000D01*
X142775000Y-77300000D02*
X148900000Y-77300000D01*
X148900000Y-77300000D02*
X149675000Y-78075000D01*
%TO.N,/GPIO28*%
X171955000Y-84655000D02*
X177857500Y-84655000D01*
X179072500Y-84672500D02*
X179075000Y-84675000D01*
X177857500Y-84655000D02*
X177875000Y-84672500D01*
X177875000Y-84672500D02*
X179072500Y-84672500D01*
%TO.N,/GPIO27*%
X180775000Y-84475000D02*
X182546851Y-84475000D01*
X182546851Y-84475000D02*
X182608101Y-84413750D01*
X175515000Y-89735000D02*
X180775000Y-84475000D01*
X171955000Y-89735000D02*
X175515000Y-89735000D01*
%TO.N,/LOCK_RTN*%
X182608101Y-86243748D02*
X182608101Y-88524949D01*
X183590353Y-87226000D02*
X187084000Y-87226000D01*
X187084000Y-87226000D02*
X190775000Y-83535000D01*
X182608101Y-86243748D02*
X183590353Y-87226000D01*
X182608101Y-88524949D02*
X182711901Y-88628749D01*
%TO.N,/LOCK_STATUS*%
X179075000Y-83480000D02*
X179380000Y-83175000D01*
X188275000Y-83175000D02*
X190455000Y-80995000D01*
X190455000Y-80995000D02*
X190775000Y-80995000D01*
X179380000Y-83175000D02*
X188275000Y-83175000D01*
%TO.N,Net-(C12-Pad1)*%
X178215000Y-93392378D02*
X178215000Y-92292378D01*
X177175000Y-93392378D02*
X178215000Y-93392378D01*
%TO.N,Net-(U2-EN)*%
X181575000Y-95192378D02*
X181325000Y-95442378D01*
X180875000Y-94792378D02*
X180875000Y-94992378D01*
X182475000Y-95192378D02*
X181575000Y-95192378D01*
X181325000Y-95442378D02*
X180875000Y-95892378D01*
X180875000Y-94992378D02*
X181325000Y-95442378D01*
%TO.N,/GPIO10*%
X148000000Y-102450000D02*
X152560000Y-102450000D01*
X152560000Y-102450000D02*
X152575000Y-102435000D01*
%TO.N,/GPIO7*%
X152560000Y-92290000D02*
X152575000Y-92275000D01*
X148000000Y-92290000D02*
X152560000Y-92290000D01*
%TO.N,/GPIO6*%
X152560000Y-89750000D02*
X152575000Y-89735000D01*
X148000000Y-89750000D02*
X152560000Y-89750000D01*
%TO.N,/GPIO9*%
X148000000Y-97370000D02*
X152560000Y-97370000D01*
X152560000Y-97370000D02*
X152575000Y-97355000D01*
%TO.N,/GPIO8*%
X148000000Y-94830000D02*
X152560000Y-94830000D01*
X152560000Y-94830000D02*
X152575000Y-94815000D01*
%TD*%
%TA.AperFunction,Conductor*%
%TO.N,Net-(U2-BOOT)*%
G36*
X182803039Y-95994863D02*
G01*
X182848794Y-96047667D01*
X182860000Y-96099178D01*
X182860000Y-97801178D01*
X182840315Y-97868217D01*
X182787511Y-97913972D01*
X182736000Y-97925178D01*
X181999000Y-97925178D01*
X181931961Y-97905493D01*
X181886206Y-97852689D01*
X181875000Y-97801178D01*
X181875000Y-96099178D01*
X181894685Y-96032139D01*
X181947489Y-95986384D01*
X181999000Y-95975178D01*
X182736000Y-95975178D01*
X182803039Y-95994863D01*
G37*
%TD.AperFunction*%
%TD*%
%TA.AperFunction,Conductor*%
%TO.N,GND*%
G36*
X186218039Y-84094685D02*
G01*
X186263794Y-84147489D01*
X186275000Y-84199000D01*
X186275000Y-86351000D01*
X186255315Y-86418039D01*
X186202511Y-86463794D01*
X186151000Y-86475000D01*
X184699000Y-86475000D01*
X184631961Y-86455315D01*
X184586206Y-86402511D01*
X184575000Y-86351000D01*
X184575000Y-84199000D01*
X184594685Y-84131961D01*
X184647489Y-84086206D01*
X184699000Y-84075000D01*
X186151000Y-84075000D01*
X186218039Y-84094685D01*
G37*
%TD.AperFunction*%
%TD*%
%TA.AperFunction,Conductor*%
%TO.N,+3V3*%
G36*
X192417539Y-67845185D02*
G01*
X192463294Y-67897989D01*
X192474500Y-67949500D01*
X192474500Y-118950500D01*
X192454815Y-119017539D01*
X192402011Y-119063294D01*
X192350500Y-119074500D01*
X183389000Y-119074500D01*
X183321961Y-119054815D01*
X183276206Y-119002011D01*
X183265000Y-118950500D01*
X183265000Y-118545000D01*
X173971638Y-118545000D01*
X173960591Y-118541756D01*
X173949139Y-118542942D01*
X173927672Y-118532090D01*
X173904599Y-118525315D01*
X173897060Y-118516614D01*
X173886784Y-118511420D01*
X173874592Y-118490685D01*
X173858844Y-118472511D01*
X173857205Y-118461115D01*
X173851370Y-118451191D01*
X173852323Y-118427159D01*
X173848900Y-118403353D01*
X173853753Y-118391087D01*
X173854139Y-118381376D01*
X173870060Y-118349881D01*
X173885118Y-118328376D01*
X173939692Y-118284752D01*
X173986692Y-118275500D01*
X181838331Y-118275500D01*
X181838347Y-118275501D01*
X181845943Y-118275501D01*
X182004054Y-118275501D01*
X182004057Y-118275501D01*
X182156785Y-118234577D01*
X182206904Y-118205639D01*
X182293716Y-118155520D01*
X182405520Y-118043716D01*
X182405520Y-118043714D01*
X182415728Y-118033507D01*
X182415729Y-118033504D01*
X184300196Y-116149038D01*
X188174500Y-116149038D01*
X188174500Y-116400962D01*
X188197224Y-116544432D01*
X188213910Y-116649785D01*
X188291760Y-116889383D01*
X188406132Y-117113848D01*
X188554201Y-117317649D01*
X188554205Y-117317654D01*
X188732345Y-117495794D01*
X188732350Y-117495798D01*
X188882798Y-117605104D01*
X188936155Y-117643870D01*
X189079184Y-117716747D01*
X189160616Y-117758239D01*
X189160618Y-117758239D01*
X189160621Y-117758241D01*
X189400215Y-117836090D01*
X189649038Y-117875500D01*
X189649039Y-117875500D01*
X189900961Y-117875500D01*
X189900962Y-117875500D01*
X190149785Y-117836090D01*
X190389379Y-117758241D01*
X190613845Y-117643870D01*
X190817656Y-117495793D01*
X190995793Y-117317656D01*
X191143870Y-117113845D01*
X191258241Y-116889379D01*
X191336090Y-116649785D01*
X191375500Y-116400962D01*
X191375500Y-116149038D01*
X191336090Y-115900215D01*
X191258241Y-115660621D01*
X191258239Y-115660618D01*
X191258239Y-115660616D01*
X191199273Y-115544890D01*
X191143870Y-115436155D01*
X191093956Y-115367454D01*
X190995798Y-115232350D01*
X190995794Y-115232345D01*
X190817654Y-115054205D01*
X190817649Y-115054201D01*
X190613848Y-114906132D01*
X190613847Y-114906131D01*
X190613845Y-114906130D01*
X190543747Y-114870413D01*
X190389383Y-114791760D01*
X190149785Y-114713910D01*
X189989423Y-114688511D01*
X189900962Y-114674500D01*
X189649038Y-114674500D01*
X189560634Y-114688502D01*
X189400214Y-114713910D01*
X189160616Y-114791760D01*
X188936151Y-114906132D01*
X188732350Y-115054201D01*
X188732345Y-115054205D01*
X188554205Y-115232345D01*
X188554201Y-115232350D01*
X188406132Y-115436151D01*
X188291760Y-115660616D01*
X188213910Y-115900214D01*
X188202201Y-115974139D01*
X188174500Y-116149038D01*
X184300196Y-116149038D01*
X188637416Y-111811819D01*
X188698739Y-111778334D01*
X188725097Y-111775500D01*
X189439281Y-111775500D01*
X189506320Y-111795185D01*
X189549765Y-111843205D01*
X189569947Y-111882814D01*
X189569948Y-111882815D01*
X189694890Y-112054786D01*
X189845213Y-112205109D01*
X190017179Y-112330048D01*
X190017181Y-112330049D01*
X190017184Y-112330051D01*
X190206588Y-112426557D01*
X190408757Y-112492246D01*
X190618713Y-112525500D01*
X190618714Y-112525500D01*
X190831286Y-112525500D01*
X190831287Y-112525500D01*
X191041243Y-112492246D01*
X191243412Y-112426557D01*
X191432816Y-112330051D01*
X191479940Y-112295814D01*
X191604786Y-112205109D01*
X191604788Y-112205106D01*
X191604792Y-112205104D01*
X191755104Y-112054792D01*
X191755106Y-112054788D01*
X191755109Y-112054786D01*
X191880048Y-111882820D01*
X191880047Y-111882820D01*
X191880051Y-111882816D01*
X191976557Y-111693412D01*
X192042246Y-111491243D01*
X192075500Y-111281287D01*
X192075500Y-111068713D01*
X192042246Y-110858757D01*
X191976557Y-110656588D01*
X191880051Y-110467184D01*
X191880049Y-110467181D01*
X191880048Y-110467179D01*
X191755109Y-110295213D01*
X191604786Y-110144890D01*
X191432820Y-110019951D01*
X191432115Y-110019591D01*
X191424054Y-110015485D01*
X191373259Y-109967512D01*
X191356463Y-109899692D01*
X191378999Y-109833556D01*
X191424054Y-109794515D01*
X191432816Y-109790051D01*
X191512052Y-109732483D01*
X191604786Y-109665109D01*
X191604788Y-109665106D01*
X191604792Y-109665104D01*
X191755104Y-109514792D01*
X191755106Y-109514788D01*
X191755109Y-109514786D01*
X191880048Y-109342820D01*
X191880047Y-109342820D01*
X191880051Y-109342816D01*
X191976557Y-109153412D01*
X192042246Y-108951243D01*
X192075500Y-108741287D01*
X192075500Y-108528713D01*
X192042246Y-108318757D01*
X191976557Y-108116588D01*
X191880051Y-107927184D01*
X191880049Y-107927181D01*
X191880048Y-107927179D01*
X191755109Y-107755213D01*
X191604786Y-107604890D01*
X191432817Y-107479949D01*
X191423504Y-107475204D01*
X191372707Y-107427230D01*
X191355912Y-107359409D01*
X191378449Y-107293274D01*
X191423507Y-107254232D01*
X191432555Y-107249622D01*
X191486716Y-107210270D01*
X191486717Y-107210270D01*
X190854408Y-106577962D01*
X190917993Y-106560925D01*
X191032007Y-106495099D01*
X191125099Y-106402007D01*
X191190925Y-106287993D01*
X191207962Y-106224408D01*
X191840270Y-106856717D01*
X191840270Y-106856716D01*
X191879622Y-106802554D01*
X191976095Y-106613217D01*
X192041757Y-106411130D01*
X192041757Y-106411127D01*
X192075000Y-106201246D01*
X192075000Y-105988753D01*
X192041757Y-105778872D01*
X192041757Y-105778869D01*
X191976095Y-105576782D01*
X191879624Y-105387449D01*
X191840270Y-105333282D01*
X191840269Y-105333282D01*
X191207962Y-105965590D01*
X191190925Y-105902007D01*
X191125099Y-105787993D01*
X191032007Y-105694901D01*
X190917993Y-105629075D01*
X190854409Y-105612037D01*
X191524627Y-104941818D01*
X191585950Y-104908333D01*
X191612307Y-104905499D01*
X191622872Y-104905499D01*
X191682483Y-104899091D01*
X191817331Y-104848796D01*
X191932546Y-104762546D01*
X192018796Y-104647331D01*
X192069091Y-104512483D01*
X192075500Y-104452873D01*
X192075499Y-102657128D01*
X192069091Y-102597517D01*
X192066218Y-102589815D01*
X192018797Y-102462671D01*
X192018793Y-102462664D01*
X191932547Y-102347455D01*
X191932544Y-102347452D01*
X191817335Y-102261206D01*
X191817328Y-102261202D01*
X191682482Y-102210908D01*
X191682483Y-102210908D01*
X191622883Y-102204501D01*
X191622881Y-102204500D01*
X191622873Y-102204500D01*
X191622864Y-102204500D01*
X189827129Y-102204500D01*
X189827123Y-102204501D01*
X189767516Y-102210908D01*
X189632671Y-102261202D01*
X189632664Y-102261206D01*
X189517455Y-102347452D01*
X189517452Y-102347455D01*
X189431204Y-102462667D01*
X189429497Y-102465794D01*
X189426978Y-102468312D01*
X189425888Y-102469769D01*
X189425678Y-102469612D01*
X189380090Y-102515199D01*
X189311817Y-102530049D01*
X189246353Y-102505630D01*
X189204483Y-102449696D01*
X189199049Y-102430557D01*
X189194738Y-102408886D01*
X189194737Y-102408885D01*
X189194737Y-102408881D01*
X189182035Y-102378215D01*
X189134397Y-102263205D01*
X189134390Y-102263192D01*
X189049582Y-102136269D01*
X189028704Y-102069592D01*
X189047188Y-102002212D01*
X189049582Y-101998487D01*
X189134390Y-101871563D01*
X189134390Y-101871562D01*
X189134394Y-101871557D01*
X189194737Y-101725875D01*
X189225500Y-101571220D01*
X189225500Y-101413536D01*
X189225500Y-101413533D01*
X189225499Y-101413531D01*
X189220570Y-101388751D01*
X189194737Y-101258881D01*
X189175619Y-101212725D01*
X189134397Y-101113205D01*
X189134390Y-101113192D01*
X189046789Y-100982089D01*
X189046786Y-100982085D01*
X188935292Y-100870591D01*
X188935288Y-100870588D01*
X188804185Y-100782987D01*
X188804172Y-100782980D01*
X188658501Y-100722642D01*
X188658489Y-100722639D01*
X188503845Y-100691878D01*
X188503842Y-100691878D01*
X188346158Y-100691878D01*
X188346155Y-100691878D01*
X188191510Y-100722639D01*
X188191498Y-100722642D01*
X188045827Y-100782980D01*
X188045814Y-100782987D01*
X187914711Y-100870588D01*
X187914707Y-100870591D01*
X187803217Y-100982082D01*
X187803214Y-100982085D01*
X187763407Y-101041658D01*
X187709793Y-101086462D01*
X187676858Y-101095655D01*
X187608313Y-101104887D01*
X187608292Y-101104891D01*
X187545041Y-101122242D01*
X187545023Y-101122249D01*
X187420817Y-101175000D01*
X187378095Y-101209429D01*
X187313544Y-101236167D01*
X187300288Y-101236878D01*
X185600000Y-101236878D01*
X185554342Y-101239321D01*
X185546039Y-101239766D01*
X185406627Y-101275326D01*
X185403768Y-101276510D01*
X185370223Y-101295621D01*
X185308850Y-101311878D01*
X185294633Y-101311878D01*
X185294622Y-101311879D01*
X185235016Y-101318286D01*
X185100171Y-101368580D01*
X185100164Y-101368584D01*
X184984955Y-101454830D01*
X184984952Y-101454833D01*
X184898706Y-101570042D01*
X184898702Y-101570049D01*
X184848408Y-101704895D01*
X184842001Y-101764494D01*
X184842000Y-101764513D01*
X184842000Y-105420248D01*
X184842001Y-105420254D01*
X184848408Y-105479861D01*
X184898702Y-105614706D01*
X184898706Y-105614713D01*
X184984952Y-105729922D01*
X184984955Y-105729925D01*
X185100164Y-105816171D01*
X185100171Y-105816175D01*
X185207457Y-105856190D01*
X185254877Y-105887874D01*
X185279489Y-105914308D01*
X185279490Y-105914309D01*
X185403223Y-105987723D01*
X185403226Y-105987724D01*
X185403229Y-105987726D01*
X185455555Y-106009400D01*
X185506584Y-106027402D01*
X185649000Y-106047878D01*
X185649003Y-106047878D01*
X187666914Y-106047878D01*
X187733953Y-106067563D01*
X187770017Y-106102988D01*
X187803212Y-106152669D01*
X187914707Y-106264164D01*
X187914711Y-106264167D01*
X188045814Y-106351768D01*
X188045827Y-106351775D01*
X188189118Y-106411127D01*
X188191503Y-106412115D01*
X188346153Y-106442877D01*
X188346156Y-106442878D01*
X188346158Y-106442878D01*
X188503844Y-106442878D01*
X188503845Y-106442877D01*
X188658497Y-106412115D01*
X188804179Y-106351772D01*
X188935289Y-106264167D01*
X189046789Y-106152667D01*
X189134394Y-106021557D01*
X189136438Y-106016621D01*
X189180279Y-105962218D01*
X189246572Y-105940152D01*
X189314272Y-105957430D01*
X189361883Y-106008567D01*
X189375000Y-106064073D01*
X189375000Y-106201246D01*
X189408242Y-106411127D01*
X189408242Y-106411130D01*
X189473904Y-106613217D01*
X189570375Y-106802550D01*
X189609728Y-106856716D01*
X190242037Y-106224408D01*
X190259075Y-106287993D01*
X190324901Y-106402007D01*
X190417993Y-106495099D01*
X190532007Y-106560925D01*
X190595590Y-106577962D01*
X189963282Y-107210269D01*
X189963282Y-107210270D01*
X190017452Y-107249626D01*
X190017451Y-107249626D01*
X190026495Y-107254234D01*
X190077292Y-107302208D01*
X190094087Y-107370029D01*
X190071550Y-107436164D01*
X190026499Y-107475202D01*
X190017182Y-107479949D01*
X189845213Y-107604890D01*
X189694890Y-107755213D01*
X189569948Y-107927184D01*
X189569947Y-107927185D01*
X189549765Y-107966795D01*
X189501791Y-108017591D01*
X189439281Y-108034500D01*
X188444057Y-108034500D01*
X188285943Y-108034500D01*
X188133215Y-108075423D01*
X188133214Y-108075423D01*
X188133212Y-108075424D01*
X188133209Y-108075425D01*
X188083096Y-108104359D01*
X188083095Y-108104360D01*
X188058891Y-108118334D01*
X187996285Y-108154479D01*
X187996282Y-108154481D01*
X187894179Y-108256585D01*
X187884480Y-108266284D01*
X187884478Y-108266286D01*
X184760987Y-111389778D01*
X181652584Y-114498181D01*
X181591261Y-114531666D01*
X181564903Y-114534500D01*
X173986692Y-114534500D01*
X173919653Y-114514815D01*
X173885119Y-114481625D01*
X173755047Y-114295861D01*
X173755045Y-114295858D01*
X173594141Y-114134954D01*
X173407734Y-114004432D01*
X173407732Y-114004431D01*
X173356343Y-113980468D01*
X173303904Y-113934295D01*
X173284752Y-113867102D01*
X173304968Y-113800221D01*
X173350293Y-113758729D01*
X173414783Y-113724259D01*
X173545811Y-113636709D01*
X173622412Y-113573843D01*
X173733843Y-113462412D01*
X173796709Y-113385811D01*
X173861520Y-113288815D01*
X173885951Y-113252252D01*
X173886830Y-113252839D01*
X173935040Y-113208364D01*
X173990038Y-113195500D01*
X175025166Y-113195500D01*
X175092205Y-113215185D01*
X175094057Y-113216398D01*
X175195814Y-113284390D01*
X175195827Y-113284397D01*
X175341498Y-113344735D01*
X175341503Y-113344737D01*
X175488899Y-113374056D01*
X175496153Y-113375499D01*
X175496156Y-113375500D01*
X175496158Y-113375500D01*
X175653844Y-113375500D01*
X175653845Y-113375499D01*
X175808497Y-113344737D01*
X175924262Y-113296786D01*
X175954172Y-113284397D01*
X175954172Y-113284396D01*
X175954179Y-113284394D01*
X176085289Y-113196789D01*
X176196789Y-113085289D01*
X176284394Y-112954179D01*
X176344737Y-112808497D01*
X176375500Y-112653842D01*
X176375500Y-112496158D01*
X176375500Y-112496155D01*
X176375499Y-112496153D01*
X176361655Y-112426555D01*
X176344737Y-112341503D01*
X176344735Y-112341498D01*
X176284397Y-112195827D01*
X176284390Y-112195814D01*
X176196789Y-112064711D01*
X176196786Y-112064707D01*
X176085292Y-111953213D01*
X176085288Y-111953210D01*
X175954185Y-111865609D01*
X175954172Y-111865602D01*
X175808501Y-111805264D01*
X175808489Y-111805261D01*
X175653845Y-111774500D01*
X175653842Y-111774500D01*
X175496158Y-111774500D01*
X175496155Y-111774500D01*
X175341510Y-111805261D01*
X175341498Y-111805264D01*
X175195827Y-111865602D01*
X175195814Y-111865609D01*
X175064711Y-111953210D01*
X175064707Y-111953213D01*
X175059740Y-111958181D01*
X174998417Y-111991666D01*
X174972059Y-111994500D01*
X173990038Y-111994500D01*
X173922999Y-111974815D01*
X173886628Y-111937295D01*
X173885951Y-111937748D01*
X173802464Y-111812802D01*
X173796709Y-111804189D01*
X173733843Y-111727588D01*
X173622412Y-111616157D01*
X173545811Y-111553291D01*
X173545804Y-111553286D01*
X173545793Y-111553278D01*
X173414799Y-111465751D01*
X173414788Y-111465744D01*
X173414783Y-111465741D01*
X173350293Y-111431270D01*
X173300450Y-111382308D01*
X173284990Y-111314171D01*
X173308822Y-111248491D01*
X173356341Y-111209532D01*
X173407734Y-111185568D01*
X173594139Y-111055047D01*
X173755047Y-110894139D01*
X173885568Y-110707734D01*
X173981739Y-110501496D01*
X174040635Y-110281692D01*
X174055500Y-110111784D01*
X174055500Y-109998216D01*
X174040635Y-109828308D01*
X173981739Y-109608504D01*
X173885568Y-109402266D01*
X173755047Y-109215861D01*
X173755045Y-109215858D01*
X173594141Y-109054954D01*
X173407734Y-108924432D01*
X173407728Y-108924429D01*
X173349725Y-108897382D01*
X173297285Y-108851210D01*
X173278133Y-108784017D01*
X173298348Y-108717135D01*
X173349725Y-108672618D01*
X173407734Y-108645568D01*
X173594139Y-108515047D01*
X173755047Y-108354139D01*
X173885568Y-108167734D01*
X173981739Y-107961496D01*
X174040635Y-107741692D01*
X174055500Y-107571784D01*
X174055500Y-107458216D01*
X174040635Y-107288308D01*
X173981739Y-107068504D01*
X173885568Y-106862266D01*
X173755047Y-106675861D01*
X173755045Y-106675858D01*
X173594141Y-106514954D01*
X173407734Y-106384432D01*
X173407728Y-106384429D01*
X173349725Y-106357382D01*
X173297285Y-106311210D01*
X173278133Y-106244017D01*
X173298348Y-106177135D01*
X173349725Y-106132618D01*
X173407734Y-106105568D01*
X173594139Y-105975047D01*
X173755047Y-105814139D01*
X173885568Y-105627734D01*
X173981739Y-105421496D01*
X174040635Y-105201692D01*
X174055500Y-105031784D01*
X174055500Y-104918216D01*
X174040635Y-104748308D01*
X173981739Y-104528504D01*
X173885568Y-104322266D01*
X173755047Y-104135861D01*
X173755045Y-104135858D01*
X173594141Y-103974954D01*
X173407734Y-103844432D01*
X173407728Y-103844429D01*
X173359176Y-103821789D01*
X173349724Y-103817381D01*
X173297285Y-103771210D01*
X173278133Y-103704017D01*
X173298348Y-103637135D01*
X173349725Y-103592618D01*
X173407734Y-103565568D01*
X173594139Y-103435047D01*
X173755047Y-103274139D01*
X173885568Y-103087734D01*
X173981739Y-102881496D01*
X174040635Y-102661692D01*
X174055500Y-102491784D01*
X174055500Y-102378216D01*
X174040635Y-102208308D01*
X173981739Y-101988504D01*
X173885568Y-101782266D01*
X173755047Y-101595861D01*
X173755045Y-101595858D01*
X173594141Y-101434954D01*
X173407734Y-101304432D01*
X173407732Y-101304431D01*
X173387398Y-101294949D01*
X173356342Y-101280467D01*
X173303904Y-101234295D01*
X173284752Y-101167102D01*
X173304968Y-101100221D01*
X173350293Y-101058729D01*
X173414783Y-101024259D01*
X173545811Y-100936709D01*
X173622412Y-100873843D01*
X173733843Y-100762412D01*
X173796709Y-100685811D01*
X173866991Y-100580626D01*
X173920601Y-100535822D01*
X173989926Y-100527115D01*
X174038981Y-100546415D01*
X174095821Y-100584394D01*
X174095823Y-100584395D01*
X174095827Y-100584397D01*
X174241498Y-100644735D01*
X174241503Y-100644737D01*
X174396153Y-100675499D01*
X174396156Y-100675500D01*
X174396158Y-100675500D01*
X174553844Y-100675500D01*
X174553845Y-100675499D01*
X174708497Y-100644737D01*
X174821166Y-100598067D01*
X174854172Y-100584397D01*
X174854172Y-100584396D01*
X174854179Y-100584394D01*
X174985289Y-100496789D01*
X175096789Y-100385289D01*
X175184394Y-100254179D01*
X175244737Y-100108497D01*
X175275500Y-99953842D01*
X175275500Y-99796158D01*
X175275500Y-99796155D01*
X175275499Y-99796153D01*
X175265169Y-99744223D01*
X175244737Y-99641503D01*
X175243583Y-99638716D01*
X175184397Y-99495827D01*
X175184390Y-99495814D01*
X175096789Y-99364711D01*
X175096786Y-99364707D01*
X174985292Y-99253213D01*
X174985288Y-99253210D01*
X174854185Y-99165609D01*
X174854172Y-99165602D01*
X174708501Y-99105264D01*
X174708489Y-99105261D01*
X174553845Y-99074500D01*
X174553842Y-99074500D01*
X174396158Y-99074500D01*
X174396155Y-99074500D01*
X174241510Y-99105261D01*
X174241498Y-99105264D01*
X174095827Y-99165602D01*
X174095814Y-99165609D01*
X174020506Y-99215929D01*
X173953828Y-99236807D01*
X173886448Y-99218322D01*
X173848513Y-99181718D01*
X173796715Y-99104197D01*
X173796712Y-99104194D01*
X173796709Y-99104189D01*
X173733843Y-99027588D01*
X173622412Y-98916157D01*
X173545811Y-98853291D01*
X173545804Y-98853286D01*
X173545793Y-98853278D01*
X173414799Y-98765751D01*
X173414788Y-98765744D01*
X173414783Y-98765741D01*
X173350293Y-98731270D01*
X173300450Y-98682308D01*
X173284990Y-98614171D01*
X173308822Y-98548491D01*
X173356341Y-98509532D01*
X173407734Y-98485568D01*
X173594139Y-98355047D01*
X173755047Y-98194139D01*
X173885568Y-98007734D01*
X173981739Y-97801496D01*
X174040635Y-97581692D01*
X174055500Y-97411784D01*
X174055500Y-97298216D01*
X174040635Y-97128308D01*
X173981739Y-96908504D01*
X173885568Y-96702266D01*
X173755047Y-96515861D01*
X173755045Y-96515858D01*
X173594141Y-96354954D01*
X173407734Y-96224432D01*
X173407728Y-96224429D01*
X173349725Y-96197382D01*
X173297285Y-96151210D01*
X173278133Y-96084017D01*
X173298348Y-96017135D01*
X173349725Y-95972618D01*
X173407734Y-95945568D01*
X173594139Y-95815047D01*
X173755047Y-95654139D01*
X173885568Y-95467734D01*
X173981739Y-95261496D01*
X174040635Y-95041692D01*
X174055500Y-94871784D01*
X174055500Y-94758216D01*
X174040635Y-94588308D01*
X173993813Y-94413566D01*
X173981741Y-94368511D01*
X173981738Y-94368502D01*
X173968758Y-94340667D01*
X173885568Y-94162266D01*
X173755047Y-93975861D01*
X173755045Y-93975858D01*
X173594141Y-93814954D01*
X173407734Y-93684432D01*
X173407728Y-93684429D01*
X173362569Y-93663371D01*
X173349724Y-93657381D01*
X173297285Y-93611210D01*
X173278133Y-93544017D01*
X173298348Y-93477135D01*
X173349725Y-93432618D01*
X173407734Y-93405568D01*
X173594139Y-93275047D01*
X173755047Y-93114139D01*
X173885568Y-92927734D01*
X173981739Y-92721496D01*
X174040635Y-92501692D01*
X174055500Y-92331784D01*
X174055500Y-92218216D01*
X174040635Y-92048308D01*
X173981739Y-91828504D01*
X173885568Y-91622266D01*
X173755047Y-91435861D01*
X173755045Y-91435858D01*
X173594141Y-91274954D01*
X173407734Y-91144432D01*
X173407728Y-91144429D01*
X173349725Y-91117382D01*
X173297285Y-91071210D01*
X173278133Y-91004017D01*
X173298348Y-90937135D01*
X173349725Y-90892618D01*
X173407734Y-90865568D01*
X173594139Y-90735047D01*
X173755047Y-90574139D01*
X173885118Y-90388375D01*
X173939693Y-90344752D01*
X173986692Y-90335500D01*
X175428331Y-90335500D01*
X175428347Y-90335501D01*
X175435943Y-90335501D01*
X175594054Y-90335501D01*
X175594057Y-90335501D01*
X175746785Y-90294577D01*
X175796904Y-90265639D01*
X175883716Y-90215520D01*
X175995520Y-90103716D01*
X175995520Y-90103714D01*
X176005728Y-90093507D01*
X176005730Y-90093504D01*
X179902738Y-86196495D01*
X179964059Y-86163012D01*
X180033751Y-86167996D01*
X180089684Y-86209868D01*
X180104571Y-86239005D01*
X180105188Y-86238728D01*
X180108267Y-86245570D01*
X180191242Y-86382829D01*
X180191246Y-86382834D01*
X180238181Y-86429769D01*
X180271666Y-86491092D01*
X180274500Y-86517450D01*
X180274500Y-86790353D01*
X180254815Y-86857392D01*
X180253625Y-86859208D01*
X180237829Y-86882849D01*
X180203708Y-86933914D01*
X180203701Y-86933927D01*
X180143363Y-87079597D01*
X180143360Y-87079609D01*
X180112599Y-87234252D01*
X180112599Y-87391945D01*
X180143360Y-87546588D01*
X180143363Y-87546600D01*
X180203701Y-87692271D01*
X180203708Y-87692284D01*
X180291309Y-87823387D01*
X180291312Y-87823391D01*
X180402806Y-87934885D01*
X180402810Y-87934888D01*
X180533913Y-88022489D01*
X180533926Y-88022496D01*
X180661891Y-88075500D01*
X180679602Y-88082836D01*
X180834252Y-88113598D01*
X180834255Y-88113599D01*
X180834257Y-88113599D01*
X180991943Y-88113599D01*
X180991944Y-88113598D01*
X181146596Y-88082836D01*
X181292278Y-88022493D01*
X181423388Y-87934888D01*
X181534888Y-87823388D01*
X181534890Y-87823384D01*
X181538752Y-87818680D01*
X181540537Y-87820145D01*
X181586246Y-87781926D01*
X181655569Y-87773202D01*
X181718604Y-87803341D01*
X181755338Y-87862775D01*
X181754108Y-87932634D01*
X181751947Y-87938940D01*
X181747910Y-87949764D01*
X181747909Y-87949765D01*
X181741502Y-88009365D01*
X181741501Y-88009384D01*
X181741501Y-89248119D01*
X181741502Y-89248125D01*
X181747909Y-89307732D01*
X181798203Y-89442577D01*
X181798207Y-89442584D01*
X181884453Y-89557793D01*
X181884456Y-89557796D01*
X181999665Y-89644042D01*
X181999672Y-89644046D01*
X182134518Y-89694340D01*
X182134517Y-89694340D01*
X182141445Y-89695084D01*
X182194128Y-89700749D01*
X183229673Y-89700748D01*
X183289284Y-89694340D01*
X183424132Y-89644045D01*
X183539347Y-89557795D01*
X183539346Y-89557795D01*
X183542838Y-89555182D01*
X183608302Y-89530765D01*
X183617149Y-89530449D01*
X184981653Y-89530449D01*
X185048692Y-89550134D01*
X185055964Y-89555182D01*
X185174669Y-89644044D01*
X185174672Y-89644046D01*
X185309518Y-89694340D01*
X185309517Y-89694340D01*
X185316445Y-89695084D01*
X185369128Y-89700749D01*
X186404673Y-89700748D01*
X186464284Y-89694340D01*
X186599132Y-89644045D01*
X186714347Y-89557795D01*
X186751393Y-89508308D01*
X186805913Y-89435480D01*
X186807256Y-89436485D01*
X186849322Y-89394418D01*
X186908751Y-89379249D01*
X189597768Y-89379249D01*
X189664807Y-89398934D01*
X189698086Y-89430363D01*
X189744896Y-89494792D01*
X189895208Y-89645104D01*
X189973384Y-89701902D01*
X190016051Y-89757231D01*
X190024500Y-89802220D01*
X190024500Y-91025500D01*
X190004815Y-91092539D01*
X189952011Y-91138294D01*
X189900505Y-91149500D01*
X189877132Y-91149500D01*
X189877123Y-91149501D01*
X189817516Y-91155908D01*
X189682671Y-91206202D01*
X189682664Y-91206206D01*
X189567455Y-91292452D01*
X189567452Y-91292455D01*
X189481206Y-91407664D01*
X189481202Y-91407671D01*
X189430908Y-91542517D01*
X189425032Y-91597180D01*
X189424501Y-91602123D01*
X189424500Y-91602135D01*
X189424500Y-91625500D01*
X189404815Y-91692539D01*
X189352011Y-91738294D01*
X189300500Y-91749500D01*
X187576080Y-91749500D01*
X187431092Y-91778340D01*
X187431082Y-91778343D01*
X187294511Y-91834912D01*
X187294504Y-91834916D01*
X187276192Y-91847152D01*
X187266973Y-91853312D01*
X187266972Y-91853312D01*
X187171585Y-91917046D01*
X187171578Y-91917052D01*
X186988073Y-92100559D01*
X186926750Y-92134044D01*
X186900392Y-92136878D01*
X185982000Y-92136878D01*
X185914961Y-92117193D01*
X185869206Y-92064389D01*
X185861428Y-92041833D01*
X185858000Y-92027558D01*
X185858000Y-92016612D01*
X185833094Y-91923662D01*
X185818781Y-91870243D01*
X185785072Y-91811858D01*
X185743015Y-91739013D01*
X185635865Y-91631863D01*
X185174665Y-91170663D01*
X185109050Y-91132780D01*
X185043436Y-91094897D01*
X184970250Y-91075287D01*
X184897066Y-91055678D01*
X181697066Y-91055678D01*
X181545533Y-91055678D01*
X181430010Y-91086632D01*
X181430009Y-91086631D01*
X181399169Y-91094895D01*
X181399162Y-91094898D01*
X181267938Y-91170661D01*
X181267932Y-91170665D01*
X180786986Y-91651611D01*
X180725663Y-91685096D01*
X180655971Y-91680112D01*
X180630414Y-91667032D01*
X180525885Y-91597187D01*
X180525872Y-91597180D01*
X180380201Y-91536842D01*
X180380189Y-91536839D01*
X180225545Y-91506078D01*
X180225542Y-91506078D01*
X180067858Y-91506078D01*
X180067855Y-91506078D01*
X179913210Y-91536839D01*
X179913198Y-91536842D01*
X179776346Y-91593528D01*
X179706877Y-91600997D01*
X179665773Y-91585699D01*
X179659831Y-91582185D01*
X179571395Y-91529884D01*
X179571394Y-91529883D01*
X179571393Y-91529883D01*
X179571390Y-91529882D01*
X179415997Y-91484735D01*
X179415991Y-91484734D01*
X179379697Y-91481878D01*
X179379690Y-91481878D01*
X178970310Y-91481878D01*
X178970302Y-91481878D01*
X178934008Y-91484734D01*
X178934002Y-91484735D01*
X178778608Y-91529882D01*
X178778602Y-91529884D01*
X178758120Y-91541998D01*
X178690396Y-91559179D01*
X178631880Y-91541998D01*
X178611397Y-91529884D01*
X178611391Y-91529882D01*
X178455997Y-91484735D01*
X178455991Y-91484734D01*
X178419697Y-91481878D01*
X178419690Y-91481878D01*
X178228851Y-91481878D01*
X178161812Y-91462193D01*
X178116057Y-91409389D01*
X178106113Y-91340231D01*
X178135138Y-91276675D01*
X178141170Y-91270197D01*
X178453822Y-90957544D01*
X178565295Y-90846070D01*
X178605519Y-90819193D01*
X178629179Y-90809394D01*
X178760289Y-90721789D01*
X178871789Y-90610289D01*
X178959394Y-90479179D01*
X179019737Y-90333497D01*
X179050500Y-90178842D01*
X179050500Y-90021158D01*
X179050500Y-90021155D01*
X179050499Y-90021153D01*
X179019738Y-89866510D01*
X179019737Y-89866503D01*
X179019735Y-89866498D01*
X178959397Y-89720827D01*
X178959390Y-89720814D01*
X178871789Y-89589711D01*
X178871786Y-89589707D01*
X178760292Y-89478213D01*
X178760288Y-89478210D01*
X178629185Y-89390609D01*
X178629172Y-89390602D01*
X178483501Y-89330264D01*
X178483489Y-89330261D01*
X178328845Y-89299500D01*
X178328842Y-89299500D01*
X178171158Y-89299500D01*
X178171155Y-89299500D01*
X178016510Y-89330261D01*
X178016498Y-89330264D01*
X177870827Y-89390602D01*
X177870814Y-89390609D01*
X177739711Y-89478210D01*
X177739707Y-89478213D01*
X177628213Y-89589707D01*
X177628207Y-89589715D01*
X177540607Y-89720818D01*
X177540605Y-89720822D01*
X177530805Y-89744480D01*
X177503927Y-89784704D01*
X175632045Y-91656586D01*
X175598401Y-91706942D01*
X175598399Y-91706945D01*
X175549919Y-91779499D01*
X175549912Y-91779511D01*
X175493343Y-91916082D01*
X175493340Y-91916092D01*
X175464500Y-92061079D01*
X175464500Y-93010312D01*
X175459576Y-93044908D01*
X175437357Y-93121383D01*
X175437356Y-93121386D01*
X175434500Y-93157680D01*
X175434500Y-93627075D01*
X175437356Y-93663369D01*
X175437357Y-93663372D01*
X175459576Y-93739847D01*
X175464500Y-93774443D01*
X175464500Y-94217826D01*
X175458206Y-94256829D01*
X175422502Y-94364577D01*
X175422500Y-94364587D01*
X175412000Y-94467361D01*
X175412000Y-95517379D01*
X175412001Y-95517397D01*
X175422500Y-95620174D01*
X175422501Y-95620177D01*
X175433756Y-95654141D01*
X175477686Y-95786712D01*
X175562871Y-95924820D01*
X175569789Y-95936035D01*
X175588451Y-95954697D01*
X175621936Y-96016020D01*
X175616952Y-96085712D01*
X175588451Y-96130059D01*
X175569789Y-96148720D01*
X175477687Y-96298041D01*
X175477685Y-96298046D01*
X175462287Y-96344514D01*
X175422501Y-96464581D01*
X175422501Y-96464582D01*
X175422500Y-96464582D01*
X175412000Y-96567361D01*
X175412000Y-97617379D01*
X175412001Y-97617397D01*
X175422500Y-97720174D01*
X175422501Y-97720177D01*
X175477685Y-97886709D01*
X175477687Y-97886714D01*
X175478736Y-97888414D01*
X175555635Y-98013089D01*
X175569789Y-98036035D01*
X175693845Y-98160091D01*
X175699513Y-98164573D01*
X175698070Y-98166397D01*
X175737320Y-98210032D01*
X175749500Y-98263626D01*
X175749500Y-101269584D01*
X175729815Y-101336623D01*
X175699814Y-101368847D01*
X175584954Y-101454832D01*
X175584953Y-101454833D01*
X175584952Y-101454834D01*
X175498706Y-101570042D01*
X175498702Y-101570049D01*
X175448408Y-101704895D01*
X175442001Y-101764494D01*
X175442000Y-101764513D01*
X175442000Y-105420248D01*
X175442001Y-105420254D01*
X175448408Y-105479861D01*
X175498702Y-105614706D01*
X175498706Y-105614713D01*
X175584952Y-105729922D01*
X175584955Y-105729925D01*
X175700164Y-105816171D01*
X175700171Y-105816175D01*
X175835017Y-105866469D01*
X175835016Y-105866469D01*
X175841944Y-105867213D01*
X175894627Y-105872878D01*
X177770372Y-105872877D01*
X177829983Y-105866469D01*
X177964831Y-105816174D01*
X178080046Y-105729924D01*
X178166296Y-105614709D01*
X178216591Y-105479861D01*
X178223000Y-105420251D01*
X178222999Y-101764506D01*
X178216591Y-101704895D01*
X178166734Y-101571222D01*
X178166297Y-101570049D01*
X178166293Y-101570042D01*
X178080047Y-101454833D01*
X178080044Y-101454830D01*
X177964835Y-101368584D01*
X177964828Y-101368580D01*
X177829982Y-101318286D01*
X177829983Y-101318286D01*
X177770383Y-101311879D01*
X177770381Y-101311878D01*
X177770373Y-101311878D01*
X177770365Y-101311878D01*
X177374500Y-101311878D01*
X177307461Y-101292193D01*
X177261706Y-101239389D01*
X177250500Y-101187878D01*
X177250500Y-98575462D01*
X177270185Y-98508423D01*
X177322989Y-98462668D01*
X177392147Y-98452724D01*
X177455703Y-98481749D01*
X177468214Y-98494261D01*
X177500324Y-98531319D01*
X177500327Y-98531321D01*
X177500330Y-98531325D01*
X177609064Y-98625545D01*
X177609067Y-98625546D01*
X177609068Y-98625547D01*
X177733354Y-98682308D01*
X177739941Y-98685316D01*
X177806980Y-98705001D01*
X177806984Y-98705002D01*
X177949400Y-98725478D01*
X177949403Y-98725478D01*
X179798990Y-98725478D01*
X179799000Y-98725478D01*
X179906456Y-98713925D01*
X179957967Y-98702719D01*
X179996848Y-98689778D01*
X180060497Y-98668594D01*
X180060501Y-98668591D01*
X180060504Y-98668591D01*
X180181543Y-98590803D01*
X180234347Y-98545048D01*
X180328567Y-98436314D01*
X180328570Y-98436306D01*
X180333362Y-98428852D01*
X180336142Y-98430638D01*
X180371351Y-98389997D01*
X180438388Y-98370305D01*
X180489735Y-98383165D01*
X180490192Y-98382063D01*
X180636257Y-98442564D01*
X180641503Y-98444737D01*
X180779799Y-98472246D01*
X180796153Y-98475499D01*
X180796156Y-98475500D01*
X180796158Y-98475500D01*
X180953844Y-98475500D01*
X180953845Y-98475499D01*
X181108497Y-98444737D01*
X181254179Y-98384394D01*
X181385289Y-98296789D01*
X181412375Y-98269702D01*
X181473696Y-98236218D01*
X181543388Y-98241202D01*
X181581256Y-98263669D01*
X181658664Y-98330745D01*
X181658667Y-98330746D01*
X181658668Y-98330747D01*
X181788404Y-98389997D01*
X181789541Y-98390516D01*
X181856580Y-98410201D01*
X181856584Y-98410202D01*
X181999000Y-98430678D01*
X181999003Y-98430678D01*
X182735173Y-98430678D01*
X182802212Y-98450363D01*
X182838274Y-98485785D01*
X182854140Y-98509530D01*
X182859640Y-98517761D01*
X182870772Y-98531325D01*
X182922503Y-98594357D01*
X182942920Y-98614774D01*
X183019519Y-98677639D01*
X183076147Y-98715477D01*
X183076149Y-98715478D01*
X183076156Y-98715482D01*
X183163530Y-98762184D01*
X183163534Y-98762185D01*
X183163546Y-98762192D01*
X183190221Y-98773241D01*
X183285044Y-98802005D01*
X183359130Y-98816742D01*
X183386246Y-98820764D01*
X183408172Y-98824018D01*
X183408182Y-98824019D01*
X183408201Y-98824022D01*
X183408228Y-98824024D01*
X183408231Y-98824025D01*
X183412324Y-98824428D01*
X183422638Y-98825444D01*
X183472188Y-98827878D01*
X183472200Y-98827878D01*
X184430800Y-98827878D01*
X184430812Y-98827878D01*
X184480362Y-98825444D01*
X184494799Y-98824022D01*
X184543871Y-98816742D01*
X184617956Y-98802005D01*
X184712778Y-98773241D01*
X184739453Y-98762192D01*
X184826852Y-98715477D01*
X184848553Y-98700976D01*
X184915225Y-98680097D01*
X184975897Y-98694718D01*
X185004846Y-98710192D01*
X185031521Y-98721241D01*
X185126344Y-98750005D01*
X185200430Y-98764742D01*
X185222492Y-98768015D01*
X185249472Y-98772018D01*
X185249482Y-98772019D01*
X185249501Y-98772022D01*
X185263938Y-98773444D01*
X185313488Y-98775878D01*
X185313500Y-98775878D01*
X188810500Y-98775878D01*
X188810512Y-98775878D01*
X188860062Y-98773444D01*
X188874499Y-98772022D01*
X188923571Y-98764742D01*
X188997656Y-98750005D01*
X189092478Y-98721241D01*
X189119153Y-98710192D01*
X189206552Y-98663477D01*
X189263180Y-98625639D01*
X189339779Y-98562774D01*
X189360196Y-98542357D01*
X189423061Y-98465758D01*
X189460899Y-98409130D01*
X189507614Y-98321731D01*
X189518663Y-98295056D01*
X189547427Y-98200233D01*
X189562164Y-98126147D01*
X189569334Y-98077816D01*
X189569440Y-98077104D01*
X189569440Y-98077098D01*
X189569444Y-98077076D01*
X189570866Y-98062639D01*
X189573300Y-98013089D01*
X189573300Y-96047558D01*
X189592985Y-95980519D01*
X189645789Y-95934764D01*
X189714947Y-95924820D01*
X189778503Y-95953845D01*
X189784981Y-95959877D01*
X189895213Y-96070109D01*
X190067179Y-96195048D01*
X190067181Y-96195049D01*
X190067184Y-96195051D01*
X190256588Y-96291557D01*
X190458757Y-96357246D01*
X190668713Y-96390500D01*
X190668714Y-96390500D01*
X190881286Y-96390500D01*
X190881287Y-96390500D01*
X191091243Y-96357246D01*
X191293412Y-96291557D01*
X191482816Y-96195051D01*
X191515304Y-96171447D01*
X191654786Y-96070109D01*
X191654788Y-96070106D01*
X191654792Y-96070104D01*
X191805104Y-95919792D01*
X191805106Y-95919788D01*
X191805109Y-95919786D01*
X191930048Y-95747820D01*
X191930047Y-95747820D01*
X191930051Y-95747816D01*
X192026557Y-95558412D01*
X192092246Y-95356243D01*
X192125500Y-95146287D01*
X192125500Y-94933713D01*
X192092246Y-94723757D01*
X192026557Y-94521588D01*
X191930051Y-94332184D01*
X191930049Y-94332181D01*
X191930048Y-94332179D01*
X191805109Y-94160213D01*
X191691569Y-94046673D01*
X191658084Y-93985350D01*
X191663068Y-93915658D01*
X191704940Y-93859725D01*
X191735915Y-93842810D01*
X191867331Y-93793796D01*
X191982546Y-93707546D01*
X192068796Y-93592331D01*
X192119091Y-93457483D01*
X192125500Y-93397873D01*
X192125499Y-91602128D01*
X192119091Y-91542517D01*
X192118897Y-91541998D01*
X192068797Y-91407671D01*
X192068793Y-91407664D01*
X191982547Y-91292455D01*
X191982544Y-91292452D01*
X191867335Y-91206206D01*
X191867328Y-91206202D01*
X191732482Y-91155908D01*
X191732483Y-91155908D01*
X191672883Y-91149501D01*
X191672881Y-91149500D01*
X191672873Y-91149500D01*
X191672865Y-91149500D01*
X191649500Y-91149500D01*
X191582461Y-91129815D01*
X191536706Y-91077011D01*
X191525500Y-91025500D01*
X191525500Y-89802220D01*
X191545185Y-89735181D01*
X191576614Y-89701902D01*
X191654792Y-89645104D01*
X191805104Y-89494792D01*
X191805106Y-89494788D01*
X191805109Y-89494786D01*
X191930048Y-89322820D01*
X191930047Y-89322820D01*
X191930051Y-89322816D01*
X192026557Y-89133412D01*
X192092246Y-88931243D01*
X192125500Y-88721287D01*
X192125500Y-88508713D01*
X192092246Y-88298757D01*
X192026557Y-88096588D01*
X191930051Y-87907184D01*
X191930049Y-87907181D01*
X191930048Y-87907179D01*
X191805109Y-87735213D01*
X191654786Y-87584890D01*
X191482820Y-87459951D01*
X191482115Y-87459591D01*
X191474054Y-87455485D01*
X191423259Y-87407512D01*
X191406463Y-87339692D01*
X191428999Y-87273556D01*
X191474054Y-87234515D01*
X191482816Y-87230051D01*
X191529473Y-87196153D01*
X191654786Y-87105109D01*
X191654788Y-87105106D01*
X191654792Y-87105104D01*
X191805104Y-86954792D01*
X191805106Y-86954788D01*
X191805109Y-86954786D01*
X191930048Y-86782820D01*
X191930047Y-86782820D01*
X191930051Y-86782816D01*
X192026557Y-86593412D01*
X192092246Y-86391243D01*
X192125500Y-86181287D01*
X192125500Y-85968713D01*
X192092246Y-85758757D01*
X192026557Y-85556588D01*
X191930051Y-85367184D01*
X191930049Y-85367181D01*
X191930048Y-85367179D01*
X191805109Y-85195213D01*
X191654786Y-85044890D01*
X191482820Y-84919951D01*
X191482115Y-84919591D01*
X191474054Y-84915485D01*
X191423259Y-84867512D01*
X191406463Y-84799692D01*
X191428999Y-84733556D01*
X191474054Y-84694515D01*
X191482816Y-84690051D01*
X191580771Y-84618883D01*
X191654786Y-84565109D01*
X191654788Y-84565106D01*
X191654792Y-84565104D01*
X191805104Y-84414792D01*
X191805106Y-84414788D01*
X191805109Y-84414786D01*
X191930048Y-84242820D01*
X191930047Y-84242820D01*
X191930051Y-84242816D01*
X192026557Y-84053412D01*
X192092246Y-83851243D01*
X192125500Y-83641287D01*
X192125500Y-83428713D01*
X192092246Y-83218757D01*
X192026557Y-83016588D01*
X191930051Y-82827184D01*
X191930049Y-82827181D01*
X191930048Y-82827179D01*
X191805109Y-82655213D01*
X191691569Y-82541673D01*
X191658084Y-82480350D01*
X191663068Y-82410658D01*
X191704940Y-82354725D01*
X191735915Y-82337810D01*
X191867331Y-82288796D01*
X191982546Y-82202546D01*
X192068796Y-82087331D01*
X192119091Y-81952483D01*
X192125500Y-81892873D01*
X192125499Y-80097128D01*
X192119091Y-80037517D01*
X192113052Y-80021326D01*
X192068797Y-79902671D01*
X192068793Y-79902664D01*
X191982547Y-79787455D01*
X191982544Y-79787452D01*
X191867335Y-79701206D01*
X191867328Y-79701202D01*
X191732482Y-79650908D01*
X191732483Y-79650908D01*
X191672883Y-79644501D01*
X191672881Y-79644500D01*
X191672873Y-79644500D01*
X191672864Y-79644500D01*
X189877129Y-79644500D01*
X189877123Y-79644501D01*
X189817516Y-79650908D01*
X189682671Y-79701202D01*
X189682664Y-79701206D01*
X189567455Y-79787452D01*
X189567452Y-79787455D01*
X189481206Y-79902664D01*
X189481202Y-79902671D01*
X189430908Y-80037517D01*
X189424501Y-80097116D01*
X189424501Y-80097123D01*
X189424500Y-80097135D01*
X189424500Y-81124901D01*
X189404815Y-81191940D01*
X189388181Y-81212582D01*
X188062584Y-82538181D01*
X188001261Y-82571666D01*
X187974903Y-82574500D01*
X179300943Y-82574500D01*
X179140366Y-82617526D01*
X179139851Y-82615607D01*
X179107671Y-82622000D01*
X178861611Y-82622000D01*
X178795073Y-82628046D01*
X178795063Y-82628048D01*
X178793984Y-82628385D01*
X178793318Y-82628395D01*
X178788639Y-82629327D01*
X178788469Y-82628475D01*
X178724124Y-82629531D01*
X178664734Y-82592726D01*
X178634671Y-82529655D01*
X178642545Y-82462538D01*
X178644735Y-82457251D01*
X178644737Y-82457247D01*
X178675500Y-82302592D01*
X178675500Y-82144908D01*
X178675500Y-82144905D01*
X178675499Y-82144903D01*
X178664047Y-82087331D01*
X178644737Y-81990253D01*
X178627183Y-81947873D01*
X178584397Y-81844577D01*
X178584390Y-81844564D01*
X178496789Y-81713461D01*
X178496786Y-81713457D01*
X178385292Y-81601963D01*
X178385288Y-81601960D01*
X178254185Y-81514359D01*
X178254172Y-81514352D01*
X178108501Y-81454014D01*
X178108489Y-81454011D01*
X177953845Y-81423250D01*
X177953842Y-81423250D01*
X177796158Y-81423250D01*
X177796155Y-81423250D01*
X177641510Y-81454011D01*
X177641498Y-81454014D01*
X177495827Y-81514352D01*
X177495814Y-81514359D01*
X177364711Y-81601960D01*
X177364707Y-81601963D01*
X177253213Y-81713457D01*
X177253210Y-81713461D01*
X177165609Y-81844564D01*
X177165602Y-81844577D01*
X177105264Y-81990248D01*
X177105261Y-81990260D01*
X177074500Y-82144903D01*
X177074500Y-82302596D01*
X177105261Y-82457239D01*
X177105264Y-82457251D01*
X177165602Y-82602922D01*
X177165609Y-82602935D01*
X177226178Y-82693582D01*
X177247056Y-82760259D01*
X177228572Y-82827640D01*
X177210759Y-82850152D01*
X177191247Y-82869664D01*
X177191242Y-82869670D01*
X177108267Y-83006929D01*
X177108265Y-83006933D01*
X177060548Y-83160065D01*
X177060548Y-83160067D01*
X177055215Y-83218757D01*
X177054500Y-83226621D01*
X177054500Y-83728388D01*
X177060546Y-83794926D01*
X177060548Y-83794933D01*
X177091297Y-83893610D01*
X177092449Y-83963470D01*
X177055648Y-84022862D01*
X176992579Y-84052930D01*
X176972912Y-84054500D01*
X173986692Y-84054500D01*
X173919653Y-84034815D01*
X173885119Y-84001625D01*
X173755047Y-83815861D01*
X173755045Y-83815858D01*
X173594141Y-83654954D01*
X173407734Y-83524432D01*
X173407728Y-83524429D01*
X173349725Y-83497382D01*
X173297285Y-83451210D01*
X173278133Y-83384017D01*
X173298348Y-83317135D01*
X173349725Y-83272618D01*
X173407734Y-83245568D01*
X173594139Y-83115047D01*
X173755047Y-82954139D01*
X173885568Y-82767734D01*
X173981739Y-82561496D01*
X174040635Y-82341692D01*
X174055500Y-82171784D01*
X174055500Y-82058216D01*
X174040635Y-81888308D01*
X173981739Y-81668504D01*
X173885568Y-81462266D01*
X173755047Y-81275861D01*
X173755045Y-81275858D01*
X173594141Y-81114954D01*
X173407734Y-80984432D01*
X173407732Y-80984431D01*
X173349725Y-80957382D01*
X173349132Y-80957105D01*
X173296694Y-80910934D01*
X173277542Y-80843740D01*
X173297758Y-80776859D01*
X173349134Y-80732341D01*
X173407484Y-80705132D01*
X173593820Y-80574657D01*
X173754657Y-80413820D01*
X173885134Y-80227482D01*
X173981265Y-80021326D01*
X173981269Y-80021317D01*
X174033872Y-79825000D01*
X169876128Y-79825000D01*
X169928730Y-80021317D01*
X169928734Y-80021326D01*
X170024865Y-80227482D01*
X170155342Y-80413820D01*
X170316179Y-80574657D01*
X170502518Y-80705134D01*
X170502520Y-80705135D01*
X170560865Y-80732342D01*
X170613305Y-80778514D01*
X170632457Y-80845707D01*
X170612242Y-80912589D01*
X170560867Y-80957105D01*
X170502268Y-80984431D01*
X170502264Y-80984433D01*
X170315858Y-81114954D01*
X170154954Y-81275858D01*
X170024432Y-81462265D01*
X170024431Y-81462267D01*
X169928261Y-81668502D01*
X169928258Y-81668511D01*
X169869366Y-81888302D01*
X169869364Y-81888312D01*
X169854500Y-82058214D01*
X169854500Y-82171785D01*
X169869364Y-82341687D01*
X169869366Y-82341697D01*
X169928258Y-82561488D01*
X169928261Y-82561497D01*
X170024431Y-82767732D01*
X170024432Y-82767734D01*
X170154954Y-82954141D01*
X170315858Y-83115045D01*
X170315861Y-83115047D01*
X170502266Y-83245568D01*
X170560275Y-83272618D01*
X170612714Y-83318791D01*
X170631866Y-83385984D01*
X170611650Y-83452865D01*
X170560275Y-83497382D01*
X170502267Y-83524431D01*
X170502265Y-83524432D01*
X170315858Y-83654954D01*
X170154954Y-83815858D01*
X170024432Y-84002265D01*
X170024431Y-84002267D01*
X169928261Y-84208502D01*
X169928258Y-84208511D01*
X169869366Y-84428302D01*
X169869364Y-84428312D01*
X169854500Y-84598214D01*
X169854500Y-84711785D01*
X169869364Y-84881687D01*
X169869366Y-84881697D01*
X169928258Y-85101488D01*
X169928261Y-85101497D01*
X170024431Y-85307732D01*
X170024432Y-85307734D01*
X170154954Y-85494141D01*
X170315857Y-85655044D01*
X170315860Y-85655046D01*
X170315861Y-85655047D01*
X170381844Y-85701248D01*
X170425469Y-85755824D01*
X170432663Y-85825322D01*
X170401141Y-85887677D01*
X170341391Y-85922970D01*
X170321780Y-85927975D01*
X170321766Y-85927980D01*
X170248280Y-85958419D01*
X170248252Y-85958431D01*
X170199451Y-85981779D01*
X170199446Y-85981782D01*
X170084268Y-86068005D01*
X170084256Y-86068015D01*
X170028019Y-86124252D01*
X169991843Y-86164524D01*
X169991837Y-86164532D01*
X169918426Y-86288263D01*
X169887978Y-86361774D01*
X169887970Y-86361795D01*
X169869976Y-86412800D01*
X169862315Y-86466088D01*
X169849501Y-86555215D01*
X169849500Y-86555219D01*
X169849500Y-87834784D01*
X169852395Y-87888814D01*
X169852396Y-87888818D01*
X169887976Y-88028221D01*
X169887980Y-88028233D01*
X169918419Y-88101719D01*
X169918431Y-88101747D01*
X169941779Y-88150548D01*
X169941781Y-88150551D01*
X170028006Y-88265733D01*
X170028010Y-88265737D01*
X170028015Y-88265743D01*
X170084252Y-88321980D01*
X170084261Y-88321988D01*
X170084267Y-88321994D01*
X170124524Y-88358156D01*
X170124532Y-88358162D01*
X170248263Y-88431573D01*
X170248262Y-88431573D01*
X170248279Y-88431580D01*
X170321774Y-88462022D01*
X170349662Y-88471860D01*
X170406332Y-88512725D01*
X170431913Y-88577743D01*
X170418283Y-88646271D01*
X170379531Y-88690371D01*
X170315856Y-88734956D01*
X170154954Y-88895858D01*
X170024432Y-89082265D01*
X170024431Y-89082267D01*
X169928261Y-89288502D01*
X169928258Y-89288511D01*
X169869366Y-89508302D01*
X169869364Y-89508312D01*
X169854500Y-89678214D01*
X169854500Y-89791785D01*
X169869364Y-89961687D01*
X169869366Y-89961697D01*
X169928258Y-90181488D01*
X169928261Y-90181497D01*
X170024431Y-90387732D01*
X170024432Y-90387734D01*
X170154954Y-90574141D01*
X170315858Y-90735045D01*
X170315861Y-90735047D01*
X170502266Y-90865568D01*
X170560275Y-90892618D01*
X170612714Y-90938791D01*
X170631866Y-91005984D01*
X170611650Y-91072865D01*
X170560275Y-91117382D01*
X170502267Y-91144431D01*
X170502265Y-91144432D01*
X170315858Y-91274954D01*
X170154954Y-91435858D01*
X170024432Y-91622265D01*
X170024431Y-91622267D01*
X169928261Y-91828502D01*
X169928258Y-91828511D01*
X169869366Y-92048302D01*
X169869364Y-92048312D01*
X169854500Y-92218214D01*
X169854500Y-92331785D01*
X169869364Y-92501687D01*
X169869366Y-92501697D01*
X169928258Y-92721488D01*
X169928261Y-92721497D01*
X170024431Y-92927732D01*
X170024432Y-92927734D01*
X170154954Y-93114141D01*
X170315858Y-93275045D01*
X170315861Y-93275047D01*
X170502266Y-93405568D01*
X170560275Y-93432618D01*
X170612714Y-93478791D01*
X170631866Y-93545984D01*
X170611650Y-93612865D01*
X170560275Y-93657381D01*
X170547431Y-93663371D01*
X170502267Y-93684431D01*
X170502265Y-93684432D01*
X170315858Y-93814954D01*
X170154954Y-93975858D01*
X170024432Y-94162265D01*
X170024431Y-94162267D01*
X169928261Y-94368502D01*
X169928258Y-94368511D01*
X169869366Y-94588302D01*
X169869364Y-94588312D01*
X169854500Y-94758214D01*
X169854500Y-94871785D01*
X169869364Y-95041687D01*
X169869366Y-95041697D01*
X169928258Y-95261488D01*
X169928261Y-95261497D01*
X170024431Y-95467732D01*
X170024432Y-95467734D01*
X170154954Y-95654141D01*
X170315858Y-95815045D01*
X170315861Y-95815047D01*
X170502266Y-95945568D01*
X170532952Y-95959877D01*
X170560275Y-95972618D01*
X170612714Y-96018791D01*
X170631866Y-96085984D01*
X170611650Y-96152865D01*
X170560275Y-96197382D01*
X170502267Y-96224431D01*
X170502265Y-96224432D01*
X170315858Y-96354954D01*
X170154954Y-96515858D01*
X170024432Y-96702265D01*
X170024431Y-96702267D01*
X169928261Y-96908502D01*
X169928258Y-96908511D01*
X169869366Y-97128302D01*
X169869364Y-97128312D01*
X169854500Y-97298214D01*
X169854500Y-97411785D01*
X169869364Y-97581687D01*
X169869366Y-97581697D01*
X169928258Y-97801488D01*
X169928261Y-97801497D01*
X170024431Y-98007732D01*
X170024432Y-98007734D01*
X170154954Y-98194141D01*
X170315857Y-98355044D01*
X170315860Y-98355046D01*
X170315861Y-98355047D01*
X170381844Y-98401248D01*
X170425469Y-98455824D01*
X170432663Y-98525322D01*
X170401141Y-98587677D01*
X170341391Y-98622970D01*
X170321780Y-98627975D01*
X170321766Y-98627980D01*
X170248280Y-98658419D01*
X170248252Y-98658431D01*
X170199451Y-98681779D01*
X170199446Y-98681782D01*
X170084268Y-98768005D01*
X170084256Y-98768015D01*
X170028019Y-98824252D01*
X169991843Y-98864524D01*
X169991837Y-98864532D01*
X169918426Y-98988263D01*
X169887978Y-99061774D01*
X169887970Y-99061795D01*
X169869976Y-99112800D01*
X169857269Y-99201181D01*
X169849501Y-99255215D01*
X169849500Y-99255219D01*
X169849500Y-100534784D01*
X169852395Y-100588814D01*
X169852396Y-100588818D01*
X169887976Y-100728221D01*
X169887980Y-100728233D01*
X169918419Y-100801719D01*
X169918431Y-100801747D01*
X169941779Y-100850548D01*
X169941782Y-100850553D01*
X169956781Y-100870589D01*
X170028006Y-100965733D01*
X170028010Y-100965737D01*
X170028015Y-100965743D01*
X170084252Y-101021980D01*
X170084261Y-101021988D01*
X170084267Y-101021994D01*
X170106158Y-101041658D01*
X170124524Y-101058156D01*
X170124532Y-101058162D01*
X170248263Y-101131573D01*
X170248262Y-101131573D01*
X170248279Y-101131580D01*
X170321774Y-101162022D01*
X170349662Y-101171860D01*
X170406332Y-101212725D01*
X170431913Y-101277743D01*
X170418283Y-101346271D01*
X170379531Y-101390371D01*
X170315856Y-101434956D01*
X170154954Y-101595858D01*
X170024432Y-101782265D01*
X170024431Y-101782267D01*
X169928261Y-101988502D01*
X169928258Y-101988511D01*
X169869366Y-102208302D01*
X169869364Y-102208312D01*
X169854500Y-102378214D01*
X169854500Y-102491785D01*
X169869364Y-102661687D01*
X169869366Y-102661697D01*
X169928258Y-102881488D01*
X169928261Y-102881497D01*
X170024431Y-103087732D01*
X170024432Y-103087734D01*
X170154954Y-103274141D01*
X170315858Y-103435045D01*
X170315861Y-103435047D01*
X170502266Y-103565568D01*
X170531440Y-103579172D01*
X170560275Y-103592618D01*
X170612714Y-103638791D01*
X170631866Y-103705984D01*
X170611650Y-103772865D01*
X170560275Y-103817382D01*
X170502267Y-103844431D01*
X170502265Y-103844432D01*
X170315858Y-103974954D01*
X170154954Y-104135858D01*
X170024432Y-104322265D01*
X170024431Y-104322267D01*
X169928261Y-104528502D01*
X169928258Y-104528511D01*
X169869366Y-104748302D01*
X169869364Y-104748312D01*
X169854500Y-104918214D01*
X169854500Y-105031785D01*
X169869364Y-105201687D01*
X169869366Y-105201697D01*
X169928258Y-105421488D01*
X169928261Y-105421497D01*
X170024431Y-105627732D01*
X170024432Y-105627734D01*
X170154954Y-105814141D01*
X170315858Y-105975045D01*
X170315861Y-105975047D01*
X170502266Y-106105568D01*
X170560275Y-106132618D01*
X170612714Y-106178791D01*
X170631866Y-106245984D01*
X170611650Y-106312865D01*
X170560275Y-106357382D01*
X170502267Y-106384431D01*
X170502265Y-106384432D01*
X170315858Y-106514954D01*
X170154954Y-106675858D01*
X170024432Y-106862265D01*
X170024431Y-106862267D01*
X169928261Y-107068502D01*
X169928258Y-107068511D01*
X169869366Y-107288302D01*
X169869364Y-107288312D01*
X169854500Y-107458214D01*
X169854500Y-107571785D01*
X169869364Y-107741687D01*
X169869366Y-107741697D01*
X169928258Y-107961488D01*
X169928261Y-107961497D01*
X170024431Y-108167732D01*
X170024432Y-108167734D01*
X170154954Y-108354141D01*
X170315858Y-108515045D01*
X170315861Y-108515047D01*
X170502266Y-108645568D01*
X170560275Y-108672618D01*
X170612714Y-108718791D01*
X170631866Y-108785984D01*
X170611650Y-108852865D01*
X170560275Y-108897382D01*
X170502267Y-108924431D01*
X170502265Y-108924432D01*
X170315858Y-109054954D01*
X170154954Y-109215858D01*
X170024432Y-109402265D01*
X170024431Y-109402267D01*
X169928261Y-109608502D01*
X169928258Y-109608511D01*
X169869366Y-109828302D01*
X169869364Y-109828312D01*
X169854500Y-109998214D01*
X169854500Y-110111785D01*
X169869364Y-110281687D01*
X169869366Y-110281697D01*
X169928258Y-110501488D01*
X169928261Y-110501497D01*
X170024431Y-110707732D01*
X170024432Y-110707734D01*
X170154954Y-110894141D01*
X170315857Y-111055044D01*
X170315860Y-111055046D01*
X170315861Y-111055047D01*
X170381844Y-111101248D01*
X170425469Y-111155824D01*
X170432663Y-111225322D01*
X170401141Y-111287677D01*
X170341391Y-111322970D01*
X170321780Y-111327975D01*
X170321766Y-111327980D01*
X170248280Y-111358419D01*
X170248252Y-111358431D01*
X170199451Y-111381779D01*
X170199446Y-111381782D01*
X170084268Y-111468005D01*
X170084256Y-111468015D01*
X170028019Y-111524252D01*
X169991843Y-111564524D01*
X169991837Y-111564532D01*
X169918426Y-111688263D01*
X169887978Y-111761774D01*
X169887970Y-111761795D01*
X169869976Y-111812800D01*
X169861105Y-111874500D01*
X169849501Y-111955215D01*
X169849500Y-111955219D01*
X169849500Y-113234784D01*
X169852395Y-113288814D01*
X169852396Y-113288818D01*
X169887976Y-113428221D01*
X169887980Y-113428233D01*
X169918419Y-113501719D01*
X169918431Y-113501747D01*
X169941779Y-113550548D01*
X169941782Y-113550553D01*
X169959213Y-113573837D01*
X170028006Y-113665733D01*
X170028010Y-113665737D01*
X170028015Y-113665743D01*
X170084252Y-113721980D01*
X170084261Y-113721988D01*
X170084267Y-113721994D01*
X170124524Y-113758156D01*
X170124532Y-113758162D01*
X170248263Y-113831573D01*
X170248262Y-113831573D01*
X170248279Y-113831580D01*
X170321774Y-113862022D01*
X170349662Y-113871860D01*
X170406332Y-113912725D01*
X170431913Y-113977743D01*
X170418283Y-114046271D01*
X170379531Y-114090371D01*
X170315856Y-114134956D01*
X170154954Y-114295858D01*
X170024432Y-114482265D01*
X170024431Y-114482267D01*
X169928261Y-114688502D01*
X169928258Y-114688511D01*
X169869366Y-114908302D01*
X169869364Y-114908312D01*
X169854500Y-115078214D01*
X169854500Y-115191785D01*
X169869364Y-115361687D01*
X169869366Y-115361697D01*
X169928258Y-115581488D01*
X169928261Y-115581497D01*
X170024431Y-115787732D01*
X170024432Y-115787734D01*
X170154954Y-115974141D01*
X170315858Y-116135045D01*
X170315861Y-116135047D01*
X170502266Y-116265568D01*
X170560275Y-116292618D01*
X170612714Y-116338791D01*
X170631866Y-116405984D01*
X170611650Y-116472865D01*
X170560275Y-116517382D01*
X170502267Y-116544431D01*
X170502265Y-116544432D01*
X170315858Y-116674954D01*
X170154954Y-116835858D01*
X170024432Y-117022265D01*
X170024431Y-117022267D01*
X169928261Y-117228502D01*
X169928258Y-117228511D01*
X169869366Y-117448302D01*
X169869364Y-117448312D01*
X169854500Y-117618214D01*
X169854500Y-117731785D01*
X169869364Y-117901687D01*
X169869366Y-117901697D01*
X169928258Y-118121488D01*
X169928261Y-118121497D01*
X170024431Y-118327732D01*
X170024432Y-118327734D01*
X170039937Y-118349877D01*
X170062264Y-118416083D01*
X170045254Y-118483850D01*
X169994306Y-118531663D01*
X169938362Y-118545000D01*
X165013825Y-118545000D01*
X164946786Y-118525315D01*
X164901031Y-118472511D01*
X164891087Y-118403353D01*
X164920112Y-118339797D01*
X164937769Y-118323064D01*
X166494845Y-117113845D01*
X169365000Y-114884895D01*
X169365000Y-110545000D01*
X155165000Y-110545000D01*
X155165000Y-114884895D01*
X159592231Y-118323064D01*
X159633106Y-118379730D01*
X159636855Y-118449499D01*
X159602290Y-118510220D01*
X159540383Y-118542614D01*
X159516175Y-118545000D01*
X154591638Y-118545000D01*
X154524599Y-118525315D01*
X154478844Y-118472511D01*
X154468900Y-118403353D01*
X154490063Y-118349877D01*
X154497121Y-118339797D01*
X154505568Y-118327734D01*
X154601739Y-118121496D01*
X154660635Y-117901692D01*
X154675500Y-117731784D01*
X154675500Y-117618216D01*
X154660635Y-117448308D01*
X154601739Y-117228504D01*
X154505568Y-117022266D01*
X154375047Y-116835861D01*
X154375045Y-116835858D01*
X154214141Y-116674954D01*
X154027734Y-116544432D01*
X154027728Y-116544429D01*
X153969725Y-116517382D01*
X153917285Y-116471210D01*
X153898133Y-116404017D01*
X153918348Y-116337135D01*
X153969725Y-116292618D01*
X154027734Y-116265568D01*
X154214139Y-116135047D01*
X154375047Y-115974139D01*
X154505568Y-115787734D01*
X154601739Y-115581496D01*
X154660635Y-115361692D01*
X154675500Y-115191784D01*
X154675500Y-115078216D01*
X154660635Y-114908308D01*
X154615916Y-114741415D01*
X154601741Y-114688511D01*
X154601738Y-114688502D01*
X154529925Y-114534500D01*
X154505568Y-114482266D01*
X154375047Y-114295861D01*
X154375045Y-114295858D01*
X154214141Y-114134954D01*
X154148155Y-114088751D01*
X154104530Y-114034175D01*
X154097336Y-113964677D01*
X154128858Y-113902322D01*
X154188612Y-113867028D01*
X154208226Y-113862022D01*
X154281735Y-113831574D01*
X154330551Y-113808219D01*
X154445733Y-113721994D01*
X154501994Y-113665733D01*
X154538157Y-113625475D01*
X154611574Y-113501735D01*
X154642022Y-113428226D01*
X154660024Y-113377198D01*
X154680500Y-113234782D01*
X154680500Y-111955218D01*
X154680392Y-111953211D01*
X154677604Y-111901185D01*
X154677603Y-111901181D01*
X154642023Y-111761778D01*
X154642019Y-111761766D01*
X154611580Y-111688280D01*
X154611568Y-111688252D01*
X154588220Y-111639451D01*
X154588217Y-111639446D01*
X154545715Y-111582671D01*
X154501994Y-111524267D01*
X154501989Y-111524262D01*
X154501984Y-111524256D01*
X154445747Y-111468019D01*
X154445731Y-111468005D01*
X154405475Y-111431843D01*
X154405467Y-111431837D01*
X154281736Y-111358426D01*
X154281737Y-111358426D01*
X154232729Y-111338127D01*
X154208226Y-111327978D01*
X154208215Y-111327974D01*
X154180337Y-111318139D01*
X154123666Y-111277272D01*
X154098085Y-111212253D01*
X154111717Y-111143726D01*
X154150467Y-111099629D01*
X154214139Y-111055047D01*
X154375047Y-110894139D01*
X154505568Y-110707734D01*
X154601739Y-110501496D01*
X154660635Y-110281692D01*
X154675500Y-110111784D01*
X154675500Y-109998216D01*
X154660635Y-109828308D01*
X154601739Y-109608504D01*
X154505568Y-109402266D01*
X154375047Y-109215861D01*
X154375045Y-109215858D01*
X154214141Y-109054954D01*
X154027734Y-108924432D01*
X154027728Y-108924429D01*
X153969725Y-108897382D01*
X153917285Y-108851210D01*
X153898133Y-108784017D01*
X153918348Y-108717135D01*
X153969725Y-108672618D01*
X154027734Y-108645568D01*
X154214139Y-108515047D01*
X154375047Y-108354139D01*
X154505568Y-108167734D01*
X154601739Y-107961496D01*
X154660635Y-107741692D01*
X154675500Y-107571784D01*
X154675500Y-107458216D01*
X154660635Y-107288308D01*
X154601739Y-107068504D01*
X154505568Y-106862266D01*
X154375047Y-106675861D01*
X154375045Y-106675858D01*
X154214141Y-106514954D01*
X154027734Y-106384432D01*
X154027728Y-106384429D01*
X153969725Y-106357382D01*
X153917285Y-106311210D01*
X153898133Y-106244017D01*
X153918348Y-106177135D01*
X153969725Y-106132618D01*
X154027734Y-106105568D01*
X154214139Y-105975047D01*
X154375047Y-105814139D01*
X154505568Y-105627734D01*
X154601739Y-105421496D01*
X154660635Y-105201692D01*
X154675500Y-105031784D01*
X154675500Y-104918216D01*
X154660635Y-104748308D01*
X154601739Y-104528504D01*
X154505568Y-104322266D01*
X154375047Y-104135861D01*
X154375045Y-104135858D01*
X154214141Y-103974954D01*
X154027734Y-103844432D01*
X154027728Y-103844429D01*
X153979176Y-103821789D01*
X153969724Y-103817381D01*
X153917285Y-103771210D01*
X153898133Y-103704017D01*
X153918348Y-103637135D01*
X153969725Y-103592618D01*
X154027734Y-103565568D01*
X154214139Y-103435047D01*
X154375047Y-103274139D01*
X154505568Y-103087734D01*
X154601739Y-102881496D01*
X154660635Y-102661692D01*
X154675500Y-102491784D01*
X154675500Y-102378216D01*
X154660635Y-102208308D01*
X154601739Y-101988504D01*
X154505568Y-101782266D01*
X154375047Y-101595861D01*
X154375045Y-101595858D01*
X154214141Y-101434954D01*
X154148155Y-101388751D01*
X154104530Y-101334175D01*
X154097336Y-101264677D01*
X154128858Y-101202322D01*
X154188612Y-101167028D01*
X154208226Y-101162022D01*
X154281735Y-101131574D01*
X154330551Y-101108219D01*
X154445733Y-101021994D01*
X154501994Y-100965733D01*
X154538157Y-100925475D01*
X154541450Y-100919926D01*
X154582612Y-100850548D01*
X154611574Y-100801735D01*
X154642022Y-100728226D01*
X154660024Y-100677198D01*
X154680500Y-100534782D01*
X154680500Y-99255218D01*
X154680392Y-99253211D01*
X154677604Y-99201185D01*
X154677603Y-99201181D01*
X154642023Y-99061778D01*
X154642019Y-99061766D01*
X154611580Y-98988280D01*
X154611568Y-98988252D01*
X154588220Y-98939451D01*
X154588217Y-98939446D01*
X154566904Y-98910976D01*
X154501994Y-98824267D01*
X154501989Y-98824262D01*
X154501984Y-98824256D01*
X154445747Y-98768019D01*
X154445731Y-98768005D01*
X154405475Y-98731843D01*
X154394747Y-98725478D01*
X154343911Y-98695316D01*
X154343910Y-98695315D01*
X154281735Y-98658426D01*
X154208226Y-98627978D01*
X154174582Y-98616109D01*
X154169052Y-98613522D01*
X154147249Y-98594278D01*
X154139078Y-98588386D01*
X161548600Y-98588386D01*
X161548600Y-99901613D01*
X161555013Y-99972192D01*
X161555013Y-99972194D01*
X161555014Y-99972196D01*
X161605622Y-100134606D01*
X161677910Y-100254185D01*
X161693630Y-100280188D01*
X161813911Y-100400469D01*
X161813913Y-100400470D01*
X161813915Y-100400472D01*
X161959494Y-100488478D01*
X162121904Y-100539086D01*
X162192484Y-100545500D01*
X162192487Y-100545500D01*
X163505713Y-100545500D01*
X163505716Y-100545500D01*
X163576296Y-100539086D01*
X163738706Y-100488478D01*
X163884285Y-100400472D01*
X164004572Y-100280185D01*
X164092578Y-100134606D01*
X164119741Y-100047433D01*
X164158477Y-99989288D01*
X164222502Y-99961313D01*
X164291488Y-99972394D01*
X164338444Y-100011440D01*
X164397128Y-100092212D01*
X164397132Y-100092217D01*
X164541886Y-100236971D01*
X164696849Y-100349556D01*
X164707490Y-100357287D01*
X164823707Y-100416503D01*
X164889876Y-100450218D01*
X164889878Y-100450218D01*
X164889881Y-100450220D01*
X164994237Y-100484127D01*
X165084565Y-100513477D01*
X165172528Y-100527409D01*
X165286748Y-100545500D01*
X165286749Y-100545500D01*
X165491451Y-100545500D01*
X165491452Y-100545500D01*
X165693634Y-100513477D01*
X165888319Y-100450220D01*
X166070710Y-100357287D01*
X166212619Y-100254185D01*
X166236313Y-100236971D01*
X166236315Y-100236968D01*
X166236319Y-100236966D01*
X166381066Y-100092219D01*
X166381068Y-100092215D01*
X166381071Y-100092213D01*
X166501384Y-99926614D01*
X166501385Y-99926613D01*
X166501387Y-99926610D01*
X166548616Y-99833917D01*
X166596589Y-99783123D01*
X166664410Y-99766328D01*
X166730545Y-99788865D01*
X166769583Y-99833917D01*
X166803160Y-99899815D01*
X166816815Y-99926614D01*
X166937128Y-100092213D01*
X167081886Y-100236971D01*
X167236849Y-100349556D01*
X167247490Y-100357287D01*
X167363707Y-100416503D01*
X167429876Y-100450218D01*
X167429878Y-100450218D01*
X167429881Y-100450220D01*
X167534237Y-100484127D01*
X167624565Y-100513477D01*
X167712528Y-100527409D01*
X167826748Y-100545500D01*
X167826749Y-100545500D01*
X168031451Y-100545500D01*
X168031452Y-100545500D01*
X168233634Y-100513477D01*
X168428319Y-100450220D01*
X168610710Y-100357287D01*
X168752619Y-100254185D01*
X168776313Y-100236971D01*
X168776315Y-100236968D01*
X168776319Y-100236966D01*
X168921066Y-100092219D01*
X168921068Y-100092215D01*
X168921071Y-100092213D01*
X169008270Y-99972192D01*
X169041387Y-99926610D01*
X169134320Y-99744219D01*
X169197577Y-99549534D01*
X169229600Y-99347352D01*
X169229600Y-99142648D01*
X169205148Y-98988265D01*
X169197577Y-98940465D01*
X169159740Y-98824017D01*
X169134320Y-98745781D01*
X169134318Y-98745778D01*
X169134318Y-98745776D01*
X169094990Y-98668591D01*
X169041387Y-98563390D01*
X169018086Y-98531319D01*
X168921071Y-98397786D01*
X168776313Y-98253028D01*
X168610713Y-98132715D01*
X168610712Y-98132714D01*
X168610710Y-98132713D01*
X168502977Y-98077820D01*
X168428323Y-98039781D01*
X168233634Y-97976522D01*
X168059095Y-97948878D01*
X168031452Y-97944500D01*
X167826748Y-97944500D01*
X167802429Y-97948351D01*
X167624565Y-97976522D01*
X167429876Y-98039781D01*
X167247486Y-98132715D01*
X167081886Y-98253028D01*
X166937128Y-98397786D01*
X166816815Y-98563386D01*
X166769585Y-98656080D01*
X166721610Y-98706876D01*
X166653789Y-98723671D01*
X166587654Y-98701134D01*
X166548615Y-98656080D01*
X166534296Y-98627978D01*
X166501387Y-98563390D01*
X166478086Y-98531319D01*
X166381071Y-98397786D01*
X166236313Y-98253028D01*
X166070713Y-98132715D01*
X166070712Y-98132714D01*
X166070710Y-98132713D01*
X165962977Y-98077820D01*
X165888323Y-98039781D01*
X165693634Y-97976522D01*
X165519095Y-97948878D01*
X165491452Y-97944500D01*
X165286748Y-97944500D01*
X165262429Y-97948351D01*
X165084565Y-97976522D01*
X164889876Y-98039781D01*
X164707486Y-98132715D01*
X164541886Y-98253028D01*
X164397132Y-98397782D01*
X164338444Y-98478560D01*
X164283114Y-98521225D01*
X164213500Y-98527204D01*
X164151706Y-98494598D01*
X164119741Y-98442566D01*
X164092578Y-98355394D01*
X164004572Y-98209815D01*
X164004570Y-98209813D01*
X164004569Y-98209811D01*
X163884288Y-98089530D01*
X163864917Y-98077820D01*
X163738706Y-98001522D01*
X163576296Y-97950914D01*
X163576294Y-97950913D01*
X163576292Y-97950913D01*
X163526878Y-97946423D01*
X163505716Y-97944500D01*
X162192484Y-97944500D01*
X162173245Y-97946248D01*
X162121907Y-97950913D01*
X161959493Y-98001522D01*
X161813911Y-98089530D01*
X161693630Y-98209811D01*
X161605622Y-98355393D01*
X161555013Y-98517807D01*
X161548600Y-98588386D01*
X154139078Y-98588386D01*
X154123666Y-98577272D01*
X154121370Y-98571437D01*
X154116668Y-98567287D01*
X154108730Y-98539310D01*
X154098085Y-98512253D01*
X154099308Y-98506102D01*
X154097597Y-98500070D01*
X154106043Y-98472246D01*
X154111717Y-98443726D01*
X154116276Y-98438537D01*
X154117893Y-98433213D01*
X154130021Y-98422895D01*
X154150467Y-98399629D01*
X154214139Y-98355047D01*
X154375047Y-98194139D01*
X154505568Y-98007734D01*
X154601739Y-97801496D01*
X154660635Y-97581692D01*
X154675500Y-97411784D01*
X154675500Y-97298216D01*
X154660635Y-97128308D01*
X154601739Y-96908504D01*
X154505568Y-96702266D01*
X154375047Y-96515861D01*
X154375045Y-96515858D01*
X154214141Y-96354954D01*
X154027734Y-96224432D01*
X154027728Y-96224429D01*
X153969725Y-96197382D01*
X153917285Y-96151210D01*
X153898133Y-96084017D01*
X153918348Y-96017135D01*
X153969725Y-95972618D01*
X154027734Y-95945568D01*
X154214139Y-95815047D01*
X154375047Y-95654139D01*
X154505568Y-95467734D01*
X154601739Y-95261496D01*
X154660635Y-95041692D01*
X154675500Y-94871784D01*
X154675500Y-94758216D01*
X154660635Y-94588308D01*
X154613813Y-94413566D01*
X154601741Y-94368511D01*
X154601738Y-94368502D01*
X154588758Y-94340667D01*
X154505568Y-94162266D01*
X154375047Y-93975861D01*
X154375045Y-93975858D01*
X154214141Y-93814954D01*
X154027734Y-93684432D01*
X154027728Y-93684429D01*
X153982569Y-93663371D01*
X153969724Y-93657381D01*
X153917285Y-93611210D01*
X153898133Y-93544017D01*
X153918348Y-93477135D01*
X153969725Y-93432618D01*
X154027734Y-93405568D01*
X154214139Y-93275047D01*
X154375047Y-93114139D01*
X154505568Y-92927734D01*
X154601739Y-92721496D01*
X154660635Y-92501692D01*
X154675500Y-92331784D01*
X154675500Y-92218216D01*
X154660635Y-92048308D01*
X154601739Y-91828504D01*
X154505568Y-91622266D01*
X154375047Y-91435861D01*
X154375045Y-91435858D01*
X154214141Y-91274954D01*
X154027734Y-91144432D01*
X154027728Y-91144429D01*
X153969725Y-91117382D01*
X153917285Y-91071210D01*
X153898133Y-91004017D01*
X153918348Y-90937135D01*
X153969725Y-90892618D01*
X154027734Y-90865568D01*
X154214139Y-90735047D01*
X154375047Y-90574139D01*
X154505568Y-90387734D01*
X154601739Y-90181496D01*
X154660635Y-89961692D01*
X154675500Y-89791784D01*
X154675500Y-89678216D01*
X154660635Y-89508308D01*
X154601739Y-89288504D01*
X154505568Y-89082266D01*
X154375047Y-88895861D01*
X154375045Y-88895858D01*
X154214141Y-88734954D01*
X154148155Y-88688751D01*
X154104530Y-88634175D01*
X154097336Y-88564677D01*
X154128858Y-88502322D01*
X154188612Y-88467028D01*
X154208226Y-88462022D01*
X154281735Y-88431574D01*
X154330551Y-88408219D01*
X154445733Y-88321994D01*
X154501994Y-88265733D01*
X154538157Y-88225475D01*
X154611574Y-88101735D01*
X154642022Y-88028226D01*
X154660024Y-87977198D01*
X154680500Y-87834782D01*
X154680500Y-86555218D01*
X154680208Y-86549779D01*
X154677604Y-86501185D01*
X154677603Y-86501181D01*
X154642023Y-86361778D01*
X154642019Y-86361766D01*
X154611580Y-86288280D01*
X154611568Y-86288252D01*
X154588220Y-86239451D01*
X154588217Y-86239446D01*
X154523718Y-86153287D01*
X154501994Y-86124267D01*
X154501989Y-86124262D01*
X154501984Y-86124256D01*
X154445747Y-86068019D01*
X154445731Y-86068005D01*
X154405475Y-86031843D01*
X154405467Y-86031837D01*
X154281736Y-85958426D01*
X154281737Y-85958426D01*
X154227115Y-85935802D01*
X154208226Y-85927978D01*
X154208215Y-85927974D01*
X154180337Y-85918139D01*
X154123666Y-85877272D01*
X154098085Y-85812253D01*
X154111717Y-85743726D01*
X154150467Y-85699629D01*
X154214139Y-85655047D01*
X154375047Y-85494139D01*
X154505568Y-85307734D01*
X154601739Y-85101496D01*
X154660635Y-84881692D01*
X154675500Y-84711784D01*
X154675500Y-84598216D01*
X154660635Y-84428308D01*
X154601739Y-84208504D01*
X154505568Y-84002266D01*
X154375047Y-83815861D01*
X154375045Y-83815858D01*
X154214141Y-83654954D01*
X154027734Y-83524432D01*
X154027728Y-83524429D01*
X153969725Y-83497382D01*
X153917285Y-83451210D01*
X153898133Y-83384017D01*
X153918348Y-83317135D01*
X153969725Y-83272618D01*
X154027734Y-83245568D01*
X154214139Y-83115047D01*
X154375047Y-82954139D01*
X154505568Y-82767734D01*
X154601739Y-82561496D01*
X154660635Y-82341692D01*
X154675500Y-82171784D01*
X154675500Y-82058216D01*
X154660635Y-81888308D01*
X154601739Y-81668504D01*
X154505568Y-81462266D01*
X154375047Y-81275861D01*
X154375045Y-81275858D01*
X154214141Y-81114954D01*
X154027734Y-80984432D01*
X154027728Y-80984429D01*
X153969725Y-80957382D01*
X153917285Y-80911210D01*
X153898133Y-80844017D01*
X153918348Y-80777135D01*
X153969725Y-80732618D01*
X153970319Y-80732341D01*
X154027734Y-80705568D01*
X154214139Y-80575047D01*
X154375047Y-80414139D01*
X154505568Y-80227734D01*
X154601739Y-80021496D01*
X154660635Y-79801692D01*
X154675500Y-79631784D01*
X154675500Y-79518216D01*
X154660635Y-79348308D01*
X154601739Y-79128504D01*
X154505568Y-78922266D01*
X154375047Y-78735861D01*
X154375045Y-78735858D01*
X154214141Y-78574954D01*
X154027734Y-78444432D01*
X154027728Y-78444429D01*
X153969725Y-78417382D01*
X153917285Y-78371210D01*
X153898133Y-78304017D01*
X153918348Y-78237135D01*
X153969725Y-78192618D01*
X154027734Y-78165568D01*
X154214139Y-78035047D01*
X154375047Y-77874139D01*
X154505568Y-77687734D01*
X154601739Y-77481496D01*
X154660635Y-77261692D01*
X154675500Y-77091784D01*
X154675500Y-76978216D01*
X154660635Y-76808308D01*
X154601739Y-76588504D01*
X154505568Y-76382266D01*
X154375047Y-76195861D01*
X154375045Y-76195858D01*
X154214141Y-76034954D01*
X154148155Y-75988751D01*
X154104530Y-75934175D01*
X154097336Y-75864677D01*
X154128858Y-75802322D01*
X154188612Y-75767028D01*
X154208226Y-75762022D01*
X154281735Y-75731574D01*
X154330551Y-75708219D01*
X154445733Y-75621994D01*
X154472728Y-75594999D01*
X158815000Y-75594999D01*
X158815000Y-82995000D01*
X158817138Y-83060541D01*
X158817138Y-83060544D01*
X158817139Y-83060545D01*
X158851068Y-83187167D01*
X158916612Y-83300694D01*
X159009306Y-83393388D01*
X159122833Y-83458932D01*
X159249455Y-83492861D01*
X159315000Y-83495000D01*
X160215000Y-83495000D01*
X160280545Y-83492861D01*
X160407167Y-83458932D01*
X160520694Y-83393388D01*
X160613388Y-83300694D01*
X160678932Y-83187167D01*
X160712861Y-83060545D01*
X160715000Y-82995000D01*
X160715000Y-79295000D01*
X160715000Y-75595000D01*
X160712861Y-75529455D01*
X160678933Y-75402833D01*
X160613388Y-75289306D01*
X160520694Y-75196612D01*
X160407167Y-75131067D01*
X160280545Y-75097139D01*
X160215000Y-75095000D01*
X159315000Y-75095000D01*
X159249455Y-75097139D01*
X159122833Y-75131067D01*
X159122831Y-75131067D01*
X159122831Y-75131068D01*
X159009306Y-75196612D01*
X159009303Y-75196614D01*
X158916614Y-75289303D01*
X158916612Y-75289306D01*
X158851068Y-75402831D01*
X158817139Y-75529455D01*
X158815000Y-75594999D01*
X154472728Y-75594999D01*
X154501994Y-75565733D01*
X154538157Y-75525475D01*
X154611574Y-75401735D01*
X154642022Y-75328226D01*
X154660024Y-75277198D01*
X154680500Y-75134782D01*
X154680500Y-73855219D01*
X169849500Y-73855219D01*
X169849500Y-75134784D01*
X169852395Y-75188814D01*
X169852396Y-75188818D01*
X169887976Y-75328221D01*
X169887980Y-75328233D01*
X169918419Y-75401719D01*
X169918431Y-75401747D01*
X169941779Y-75450548D01*
X169941781Y-75450551D01*
X170028006Y-75565733D01*
X170028010Y-75565737D01*
X170028015Y-75565743D01*
X170084252Y-75621980D01*
X170084261Y-75621988D01*
X170084267Y-75621994D01*
X170104782Y-75640422D01*
X170124524Y-75658156D01*
X170124532Y-75658162D01*
X170248263Y-75731573D01*
X170248262Y-75731573D01*
X170248279Y-75731580D01*
X170321774Y-75762022D01*
X170349662Y-75771860D01*
X170406332Y-75812725D01*
X170431913Y-75877743D01*
X170418283Y-75946271D01*
X170379531Y-75990371D01*
X170315856Y-76034956D01*
X170154954Y-76195858D01*
X170024432Y-76382265D01*
X170024431Y-76382267D01*
X169928261Y-76588502D01*
X169928258Y-76588511D01*
X169869366Y-76808302D01*
X169869364Y-76808312D01*
X169854500Y-76978214D01*
X169854500Y-77091785D01*
X169869364Y-77261687D01*
X169869366Y-77261697D01*
X169928258Y-77481488D01*
X169928261Y-77481497D01*
X170024431Y-77687732D01*
X170024432Y-77687734D01*
X170154954Y-77874141D01*
X170315858Y-78035045D01*
X170315861Y-78035047D01*
X170502266Y-78165568D01*
X170560865Y-78192893D01*
X170613305Y-78239065D01*
X170632457Y-78306258D01*
X170612242Y-78373139D01*
X170560867Y-78417657D01*
X170502515Y-78444867D01*
X170316179Y-78575342D01*
X170155342Y-78736179D01*
X170024865Y-78922517D01*
X169928734Y-79128673D01*
X169928730Y-79128682D01*
X169876127Y-79324999D01*
X169876128Y-79325000D01*
X174033872Y-79325000D01*
X174033872Y-79324999D01*
X173981269Y-79128682D01*
X173981265Y-79128673D01*
X173885134Y-78922517D01*
X173754657Y-78736179D01*
X173593820Y-78575342D01*
X173407482Y-78444865D01*
X173349133Y-78417657D01*
X173296694Y-78371484D01*
X173277542Y-78304291D01*
X173297758Y-78237410D01*
X173349129Y-78192895D01*
X173407734Y-78165568D01*
X173594139Y-78035047D01*
X173755047Y-77874139D01*
X173885568Y-77687734D01*
X173981739Y-77481496D01*
X174040635Y-77261692D01*
X174055500Y-77091784D01*
X174055500Y-76978216D01*
X174040635Y-76808308D01*
X173981739Y-76588504D01*
X173885568Y-76382266D01*
X173755047Y-76195861D01*
X173755045Y-76195858D01*
X173594141Y-76034954D01*
X173407734Y-75904432D01*
X173407732Y-75904431D01*
X173356343Y-75880468D01*
X173303904Y-75834295D01*
X173284752Y-75767102D01*
X173304968Y-75700221D01*
X173350293Y-75658729D01*
X173414783Y-75624259D01*
X173545811Y-75536709D01*
X173622412Y-75473843D01*
X173733843Y-75362412D01*
X173796709Y-75285811D01*
X173848425Y-75208412D01*
X173885951Y-75152252D01*
X173886830Y-75152839D01*
X173935040Y-75108364D01*
X173990038Y-75095500D01*
X175625166Y-75095500D01*
X175692205Y-75115185D01*
X175694057Y-75116398D01*
X175795814Y-75184390D01*
X175795827Y-75184397D01*
X175938425Y-75243462D01*
X175941503Y-75244737D01*
X176096153Y-75275499D01*
X176096156Y-75275500D01*
X176096158Y-75275500D01*
X176253844Y-75275500D01*
X176253845Y-75275499D01*
X176408497Y-75244737D01*
X176524682Y-75196612D01*
X176554172Y-75184397D01*
X176554172Y-75184396D01*
X176554179Y-75184394D01*
X176685289Y-75096789D01*
X176796789Y-74985289D01*
X176884394Y-74854179D01*
X176944737Y-74708497D01*
X176975500Y-74553842D01*
X176975500Y-74396158D01*
X176975500Y-74396155D01*
X176975499Y-74396153D01*
X176966418Y-74350499D01*
X176944737Y-74241503D01*
X176944732Y-74241492D01*
X176942969Y-74235676D01*
X176945078Y-74235036D01*
X176938665Y-74175418D01*
X176969935Y-74112937D01*
X177030021Y-74077280D01*
X177099847Y-74079769D01*
X177148377Y-74109745D01*
X177231344Y-74192712D01*
X177380666Y-74284814D01*
X177547203Y-74339999D01*
X177649991Y-74350500D01*
X179100008Y-74350499D01*
X179202797Y-74339999D01*
X179369334Y-74284814D01*
X179518656Y-74192712D01*
X179642712Y-74068656D01*
X179734814Y-73919334D01*
X179789999Y-73752797D01*
X179800500Y-73650009D01*
X179800499Y-70299992D01*
X179800498Y-70299983D01*
X181499500Y-70299983D01*
X181499500Y-73650001D01*
X181499501Y-73650018D01*
X181510000Y-73752796D01*
X181510001Y-73752799D01*
X181556018Y-73891666D01*
X181565186Y-73919334D01*
X181657288Y-74068656D01*
X181781344Y-74192712D01*
X181930666Y-74284814D01*
X182097203Y-74339999D01*
X182199991Y-74350500D01*
X182662720Y-74350499D01*
X182729759Y-74370183D01*
X182746433Y-74383620D01*
X182746584Y-74383447D01*
X182749927Y-74386344D01*
X182749930Y-74386347D01*
X182858664Y-74480567D01*
X182858667Y-74480568D01*
X182858668Y-74480569D01*
X182952925Y-74523616D01*
X182989541Y-74540338D01*
X183056580Y-74560023D01*
X183056584Y-74560024D01*
X183199000Y-74580500D01*
X183199003Y-74580500D01*
X185450990Y-74580500D01*
X185451000Y-74580500D01*
X185558456Y-74568947D01*
X185609967Y-74557741D01*
X185644197Y-74546347D01*
X185712497Y-74523616D01*
X185712501Y-74523613D01*
X185712504Y-74523613D01*
X185833543Y-74445825D01*
X185886347Y-74400070D01*
X185980567Y-74291336D01*
X186040338Y-74160459D01*
X186060023Y-74093420D01*
X186060024Y-74093416D01*
X186080500Y-73951000D01*
X186080500Y-70349038D01*
X188274500Y-70349038D01*
X188274500Y-70600962D01*
X188308804Y-70817546D01*
X188313910Y-70849785D01*
X188391760Y-71089383D01*
X188470413Y-71243747D01*
X188500230Y-71302266D01*
X188506132Y-71313848D01*
X188654201Y-71517649D01*
X188654205Y-71517654D01*
X188832345Y-71695794D01*
X188832350Y-71695798D01*
X188950015Y-71781286D01*
X189036155Y-71843870D01*
X189151873Y-71902831D01*
X189260616Y-71958239D01*
X189260618Y-71958239D01*
X189260621Y-71958241D01*
X189500215Y-72036090D01*
X189749038Y-72075500D01*
X189749039Y-72075500D01*
X190000961Y-72075500D01*
X190000962Y-72075500D01*
X190249785Y-72036090D01*
X190489379Y-71958241D01*
X190713845Y-71843870D01*
X190917656Y-71695793D01*
X191095793Y-71517656D01*
X191243870Y-71313845D01*
X191358241Y-71089379D01*
X191436090Y-70849785D01*
X191475500Y-70600962D01*
X191475500Y-70349038D01*
X191436090Y-70100215D01*
X191358241Y-69860621D01*
X191358239Y-69860618D01*
X191358239Y-69860616D01*
X191300329Y-69746962D01*
X191243870Y-69636155D01*
X191212629Y-69593155D01*
X191095798Y-69432350D01*
X191095794Y-69432345D01*
X190917654Y-69254205D01*
X190917649Y-69254201D01*
X190713848Y-69106132D01*
X190713847Y-69106131D01*
X190713845Y-69106130D01*
X190643747Y-69070413D01*
X190489383Y-68991760D01*
X190249785Y-68913910D01*
X190000962Y-68874500D01*
X189749038Y-68874500D01*
X189624626Y-68894205D01*
X189500214Y-68913910D01*
X189260616Y-68991760D01*
X189036151Y-69106132D01*
X188832350Y-69254201D01*
X188832345Y-69254205D01*
X188654205Y-69432345D01*
X188654201Y-69432350D01*
X188506132Y-69636151D01*
X188391760Y-69860616D01*
X188313910Y-70100214D01*
X188274500Y-70349038D01*
X186080500Y-70349038D01*
X186080500Y-70199000D01*
X186068947Y-70091544D01*
X186057741Y-70040033D01*
X186054622Y-70030663D01*
X186023616Y-69937502D01*
X186023613Y-69937496D01*
X186000908Y-69902167D01*
X185945825Y-69816457D01*
X185945820Y-69816451D01*
X185900076Y-69763659D01*
X185900072Y-69763656D01*
X185900070Y-69763653D01*
X185791336Y-69669433D01*
X185791333Y-69669431D01*
X185791331Y-69669430D01*
X185660465Y-69609664D01*
X185660460Y-69609662D01*
X185660459Y-69609662D01*
X185601662Y-69592397D01*
X185593417Y-69589976D01*
X185531347Y-69581052D01*
X185451000Y-69569500D01*
X183199000Y-69569500D01*
X183198991Y-69569500D01*
X183198990Y-69569501D01*
X183091549Y-69581052D01*
X183091541Y-69581053D01*
X183040027Y-69592260D01*
X183040025Y-69592261D01*
X183037340Y-69593155D01*
X182998182Y-69599500D01*
X182199998Y-69599500D01*
X182199980Y-69599501D01*
X182097203Y-69610000D01*
X182097200Y-69610001D01*
X181930668Y-69665185D01*
X181930663Y-69665187D01*
X181781342Y-69757289D01*
X181657289Y-69881342D01*
X181565187Y-70030663D01*
X181565185Y-70030668D01*
X181552903Y-70067734D01*
X181510001Y-70197203D01*
X181510001Y-70197204D01*
X181510000Y-70197204D01*
X181499500Y-70299983D01*
X179800498Y-70299983D01*
X179798703Y-70282414D01*
X179789999Y-70197203D01*
X179789998Y-70197200D01*
X179782287Y-70173931D01*
X179734814Y-70030666D01*
X179642712Y-69881344D01*
X179518656Y-69757288D01*
X179425888Y-69700069D01*
X179369336Y-69665187D01*
X179369331Y-69665185D01*
X179367862Y-69664698D01*
X179202797Y-69610001D01*
X179202795Y-69610000D01*
X179100010Y-69599500D01*
X177649998Y-69599500D01*
X177649981Y-69599501D01*
X177547203Y-69610000D01*
X177547200Y-69610001D01*
X177380668Y-69665185D01*
X177380663Y-69665187D01*
X177231342Y-69757289D01*
X177107289Y-69881342D01*
X177015187Y-70030663D01*
X177015185Y-70030668D01*
X177002903Y-70067734D01*
X176960001Y-70197203D01*
X176960001Y-70197204D01*
X176960000Y-70197204D01*
X176949500Y-70299983D01*
X176949500Y-70830500D01*
X176929815Y-70897539D01*
X176877011Y-70943294D01*
X176825500Y-70954500D01*
X173632588Y-70954500D01*
X173565549Y-70934815D01*
X173561465Y-70932075D01*
X173530468Y-70910371D01*
X173407734Y-70824432D01*
X173349724Y-70797381D01*
X173297285Y-70751210D01*
X173278133Y-70684017D01*
X173298348Y-70617135D01*
X173349725Y-70572618D01*
X173360737Y-70567483D01*
X173407734Y-70545568D01*
X173594139Y-70415047D01*
X173755047Y-70254139D01*
X173885568Y-70067734D01*
X173981739Y-69861496D01*
X174040635Y-69641692D01*
X174055500Y-69471784D01*
X174055500Y-69358216D01*
X174040635Y-69188308D01*
X173981739Y-68968504D01*
X173885568Y-68762266D01*
X173755047Y-68575861D01*
X173755045Y-68575858D01*
X173594141Y-68414954D01*
X173407734Y-68284432D01*
X173407732Y-68284431D01*
X173201497Y-68188261D01*
X173201488Y-68188258D01*
X172981697Y-68129366D01*
X172981687Y-68129364D01*
X172811785Y-68114500D01*
X172811784Y-68114500D01*
X171098216Y-68114500D01*
X171098215Y-68114500D01*
X170928312Y-68129364D01*
X170928302Y-68129366D01*
X170708511Y-68188258D01*
X170708502Y-68188261D01*
X170502267Y-68284431D01*
X170502265Y-68284432D01*
X170315858Y-68414954D01*
X170154954Y-68575858D01*
X170024432Y-68762265D01*
X170024431Y-68762267D01*
X169928261Y-68968502D01*
X169928258Y-68968511D01*
X169869366Y-69188302D01*
X169869364Y-69188312D01*
X169854500Y-69358214D01*
X169854500Y-69471785D01*
X169869364Y-69641687D01*
X169869366Y-69641697D01*
X169928258Y-69861488D01*
X169928261Y-69861497D01*
X170024431Y-70067732D01*
X170024432Y-70067734D01*
X170154954Y-70254141D01*
X170315858Y-70415045D01*
X170315861Y-70415047D01*
X170502266Y-70545568D01*
X170549263Y-70567483D01*
X170560275Y-70572618D01*
X170612714Y-70618791D01*
X170631866Y-70685984D01*
X170611650Y-70752865D01*
X170560275Y-70797381D01*
X170553657Y-70800468D01*
X170502267Y-70824431D01*
X170502265Y-70824432D01*
X170315858Y-70954954D01*
X170154954Y-71115858D01*
X170024432Y-71302265D01*
X170024431Y-71302267D01*
X169928261Y-71508502D01*
X169928258Y-71508511D01*
X169869366Y-71728302D01*
X169869364Y-71728312D01*
X169854500Y-71898214D01*
X169854500Y-72011785D01*
X169869364Y-72181687D01*
X169869366Y-72181697D01*
X169928258Y-72401488D01*
X169928261Y-72401497D01*
X170024431Y-72607732D01*
X170024432Y-72607734D01*
X170154954Y-72794141D01*
X170315857Y-72955044D01*
X170315860Y-72955046D01*
X170315861Y-72955047D01*
X170381844Y-73001248D01*
X170425469Y-73055824D01*
X170432663Y-73125322D01*
X170401141Y-73187677D01*
X170341391Y-73222970D01*
X170321780Y-73227975D01*
X170321766Y-73227980D01*
X170248280Y-73258419D01*
X170248252Y-73258431D01*
X170199451Y-73281779D01*
X170199446Y-73281782D01*
X170084268Y-73368005D01*
X170084256Y-73368015D01*
X170028019Y-73424252D01*
X169991843Y-73464524D01*
X169991837Y-73464532D01*
X169918426Y-73588263D01*
X169887978Y-73661774D01*
X169887970Y-73661795D01*
X169869976Y-73712800D01*
X169859855Y-73783194D01*
X169849501Y-73855215D01*
X169849500Y-73855219D01*
X154680500Y-73855219D01*
X154680500Y-73855218D01*
X154680392Y-73853211D01*
X154677604Y-73801185D01*
X154677603Y-73801181D01*
X154642023Y-73661778D01*
X154642019Y-73661766D01*
X154611580Y-73588280D01*
X154611568Y-73588252D01*
X154588220Y-73539451D01*
X154588217Y-73539446D01*
X154566904Y-73510976D01*
X154501994Y-73424267D01*
X154501989Y-73424262D01*
X154501984Y-73424256D01*
X154445747Y-73368019D01*
X154445731Y-73368005D01*
X154405475Y-73331843D01*
X154405467Y-73331837D01*
X154281736Y-73258426D01*
X154281737Y-73258426D01*
X154213001Y-73229956D01*
X154208226Y-73227978D01*
X154208215Y-73227974D01*
X154180337Y-73218139D01*
X154123666Y-73177272D01*
X154098085Y-73112253D01*
X154111717Y-73043726D01*
X154150467Y-72999629D01*
X154214139Y-72955047D01*
X154375047Y-72794139D01*
X154505568Y-72607734D01*
X154563972Y-72482486D01*
X158664500Y-72482486D01*
X158664500Y-72667513D01*
X158693445Y-72850265D01*
X158750619Y-73026232D01*
X158750620Y-73026235D01*
X158816588Y-73155703D01*
X158834622Y-73191096D01*
X158943379Y-73340787D01*
X159074213Y-73471621D01*
X159223904Y-73580378D01*
X159239413Y-73588280D01*
X159388764Y-73664379D01*
X159388767Y-73664380D01*
X159419914Y-73674500D01*
X159564736Y-73721555D01*
X159747486Y-73750500D01*
X159747487Y-73750500D01*
X159932513Y-73750500D01*
X159932514Y-73750500D01*
X160115264Y-73721555D01*
X160291235Y-73664379D01*
X160456096Y-73580378D01*
X160605787Y-73471621D01*
X160736621Y-73340787D01*
X160845378Y-73191096D01*
X160929379Y-73026235D01*
X160986555Y-72850264D01*
X161015500Y-72667514D01*
X161015500Y-72482486D01*
X160986555Y-72299736D01*
X160948202Y-72181697D01*
X160931826Y-72131295D01*
X160929380Y-72123767D01*
X160929379Y-72123764D01*
X160914722Y-72094999D01*
X161315000Y-72094999D01*
X161315000Y-72995000D01*
X161317138Y-73060541D01*
X161317138Y-73060544D01*
X161317139Y-73060545D01*
X161351068Y-73187167D01*
X161416612Y-73300694D01*
X161509306Y-73393388D01*
X161622833Y-73458932D01*
X161749455Y-73492861D01*
X161815000Y-73495000D01*
X162715000Y-73495000D01*
X162780545Y-73492861D01*
X162907167Y-73458933D01*
X163020694Y-73393388D01*
X163113388Y-73300694D01*
X163178933Y-73187167D01*
X163212861Y-73060545D01*
X163215000Y-72995000D01*
X163215000Y-72482486D01*
X163514500Y-72482486D01*
X163514500Y-72667513D01*
X163543445Y-72850265D01*
X163600619Y-73026232D01*
X163600620Y-73026235D01*
X163666588Y-73155703D01*
X163684622Y-73191096D01*
X163793379Y-73340787D01*
X163924213Y-73471621D01*
X164073904Y-73580378D01*
X164089413Y-73588280D01*
X164238764Y-73664379D01*
X164238767Y-73664380D01*
X164269914Y-73674500D01*
X164414736Y-73721555D01*
X164597486Y-73750500D01*
X164597487Y-73750500D01*
X164782513Y-73750500D01*
X164782514Y-73750500D01*
X164855660Y-73738914D01*
X164922578Y-73728316D01*
X164928847Y-73727322D01*
X164965264Y-73721555D01*
X165141235Y-73664379D01*
X165306096Y-73580378D01*
X165455787Y-73471621D01*
X165586621Y-73340787D01*
X165695378Y-73191096D01*
X165779379Y-73026235D01*
X165836555Y-72850264D01*
X165865500Y-72667514D01*
X165865500Y-72482486D01*
X165836555Y-72299736D01*
X165798202Y-72181697D01*
X165779380Y-72123767D01*
X165779379Y-72123764D01*
X165722322Y-72011784D01*
X165695378Y-71958904D01*
X165586621Y-71809213D01*
X165455787Y-71678379D01*
X165306096Y-71569622D01*
X165141235Y-71485620D01*
X165141232Y-71485619D01*
X164965265Y-71428445D01*
X164873889Y-71413972D01*
X164782514Y-71399500D01*
X164597486Y-71399500D01*
X164536569Y-71409148D01*
X164414734Y-71428445D01*
X164238767Y-71485619D01*
X164238764Y-71485620D01*
X164073903Y-71569622D01*
X163989332Y-71631067D01*
X163924213Y-71678379D01*
X163924211Y-71678381D01*
X163924210Y-71678381D01*
X163793381Y-71809210D01*
X163793381Y-71809211D01*
X163793379Y-71809213D01*
X163768199Y-71843870D01*
X163684622Y-71958903D01*
X163600620Y-72123764D01*
X163600619Y-72123767D01*
X163543445Y-72299734D01*
X163514500Y-72482486D01*
X163215000Y-72482486D01*
X163215000Y-72095000D01*
X163212861Y-72029455D01*
X163178933Y-71902833D01*
X163113388Y-71789306D01*
X163020694Y-71696612D01*
X162907167Y-71631067D01*
X162780545Y-71597139D01*
X162715000Y-71595000D01*
X162265000Y-71595000D01*
X161815000Y-71595000D01*
X161749458Y-71597138D01*
X161622832Y-71631068D01*
X161509307Y-71696611D01*
X161509304Y-71696613D01*
X161416613Y-71789304D01*
X161416611Y-71789307D01*
X161351068Y-71902832D01*
X161317138Y-72029458D01*
X161315000Y-72094999D01*
X160914722Y-72094999D01*
X160872322Y-72011784D01*
X160845378Y-71958904D01*
X160736621Y-71809213D01*
X160605787Y-71678379D01*
X160456096Y-71569622D01*
X160291235Y-71485620D01*
X160291232Y-71485619D01*
X160115265Y-71428445D01*
X160023889Y-71413972D01*
X159932514Y-71399500D01*
X159747486Y-71399500D01*
X159686569Y-71409148D01*
X159564734Y-71428445D01*
X159388767Y-71485619D01*
X159388764Y-71485620D01*
X159223903Y-71569622D01*
X159139332Y-71631067D01*
X159074213Y-71678379D01*
X159074211Y-71678381D01*
X159074210Y-71678381D01*
X158943381Y-71809210D01*
X158943381Y-71809211D01*
X158943379Y-71809213D01*
X158918199Y-71843870D01*
X158834622Y-71958903D01*
X158750620Y-72123764D01*
X158750619Y-72123767D01*
X158693445Y-72299734D01*
X158664500Y-72482486D01*
X154563972Y-72482486D01*
X154601739Y-72401496D01*
X154660635Y-72181692D01*
X154675500Y-72011784D01*
X154675500Y-71898216D01*
X154660635Y-71728308D01*
X154601739Y-71508504D01*
X154505568Y-71302266D01*
X154375047Y-71115861D01*
X154375045Y-71115858D01*
X154214141Y-70954954D01*
X154027734Y-70824432D01*
X154027732Y-70824431D01*
X153976343Y-70800468D01*
X153923904Y-70754295D01*
X153904752Y-70687102D01*
X153924968Y-70620221D01*
X153970293Y-70578729D01*
X154034783Y-70544259D01*
X154165811Y-70456709D01*
X154242412Y-70393843D01*
X154353843Y-70282412D01*
X154416709Y-70205811D01*
X154504259Y-70074783D01*
X154550972Y-69987389D01*
X154611278Y-69841798D01*
X154640044Y-69746968D01*
X154670787Y-69592410D01*
X154680500Y-69493793D01*
X154680500Y-69438713D01*
X158189500Y-69438713D01*
X158189500Y-69651287D01*
X158191702Y-69665187D01*
X158222654Y-69860616D01*
X158222754Y-69861243D01*
X158279585Y-70036151D01*
X158288444Y-70063414D01*
X158384951Y-70252820D01*
X158509890Y-70424786D01*
X158660213Y-70575109D01*
X158832179Y-70700048D01*
X158832181Y-70700049D01*
X158832184Y-70700051D01*
X159021588Y-70796557D01*
X159223757Y-70862246D01*
X159433713Y-70895500D01*
X159433714Y-70895500D01*
X159646286Y-70895500D01*
X159646287Y-70895500D01*
X159856243Y-70862246D01*
X160058412Y-70796557D01*
X160247816Y-70700051D01*
X160275353Y-70680044D01*
X160419786Y-70575109D01*
X160419788Y-70575106D01*
X160419792Y-70575104D01*
X160570104Y-70424792D01*
X160695051Y-70252816D01*
X160695053Y-70252811D01*
X160697914Y-70248874D01*
X160699013Y-70249672D01*
X160746241Y-70206928D01*
X160804225Y-70194648D01*
X160815000Y-70195000D01*
X160815004Y-70195000D01*
X161715000Y-70195000D01*
X161780545Y-70192861D01*
X161907167Y-70158933D01*
X162020694Y-70093388D01*
X162113388Y-70000694D01*
X162153283Y-69931594D01*
X162203850Y-69883378D01*
X162272457Y-69870155D01*
X162337322Y-69896124D01*
X162368057Y-69931594D01*
X162416609Y-70015690D01*
X162416611Y-70015693D01*
X162416612Y-70015694D01*
X162509306Y-70108388D01*
X162622833Y-70173932D01*
X162749455Y-70207861D01*
X162815000Y-70210000D01*
X163714997Y-70210000D01*
X163715000Y-70210000D01*
X163736066Y-70209312D01*
X163803711Y-70226798D01*
X163840430Y-70260361D01*
X163959890Y-70424786D01*
X164110213Y-70575109D01*
X164282179Y-70700048D01*
X164282181Y-70700049D01*
X164282184Y-70700051D01*
X164471588Y-70796557D01*
X164673757Y-70862246D01*
X164883713Y-70895500D01*
X164883714Y-70895500D01*
X165096286Y-70895500D01*
X165096287Y-70895500D01*
X165306243Y-70862246D01*
X165508412Y-70796557D01*
X165697816Y-70700051D01*
X165725353Y-70680044D01*
X165869786Y-70575109D01*
X165869788Y-70575106D01*
X165869792Y-70575104D01*
X166020104Y-70424792D01*
X166020106Y-70424788D01*
X166020109Y-70424786D01*
X166145048Y-70252820D01*
X166145047Y-70252820D01*
X166145051Y-70252816D01*
X166241557Y-70063412D01*
X166307246Y-69861243D01*
X166340500Y-69651287D01*
X166340500Y-69438713D01*
X166307246Y-69228757D01*
X166241557Y-69026588D01*
X166145051Y-68837184D01*
X166145049Y-68837181D01*
X166145048Y-68837179D01*
X166020109Y-68665213D01*
X165869786Y-68514890D01*
X165697820Y-68389951D01*
X165508414Y-68293444D01*
X165508413Y-68293443D01*
X165508412Y-68293443D01*
X165306243Y-68227754D01*
X165306241Y-68227753D01*
X165306240Y-68227753D01*
X165142244Y-68201779D01*
X165096287Y-68194500D01*
X164883713Y-68194500D01*
X164837756Y-68201779D01*
X164673760Y-68227753D01*
X164471585Y-68293444D01*
X164282181Y-68389950D01*
X164203861Y-68446852D01*
X164138054Y-68470331D01*
X164070000Y-68454504D01*
X164043296Y-68434214D01*
X164020696Y-68411614D01*
X164020694Y-68411612D01*
X163907167Y-68346067D01*
X163780545Y-68312139D01*
X163715000Y-68310000D01*
X163265000Y-68310000D01*
X162815000Y-68310000D01*
X162749458Y-68312138D01*
X162622832Y-68346068D01*
X162509307Y-68411611D01*
X162509304Y-68411613D01*
X162416613Y-68504304D01*
X162416609Y-68504309D01*
X162376717Y-68573405D01*
X162326150Y-68621621D01*
X162257543Y-68634843D01*
X162192678Y-68608875D01*
X162161943Y-68573405D01*
X162147034Y-68547582D01*
X162113388Y-68489306D01*
X162020694Y-68396612D01*
X161907167Y-68331067D01*
X161780545Y-68297139D01*
X161715000Y-68295000D01*
X161265000Y-68295000D01*
X160815000Y-68295000D01*
X160749458Y-68297138D01*
X160622832Y-68331068D01*
X160509307Y-68396611D01*
X160509304Y-68396613D01*
X160478014Y-68427903D01*
X160416690Y-68461388D01*
X160346999Y-68456402D01*
X160317449Y-68440540D01*
X160247815Y-68389948D01*
X160058414Y-68293444D01*
X160058413Y-68293443D01*
X160058412Y-68293443D01*
X159856243Y-68227754D01*
X159856241Y-68227753D01*
X159856240Y-68227753D01*
X159692244Y-68201779D01*
X159646287Y-68194500D01*
X159433713Y-68194500D01*
X159387756Y-68201779D01*
X159223760Y-68227753D01*
X159021585Y-68293444D01*
X158832179Y-68389951D01*
X158660213Y-68514890D01*
X158509890Y-68665213D01*
X158384951Y-68837179D01*
X158288444Y-69026585D01*
X158222753Y-69228760D01*
X158196937Y-69391759D01*
X158189500Y-69438713D01*
X154680500Y-69438713D01*
X154680500Y-69336207D01*
X154670787Y-69237590D01*
X154640044Y-69083032D01*
X154611278Y-68988202D01*
X154550972Y-68842611D01*
X154525523Y-68795000D01*
X154504265Y-68755228D01*
X154504263Y-68755226D01*
X154504259Y-68755217D01*
X154497068Y-68744455D01*
X154416721Y-68624206D01*
X154416712Y-68624194D01*
X154416709Y-68624189D01*
X154353843Y-68547588D01*
X154242412Y-68436157D01*
X154165811Y-68373291D01*
X154165804Y-68373286D01*
X154165793Y-68373278D01*
X154034799Y-68285751D01*
X154034771Y-68285734D01*
X153947396Y-68239031D01*
X153947391Y-68239029D01*
X153801799Y-68178722D01*
X153776190Y-68170954D01*
X153706968Y-68149956D01*
X153552410Y-68119213D01*
X153552406Y-68119212D01*
X153552398Y-68119211D01*
X153472926Y-68111384D01*
X153453793Y-68109500D01*
X151135218Y-68109500D01*
X151135216Y-68109500D01*
X151081185Y-68112395D01*
X151081181Y-68112396D01*
X150941778Y-68147976D01*
X150941766Y-68147980D01*
X150868280Y-68178419D01*
X150868252Y-68178431D01*
X150819451Y-68201779D01*
X150819446Y-68201782D01*
X150704268Y-68288005D01*
X150704256Y-68288015D01*
X150648019Y-68344252D01*
X150611843Y-68384524D01*
X150611837Y-68384532D01*
X150538426Y-68508263D01*
X150507978Y-68581774D01*
X150507970Y-68581795D01*
X150489976Y-68632800D01*
X150469500Y-68775219D01*
X150469500Y-70054784D01*
X150472395Y-70108814D01*
X150472396Y-70108818D01*
X150507976Y-70248221D01*
X150507980Y-70248233D01*
X150538419Y-70321719D01*
X150538431Y-70321747D01*
X150561779Y-70370548D01*
X150561782Y-70370553D01*
X150602381Y-70424786D01*
X150648006Y-70485733D01*
X150648010Y-70485737D01*
X150648015Y-70485743D01*
X150704252Y-70541980D01*
X150704261Y-70541988D01*
X150704267Y-70541994D01*
X150738359Y-70572618D01*
X150744524Y-70578156D01*
X150744532Y-70578162D01*
X150868263Y-70651573D01*
X150868262Y-70651573D01*
X150882615Y-70657518D01*
X150941774Y-70682022D01*
X150969662Y-70691860D01*
X151026332Y-70732725D01*
X151051913Y-70797743D01*
X151038283Y-70866271D01*
X150999531Y-70910371D01*
X150935856Y-70954956D01*
X150774954Y-71115858D01*
X150746376Y-71156673D01*
X150644881Y-71301624D01*
X150590307Y-71345248D01*
X150543308Y-71354500D01*
X146779170Y-71354500D01*
X146779154Y-71354499D01*
X146771558Y-71354499D01*
X146613443Y-71354499D01*
X146537079Y-71374961D01*
X146460714Y-71395423D01*
X146460709Y-71395426D01*
X146323790Y-71474475D01*
X146323782Y-71474481D01*
X143450077Y-74348186D01*
X143388754Y-74381671D01*
X143319062Y-74376687D01*
X143298247Y-74366623D01*
X143271574Y-74350499D01*
X143243069Y-74333267D01*
X143243067Y-74333266D01*
X143243065Y-74333265D01*
X143089933Y-74285548D01*
X143089935Y-74285548D01*
X143063312Y-74283128D01*
X143023381Y-74279500D01*
X143023378Y-74279500D01*
X142521611Y-74279500D01*
X142455073Y-74285546D01*
X142455066Y-74285548D01*
X142301933Y-74333265D01*
X142301929Y-74333267D01*
X142239149Y-74371219D01*
X142171594Y-74389055D01*
X142110851Y-74371219D01*
X142048070Y-74333267D01*
X142048066Y-74333265D01*
X141894933Y-74285548D01*
X141894935Y-74285548D01*
X141868312Y-74283128D01*
X141828381Y-74279500D01*
X141828378Y-74279500D01*
X141326611Y-74279500D01*
X141260073Y-74285546D01*
X141260066Y-74285548D01*
X141106933Y-74333265D01*
X141106929Y-74333267D01*
X140969670Y-74416242D01*
X140969665Y-74416246D01*
X140922731Y-74463181D01*
X140861408Y-74496666D01*
X140835050Y-74499500D01*
X139800097Y-74499500D01*
X139733058Y-74479815D01*
X139712416Y-74463181D01*
X137037590Y-71788355D01*
X137037588Y-71788352D01*
X136918717Y-71669481D01*
X136918716Y-71669480D01*
X136831904Y-71619360D01*
X136831904Y-71619359D01*
X136831900Y-71619358D01*
X136781785Y-71590423D01*
X136629057Y-71549499D01*
X136470943Y-71549499D01*
X136463347Y-71549499D01*
X136463331Y-71549500D01*
X136385719Y-71549500D01*
X136318680Y-71529815D01*
X136275235Y-71481795D01*
X136255052Y-71442185D01*
X136255051Y-71442184D01*
X136130109Y-71270213D01*
X136016569Y-71156673D01*
X135983084Y-71095350D01*
X135988068Y-71025658D01*
X136029940Y-70969725D01*
X136060915Y-70952810D01*
X136192331Y-70903796D01*
X136307546Y-70817546D01*
X136358831Y-70749038D01*
X138874500Y-70749038D01*
X138874500Y-71000962D01*
X138894687Y-71128418D01*
X138913910Y-71249785D01*
X138991760Y-71489383D01*
X139063953Y-71631068D01*
X139097350Y-71696614D01*
X139106132Y-71713848D01*
X139254201Y-71917649D01*
X139254205Y-71917654D01*
X139432345Y-72095794D01*
X139432350Y-72095798D01*
X139481208Y-72131295D01*
X139636155Y-72243870D01*
X139779184Y-72316747D01*
X139860616Y-72358239D01*
X139860618Y-72358239D01*
X139860621Y-72358241D01*
X140100215Y-72436090D01*
X140349038Y-72475500D01*
X140349039Y-72475500D01*
X140600961Y-72475500D01*
X140600962Y-72475500D01*
X140849785Y-72436090D01*
X141089379Y-72358241D01*
X141313845Y-72243870D01*
X141517656Y-72095793D01*
X141695793Y-71917656D01*
X141843870Y-71713845D01*
X141958241Y-71489379D01*
X142036090Y-71249785D01*
X142075500Y-71000962D01*
X142075500Y-70749038D01*
X142036090Y-70500215D01*
X141958241Y-70260621D01*
X141958239Y-70260618D01*
X141958239Y-70260616D01*
X141906427Y-70158931D01*
X141843870Y-70036155D01*
X141767902Y-69931594D01*
X141695798Y-69832350D01*
X141695794Y-69832345D01*
X141517654Y-69654205D01*
X141517649Y-69654201D01*
X141313848Y-69506132D01*
X141313847Y-69506131D01*
X141313845Y-69506130D01*
X141181532Y-69438713D01*
X141089383Y-69391760D01*
X140849785Y-69313910D01*
X140600962Y-69274500D01*
X140349038Y-69274500D01*
X140224626Y-69294205D01*
X140100214Y-69313910D01*
X139860616Y-69391760D01*
X139636151Y-69506132D01*
X139432350Y-69654201D01*
X139432345Y-69654205D01*
X139254205Y-69832345D01*
X139254201Y-69832350D01*
X139106132Y-70036151D01*
X138991760Y-70260616D01*
X138913910Y-70500214D01*
X138885114Y-70682022D01*
X138874500Y-70749038D01*
X136358831Y-70749038D01*
X136393796Y-70702331D01*
X136444091Y-70567483D01*
X136450500Y-70507873D01*
X136450499Y-68712128D01*
X136444091Y-68652517D01*
X136433527Y-68624194D01*
X136393797Y-68517671D01*
X136393793Y-68517664D01*
X136307547Y-68402455D01*
X136307544Y-68402452D01*
X136192335Y-68316206D01*
X136192328Y-68316202D01*
X136057482Y-68265908D01*
X136057483Y-68265908D01*
X135997883Y-68259501D01*
X135997881Y-68259500D01*
X135997873Y-68259500D01*
X135997864Y-68259500D01*
X134202129Y-68259500D01*
X134202123Y-68259501D01*
X134142516Y-68265908D01*
X134007671Y-68316202D01*
X134007664Y-68316206D01*
X133892455Y-68402452D01*
X133892452Y-68402455D01*
X133806206Y-68517664D01*
X133806202Y-68517671D01*
X133755908Y-68652517D01*
X133749501Y-68712116D01*
X133749501Y-68712123D01*
X133749500Y-68712135D01*
X133749500Y-70507870D01*
X133749501Y-70507876D01*
X133755908Y-70567483D01*
X133806202Y-70702328D01*
X133806206Y-70702335D01*
X133892452Y-70817544D01*
X133892455Y-70817547D01*
X134007664Y-70903793D01*
X134007671Y-70903797D01*
X134139082Y-70952810D01*
X134195016Y-70994681D01*
X134219433Y-71060145D01*
X134204582Y-71128418D01*
X134183431Y-71156673D01*
X134069889Y-71270215D01*
X133944951Y-71442179D01*
X133848444Y-71631585D01*
X133782753Y-71833760D01*
X133749500Y-72043713D01*
X133749500Y-72256286D01*
X133776254Y-72425208D01*
X133782754Y-72466243D01*
X133848151Y-72667514D01*
X133848444Y-72668414D01*
X133944951Y-72857820D01*
X134069890Y-73029786D01*
X134220213Y-73180109D01*
X134392182Y-73305050D01*
X134400946Y-73309516D01*
X134451742Y-73357491D01*
X134468536Y-73425312D01*
X134445998Y-73491447D01*
X134400946Y-73530484D01*
X134392182Y-73534949D01*
X134220213Y-73659890D01*
X134069890Y-73810213D01*
X133944951Y-73982179D01*
X133848444Y-74171585D01*
X133782753Y-74373760D01*
X133749500Y-74583713D01*
X133749500Y-74796286D01*
X133779435Y-74985292D01*
X133782754Y-75006243D01*
X133842076Y-75188818D01*
X133848444Y-75208414D01*
X133944951Y-75397820D01*
X134069890Y-75569786D01*
X134220213Y-75720109D01*
X134392182Y-75845050D01*
X134400946Y-75849516D01*
X134451742Y-75897491D01*
X134468536Y-75965312D01*
X134445998Y-76031447D01*
X134400946Y-76070484D01*
X134392182Y-76074949D01*
X134220213Y-76199890D01*
X134069890Y-76350213D01*
X133944951Y-76522179D01*
X133848444Y-76711585D01*
X133782753Y-76913760D01*
X133749500Y-77123713D01*
X133749500Y-77336286D01*
X133777888Y-77515524D01*
X133782754Y-77546243D01*
X133837052Y-77713355D01*
X133848444Y-77748414D01*
X133944951Y-77937820D01*
X134069890Y-78109786D01*
X134220213Y-78260109D01*
X134392179Y-78385048D01*
X134392181Y-78385049D01*
X134392184Y-78385051D01*
X134581588Y-78481557D01*
X134783757Y-78547246D01*
X134993713Y-78580500D01*
X134993714Y-78580500D01*
X135206286Y-78580500D01*
X135206287Y-78580500D01*
X135416243Y-78547246D01*
X135618412Y-78481557D01*
X135807816Y-78385051D01*
X135829789Y-78369086D01*
X135979786Y-78260109D01*
X135979788Y-78260106D01*
X135979792Y-78260104D01*
X136130104Y-78109792D01*
X136130106Y-78109788D01*
X136130109Y-78109786D01*
X136221676Y-77983753D01*
X136255051Y-77937816D01*
X136255559Y-77936819D01*
X136275235Y-77898205D01*
X136323209Y-77847409D01*
X136385719Y-77830500D01*
X140767550Y-77830500D01*
X140834589Y-77850185D01*
X140855231Y-77866819D01*
X140972165Y-77983753D01*
X140972170Y-77983757D01*
X141109429Y-78066732D01*
X141109433Y-78066734D01*
X141163600Y-78083612D01*
X141262567Y-78114452D01*
X141329119Y-78120500D01*
X141830880Y-78120499D01*
X141830888Y-78120499D01*
X141897426Y-78114453D01*
X141897427Y-78114452D01*
X141897433Y-78114452D01*
X142050569Y-78066733D01*
X142113350Y-78028779D01*
X142180905Y-78010944D01*
X142241649Y-78028779D01*
X142304431Y-78066733D01*
X142304434Y-78066734D01*
X142304433Y-78066734D01*
X142358600Y-78083612D01*
X142457567Y-78114452D01*
X142524119Y-78120500D01*
X143025880Y-78120499D01*
X143025888Y-78120499D01*
X143092426Y-78114453D01*
X143092427Y-78114452D01*
X143092433Y-78114452D01*
X143245569Y-78066733D01*
X143316217Y-78024024D01*
X143382829Y-77983757D01*
X143382830Y-77983755D01*
X143382835Y-77983753D01*
X143429769Y-77936819D01*
X143491092Y-77903334D01*
X143517450Y-77900500D01*
X148599903Y-77900500D01*
X148666942Y-77920185D01*
X148687583Y-77936818D01*
X149010868Y-78260104D01*
X149313349Y-78562585D01*
X149313355Y-78562590D01*
X150451402Y-79700637D01*
X150484887Y-79761960D01*
X150487249Y-79777509D01*
X150489365Y-79801692D01*
X150548258Y-80021488D01*
X150548261Y-80021497D01*
X150644431Y-80227732D01*
X150644432Y-80227734D01*
X150774954Y-80414141D01*
X150935858Y-80575045D01*
X150935861Y-80575047D01*
X151122266Y-80705568D01*
X151179681Y-80732341D01*
X151180275Y-80732618D01*
X151232714Y-80778791D01*
X151251866Y-80845984D01*
X151231650Y-80912865D01*
X151180275Y-80957382D01*
X151122267Y-80984431D01*
X151122265Y-80984432D01*
X150935858Y-81114954D01*
X150774954Y-81275858D01*
X150718134Y-81357007D01*
X150644881Y-81461624D01*
X150590307Y-81505248D01*
X150543308Y-81514500D01*
X149418946Y-81514500D01*
X149351907Y-81494815D01*
X149306152Y-81442011D01*
X149296208Y-81372853D01*
X149296545Y-81371064D01*
X149296484Y-81371055D01*
X149330500Y-81156286D01*
X149330500Y-80943713D01*
X149314865Y-80845000D01*
X149297246Y-80733757D01*
X149231557Y-80531588D01*
X149135051Y-80342184D01*
X149135049Y-80342181D01*
X149135048Y-80342179D01*
X149010109Y-80170213D01*
X148859786Y-80019890D01*
X148687820Y-79894951D01*
X148498414Y-79798444D01*
X148498413Y-79798443D01*
X148498412Y-79798443D01*
X148296243Y-79732754D01*
X148296241Y-79732753D01*
X148296240Y-79732753D01*
X148134957Y-79707208D01*
X148086287Y-79699500D01*
X147873713Y-79699500D01*
X147825042Y-79707208D01*
X147663760Y-79732753D01*
X147461585Y-79798444D01*
X147272179Y-79894951D01*
X147100213Y-80019890D01*
X146949890Y-80170213D01*
X146824949Y-80342182D01*
X146820484Y-80350946D01*
X146772509Y-80401742D01*
X146704688Y-80418536D01*
X146638553Y-80395998D01*
X146599516Y-80350946D01*
X146595050Y-80342182D01*
X146470109Y-80170213D01*
X146319786Y-80019890D01*
X146147820Y-79894951D01*
X145958414Y-79798444D01*
X145958413Y-79798443D01*
X145958412Y-79798443D01*
X145756243Y-79732754D01*
X145756241Y-79732753D01*
X145756240Y-79732753D01*
X145594957Y-79707208D01*
X145546287Y-79699500D01*
X145333713Y-79699500D01*
X145285042Y-79707208D01*
X145123760Y-79732753D01*
X144921585Y-79798444D01*
X144732179Y-79894951D01*
X144560213Y-80019890D01*
X144409890Y-80170213D01*
X144284949Y-80342182D01*
X144280484Y-80350946D01*
X144232509Y-80401742D01*
X144164688Y-80418536D01*
X144098553Y-80395998D01*
X144059516Y-80350946D01*
X144055050Y-80342182D01*
X143930109Y-80170213D01*
X143779786Y-80019890D01*
X143607820Y-79894951D01*
X143418414Y-79798444D01*
X143418413Y-79798443D01*
X143418412Y-79798443D01*
X143216243Y-79732754D01*
X143216241Y-79732753D01*
X143216240Y-79732753D01*
X143054957Y-79707208D01*
X143006287Y-79699500D01*
X142793713Y-79699500D01*
X142745042Y-79707208D01*
X142583760Y-79732753D01*
X142381585Y-79798444D01*
X142192179Y-79894951D01*
X142020213Y-80019890D01*
X141869890Y-80170213D01*
X141744949Y-80342182D01*
X141740202Y-80351499D01*
X141692227Y-80402293D01*
X141624405Y-80419087D01*
X141558271Y-80396548D01*
X141519234Y-80351495D01*
X141514626Y-80342452D01*
X141475270Y-80288282D01*
X141475269Y-80288282D01*
X140842962Y-80920590D01*
X140825925Y-80857007D01*
X140760099Y-80742993D01*
X140667007Y-80649901D01*
X140552993Y-80584075D01*
X140489409Y-80567037D01*
X141121716Y-79934728D01*
X141067550Y-79895375D01*
X140878217Y-79798904D01*
X140676129Y-79733242D01*
X140466246Y-79700000D01*
X140253754Y-79700000D01*
X140043872Y-79733242D01*
X140043869Y-79733242D01*
X139841782Y-79798904D01*
X139652439Y-79895380D01*
X139598282Y-79934727D01*
X139598282Y-79934728D01*
X140230591Y-80567037D01*
X140167007Y-80584075D01*
X140052993Y-80649901D01*
X139959901Y-80742993D01*
X139894075Y-80857007D01*
X139877037Y-80920591D01*
X139206818Y-80250372D01*
X139173333Y-80189049D01*
X139173330Y-80189036D01*
X139170499Y-80176015D01*
X139170499Y-80152128D01*
X139164091Y-80092517D01*
X139135926Y-80017002D01*
X139113798Y-79957673D01*
X139113793Y-79957664D01*
X139027547Y-79842455D01*
X139027544Y-79842452D01*
X138912335Y-79756206D01*
X138912328Y-79756202D01*
X138777482Y-79705908D01*
X138777483Y-79705908D01*
X138717883Y-79699501D01*
X138717881Y-79699500D01*
X138717873Y-79699500D01*
X138717864Y-79699500D01*
X136922129Y-79699500D01*
X136922123Y-79699501D01*
X136862516Y-79705908D01*
X136727671Y-79756202D01*
X136727664Y-79756206D01*
X136612455Y-79842452D01*
X136612452Y-79842455D01*
X136526206Y-79957664D01*
X136526202Y-79957671D01*
X136475908Y-80092517D01*
X136469501Y-80152116D01*
X136469500Y-80152135D01*
X136469500Y-81947870D01*
X136469501Y-81947876D01*
X136475908Y-82007483D01*
X136526202Y-82142328D01*
X136526206Y-82142335D01*
X136612452Y-82257544D01*
X136612455Y-82257547D01*
X136727664Y-82343793D01*
X136727671Y-82343797D01*
X136862517Y-82394091D01*
X136862516Y-82394091D01*
X136869444Y-82394835D01*
X136922127Y-82400500D01*
X138717872Y-82400499D01*
X138777483Y-82394091D01*
X138912331Y-82343796D01*
X139027546Y-82257546D01*
X139113796Y-82142331D01*
X139164091Y-82007483D01*
X139170500Y-81947873D01*
X139170499Y-81923979D01*
X139173330Y-81910963D01*
X139183940Y-81891525D01*
X139190179Y-81870275D01*
X139206803Y-81849643D01*
X139206808Y-81849636D01*
X139206811Y-81849634D01*
X139206818Y-81849626D01*
X139877037Y-81179408D01*
X139894075Y-81242993D01*
X139959901Y-81357007D01*
X140052993Y-81450099D01*
X140167007Y-81515925D01*
X140230590Y-81532962D01*
X139598282Y-82165269D01*
X139598282Y-82165270D01*
X139652449Y-82204624D01*
X139841782Y-82301095D01*
X140043870Y-82366757D01*
X140253754Y-82400000D01*
X140466246Y-82400000D01*
X140676127Y-82366757D01*
X140676130Y-82366757D01*
X140878217Y-82301095D01*
X141067554Y-82204622D01*
X141121716Y-82165270D01*
X141121717Y-82165270D01*
X140489408Y-81532962D01*
X140552993Y-81515925D01*
X140667007Y-81450099D01*
X140760099Y-81357007D01*
X140825925Y-81242993D01*
X140842962Y-81179408D01*
X141475270Y-81811717D01*
X141475270Y-81811716D01*
X141514622Y-81757555D01*
X141519232Y-81748507D01*
X141567205Y-81697709D01*
X141635025Y-81680912D01*
X141701161Y-81703447D01*
X141740204Y-81748504D01*
X141744949Y-81757817D01*
X141869890Y-81929786D01*
X142020213Y-82080109D01*
X142192179Y-82205048D01*
X142192181Y-82205049D01*
X142192184Y-82205051D01*
X142381588Y-82301557D01*
X142583757Y-82367246D01*
X142793713Y-82400500D01*
X142793714Y-82400500D01*
X143006286Y-82400500D01*
X143006287Y-82400500D01*
X143216243Y-82367246D01*
X143418412Y-82301557D01*
X143607816Y-82205051D01*
X143653603Y-82171785D01*
X143779786Y-82080109D01*
X143779788Y-82080106D01*
X143779792Y-82080104D01*
X143930104Y-81929792D01*
X143930106Y-81929788D01*
X143930109Y-81929786D01*
X144055048Y-81757820D01*
X144055050Y-81757817D01*
X144055051Y-81757816D01*
X144059514Y-81749054D01*
X144107488Y-81698259D01*
X144175308Y-81681463D01*
X144241444Y-81703999D01*
X144280486Y-81749056D01*
X144284951Y-81757820D01*
X144409890Y-81929786D01*
X144560213Y-82080109D01*
X144732184Y-82205051D01*
X144732184Y-82205052D01*
X144771793Y-82225233D01*
X144822590Y-82273206D01*
X144839500Y-82335718D01*
X144839500Y-84719057D01*
X144879279Y-84867512D01*
X144880423Y-84871783D01*
X144880426Y-84871790D01*
X144959475Y-85008709D01*
X144959479Y-85008714D01*
X144959480Y-85008716D01*
X144974480Y-85023716D01*
X145086284Y-85135520D01*
X145086286Y-85135521D01*
X145086290Y-85135524D01*
X145189676Y-85195213D01*
X145223216Y-85214577D01*
X145375943Y-85255500D01*
X150543308Y-85255500D01*
X150610347Y-85275185D01*
X150644880Y-85308374D01*
X150706413Y-85396253D01*
X150774954Y-85494141D01*
X150935858Y-85655045D01*
X150958167Y-85670666D01*
X151122266Y-85785568D01*
X151173655Y-85809531D01*
X151226095Y-85855703D01*
X151245247Y-85922896D01*
X151225032Y-85989778D01*
X151179705Y-86031271D01*
X151132298Y-86056611D01*
X151115217Y-86065741D01*
X151115214Y-86065742D01*
X151115200Y-86065751D01*
X150984206Y-86153278D01*
X150984194Y-86153287D01*
X150984189Y-86153290D01*
X150984189Y-86153291D01*
X150907588Y-86216157D01*
X150907585Y-86216160D01*
X150907582Y-86216162D01*
X150796162Y-86327582D01*
X150796160Y-86327585D01*
X150796157Y-86327588D01*
X150768084Y-86361795D01*
X150733289Y-86404191D01*
X150666525Y-86504110D01*
X150612912Y-86548914D01*
X150543587Y-86557621D01*
X150515971Y-86549779D01*
X150408501Y-86505264D01*
X150408489Y-86505261D01*
X150253845Y-86474500D01*
X150253842Y-86474500D01*
X150096158Y-86474500D01*
X150096155Y-86474500D01*
X149941510Y-86505261D01*
X149941498Y-86505264D01*
X149795827Y-86565602D01*
X149795814Y-86565609D01*
X149664711Y-86653210D01*
X149664707Y-86653213D01*
X149553213Y-86764707D01*
X149553210Y-86764711D01*
X149465609Y-86895814D01*
X149465602Y-86895827D01*
X149405264Y-87041498D01*
X149405261Y-87041510D01*
X149374500Y-87196153D01*
X149374500Y-87353846D01*
X149405261Y-87508489D01*
X149405264Y-87508501D01*
X149465602Y-87654172D01*
X149465609Y-87654185D01*
X149553210Y-87785288D01*
X149553213Y-87785292D01*
X149664707Y-87896786D01*
X149664711Y-87896789D01*
X149795814Y-87984390D01*
X149795827Y-87984397D01*
X149941498Y-88044735D01*
X149941503Y-88044737D01*
X150096153Y-88075499D01*
X150096156Y-88075500D01*
X150096158Y-88075500D01*
X150253844Y-88075500D01*
X150253845Y-88075499D01*
X150408497Y-88044737D01*
X150550773Y-87985805D01*
X150554172Y-87984397D01*
X150554172Y-87984396D01*
X150554179Y-87984394D01*
X150564949Y-87977198D01*
X150575659Y-87970042D01*
X150642336Y-87949163D01*
X150709716Y-87967647D01*
X150740400Y-87994474D01*
X150796157Y-88062412D01*
X150907588Y-88173843D01*
X150984189Y-88236709D01*
X150984198Y-88236715D01*
X150984206Y-88236721D01*
X151115200Y-88324248D01*
X151115205Y-88324251D01*
X151115217Y-88324259D01*
X151115226Y-88324263D01*
X151115228Y-88324265D01*
X151179704Y-88358728D01*
X151229548Y-88407690D01*
X151245009Y-88475828D01*
X151221178Y-88541507D01*
X151173657Y-88580468D01*
X151122264Y-88604433D01*
X150935858Y-88734954D01*
X150774954Y-88895858D01*
X150644430Y-89082268D01*
X150641721Y-89086961D01*
X150639592Y-89085732D01*
X150600230Y-89130383D01*
X150534083Y-89149500D01*
X149474499Y-89149500D01*
X149407460Y-89129815D01*
X149361705Y-89077011D01*
X149350499Y-89025500D01*
X149350499Y-88852129D01*
X149350498Y-88852123D01*
X149350497Y-88852116D01*
X149344091Y-88792517D01*
X149330546Y-88756202D01*
X149293797Y-88657671D01*
X149293793Y-88657664D01*
X149207547Y-88542455D01*
X149207544Y-88542452D01*
X149092335Y-88456206D01*
X149092328Y-88456202D01*
X148957482Y-88405908D01*
X148957483Y-88405908D01*
X148897883Y-88399501D01*
X148897881Y-88399500D01*
X148897873Y-88399500D01*
X148897864Y-88399500D01*
X147102129Y-88399500D01*
X147102123Y-88399501D01*
X147042516Y-88405908D01*
X146907671Y-88456202D01*
X146907664Y-88456206D01*
X146792455Y-88542452D01*
X146792452Y-88542455D01*
X146706206Y-88657664D01*
X146706202Y-88657671D01*
X146655908Y-88792517D01*
X146650540Y-88842452D01*
X146649501Y-88852123D01*
X146649500Y-88852135D01*
X146649500Y-90647870D01*
X146649501Y-90647876D01*
X146655908Y-90707483D01*
X146706202Y-90842328D01*
X146706206Y-90842335D01*
X146792452Y-90957544D01*
X146792455Y-90957547D01*
X146907664Y-91043793D01*
X146907671Y-91043797D01*
X147039082Y-91092810D01*
X147095016Y-91134681D01*
X147119433Y-91200145D01*
X147104582Y-91268418D01*
X147083431Y-91296673D01*
X146969889Y-91410215D01*
X146844951Y-91582179D01*
X146748444Y-91771585D01*
X146748443Y-91771587D01*
X146748443Y-91771588D01*
X146746248Y-91778343D01*
X146682753Y-91973760D01*
X146649500Y-92183713D01*
X146649500Y-92396286D01*
X146678954Y-92582256D01*
X146682754Y-92606243D01*
X146720202Y-92721497D01*
X146748444Y-92808414D01*
X146844951Y-92997820D01*
X146969890Y-93169786D01*
X147120213Y-93320109D01*
X147292182Y-93445050D01*
X147300946Y-93449516D01*
X147351742Y-93497491D01*
X147368536Y-93565312D01*
X147345998Y-93631447D01*
X147300946Y-93670484D01*
X147292182Y-93674949D01*
X147120213Y-93799890D01*
X146969890Y-93950213D01*
X146844951Y-94122179D01*
X146748444Y-94311585D01*
X146748443Y-94311587D01*
X146748443Y-94311588D01*
X146730343Y-94367294D01*
X146682753Y-94513760D01*
X146665292Y-94624008D01*
X146649500Y-94723713D01*
X146649500Y-94936287D01*
X146682754Y-95146243D01*
X146738591Y-95318092D01*
X146748444Y-95348414D01*
X146844951Y-95537820D01*
X146969890Y-95709786D01*
X147120213Y-95860109D01*
X147292182Y-95985050D01*
X147300946Y-95989516D01*
X147351742Y-96037491D01*
X147368536Y-96105312D01*
X147345998Y-96171447D01*
X147300946Y-96210484D01*
X147292182Y-96214949D01*
X147120213Y-96339890D01*
X146969890Y-96490213D01*
X146844951Y-96662179D01*
X146748444Y-96851585D01*
X146682753Y-97053760D01*
X146649500Y-97263713D01*
X146649500Y-97476287D01*
X146682754Y-97686243D01*
X146747891Y-97886714D01*
X146748444Y-97888414D01*
X146844951Y-98077820D01*
X146969890Y-98249786D01*
X147120213Y-98400109D01*
X147292182Y-98525050D01*
X147300946Y-98529516D01*
X147351742Y-98577491D01*
X147368536Y-98645312D01*
X147345998Y-98711447D01*
X147300946Y-98750484D01*
X147292182Y-98754949D01*
X147120213Y-98879890D01*
X146969890Y-99030213D01*
X146844951Y-99202179D01*
X146748444Y-99391585D01*
X146682753Y-99593760D01*
X146669463Y-99677671D01*
X146649500Y-99803713D01*
X146649500Y-100016287D01*
X146682754Y-100226243D01*
X146734432Y-100385292D01*
X146748444Y-100428414D01*
X146844951Y-100617820D01*
X146969890Y-100789786D01*
X147120213Y-100940109D01*
X147292182Y-101065050D01*
X147300946Y-101069516D01*
X147351742Y-101117491D01*
X147368536Y-101185312D01*
X147345998Y-101251447D01*
X147300946Y-101290484D01*
X147292182Y-101294949D01*
X147120213Y-101419890D01*
X146969890Y-101570213D01*
X146844951Y-101742179D01*
X146748444Y-101931585D01*
X146682753Y-102133760D01*
X146660267Y-102275734D01*
X146649500Y-102343713D01*
X146649500Y-102556287D01*
X146650648Y-102563536D01*
X146677009Y-102729975D01*
X146682754Y-102766243D01*
X146747825Y-102966511D01*
X146748444Y-102968414D01*
X146844951Y-103157820D01*
X146969890Y-103329786D01*
X147120213Y-103480109D01*
X147292179Y-103605048D01*
X147292181Y-103605049D01*
X147292184Y-103605051D01*
X147481588Y-103701557D01*
X147683757Y-103767246D01*
X147893713Y-103800500D01*
X147893714Y-103800500D01*
X148106286Y-103800500D01*
X148106287Y-103800500D01*
X148316243Y-103767246D01*
X148518412Y-103701557D01*
X148707816Y-103605051D01*
X148743436Y-103579172D01*
X148879786Y-103480109D01*
X148879788Y-103480106D01*
X148879792Y-103480104D01*
X149030104Y-103329792D01*
X149030106Y-103329788D01*
X149030109Y-103329786D01*
X149098526Y-103235616D01*
X149155051Y-103157816D01*
X149155349Y-103157230D01*
X149175235Y-103118205D01*
X149223209Y-103067409D01*
X149285719Y-103050500D01*
X150553810Y-103050500D01*
X150620849Y-103070185D01*
X150655385Y-103103377D01*
X150774954Y-103274141D01*
X150935858Y-103435045D01*
X150935861Y-103435047D01*
X151122266Y-103565568D01*
X151151440Y-103579172D01*
X151180275Y-103592618D01*
X151232714Y-103638791D01*
X151251866Y-103705984D01*
X151231650Y-103772865D01*
X151180275Y-103817382D01*
X151122267Y-103844431D01*
X151122265Y-103844432D01*
X150935858Y-103974954D01*
X150774954Y-104135858D01*
X150662387Y-104296623D01*
X150607811Y-104340248D01*
X150560812Y-104349500D01*
X148139950Y-104349500D01*
X148072911Y-104329815D01*
X148052269Y-104313181D01*
X148005334Y-104266246D01*
X148005329Y-104266242D01*
X147868070Y-104183267D01*
X147868066Y-104183265D01*
X147714933Y-104135548D01*
X147714935Y-104135548D01*
X147688312Y-104133128D01*
X147648381Y-104129500D01*
X147648378Y-104129500D01*
X147146611Y-104129500D01*
X147080073Y-104135546D01*
X147080066Y-104135548D01*
X146926933Y-104183265D01*
X146926929Y-104183267D01*
X146864149Y-104221219D01*
X146855091Y-104223610D01*
X146847814Y-104229513D01*
X146821846Y-104232387D01*
X146796594Y-104239055D01*
X146785835Y-104236374D01*
X146778368Y-104237201D01*
X146757157Y-104229228D01*
X146744845Y-104226160D01*
X146740239Y-104223872D01*
X146673069Y-104183267D01*
X146633898Y-104171061D01*
X146625055Y-104166669D01*
X146613471Y-104155952D01*
X146592529Y-104143292D01*
X146566897Y-104117660D01*
X146566874Y-104117639D01*
X145297590Y-102848355D01*
X145297588Y-102848352D01*
X145178717Y-102729481D01*
X145178716Y-102729480D01*
X145072866Y-102668368D01*
X145072865Y-102668367D01*
X145041783Y-102650422D01*
X144985881Y-102635443D01*
X144889057Y-102609499D01*
X144730943Y-102609499D01*
X144723347Y-102609499D01*
X144723331Y-102609500D01*
X143122596Y-102609500D01*
X143055557Y-102589815D01*
X143022278Y-102558386D01*
X143001690Y-102530049D01*
X142903828Y-102395354D01*
X142764646Y-102256172D01*
X142611377Y-102144815D01*
X142568714Y-102089487D01*
X142562735Y-102019873D01*
X142595341Y-101958078D01*
X142656180Y-101923721D01*
X142684264Y-101920499D01*
X142747872Y-101920499D01*
X142807483Y-101914091D01*
X142942331Y-101863796D01*
X143057546Y-101777546D01*
X143143796Y-101662331D01*
X143194091Y-101527483D01*
X143200500Y-101467873D01*
X143200499Y-99872128D01*
X143194091Y-99812517D01*
X143190807Y-99803713D01*
X143143797Y-99677671D01*
X143143793Y-99677664D01*
X143057547Y-99562455D01*
X143057544Y-99562452D01*
X142942335Y-99476206D01*
X142942328Y-99476202D01*
X142807482Y-99425908D01*
X142807483Y-99425908D01*
X142747883Y-99419501D01*
X142747881Y-99419500D01*
X142747873Y-99419500D01*
X142747864Y-99419500D01*
X141152129Y-99419500D01*
X141152123Y-99419501D01*
X141092516Y-99425908D01*
X140957671Y-99476202D01*
X140957664Y-99476206D01*
X140842455Y-99562452D01*
X140842452Y-99562455D01*
X140756206Y-99677664D01*
X140756202Y-99677671D01*
X140705908Y-99812517D01*
X140704126Y-99820062D01*
X140701853Y-99819525D01*
X140679571Y-99873312D01*
X140622177Y-99913157D01*
X140583024Y-99919500D01*
X139974500Y-99919500D01*
X139907461Y-99899815D01*
X139861706Y-99847011D01*
X139850500Y-99795500D01*
X139850500Y-96737679D01*
X139870185Y-96670640D01*
X139922989Y-96624885D01*
X139936162Y-96619754D01*
X140025992Y-96590568D01*
X140236433Y-96483343D01*
X140427510Y-96344517D01*
X140594517Y-96177510D01*
X140733343Y-95986433D01*
X140840568Y-95775992D01*
X140913553Y-95551368D01*
X140915700Y-95537814D01*
X140950500Y-95318097D01*
X140950500Y-95081902D01*
X140913553Y-94848631D01*
X140872979Y-94723760D01*
X140840568Y-94624008D01*
X140840566Y-94624005D01*
X140840566Y-94624003D01*
X140733342Y-94413566D01*
X140708101Y-94378825D01*
X140594517Y-94222490D01*
X140427510Y-94055483D01*
X140236433Y-93916657D01*
X140173677Y-93884681D01*
X140025996Y-93809433D01*
X139801368Y-93736446D01*
X139568097Y-93699500D01*
X139568092Y-93699500D01*
X139331908Y-93699500D01*
X139331903Y-93699500D01*
X139098631Y-93736446D01*
X138874003Y-93809433D01*
X138663566Y-93916657D01*
X138617388Y-93950208D01*
X138472490Y-94055483D01*
X138472488Y-94055485D01*
X138472487Y-94055485D01*
X138305485Y-94222487D01*
X138305485Y-94222488D01*
X138305483Y-94222490D01*
X138288697Y-94245594D01*
X138166657Y-94413566D01*
X138059433Y-94624003D01*
X137986446Y-94848631D01*
X137949500Y-95081902D01*
X137949500Y-95318097D01*
X137986446Y-95551368D01*
X138059433Y-95775996D01*
X138150487Y-95954697D01*
X138166657Y-95986433D01*
X138305483Y-96177510D01*
X138305485Y-96177512D01*
X138313181Y-96185208D01*
X138346666Y-96246531D01*
X138349500Y-96272889D01*
X138349500Y-100070511D01*
X138334514Y-100124268D01*
X138336345Y-100125092D01*
X138333265Y-100131933D01*
X138285548Y-100285065D01*
X138279500Y-100351621D01*
X138279500Y-100853388D01*
X138285546Y-100919926D01*
X138285548Y-100919933D01*
X138333265Y-101073066D01*
X138333267Y-101073070D01*
X138371219Y-101135851D01*
X138389055Y-101203406D01*
X138371219Y-101264149D01*
X138333267Y-101326929D01*
X138333265Y-101326933D01*
X138285548Y-101480065D01*
X138279500Y-101546621D01*
X138279500Y-102048388D01*
X138285546Y-102114925D01*
X138285547Y-102114930D01*
X138285548Y-102114933D01*
X138290894Y-102132089D01*
X138333268Y-102268074D01*
X138336345Y-102274909D01*
X138334511Y-102275734D01*
X138349500Y-102329489D01*
X138349500Y-102895396D01*
X138340062Y-102942844D01*
X138330263Y-102966503D01*
X138330262Y-102966506D01*
X138330260Y-102966511D01*
X138299500Y-103121153D01*
X138299500Y-103278846D01*
X138330261Y-103433489D01*
X138330264Y-103433501D01*
X138390602Y-103579172D01*
X138390609Y-103579185D01*
X138478210Y-103710288D01*
X138478213Y-103710292D01*
X138589707Y-103821786D01*
X138589711Y-103821789D01*
X138720814Y-103909390D01*
X138720827Y-103909397D01*
X138866498Y-103969735D01*
X138866503Y-103969737D01*
X139021153Y-104000499D01*
X139021156Y-104000500D01*
X139021158Y-104000500D01*
X139178844Y-104000500D01*
X139178845Y-104000499D01*
X139333497Y-103969737D01*
X139479179Y-103909394D01*
X139610289Y-103821789D01*
X139721789Y-103710289D01*
X139809394Y-103579179D01*
X139815874Y-103563536D01*
X139869095Y-103435047D01*
X139869737Y-103433497D01*
X139900500Y-103278842D01*
X139900500Y-103121158D01*
X139900500Y-103121155D01*
X139900499Y-103121153D01*
X139869739Y-102966511D01*
X139869738Y-102966508D01*
X139869737Y-102966503D01*
X139859937Y-102942844D01*
X139850500Y-102895396D01*
X139850500Y-102329489D01*
X139865488Y-102275734D01*
X139863655Y-102274909D01*
X139866731Y-102268074D01*
X139866733Y-102268069D01*
X139914452Y-102114933D01*
X139920500Y-102048381D01*
X139920499Y-101546620D01*
X139920499Y-101546619D01*
X139920499Y-101544500D01*
X139940183Y-101477461D01*
X139992987Y-101431706D01*
X140044499Y-101420500D01*
X140583023Y-101420500D01*
X140650062Y-101440185D01*
X140695817Y-101492989D01*
X140703266Y-101520134D01*
X140704124Y-101519932D01*
X140705907Y-101527479D01*
X140756202Y-101662328D01*
X140756206Y-101662335D01*
X140842452Y-101777544D01*
X140842455Y-101777547D01*
X140957664Y-101863793D01*
X140957671Y-101863797D01*
X141092517Y-101914091D01*
X141092516Y-101914091D01*
X141099444Y-101914835D01*
X141152127Y-101920500D01*
X141215733Y-101920499D01*
X141282770Y-101940183D01*
X141328526Y-101992986D01*
X141338470Y-102062144D01*
X141309446Y-102125700D01*
X141288619Y-102144816D01*
X141135354Y-102256171D01*
X140996174Y-102395351D01*
X140996174Y-102395352D01*
X140996172Y-102395354D01*
X140956690Y-102449696D01*
X140880476Y-102554594D01*
X140791117Y-102729970D01*
X140730290Y-102917173D01*
X140699500Y-103111577D01*
X140699500Y-103308422D01*
X140730290Y-103502826D01*
X140791117Y-103690029D01*
X140869788Y-103844429D01*
X140880476Y-103865405D01*
X140996172Y-104024646D01*
X141135354Y-104163828D01*
X141294595Y-104279524D01*
X141393297Y-104329815D01*
X141471213Y-104369515D01*
X141522009Y-104417489D01*
X141538804Y-104485310D01*
X141516267Y-104551445D01*
X141471213Y-104590485D01*
X141294594Y-104680476D01*
X141242312Y-104718462D01*
X141135354Y-104796172D01*
X141135352Y-104796174D01*
X141135351Y-104796174D01*
X140996174Y-104935351D01*
X140996174Y-104935352D01*
X140996172Y-104935354D01*
X140991476Y-104941818D01*
X140880476Y-105094594D01*
X140791117Y-105269970D01*
X140730290Y-105457173D01*
X140699500Y-105651577D01*
X140699500Y-105848422D01*
X140730290Y-106042826D01*
X140791117Y-106230029D01*
X140853150Y-106351775D01*
X140880476Y-106405405D01*
X140996172Y-106564646D01*
X141135354Y-106703828D01*
X141294595Y-106819524D01*
X141367589Y-106856716D01*
X141469970Y-106908882D01*
X141469972Y-106908882D01*
X141469975Y-106908884D01*
X141570317Y-106941487D01*
X141657173Y-106969709D01*
X141851578Y-107000500D01*
X141851583Y-107000500D01*
X142048422Y-107000500D01*
X142242826Y-106969709D01*
X142286790Y-106955424D01*
X142430025Y-106908884D01*
X142605405Y-106819524D01*
X142764646Y-106703828D01*
X142903828Y-106564646D01*
X143019524Y-106405405D01*
X143108884Y-106230025D01*
X143169709Y-106042826D01*
X143178436Y-105987726D01*
X143200500Y-105848422D01*
X143200500Y-105651577D01*
X143169709Y-105457173D01*
X143108882Y-105269970D01*
X143061743Y-105177455D01*
X143019524Y-105094595D01*
X142903828Y-104935354D01*
X142764646Y-104796172D01*
X142657688Y-104718462D01*
X142605403Y-104680474D01*
X142428787Y-104590485D01*
X142377990Y-104542511D01*
X142361195Y-104474690D01*
X142383732Y-104408555D01*
X142428787Y-104369515D01*
X142605403Y-104279525D01*
X142605402Y-104279525D01*
X142605405Y-104279524D01*
X142764646Y-104163828D01*
X142903828Y-104024646D01*
X143019524Y-103865405D01*
X143019524Y-103865403D01*
X143022278Y-103861614D01*
X143077608Y-103818949D01*
X143122596Y-103810500D01*
X144509903Y-103810500D01*
X144576942Y-103830185D01*
X144597584Y-103846819D01*
X145315342Y-104564577D01*
X145348827Y-104625900D01*
X145349346Y-104663369D01*
X145351142Y-104663533D01*
X145350548Y-104670066D01*
X145350548Y-104670067D01*
X145344500Y-104736619D01*
X145344500Y-104736621D01*
X145344500Y-105163388D01*
X145350546Y-105229926D01*
X145350548Y-105229933D01*
X145398265Y-105383066D01*
X145398267Y-105383070D01*
X145481242Y-105520329D01*
X145481246Y-105520334D01*
X145594665Y-105633753D01*
X145594670Y-105633757D01*
X145731929Y-105716732D01*
X145731933Y-105716734D01*
X145786100Y-105733612D01*
X145885067Y-105764452D01*
X145951619Y-105770500D01*
X146453380Y-105770499D01*
X146453388Y-105770499D01*
X146519926Y-105764453D01*
X146519927Y-105764452D01*
X146519933Y-105764452D01*
X146673069Y-105716733D01*
X146735850Y-105678779D01*
X146803405Y-105660944D01*
X146864149Y-105678779D01*
X146926931Y-105716733D01*
X146926934Y-105716734D01*
X146926933Y-105716734D01*
X146981100Y-105733612D01*
X147080067Y-105764452D01*
X147146619Y-105770500D01*
X147648380Y-105770499D01*
X147648388Y-105770499D01*
X147714926Y-105764453D01*
X147714927Y-105764452D01*
X147714933Y-105764452D01*
X147868069Y-105716733D01*
X147945929Y-105669665D01*
X148005329Y-105633757D01*
X148005330Y-105633755D01*
X148005335Y-105633753D01*
X148052269Y-105586819D01*
X148113592Y-105553334D01*
X148139950Y-105550500D01*
X150529421Y-105550500D01*
X150596460Y-105570185D01*
X150641802Y-105622095D01*
X150644431Y-105627732D01*
X150644432Y-105627734D01*
X150774954Y-105814141D01*
X150935858Y-105975045D01*
X150935861Y-105975047D01*
X151122266Y-106105568D01*
X151180275Y-106132618D01*
X151232714Y-106178791D01*
X151251866Y-106245984D01*
X151231650Y-106312865D01*
X151180275Y-106357382D01*
X151122267Y-106384431D01*
X151122265Y-106384432D01*
X150935858Y-106514954D01*
X150774954Y-106675858D01*
X150755370Y-106703828D01*
X150644881Y-106861624D01*
X150590307Y-106905248D01*
X150543308Y-106914500D01*
X148864057Y-106914500D01*
X148705943Y-106914500D01*
X148553215Y-106955423D01*
X148553214Y-106955423D01*
X148553212Y-106955424D01*
X148553209Y-106955425D01*
X148503096Y-106984359D01*
X148503095Y-106984360D01*
X148475140Y-107000500D01*
X148416285Y-107034479D01*
X148416282Y-107034481D01*
X148304478Y-107146286D01*
X147312584Y-108138181D01*
X147251261Y-108171666D01*
X147224903Y-108174500D01*
X144549499Y-108174500D01*
X144482460Y-108154815D01*
X144436705Y-108102011D01*
X144425499Y-108050500D01*
X144425499Y-107877129D01*
X144425498Y-107877123D01*
X144419091Y-107817516D01*
X144368797Y-107682671D01*
X144368793Y-107682664D01*
X144282547Y-107567455D01*
X144282544Y-107567452D01*
X144167335Y-107481206D01*
X144167328Y-107481202D01*
X144032482Y-107430908D01*
X144032483Y-107430908D01*
X143972883Y-107424501D01*
X143972881Y-107424500D01*
X143972873Y-107424500D01*
X143972864Y-107424500D01*
X142177129Y-107424500D01*
X142177123Y-107424501D01*
X142117516Y-107430908D01*
X141982671Y-107481202D01*
X141982664Y-107481206D01*
X141867455Y-107567452D01*
X141867452Y-107567455D01*
X141781206Y-107682664D01*
X141781203Y-107682669D01*
X141732189Y-107814083D01*
X141690317Y-107870016D01*
X141624853Y-107894433D01*
X141556580Y-107879581D01*
X141528326Y-107858430D01*
X141414786Y-107744890D01*
X141242820Y-107619951D01*
X141053414Y-107523444D01*
X141053413Y-107523443D01*
X141053412Y-107523443D01*
X140851243Y-107457754D01*
X140851241Y-107457753D01*
X140851240Y-107457753D01*
X140689957Y-107432208D01*
X140641287Y-107424500D01*
X140428713Y-107424500D01*
X140380042Y-107432208D01*
X140218760Y-107457753D01*
X140016585Y-107523444D01*
X139827179Y-107619951D01*
X139655213Y-107744890D01*
X139504890Y-107895213D01*
X139379949Y-108067182D01*
X139375484Y-108075946D01*
X139327509Y-108126742D01*
X139259688Y-108143536D01*
X139193553Y-108120998D01*
X139154516Y-108075946D01*
X139150050Y-108067182D01*
X139025109Y-107895213D01*
X138874786Y-107744890D01*
X138702820Y-107619951D01*
X138513414Y-107523444D01*
X138513413Y-107523443D01*
X138513412Y-107523443D01*
X138311243Y-107457754D01*
X138311241Y-107457753D01*
X138311240Y-107457753D01*
X138149957Y-107432208D01*
X138101287Y-107424500D01*
X137888713Y-107424500D01*
X137840042Y-107432208D01*
X137678760Y-107457753D01*
X137476585Y-107523444D01*
X137287179Y-107619951D01*
X137115213Y-107744890D01*
X136964890Y-107895213D01*
X136839949Y-108067182D01*
X136835484Y-108075946D01*
X136787509Y-108126742D01*
X136719688Y-108143536D01*
X136653553Y-108120998D01*
X136614516Y-108075946D01*
X136610050Y-108067182D01*
X136485109Y-107895213D01*
X136334786Y-107744890D01*
X136162820Y-107619951D01*
X135973414Y-107523444D01*
X135973413Y-107523443D01*
X135973412Y-107523443D01*
X135771243Y-107457754D01*
X135771241Y-107457753D01*
X135771240Y-107457753D01*
X135609957Y-107432208D01*
X135561287Y-107424500D01*
X135348713Y-107424500D01*
X135300042Y-107432208D01*
X135138760Y-107457753D01*
X134936585Y-107523444D01*
X134747179Y-107619951D01*
X134575213Y-107744890D01*
X134424890Y-107895213D01*
X134299951Y-108067179D01*
X134203444Y-108256585D01*
X134137753Y-108458760D01*
X134104500Y-108668713D01*
X134104500Y-108881287D01*
X134137754Y-109091243D01*
X134196185Y-109271075D01*
X134203444Y-109293414D01*
X134299951Y-109482820D01*
X134424890Y-109654786D01*
X134575213Y-109805109D01*
X134747179Y-109930048D01*
X134747181Y-109930049D01*
X134747184Y-109930051D01*
X134936588Y-110026557D01*
X135138757Y-110092246D01*
X135348713Y-110125500D01*
X135348714Y-110125500D01*
X135561286Y-110125500D01*
X135561287Y-110125500D01*
X135771243Y-110092246D01*
X135973412Y-110026557D01*
X136162816Y-109930051D01*
X136249138Y-109867335D01*
X136334786Y-109805109D01*
X136334788Y-109805106D01*
X136334792Y-109805104D01*
X136485104Y-109654792D01*
X136485106Y-109654788D01*
X136485109Y-109654786D01*
X136610048Y-109482820D01*
X136610047Y-109482820D01*
X136610051Y-109482816D01*
X136614514Y-109474055D01*
X136662488Y-109423259D01*
X136730308Y-109406463D01*
X136796444Y-109428999D01*
X136835486Y-109474056D01*
X136839951Y-109482820D01*
X136964890Y-109654786D01*
X137115213Y-109805109D01*
X137287179Y-109930048D01*
X137287181Y-109930049D01*
X137287184Y-109930051D01*
X137476588Y-110026557D01*
X137678757Y-110092246D01*
X137888713Y-110125500D01*
X137888714Y-110125500D01*
X138101286Y-110125500D01*
X138101287Y-110125500D01*
X138311243Y-110092246D01*
X138513412Y-110026557D01*
X138702816Y-109930051D01*
X138789138Y-109867335D01*
X138874786Y-109805109D01*
X138874788Y-109805106D01*
X138874792Y-109805104D01*
X139025104Y-109654792D01*
X139025106Y-109654788D01*
X139025109Y-109654786D01*
X139150048Y-109482820D01*
X139150047Y-109482820D01*
X139150051Y-109482816D01*
X139154514Y-109474055D01*
X139202488Y-109423259D01*
X139270308Y-109406463D01*
X139336444Y-109428999D01*
X139375486Y-109474056D01*
X139379951Y-109482820D01*
X139504890Y-109654786D01*
X139655213Y-109805109D01*
X139827179Y-109930048D01*
X139827181Y-109930049D01*
X139827184Y-109930051D01*
X140016588Y-110026557D01*
X140218757Y-110092246D01*
X140428713Y-110125500D01*
X140428714Y-110125500D01*
X140641286Y-110125500D01*
X140641287Y-110125500D01*
X140851243Y-110092246D01*
X141053412Y-110026557D01*
X141242816Y-109930051D01*
X141382854Y-109828308D01*
X141414784Y-109805110D01*
X141414784Y-109805109D01*
X141414792Y-109805104D01*
X141528329Y-109691566D01*
X141589648Y-109658084D01*
X141659340Y-109663068D01*
X141715274Y-109704939D01*
X141732189Y-109735917D01*
X141781202Y-109867328D01*
X141781206Y-109867335D01*
X141867452Y-109982544D01*
X141867455Y-109982547D01*
X141982664Y-110068793D01*
X141982671Y-110068797D01*
X142117517Y-110119091D01*
X142117516Y-110119091D01*
X142124444Y-110119835D01*
X142177127Y-110125500D01*
X143972872Y-110125499D01*
X144032483Y-110119091D01*
X144167331Y-110068796D01*
X144282546Y-109982546D01*
X144368796Y-109867331D01*
X144419091Y-109732483D01*
X144425500Y-109672873D01*
X144425500Y-109499500D01*
X144445185Y-109432461D01*
X144497989Y-109386706D01*
X144549500Y-109375500D01*
X147025902Y-109375500D01*
X147092941Y-109395185D01*
X147138696Y-109447989D01*
X147148640Y-109517147D01*
X147119615Y-109580703D01*
X147113583Y-109587181D01*
X144662584Y-112038181D01*
X144635656Y-112052884D01*
X144609838Y-112069477D01*
X144603637Y-112070368D01*
X144601261Y-112071666D01*
X144574903Y-112074500D01*
X144549499Y-112074500D01*
X144482460Y-112054815D01*
X144436705Y-112002011D01*
X144425499Y-111950500D01*
X144425499Y-111777129D01*
X144425498Y-111777123D01*
X144423850Y-111761795D01*
X144419091Y-111717517D01*
X144417810Y-111714083D01*
X144368797Y-111582671D01*
X144368793Y-111582664D01*
X144282547Y-111467455D01*
X144282544Y-111467452D01*
X144167335Y-111381206D01*
X144167328Y-111381202D01*
X144032482Y-111330908D01*
X144032483Y-111330908D01*
X143972883Y-111324501D01*
X143972881Y-111324500D01*
X143972873Y-111324500D01*
X143972864Y-111324500D01*
X142177129Y-111324500D01*
X142177123Y-111324501D01*
X142117516Y-111330908D01*
X141982671Y-111381202D01*
X141982664Y-111381206D01*
X141867455Y-111467452D01*
X141867452Y-111467455D01*
X141781206Y-111582664D01*
X141781203Y-111582669D01*
X141732189Y-111714083D01*
X141690317Y-111770016D01*
X141624853Y-111794433D01*
X141556580Y-111779581D01*
X141528326Y-111758430D01*
X141414786Y-111644890D01*
X141242820Y-111519951D01*
X141053414Y-111423444D01*
X141053413Y-111423443D01*
X141053412Y-111423443D01*
X140851243Y-111357754D01*
X140851241Y-111357753D01*
X140851240Y-111357753D01*
X140689957Y-111332208D01*
X140641287Y-111324500D01*
X140428713Y-111324500D01*
X140380042Y-111332208D01*
X140218760Y-111357753D01*
X140016585Y-111423444D01*
X139827179Y-111519951D01*
X139655213Y-111644890D01*
X139504890Y-111795213D01*
X139379949Y-111967182D01*
X139375484Y-111975946D01*
X139327509Y-112026742D01*
X139259688Y-112043536D01*
X139193553Y-112020998D01*
X139154516Y-111975946D01*
X139150050Y-111967182D01*
X139025109Y-111795213D01*
X138874786Y-111644890D01*
X138702820Y-111519951D01*
X138513414Y-111423444D01*
X138513413Y-111423443D01*
X138513412Y-111423443D01*
X138311243Y-111357754D01*
X138311241Y-111357753D01*
X138311240Y-111357753D01*
X138149957Y-111332208D01*
X138101287Y-111324500D01*
X137888713Y-111324500D01*
X137840042Y-111332208D01*
X137678760Y-111357753D01*
X137476585Y-111423444D01*
X137287179Y-111519951D01*
X137115213Y-111644890D01*
X136964890Y-111795213D01*
X136839949Y-111967182D01*
X136835484Y-111975946D01*
X136787509Y-112026742D01*
X136719688Y-112043536D01*
X136653553Y-112020998D01*
X136614516Y-111975946D01*
X136610050Y-111967182D01*
X136485109Y-111795213D01*
X136334786Y-111644890D01*
X136162820Y-111519951D01*
X135973414Y-111423444D01*
X135973413Y-111423443D01*
X135973412Y-111423443D01*
X135771243Y-111357754D01*
X135771241Y-111357753D01*
X135771240Y-111357753D01*
X135609957Y-111332208D01*
X135561287Y-111324500D01*
X135348713Y-111324500D01*
X135300042Y-111332208D01*
X135138760Y-111357753D01*
X134936585Y-111423444D01*
X134747179Y-111519951D01*
X134575213Y-111644890D01*
X134424890Y-111795213D01*
X134299951Y-111967179D01*
X134203444Y-112156585D01*
X134203443Y-112156587D01*
X134203443Y-112156588D01*
X134170598Y-112257672D01*
X134137753Y-112358760D01*
X134104500Y-112568713D01*
X134104500Y-112781286D01*
X134131884Y-112954185D01*
X134137754Y-112991243D01*
X134200803Y-113185288D01*
X134203444Y-113193414D01*
X134299951Y-113382820D01*
X134424890Y-113554786D01*
X134575213Y-113705109D01*
X134747179Y-113830048D01*
X134747181Y-113830049D01*
X134747184Y-113830051D01*
X134936588Y-113926557D01*
X135138757Y-113992246D01*
X135348713Y-114025500D01*
X135348714Y-114025500D01*
X135561286Y-114025500D01*
X135561287Y-114025500D01*
X135771243Y-113992246D01*
X135973412Y-113926557D01*
X136162816Y-113830051D01*
X136192868Y-113808217D01*
X136334786Y-113705109D01*
X136334788Y-113705106D01*
X136334792Y-113705104D01*
X136485104Y-113554792D01*
X136485106Y-113554788D01*
X136485109Y-113554786D01*
X136607879Y-113385805D01*
X136610051Y-113382816D01*
X136614514Y-113374055D01*
X136662488Y-113323259D01*
X136730308Y-113306463D01*
X136796444Y-113328999D01*
X136835484Y-113374054D01*
X136837087Y-113377199D01*
X136839951Y-113382820D01*
X136964890Y-113554786D01*
X137115213Y-113705109D01*
X137287179Y-113830048D01*
X137287181Y-113830049D01*
X137287184Y-113830051D01*
X137476588Y-113926557D01*
X137678757Y-113992246D01*
X137888713Y-114025500D01*
X137888714Y-114025500D01*
X138101286Y-114025500D01*
X138101287Y-114025500D01*
X138311243Y-113992246D01*
X138513412Y-113926557D01*
X138702816Y-113830051D01*
X138732868Y-113808217D01*
X138874786Y-113705109D01*
X138874788Y-113705106D01*
X138874792Y-113705104D01*
X139025104Y-113554792D01*
X139025106Y-113554788D01*
X139025109Y-113554786D01*
X139147879Y-113385805D01*
X139150051Y-113382816D01*
X139154514Y-113374055D01*
X139202488Y-113323259D01*
X139270308Y-113306463D01*
X139336444Y-113328999D01*
X139375484Y-113374054D01*
X139377087Y-113377199D01*
X139379951Y-113382820D01*
X139504890Y-113554786D01*
X139655213Y-113705109D01*
X139827179Y-113830048D01*
X139827181Y-113830049D01*
X139827184Y-113830051D01*
X140016588Y-113926557D01*
X140218757Y-113992246D01*
X140428713Y-114025500D01*
X140428714Y-114025500D01*
X140641286Y-114025500D01*
X140641287Y-114025500D01*
X140851243Y-113992246D01*
X141053412Y-113926557D01*
X141242816Y-113830051D01*
X141340986Y-113758727D01*
X141414784Y-113705110D01*
X141414784Y-113705109D01*
X141414792Y-113705104D01*
X141528329Y-113591566D01*
X141589648Y-113558084D01*
X141659340Y-113563068D01*
X141715274Y-113604939D01*
X141732189Y-113635917D01*
X141781202Y-113767328D01*
X141781206Y-113767335D01*
X141867452Y-113882544D01*
X141867455Y-113882547D01*
X141982664Y-113968793D01*
X141982671Y-113968797D01*
X142117517Y-114019091D01*
X142117516Y-114019091D01*
X142124444Y-114019835D01*
X142177127Y-114025500D01*
X143972872Y-114025499D01*
X144032483Y-114019091D01*
X144167331Y-113968796D01*
X144282546Y-113882546D01*
X144368796Y-113767331D01*
X144419091Y-113632483D01*
X144425500Y-113572873D01*
X144425500Y-113399500D01*
X144428050Y-113390814D01*
X144426762Y-113381853D01*
X144437740Y-113357812D01*
X144445185Y-113332461D01*
X144452025Y-113326533D01*
X144455787Y-113318297D01*
X144478021Y-113304007D01*
X144497989Y-113286706D01*
X144508503Y-113284418D01*
X144514565Y-113280523D01*
X144549500Y-113275500D01*
X144788331Y-113275500D01*
X144788347Y-113275501D01*
X144795943Y-113275501D01*
X144954054Y-113275501D01*
X144954057Y-113275501D01*
X145106785Y-113234577D01*
X145174468Y-113195500D01*
X145243716Y-113155520D01*
X145355520Y-113043716D01*
X145355520Y-113043714D01*
X145365724Y-113033511D01*
X145365727Y-113033506D01*
X147707417Y-110691819D01*
X147768740Y-110658334D01*
X147795098Y-110655500D01*
X150543308Y-110655500D01*
X150610347Y-110675185D01*
X150644880Y-110708374D01*
X150713437Y-110806284D01*
X150774954Y-110894141D01*
X150935858Y-111055045D01*
X150935861Y-111055047D01*
X151122266Y-111185568D01*
X151173655Y-111209531D01*
X151226095Y-111255703D01*
X151245247Y-111322896D01*
X151225032Y-111389778D01*
X151179705Y-111431271D01*
X151129288Y-111458219D01*
X151115217Y-111465741D01*
X151115214Y-111465742D01*
X151115200Y-111465751D01*
X150984206Y-111553278D01*
X150984194Y-111553287D01*
X150984189Y-111553290D01*
X150984189Y-111553291D01*
X150907588Y-111616157D01*
X150907585Y-111616160D01*
X150907582Y-111616162D01*
X150796162Y-111727582D01*
X150796160Y-111727585D01*
X150796157Y-111727588D01*
X150768084Y-111761795D01*
X150733287Y-111804194D01*
X150733285Y-111804197D01*
X150644049Y-111937748D01*
X150643169Y-111937160D01*
X150594960Y-111981636D01*
X150539962Y-111994500D01*
X149735037Y-111994500D01*
X149667998Y-111974815D01*
X149666147Y-111973602D01*
X149654181Y-111965606D01*
X149654177Y-111965604D01*
X149508501Y-111905264D01*
X149508489Y-111905261D01*
X149353845Y-111874500D01*
X149353842Y-111874500D01*
X149196158Y-111874500D01*
X149196155Y-111874500D01*
X149041510Y-111905261D01*
X149041498Y-111905264D01*
X148895827Y-111965602D01*
X148895814Y-111965609D01*
X148764711Y-112053210D01*
X148764707Y-112053213D01*
X148653213Y-112164707D01*
X148653210Y-112164711D01*
X148565609Y-112295814D01*
X148565602Y-112295827D01*
X148505264Y-112441498D01*
X148505261Y-112441510D01*
X148474500Y-112596153D01*
X148474500Y-112753846D01*
X148505261Y-112908489D01*
X148505264Y-112908501D01*
X148565602Y-113054172D01*
X148565609Y-113054185D01*
X148653210Y-113185288D01*
X148653213Y-113185292D01*
X148764707Y-113296786D01*
X148764711Y-113296789D01*
X148895814Y-113384390D01*
X148895827Y-113384397D01*
X149041498Y-113444735D01*
X149041503Y-113444737D01*
X149196153Y-113475499D01*
X149196156Y-113475500D01*
X149196158Y-113475500D01*
X149353844Y-113475500D01*
X149353845Y-113475499D01*
X149508497Y-113444737D01*
X149654179Y-113384394D01*
X149785289Y-113296789D01*
X149850260Y-113231817D01*
X149911581Y-113198334D01*
X149937940Y-113195500D01*
X150539962Y-113195500D01*
X150607001Y-113215185D01*
X150643371Y-113252704D01*
X150644049Y-113252252D01*
X150705845Y-113344735D01*
X150733291Y-113385811D01*
X150796157Y-113462412D01*
X150907588Y-113573843D01*
X150984189Y-113636709D01*
X150984198Y-113636715D01*
X150984206Y-113636721D01*
X151115200Y-113724248D01*
X151115205Y-113724251D01*
X151115217Y-113724259D01*
X151115226Y-113724263D01*
X151115228Y-113724265D01*
X151179704Y-113758728D01*
X151229548Y-113807690D01*
X151245009Y-113875828D01*
X151221178Y-113941507D01*
X151173657Y-113980468D01*
X151122264Y-114004433D01*
X150935858Y-114134954D01*
X150774954Y-114295858D01*
X150644432Y-114482265D01*
X150644431Y-114482267D01*
X150548261Y-114688502D01*
X150548258Y-114688511D01*
X150489366Y-114908302D01*
X150489364Y-114908312D01*
X150474500Y-115078214D01*
X150474500Y-115191785D01*
X150489364Y-115361687D01*
X150489366Y-115361697D01*
X150548258Y-115581488D01*
X150548261Y-115581497D01*
X150644431Y-115787732D01*
X150644432Y-115787734D01*
X150774954Y-115974141D01*
X150935858Y-116135045D01*
X150935861Y-116135047D01*
X151122266Y-116265568D01*
X151180275Y-116292618D01*
X151232714Y-116338791D01*
X151251866Y-116405984D01*
X151231650Y-116472865D01*
X151180275Y-116517382D01*
X151122267Y-116544431D01*
X151122265Y-116544432D01*
X150935858Y-116674954D01*
X150774954Y-116835858D01*
X150644432Y-117022265D01*
X150644431Y-117022267D01*
X150548261Y-117228502D01*
X150548258Y-117228511D01*
X150489366Y-117448302D01*
X150489364Y-117448312D01*
X150474500Y-117618214D01*
X150474500Y-117731785D01*
X150489364Y-117901687D01*
X150489366Y-117901697D01*
X150548258Y-118121488D01*
X150548261Y-118121497D01*
X150644431Y-118327732D01*
X150644432Y-118327734D01*
X150659937Y-118349877D01*
X150682264Y-118416083D01*
X150665254Y-118483850D01*
X150614306Y-118531663D01*
X150558362Y-118545000D01*
X141265000Y-118545000D01*
X141265000Y-118950500D01*
X141245315Y-119017539D01*
X141192511Y-119063294D01*
X141141000Y-119074500D01*
X133399500Y-119074500D01*
X133332461Y-119054815D01*
X133286706Y-119002011D01*
X133275500Y-118950500D01*
X133275500Y-116468713D01*
X134134500Y-116468713D01*
X134134500Y-116681286D01*
X134167458Y-116889379D01*
X134167754Y-116891243D01*
X134226377Y-117071666D01*
X134233444Y-117093414D01*
X134329951Y-117282820D01*
X134454890Y-117454786D01*
X134605213Y-117605109D01*
X134777179Y-117730048D01*
X134777181Y-117730049D01*
X134777184Y-117730051D01*
X134966588Y-117826557D01*
X135168757Y-117892246D01*
X135378713Y-117925500D01*
X135378714Y-117925500D01*
X135591286Y-117925500D01*
X135591287Y-117925500D01*
X135801243Y-117892246D01*
X136003412Y-117826557D01*
X136192816Y-117730051D01*
X136279138Y-117667335D01*
X136364786Y-117605109D01*
X136364788Y-117605106D01*
X136364792Y-117605104D01*
X136515104Y-117454792D01*
X136515106Y-117454788D01*
X136515109Y-117454786D01*
X136640048Y-117282820D01*
X136640047Y-117282820D01*
X136640051Y-117282816D01*
X136644514Y-117274054D01*
X136692488Y-117223259D01*
X136760308Y-117206463D01*
X136826444Y-117228999D01*
X136865486Y-117274056D01*
X136869951Y-117282820D01*
X136994890Y-117454786D01*
X137145213Y-117605109D01*
X137317179Y-117730048D01*
X137317181Y-117730049D01*
X137317184Y-117730051D01*
X137506588Y-117826557D01*
X137708757Y-117892246D01*
X137918713Y-117925500D01*
X137918714Y-117925500D01*
X138131286Y-117925500D01*
X138131287Y-117925500D01*
X138341243Y-117892246D01*
X138543412Y-117826557D01*
X138732816Y-117730051D01*
X138819138Y-117667335D01*
X138904786Y-117605109D01*
X138904788Y-117605106D01*
X138904792Y-117605104D01*
X139055104Y-117454792D01*
X139055106Y-117454788D01*
X139055109Y-117454786D01*
X139180048Y-117282820D01*
X139180047Y-117282820D01*
X139180051Y-117282816D01*
X139184514Y-117274054D01*
X139232488Y-117223259D01*
X139300308Y-117206463D01*
X139366444Y-117228999D01*
X139405486Y-117274056D01*
X139409951Y-117282820D01*
X139534890Y-117454786D01*
X139685213Y-117605109D01*
X139857179Y-117730048D01*
X139857181Y-117730049D01*
X139857184Y-117730051D01*
X140046588Y-117826557D01*
X140248757Y-117892246D01*
X140458713Y-117925500D01*
X140458714Y-117925500D01*
X140671286Y-117925500D01*
X140671287Y-117925500D01*
X140881243Y-117892246D01*
X141083412Y-117826557D01*
X141272816Y-117730051D01*
X141444792Y-117605104D01*
X141558329Y-117491566D01*
X141619648Y-117458084D01*
X141689340Y-117463068D01*
X141745274Y-117504939D01*
X141762189Y-117535917D01*
X141811202Y-117667328D01*
X141811206Y-117667335D01*
X141897452Y-117782544D01*
X141897455Y-117782547D01*
X142012664Y-117868793D01*
X142012671Y-117868797D01*
X142147517Y-117919091D01*
X142147516Y-117919091D01*
X142154444Y-117919835D01*
X142207127Y-117925500D01*
X144002872Y-117925499D01*
X144062483Y-117919091D01*
X144197331Y-117868796D01*
X144312546Y-117782546D01*
X144398796Y-117667331D01*
X144449091Y-117532483D01*
X144455500Y-117472873D01*
X144455499Y-115677128D01*
X144449091Y-115617517D01*
X144448346Y-115615520D01*
X144398797Y-115482671D01*
X144398793Y-115482664D01*
X144312547Y-115367455D01*
X144312544Y-115367452D01*
X144197335Y-115281206D01*
X144197328Y-115281202D01*
X144062482Y-115230908D01*
X144062483Y-115230908D01*
X144002883Y-115224501D01*
X144002881Y-115224500D01*
X144002873Y-115224500D01*
X144002864Y-115224500D01*
X142207129Y-115224500D01*
X142207123Y-115224501D01*
X142147516Y-115230908D01*
X142012671Y-115281202D01*
X142012664Y-115281206D01*
X141897455Y-115367452D01*
X141897452Y-115367455D01*
X141811206Y-115482664D01*
X141811203Y-115482669D01*
X141762189Y-115614083D01*
X141720317Y-115670016D01*
X141654853Y-115694433D01*
X141586580Y-115679581D01*
X141558326Y-115658430D01*
X141444786Y-115544890D01*
X141272820Y-115419951D01*
X141083414Y-115323444D01*
X141083413Y-115323443D01*
X141083412Y-115323443D01*
X140881243Y-115257754D01*
X140881241Y-115257753D01*
X140881240Y-115257753D01*
X140719957Y-115232208D01*
X140671287Y-115224500D01*
X140458713Y-115224500D01*
X140410042Y-115232208D01*
X140248760Y-115257753D01*
X140046585Y-115323444D01*
X139857179Y-115419951D01*
X139685213Y-115544890D01*
X139534890Y-115695213D01*
X139409949Y-115867182D01*
X139405484Y-115875946D01*
X139357509Y-115926742D01*
X139289688Y-115943536D01*
X139223553Y-115920998D01*
X139184516Y-115875946D01*
X139180050Y-115867182D01*
X139055109Y-115695213D01*
X138904786Y-115544890D01*
X138732820Y-115419951D01*
X138543414Y-115323444D01*
X138543413Y-115323443D01*
X138543412Y-115323443D01*
X138341243Y-115257754D01*
X138341241Y-115257753D01*
X138341240Y-115257753D01*
X138179957Y-115232208D01*
X138131287Y-115224500D01*
X137918713Y-115224500D01*
X137870042Y-115232208D01*
X137708760Y-115257753D01*
X137506585Y-115323444D01*
X137317179Y-115419951D01*
X137145213Y-115544890D01*
X136994890Y-115695213D01*
X136869949Y-115867182D01*
X136865484Y-115875946D01*
X136817509Y-115926742D01*
X136749688Y-115943536D01*
X136683553Y-115920998D01*
X136644516Y-115875946D01*
X136640050Y-115867182D01*
X136515109Y-115695213D01*
X136364786Y-115544890D01*
X136192820Y-115419951D01*
X136003414Y-115323444D01*
X136003413Y-115323443D01*
X136003412Y-115323443D01*
X135801243Y-115257754D01*
X135801241Y-115257753D01*
X135801240Y-115257753D01*
X135639957Y-115232208D01*
X135591287Y-115224500D01*
X135378713Y-115224500D01*
X135330042Y-115232208D01*
X135168760Y-115257753D01*
X134966585Y-115323444D01*
X134777179Y-115419951D01*
X134605213Y-115544890D01*
X134454890Y-115695213D01*
X134329951Y-115867179D01*
X134233444Y-116056585D01*
X134167753Y-116258760D01*
X134134500Y-116468713D01*
X133275500Y-116468713D01*
X133275500Y-103724038D01*
X134399500Y-103724038D01*
X134399500Y-103975962D01*
X134406722Y-104021557D01*
X134438910Y-104224785D01*
X134516760Y-104464383D01*
X134594259Y-104616481D01*
X134620683Y-104668342D01*
X134631132Y-104688848D01*
X134779201Y-104892649D01*
X134779205Y-104892654D01*
X134957345Y-105070794D01*
X134957350Y-105070798D01*
X135058921Y-105144593D01*
X135161155Y-105218870D01*
X135304184Y-105291747D01*
X135385616Y-105333239D01*
X135385618Y-105333239D01*
X135385621Y-105333241D01*
X135625215Y-105411090D01*
X135874038Y-105450500D01*
X135874039Y-105450500D01*
X136125961Y-105450500D01*
X136125962Y-105450500D01*
X136374785Y-105411090D01*
X136614379Y-105333241D01*
X136838845Y-105218870D01*
X137042656Y-105070793D01*
X137220793Y-104892656D01*
X137368870Y-104688845D01*
X137483241Y-104464379D01*
X137561090Y-104224785D01*
X137600500Y-103975962D01*
X137600500Y-103724038D01*
X137561090Y-103475215D01*
X137483241Y-103235621D01*
X137483239Y-103235618D01*
X137483239Y-103235616D01*
X137424918Y-103121155D01*
X137368870Y-103011155D01*
X137337817Y-102968414D01*
X137220798Y-102807350D01*
X137220794Y-102807345D01*
X137042654Y-102629205D01*
X137042649Y-102629201D01*
X136838848Y-102481132D01*
X136838847Y-102481131D01*
X136838845Y-102481130D01*
X136739590Y-102430557D01*
X136614383Y-102366760D01*
X136374785Y-102288910D01*
X136125962Y-102249500D01*
X135874038Y-102249500D01*
X135800130Y-102261206D01*
X135625214Y-102288910D01*
X135385616Y-102366760D01*
X135161151Y-102481132D01*
X134957350Y-102629201D01*
X134957345Y-102629205D01*
X134779205Y-102807345D01*
X134779201Y-102807350D01*
X134631132Y-103011151D01*
X134516760Y-103235616D01*
X134438910Y-103475214D01*
X134422443Y-103579185D01*
X134399500Y-103724038D01*
X133275500Y-103724038D01*
X133275500Y-89152135D01*
X137949500Y-89152135D01*
X137949500Y-91247870D01*
X137949501Y-91247876D01*
X137955908Y-91307483D01*
X138006202Y-91442328D01*
X138006206Y-91442335D01*
X138092452Y-91557544D01*
X138092455Y-91557547D01*
X138207664Y-91643793D01*
X138207671Y-91643797D01*
X138342517Y-91694091D01*
X138342516Y-91694091D01*
X138349444Y-91694835D01*
X138402127Y-91700500D01*
X140497872Y-91700499D01*
X140557483Y-91694091D01*
X140692331Y-91643796D01*
X140807546Y-91557546D01*
X140893796Y-91442331D01*
X140944091Y-91307483D01*
X140950500Y-91247873D01*
X140950499Y-89152128D01*
X140944091Y-89092517D01*
X140941560Y-89085732D01*
X140893797Y-88957671D01*
X140893793Y-88957664D01*
X140807547Y-88842455D01*
X140807544Y-88842452D01*
X140692335Y-88756206D01*
X140692328Y-88756202D01*
X140557482Y-88705908D01*
X140557483Y-88705908D01*
X140497883Y-88699501D01*
X140497881Y-88699500D01*
X140497873Y-88699500D01*
X140497864Y-88699500D01*
X138402129Y-88699500D01*
X138402123Y-88699501D01*
X138342516Y-88705908D01*
X138207671Y-88756202D01*
X138207664Y-88756206D01*
X138092455Y-88842452D01*
X138092452Y-88842455D01*
X138006206Y-88957664D01*
X138006202Y-88957671D01*
X137955908Y-89092517D01*
X137951395Y-89134500D01*
X137949501Y-89152123D01*
X137949500Y-89152135D01*
X133275500Y-89152135D01*
X133275500Y-67949500D01*
X133295185Y-67882461D01*
X133347989Y-67836706D01*
X133399500Y-67825500D01*
X192350500Y-67825500D01*
X192417539Y-67845185D01*
G37*
%TD.AperFunction*%
%TA.AperFunction,Conductor*%
G36*
X189388919Y-104625716D02*
G01*
X189445591Y-104666583D01*
X189446932Y-104668342D01*
X189517452Y-104762544D01*
X189517455Y-104762547D01*
X189632664Y-104848793D01*
X189632671Y-104848797D01*
X189677618Y-104865561D01*
X189767517Y-104899091D01*
X189827127Y-104905500D01*
X189837685Y-104905499D01*
X189904723Y-104925179D01*
X189925372Y-104941818D01*
X190595591Y-105612037D01*
X190532007Y-105629075D01*
X190417993Y-105694901D01*
X190324901Y-105787993D01*
X190259075Y-105902007D01*
X190242037Y-105965590D01*
X189609728Y-105333282D01*
X189609727Y-105333282D01*
X189570380Y-105387439D01*
X189473904Y-105576782D01*
X189467431Y-105596706D01*
X189427994Y-105654381D01*
X189363635Y-105681580D01*
X189294789Y-105669665D01*
X189243313Y-105622421D01*
X189228550Y-105569354D01*
X189226097Y-105569596D01*
X189225500Y-105563541D01*
X189225500Y-105563536D01*
X189194737Y-105408881D01*
X189184046Y-105383070D01*
X189134396Y-105263203D01*
X189134394Y-105263200D01*
X189134394Y-105263199D01*
X189099694Y-105211267D01*
X189078816Y-105144593D01*
X189097300Y-105077213D01*
X189099676Y-105073514D01*
X189134394Y-105021557D01*
X189134394Y-105021555D01*
X189134397Y-105021552D01*
X189134397Y-105021551D01*
X189177200Y-104918214D01*
X189194737Y-104875875D01*
X189213490Y-104781594D01*
X189226049Y-104718462D01*
X189258434Y-104656551D01*
X189319149Y-104621977D01*
X189388919Y-104625716D01*
G37*
%TD.AperFunction*%
%TD*%
%TA.AperFunction,Conductor*%
%TO.N,Net-(U2-SW)*%
G36*
X186888548Y-94527800D02*
G01*
X186932763Y-94536594D01*
X186962633Y-94542536D01*
X186989309Y-94553585D01*
X187045937Y-94591423D01*
X187066354Y-94611840D01*
X187104192Y-94668468D01*
X187115241Y-94695143D01*
X187129978Y-94769229D01*
X187131400Y-94783666D01*
X187131400Y-95640689D01*
X187129978Y-95655126D01*
X187115241Y-95729212D01*
X187104192Y-95755887D01*
X187066354Y-95812515D01*
X187045939Y-95832931D01*
X187013801Y-95854406D01*
X186972687Y-95866878D01*
X186445734Y-95866878D01*
X186425445Y-95868780D01*
X186415298Y-95869732D01*
X186415294Y-95869733D01*
X186378169Y-95882725D01*
X186353728Y-95886878D01*
X185910484Y-95886878D01*
X185896049Y-95885456D01*
X185877763Y-95881819D01*
X185851090Y-95870770D01*
X185831257Y-95857518D01*
X185800890Y-95815140D01*
X185794916Y-95792844D01*
X185774388Y-95743286D01*
X185774387Y-95743283D01*
X185755235Y-95710110D01*
X185724292Y-95669784D01*
X185709000Y-95624736D01*
X185709000Y-95389978D01*
X185459000Y-95389978D01*
X184848688Y-95389978D01*
X184834251Y-95388556D01*
X184760165Y-95373819D01*
X184733490Y-95362770D01*
X184676862Y-95324932D01*
X184656445Y-95304515D01*
X184618607Y-95247887D01*
X184607558Y-95221211D01*
X184593476Y-95150414D01*
X184593476Y-95121542D01*
X184607558Y-95050744D01*
X184618605Y-95024071D01*
X184656445Y-94967439D01*
X184676862Y-94947023D01*
X184733493Y-94909183D01*
X184760164Y-94898136D01*
X184807305Y-94888759D01*
X184834252Y-94883400D01*
X184848688Y-94881978D01*
X185709000Y-94881978D01*
X185709000Y-94713918D01*
X185711520Y-94694773D01*
X185727690Y-94634426D01*
X185746838Y-94601260D01*
X185783882Y-94564216D01*
X185817048Y-94545068D01*
X185877394Y-94528898D01*
X185896541Y-94526378D01*
X186874112Y-94526378D01*
X186888548Y-94527800D01*
G37*
%TD.AperFunction*%
%TD*%
%TA.AperFunction,Conductor*%
%TO.N,+5V*%
G36*
X185518039Y-70094685D02*
G01*
X185563794Y-70147489D01*
X185575000Y-70199000D01*
X185575000Y-73951000D01*
X185555315Y-74018039D01*
X185502511Y-74063794D01*
X185451000Y-74075000D01*
X183199000Y-74075000D01*
X183131961Y-74055315D01*
X183086206Y-74002511D01*
X183075000Y-73951000D01*
X183075000Y-70199000D01*
X183094685Y-70131961D01*
X183147489Y-70086206D01*
X183199000Y-70075000D01*
X185451000Y-70075000D01*
X185518039Y-70094685D01*
G37*
%TD.AperFunction*%
%TD*%
%TA.AperFunction,Conductor*%
%TO.N,Net-(U2-SW)*%
G36*
X187858073Y-101598128D02*
G01*
X187878465Y-101598998D01*
X187890917Y-101607772D01*
X187905530Y-101612063D01*
X187918893Y-101627485D01*
X187935580Y-101639243D01*
X187949010Y-101662242D01*
X187951285Y-101664867D01*
X187952472Y-101668170D01*
X187953378Y-101669721D01*
X187956273Y-101676849D01*
X187958608Y-101685564D01*
X187962667Y-101692594D01*
X187965887Y-101700523D01*
X187975000Y-101747180D01*
X187975000Y-102387574D01*
X187960624Y-102441228D01*
X187961719Y-102441682D01*
X187958608Y-102449192D01*
X187924500Y-102576486D01*
X187924500Y-102708269D01*
X187958608Y-102835564D01*
X187961718Y-102843071D01*
X187960622Y-102843524D01*
X187975000Y-102897180D01*
X187975000Y-103387574D01*
X187960624Y-103441228D01*
X187961719Y-103441682D01*
X187958608Y-103449192D01*
X187924500Y-103576486D01*
X187924500Y-103708270D01*
X187941011Y-103769889D01*
X187958608Y-103835564D01*
X187961718Y-103843071D01*
X187960622Y-103843524D01*
X187975000Y-103897180D01*
X187975000Y-104387574D01*
X187960624Y-104441228D01*
X187961719Y-104441682D01*
X187958608Y-104449192D01*
X187924500Y-104576486D01*
X187924500Y-104708269D01*
X187958608Y-104835564D01*
X187961718Y-104843071D01*
X187960622Y-104843524D01*
X187975000Y-104897180D01*
X187975000Y-105387574D01*
X187973497Y-105395270D01*
X187974379Y-105399971D01*
X187969812Y-105414134D01*
X187965889Y-105434228D01*
X187962667Y-105442159D01*
X187958608Y-105449192D01*
X187956271Y-105457910D01*
X187953380Y-105465032D01*
X187936241Y-105486605D01*
X187921904Y-105510129D01*
X187914818Y-105513571D01*
X187909918Y-105519740D01*
X187883837Y-105528622D01*
X187875000Y-105532915D01*
X187875000Y-101742378D01*
X187620116Y-101742378D01*
X187618746Y-101729633D01*
X187631152Y-101660874D01*
X187678762Y-101609736D01*
X187742036Y-101592378D01*
X187838491Y-101592378D01*
X187858073Y-101598128D01*
G37*
%TD.AperFunction*%
%TD*%
%TA.AperFunction,Conductor*%
%TO.N,Net-(U2-SW)*%
G36*
X187875000Y-105487045D02*
G01*
X187832909Y-105515170D01*
X187806234Y-105526219D01*
X187732149Y-105540956D01*
X187717712Y-105542378D01*
X185649000Y-105542378D01*
X185596674Y-105520704D01*
X185575000Y-105468378D01*
X185575000Y-101816378D01*
X185579651Y-101790556D01*
X185597150Y-101743558D01*
X185600000Y-101742378D01*
X187875000Y-101742378D01*
X187875000Y-105487045D01*
G37*
%TD.AperFunction*%
%TD*%
%TA.AperFunction,Conductor*%
%TO.N,Net-(U2-SW)*%
G36*
X184445248Y-96926800D02*
G01*
X184489463Y-96935594D01*
X184519333Y-96941536D01*
X184546009Y-96952585D01*
X184602637Y-96990423D01*
X184623054Y-97010840D01*
X184660892Y-97067468D01*
X184671941Y-97094143D01*
X184686678Y-97168229D01*
X184688100Y-97182666D01*
X184688100Y-98065089D01*
X184686678Y-98079526D01*
X184671941Y-98153612D01*
X184660892Y-98180287D01*
X184623054Y-98236915D01*
X184602637Y-98257332D01*
X184546009Y-98295170D01*
X184519334Y-98306219D01*
X184445249Y-98320956D01*
X184430812Y-98322378D01*
X183472188Y-98322378D01*
X183457751Y-98320956D01*
X183383665Y-98306219D01*
X183356990Y-98295170D01*
X183300362Y-98257332D01*
X183279945Y-98236915D01*
X183242107Y-98180287D01*
X183231058Y-98153611D01*
X183216322Y-98079525D01*
X183214900Y-98065089D01*
X183214900Y-97182666D01*
X183216322Y-97168230D01*
X183231058Y-97094144D01*
X183231059Y-97094143D01*
X183231058Y-97094142D01*
X183242105Y-97067471D01*
X183279945Y-97010839D01*
X183300362Y-96990423D01*
X183356993Y-96952583D01*
X183383664Y-96941536D01*
X183430805Y-96932159D01*
X183457752Y-96926800D01*
X183472188Y-96925378D01*
X184430812Y-96925378D01*
X184445248Y-96926800D01*
G37*
%TD.AperFunction*%
%TD*%
%TA.AperFunction,Conductor*%
%TO.N,+12V*%
G36*
X187485148Y-92643800D02*
G01*
X187529363Y-92652594D01*
X187559233Y-92658536D01*
X187585909Y-92669585D01*
X187642537Y-92707423D01*
X187662954Y-92727840D01*
X187700792Y-92784468D01*
X187711841Y-92811143D01*
X187726578Y-92885229D01*
X187728000Y-92899666D01*
X187728000Y-94010689D01*
X187726578Y-94025126D01*
X187711841Y-94099212D01*
X187700792Y-94125887D01*
X187662954Y-94182515D01*
X187642537Y-94202932D01*
X187585909Y-94240770D01*
X187559234Y-94251819D01*
X187485149Y-94266556D01*
X187470712Y-94267978D01*
X185315000Y-94267978D01*
X185315000Y-94397934D01*
X185312478Y-94417088D01*
X185301414Y-94458377D01*
X185282262Y-94491549D01*
X185259171Y-94514640D01*
X185225999Y-94533792D01*
X185184711Y-94544856D01*
X185165557Y-94547378D01*
X184083288Y-94547378D01*
X184068851Y-94545956D01*
X183994765Y-94531219D01*
X183968090Y-94520170D01*
X183911462Y-94482332D01*
X183891045Y-94461915D01*
X183853207Y-94405287D01*
X183842158Y-94378611D01*
X183827422Y-94304525D01*
X183826000Y-94290089D01*
X183826000Y-93915666D01*
X183827422Y-93901230D01*
X183842158Y-93827144D01*
X183853205Y-93800471D01*
X183891045Y-93743839D01*
X183911462Y-93723423D01*
X183968093Y-93685583D01*
X183994764Y-93674536D01*
X184041905Y-93665159D01*
X184068852Y-93659800D01*
X184083288Y-93658378D01*
X184934000Y-93658378D01*
X184934000Y-92899666D01*
X184935422Y-92885230D01*
X184950158Y-92811144D01*
X184950159Y-92811143D01*
X184950158Y-92811142D01*
X184961205Y-92784471D01*
X184999045Y-92727839D01*
X185019462Y-92707423D01*
X185076093Y-92669583D01*
X185102764Y-92658536D01*
X185149905Y-92649159D01*
X185176852Y-92643800D01*
X185191288Y-92642378D01*
X187470712Y-92642378D01*
X187485148Y-92643800D01*
G37*
%TD.AperFunction*%
%TD*%
%TA.AperFunction,Conductor*%
%TO.N,GND*%
G36*
X188824948Y-94519000D02*
G01*
X188869163Y-94527794D01*
X188899033Y-94533736D01*
X188925709Y-94544785D01*
X188982337Y-94582623D01*
X189002754Y-94603040D01*
X189040592Y-94659668D01*
X189051641Y-94686343D01*
X189066378Y-94760429D01*
X189067800Y-94774866D01*
X189067800Y-98013089D01*
X189066378Y-98027526D01*
X189051641Y-98101612D01*
X189040592Y-98128287D01*
X189002754Y-98184915D01*
X188982337Y-98205332D01*
X188925709Y-98243170D01*
X188899034Y-98254219D01*
X188824949Y-98268956D01*
X188810512Y-98270378D01*
X185313488Y-98270378D01*
X185299051Y-98268956D01*
X185224965Y-98254219D01*
X185198290Y-98243170D01*
X185141662Y-98205332D01*
X185121245Y-98184915D01*
X185083407Y-98128287D01*
X185072358Y-98101611D01*
X185057622Y-98027525D01*
X185056200Y-98013089D01*
X185056200Y-96647178D01*
X184806200Y-96647178D01*
X184582220Y-96647178D01*
X184545221Y-96637264D01*
X184525690Y-96625988D01*
X184525681Y-96625984D01*
X184398394Y-96591878D01*
X184398392Y-96591878D01*
X184266608Y-96591878D01*
X184266606Y-96591878D01*
X184139318Y-96625984D01*
X184139311Y-96625987D01*
X184124773Y-96634380D01*
X184073342Y-96642869D01*
X184013766Y-96631019D01*
X183987090Y-96619970D01*
X183930462Y-96582132D01*
X183910045Y-96561715D01*
X183872207Y-96505087D01*
X183861158Y-96478411D01*
X183846422Y-96404325D01*
X183845000Y-96389889D01*
X183845000Y-95995666D01*
X183846422Y-95981230D01*
X183861158Y-95907144D01*
X183872205Y-95880471D01*
X183910045Y-95823839D01*
X183930462Y-95803423D01*
X183987093Y-95765583D01*
X184013764Y-95754536D01*
X184060905Y-95745159D01*
X184087852Y-95739800D01*
X184102288Y-95738378D01*
X185428259Y-95738378D01*
X185447405Y-95740898D01*
X185507349Y-95756960D01*
X185540519Y-95776111D01*
X185577266Y-95812858D01*
X185596418Y-95846031D01*
X185612478Y-95905965D01*
X185615000Y-95925118D01*
X185615000Y-96092378D01*
X187144600Y-96092378D01*
X187394600Y-96092378D01*
X187394600Y-94774866D01*
X187396022Y-94760430D01*
X187410758Y-94686344D01*
X187410759Y-94686343D01*
X187410758Y-94686342D01*
X187421805Y-94659671D01*
X187459645Y-94603039D01*
X187480062Y-94582623D01*
X187536693Y-94544783D01*
X187563364Y-94533736D01*
X187610505Y-94524359D01*
X187637452Y-94519000D01*
X187651888Y-94517578D01*
X188810512Y-94517578D01*
X188824948Y-94519000D01*
G37*
%TD.AperFunction*%
%TD*%
%TA.AperFunction,Conductor*%
%TO.N,GND*%
G36*
X179866039Y-93989663D02*
G01*
X179911794Y-94042467D01*
X179923000Y-94093978D01*
X179923000Y-98095978D01*
X179903315Y-98163017D01*
X179850511Y-98208772D01*
X179799000Y-98219978D01*
X177949400Y-98219978D01*
X177882361Y-98200293D01*
X177836606Y-98147489D01*
X177825400Y-98095978D01*
X177825400Y-94093978D01*
X177845085Y-94026939D01*
X177897889Y-93981184D01*
X177949400Y-93969978D01*
X179799000Y-93969978D01*
X179866039Y-93989663D01*
G37*
%TD.AperFunction*%
%TD*%
M02*
