%TF.GenerationSoftware,KiCad,Pcbnew,9.0.0*%
%TF.CreationDate,2026-03-16T15:39:35-04:00*%
%TF.ProjectId,ece49022-interface,65636534-3930-4323-922d-696e74657266,rev?*%
%TF.SameCoordinates,Original*%
%TF.FileFunction,Paste,Top*%
%TF.FilePolarity,Positive*%
%FSLAX46Y46*%
G04 Gerber Fmt 4.6, Leading zero omitted, Abs format (unit mm)*
G04 Created by KiCad (PCBNEW 9.0.0) date 2026-03-16 15:39:35*
%MOMM*%
%LPD*%
G01*
G04 APERTURE LIST*
G04 Aperture macros list*
%AMRoundRect*
0 Rectangle with rounded corners*
0 $1 Rounding radius*
0 $2 $3 $4 $5 $6 $7 $8 $9 X,Y pos of 4 corners*
0 Add a 4 corners polygon primitive as box body*
4,1,4,$2,$3,$4,$5,$6,$7,$8,$9,$2,$3,0*
0 Add four circle primitives for the rounded corners*
1,1,$1+$1,$2,$3*
1,1,$1+$1,$4,$5*
1,1,$1+$1,$6,$7*
1,1,$1+$1,$8,$9*
0 Add four rect primitives between the rounded corners*
20,1,$1+$1,$2,$3,$4,$5,0*
20,1,$1+$1,$4,$5,$6,$7,0*
20,1,$1+$1,$6,$7,$8,$9,0*
20,1,$1+$1,$8,$9,$2,$3,0*%
G04 Aperture macros list end*
%ADD10R,1.780000X3.560000*%
%ADD11RoundRect,0.160000X-0.197500X-0.160000X0.197500X-0.160000X0.197500X0.160000X-0.197500X0.160000X0*%
%ADD12RoundRect,0.140000X0.140000X0.170000X-0.140000X0.170000X-0.140000X-0.170000X0.140000X-0.170000X0*%
%ADD13RoundRect,0.160000X-0.160000X0.197500X-0.160000X-0.197500X0.160000X-0.197500X0.160000X0.197500X0*%
%ADD14R,0.939800X1.143000*%
%ADD15R,3.800000X2.200000*%
%ADD16RoundRect,0.140000X-0.170000X0.140000X-0.170000X-0.140000X0.170000X-0.140000X0.170000X0.140000X0*%
%ADD17RoundRect,0.160000X0.160000X-0.197500X0.160000X0.197500X-0.160000X0.197500X-0.160000X-0.197500X0*%
%ADD18RoundRect,0.073750X0.651250X0.221250X-0.651250X0.221250X-0.651250X-0.221250X0.651250X-0.221250X0*%
%ADD19RoundRect,0.250000X-0.650000X0.325000X-0.650000X-0.325000X0.650000X-0.325000X0.650000X0.325000X0*%
%ADD20RoundRect,0.140000X-0.140000X-0.170000X0.140000X-0.170000X0.140000X0.170000X-0.140000X0.170000X0*%
%ADD21R,0.965200X0.508000*%
%ADD22RoundRect,0.160000X0.197500X0.160000X-0.197500X0.160000X-0.197500X-0.160000X0.197500X-0.160000X0*%
%ADD23RoundRect,0.250000X-0.675000X-1.625000X0.675000X-1.625000X0.675000X1.625000X-0.675000X1.625000X0*%
%ADD24RoundRect,0.250000X-0.337500X-0.475000X0.337500X-0.475000X0.337500X0.475000X-0.337500X0.475000X0*%
G04 APERTURE END LIST*
D10*
%TO.C,L2*%
X186232500Y-103592378D03*
X176832500Y-103592378D03*
%TD*%
D11*
%TO.C,R6*%
X141580000Y-77300000D03*
X142775000Y-77300000D03*
%TD*%
D12*
%TO.C,C8*%
X185335000Y-92892378D03*
X184375000Y-92892378D03*
%TD*%
D13*
%TO.C,R3*%
X139100000Y-100602500D03*
X139100000Y-101797500D03*
%TD*%
D14*
%TO.C,D5*%
X185886901Y-88628749D03*
X182711901Y-88628749D03*
%TD*%
D15*
%TO.C,A1*%
X152575000Y-69415000D03*
X152575000Y-71955000D03*
X152575000Y-74495000D03*
X152575000Y-77035000D03*
X152575000Y-79575000D03*
X152575000Y-82115000D03*
X152575000Y-84655000D03*
X152575000Y-87195000D03*
X152575000Y-89735000D03*
X152575000Y-92275000D03*
X152575000Y-94815000D03*
X152575000Y-97355000D03*
X152575000Y-99895000D03*
X152575000Y-102435000D03*
X152575000Y-104975000D03*
X152575000Y-107515000D03*
X152575000Y-110055000D03*
X152575000Y-112595000D03*
X152575000Y-115135000D03*
X152575000Y-117675000D03*
X171955000Y-69415000D03*
X171955000Y-71955000D03*
X171955000Y-74495000D03*
X171955000Y-77035000D03*
X171955000Y-79575000D03*
X171955000Y-82115000D03*
X171955000Y-84655000D03*
X171955000Y-87195000D03*
X171955000Y-89735000D03*
X171955000Y-92275000D03*
X171955000Y-94815000D03*
X171955000Y-97355000D03*
X171955000Y-99895000D03*
X171955000Y-102435000D03*
X171955000Y-104975000D03*
X171955000Y-107515000D03*
X171955000Y-110055000D03*
X171955000Y-112595000D03*
X171955000Y-115135000D03*
X171955000Y-117675000D03*
%TD*%
D13*
%TO.C,R7*%
X179075000Y-83480000D03*
X179075000Y-84675000D03*
%TD*%
D16*
%TO.C,R10*%
X180875000Y-95892378D03*
X180875000Y-96852378D03*
%TD*%
D11*
%TO.C,R5*%
X141580000Y-76200000D03*
X142775000Y-76200000D03*
%TD*%
D17*
%TO.C,R8*%
X177875000Y-84672500D03*
X177875000Y-83477500D03*
%TD*%
D16*
%TO.C,R9*%
X180875000Y-93832378D03*
X180875000Y-94792378D03*
%TD*%
D11*
%TO.C,R4*%
X141577500Y-75100000D03*
X142772500Y-75100000D03*
%TD*%
D18*
%TO.C,U2*%
X184785000Y-96142378D03*
X184785000Y-95192378D03*
X184785000Y-94242378D03*
X182475000Y-94242378D03*
X182475000Y-95192378D03*
X182475000Y-96142378D03*
%TD*%
D19*
%TO.C,C7*%
X187150000Y-93692378D03*
X187150000Y-96642378D03*
%TD*%
D20*
%TO.C,R13*%
X178215000Y-93392378D03*
X179175000Y-93392378D03*
%TD*%
%TO.C,R12*%
X176215000Y-93392378D03*
X177175000Y-93392378D03*
%TD*%
D12*
%TO.C,C9*%
X183535000Y-97592378D03*
X182575000Y-97592378D03*
%TD*%
D20*
%TO.C,C12*%
X178215000Y-92292378D03*
X179175000Y-92292378D03*
%TD*%
D21*
%TO.C,MOSFET1*%
X182608101Y-84413750D03*
X182608101Y-86243748D03*
X184436901Y-85328749D03*
%TD*%
D22*
%TO.C,R2*%
X147397500Y-104950000D03*
X146202500Y-104950000D03*
%TD*%
D23*
%TO.C,D1*%
X178375000Y-71975000D03*
X182925000Y-71975000D03*
%TD*%
D24*
%TO.C,C11*%
X176500000Y-94992378D03*
X178575000Y-94992378D03*
%TD*%
%TO.C,C10*%
X176500000Y-97092378D03*
X178575000Y-97092378D03*
%TD*%
D20*
%TO.C,R14*%
X182415000Y-92892378D03*
X183375000Y-92892378D03*
%TD*%
D13*
%TO.C,R1*%
X180875000Y-84580000D03*
X180875000Y-85775000D03*
%TD*%
M02*
