M48
; DRILL file {KiCad 9.0.0} date 2026-03-16T15:39:38-0400
; FORMAT={-:-/ absolute / metric / decimal}
; #@! TF.CreationDate,2026-03-16T15:39:38-04:00
; #@! TF.GenerationSoftware,Kicad,Pcbnew,9.0.0
; #@! TF.FileFunction,Plated,1,4,PTH
FMAT,2
METRIC
; #@! TA.AperFunction,Plated,PTH,ViaDrill
T1C0.300
; #@! TA.AperFunction,Plated,PTH,ComponentDrill
T2C0.800
; #@! TA.AperFunction,Plated,PTH,ComponentDrill
T3C1.000
%
G90
G05
T1
X139.1Y-103.2
X149.275Y-112.675
X150.175Y-87.275
X150.275Y-74.475
X174.475Y-99.875
X175.575Y-112.575
X176.175Y-74.475
X177.875Y-82.224
X178.25Y-90.1
X179.475Y-94.442
X179.475Y-95.357
X179.475Y-96.17
X179.475Y-96.982
X179.475Y-97.795
X180.147Y-92.307
X180.875Y-97.675
X180.913Y-87.313
X181.997Y-92.307
X183.875Y-92.225
X184.325Y-97.775
X184.332Y-97.092
X184.775Y-70.775
X184.775Y-71.975
X184.775Y-73.275
X185.875Y-84.475
X185.875Y-85.275
X185.875Y-86.075
X186.065Y-94.882
X186.065Y-95.542
X186.725Y-94.882
X186.725Y-95.542
X186.75Y-97.8
X187.475Y-102.242
X187.475Y-103.192
X187.475Y-104.192
X187.475Y-105.142
X187.5Y-97.8
X187.825Y-94.942
X187.825Y-95.742
X188.325Y-97.8
X188.425Y-101.492
X188.425Y-102.642
X188.425Y-103.642
X188.425Y-104.642
X188.425Y-105.642
X188.525Y-96.942
X188.599Y-94.942
X188.599Y-95.725
T2
X141.95Y-100.67
X141.95Y-103.21
X141.95Y-105.75
T3
X135.1Y-69.61
X135.1Y-72.15
X135.1Y-74.69
X135.1Y-77.23
X135.455Y-108.775
X135.455Y-112.675
X135.485Y-116.575
X137.82Y-81.05
X137.995Y-108.775
X137.995Y-112.675
X138.025Y-116.575
X139.45Y-90.2
X139.45Y-95.2
X140.36Y-81.05
X140.535Y-108.775
X140.535Y-112.675
X140.565Y-116.575
X142.9Y-81.05
X143.075Y-108.775
X143.075Y-112.675
X143.105Y-116.575
X145.44Y-81.05
X147.98Y-81.05
X148.0Y-89.75
X148.0Y-92.29
X148.0Y-94.83
X148.0Y-97.37
X148.0Y-99.91
X148.0Y-102.45
X162.849Y-99.245
X165.389Y-99.245
X167.929Y-99.245
X190.725Y-103.555
X190.725Y-106.095
X190.725Y-108.635
X190.725Y-111.175
X190.775Y-80.995
X190.775Y-83.535
X190.775Y-86.075
X190.775Y-88.615
X190.775Y-92.5
X190.775Y-95.04
M30
